<svg width="14" height="14" viewBox="0 0 14 14" fill="none" xmlns="http://www.w3.org/2000/svg">
<g id="icon / ionicons / outline / arrow-undo-circle-outline">
<path id="Vector" d="M7.76606 10.2604V8.58511C5.2155 8.58511 3.98915 9.18976 2.91342 10.3214C2.67209 10.575 2.24305 10.3807 2.27478 10.0328C2.51835 7.27436 3.80056 4.77676 7.76606 4.77676V3.10151C7.76634 3.02859 7.78788 2.95734 7.828 2.89657C7.86813 2.83579 7.92509 2.78814 7.99186 2.7595C8.05864 2.73086 8.13229 2.72248 8.20375 2.7354C8.27521 2.74831 8.34134 2.78196 8.39398 2.83218L12.1687 6.4116C12.205 6.44602 12.234 6.48755 12.2539 6.53363C12.2737 6.57972 12.2839 6.62939 12.2839 6.67959C12.2839 6.72979 12.2737 6.77946 12.2539 6.82555C12.234 6.87163 12.205 6.91316 12.1687 6.94757L8.39577 10.5283C8.34329 10.5791 8.27712 10.6132 8.20549 10.6265C8.13385 10.6398 8.05991 10.6317 7.99283 10.6032C7.92576 10.5746 7.86851 10.5269 7.82819 10.466C7.78788 10.405 7.76627 10.3335 7.76606 10.2604Z" fill="#492748"/>
</g>
</svg>
