<svg width="8" height="8" viewBox="0 0 8 8" fill="none" xmlns="http://www.w3.org/2000/svg">
<g id="icon / ionicons / sharp / call-sharp" clip-path="url(#clip0_111_93)">
<path id="Vector" d="M7.26571 5.42652C7.18925 5.34507 6.91928 5.10425 6.42299 4.78565C5.92304 4.46426 5.55434 4.26387 5.44857 4.21714C5.43925 4.21301 5.42898 4.21149 5.41887 4.21276C5.40875 4.21402 5.39917 4.21802 5.39115 4.22432C5.22079 4.35718 4.93397 4.60122 4.91859 4.61441C4.81928 4.69951 4.81928 4.69951 4.73798 4.673C4.59501 4.62613 4.15087 4.39029 3.76386 4.0024C3.37684 3.61451 3.12885 3.15938 3.08197 3.01656C3.05517 2.93511 3.05517 2.93511 3.14057 2.83579C3.15375 2.82041 3.39794 2.5336 3.5308 2.36338C3.5371 2.35537 3.5411 2.34579 3.54236 2.33567C3.54363 2.32555 3.54211 2.31528 3.53798 2.30596C3.49125 2.20005 3.29086 1.8315 2.96947 1.33155C2.65043 0.835403 2.4099 0.565433 2.32846 0.488968C2.32098 0.481915 2.31174 0.477009 2.30172 0.474766C2.29169 0.472523 2.28124 0.473027 2.27147 0.476224C1.98678 0.574059 1.71209 0.698894 1.45116 0.849027C1.19927 0.995456 0.960795 1.16383 0.738514 1.3522C0.730755 1.3588 0.724938 1.36738 0.721686 1.37703C0.718435 1.38668 0.717872 1.39704 0.720057 1.40699C0.750673 1.54966 0.89701 2.14527 1.35111 2.97027C1.81444 3.81226 2.13554 4.24366 2.81596 4.92173C3.49638 5.59981 3.9414 5.94024 4.78427 6.40357C5.60927 6.85767 6.20517 7.00415 6.34755 7.03448C6.35752 7.03664 6.36789 7.03607 6.37756 7.03282C6.38723 7.02957 6.39584 7.02376 6.40248 7.01602C6.59081 6.79374 6.75914 6.55527 6.90551 6.30337C7.05561 6.04243 7.18045 5.76774 7.27831 5.48306C7.28144 5.47337 7.28192 5.46301 7.27971 5.45307C7.27749 5.44313 7.27266 5.43396 7.26571 5.42652Z" fill="white"/>
</g>
<defs>
<clipPath id="clip0_111_93">
<rect width="7.5" height="7.5" fill="white" transform="translate(0.25 0.0045166)"/>
</clipPath>
</defs>
</svg>
