<svg width="8" height="8" viewBox="0 0 8 8" fill="none" xmlns="http://www.w3.org/2000/svg">
<g id="world-wide-signal-svgrepo-com 1" clip-path="url(#clip0_111_328)">
<path id="Vector" d="M4.00818 0.365601C2.14715 0.365601 0.633179 1.87957 0.633179 3.7406C0.633179 5.60163 2.14715 7.11572 4.00818 7.11572C5.86921 7.11572 7.38318 5.60163 7.38318 3.7406C7.38318 1.87957 5.86921 0.365601 4.00818 0.365601ZM6.56643 5.05903H5.30739C5.36542 4.71495 5.40026 4.35164 5.41117 3.98859H6.87592C6.84306 4.37161 6.73494 4.73317 6.56643 5.05903ZM4.00818 6.61962C3.78995 6.61962 3.51443 6.23028 3.32373 5.55488H4.69263C4.50192 6.23041 4.22641 6.61962 4.00818 6.61962ZM3.21028 5.05903C3.15262 4.74185 3.11356 4.38351 3.10178 3.98859H4.91445C4.90267 4.38351 4.86362 4.74173 4.80596 5.05903H3.21028ZM1.14056 3.98859H2.60518C2.6161 4.35164 2.65094 4.71495 2.70897 5.05903H1.45005C1.28154 4.73317 1.17342 4.37161 1.14056 3.98859ZM1.45005 2.42229H2.70909C2.65106 2.76638 2.61622 3.12956 2.60531 3.49261H1.14056C1.17342 3.10959 1.28154 2.74803 1.45005 2.42229ZM4.00818 0.861578C4.22641 0.861578 4.50192 1.2508 4.69263 1.92632H3.32373C3.51443 1.2508 3.78995 0.861578 4.00818 0.861578ZM4.80608 2.42229C4.86374 2.73947 4.9028 3.09769 4.91458 3.49261H3.10178C3.11356 3.09769 3.15262 2.73947 3.21028 2.42229H4.80608ZM5.41117 3.49261C5.40026 3.12956 5.36542 2.76638 5.30739 2.42229H6.56643C6.73494 2.74803 6.84306 3.10959 6.87592 3.49261H5.41117ZM6.24156 1.92632H5.20386C5.11284 1.56624 4.99307 1.24348 4.84551 0.986192C5.40014 1.15507 5.88409 1.48713 6.24156 1.92632ZM3.17085 0.986192C3.02329 1.2436 2.90351 1.56636 2.8125 1.92632H1.77479C2.13227 1.48713 2.61622 1.15507 3.17085 0.986192ZM1.77492 5.55501H2.8125C2.90351 5.91509 3.02329 6.23772 3.17085 6.49513C2.61622 6.32613 2.13227 5.99407 1.77492 5.55501ZM4.84551 6.49513C4.99307 6.23772 5.11284 5.91496 5.20386 5.55501H6.24156C5.88409 5.9942 5.40014 6.32625 4.84551 6.49513Z" fill="white"/>
</g>
<defs>
<clipPath id="clip0_111_328">
<rect width="6.75" height="6.75" fill="white" transform="translate(0.633179 0.365601)"/>
</clipPath>
</defs>
</svg>
