<svg width="8" height="8" viewBox="0 0 8 8" fill="none" xmlns="http://www.w3.org/2000/svg">
<g id="Social" clip-path="url(#clip0_111_83)">
<path id="Vector" d="M7.74813 7.50459V7.50427H7.75V4.75365C7.75 3.40802 7.46031 2.37146 5.88718 2.37146C5.13093 2.37146 4.62343 2.78646 4.41624 3.1799H4.39437V2.49708H2.9028V7.50427H4.45593V5.0249C4.45593 4.37209 4.57968 3.74084 5.38812 3.74084C6.18468 3.74084 6.19656 4.48584 6.19656 5.06677V7.50459H7.74813Z" fill="white"/>
<path id="Vector_2" d="M0.373749 2.49731H1.92875V7.5045H0.373749V2.49731Z" fill="white"/>
<path id="Vector_3" d="M1.15062 0.0045166C0.653437 0.0045166 0.25 0.407954 0.25 0.905142C0.25 1.40233 0.653437 1.8142 1.15062 1.8142C1.64781 1.8142 2.05125 1.40233 2.05125 0.905142C2.05094 0.407954 1.6475 0.0045166 1.15062 0.0045166V0.0045166Z" fill="white"/>
</g>
<defs>
<clipPath id="clip0_111_83">
<rect width="7.5" height="7.5" fill="white" transform="translate(0.25 0.0045166)"/>
</clipPath>
</defs>
</svg>
