<svg width="8" height="7" viewBox="0 0 8 7" fill="none" xmlns="http://www.w3.org/2000/svg">
<path id="Vector" d="M6.93182 0.683105H1.06818C0.809081 0.683383 0.560669 0.786434 0.377455 0.969648C0.19424 1.15286 0.091189 1.40127 0.0909119 1.66038V5.84869C0.091189 6.10779 0.19424 6.3562 0.377455 6.53942C0.560669 6.72263 0.809081 6.82568 1.06818 6.82596H6.93182C7.19092 6.82568 7.43934 6.72263 7.62255 6.53942C7.80576 6.3562 7.90882 6.10779 7.90909 5.84869V1.66038C7.90882 1.40127 7.80576 1.15286 7.62255 0.969648C7.43934 0.786434 7.19092 0.683383 6.93182 0.683105ZM6.68436 2.29962L4.17137 4.25416C4.12237 4.29226 4.06207 4.31294 4 4.31294C3.93793 4.31294 3.87763 4.29226 3.82863 4.25416L1.31564 2.29962C1.28612 2.27732 1.26132 2.24938 1.24269 2.21742C1.22405 2.18545 1.21196 2.1501 1.20711 2.11342C1.20225 2.07675 1.20474 2.03947 1.21441 2.00376C1.22409 1.96805 1.24077 1.93462 1.26348 1.90541C1.28619 1.8762 1.31448 1.8518 1.3467 1.83361C1.37893 1.81543 1.41444 1.80384 1.45119 1.7995C1.48793 1.79516 1.52517 1.79817 1.56074 1.80835C1.59631 1.81853 1.6295 1.83568 1.65839 1.8588L4 3.68002L6.34162 1.8588C6.40017 1.81458 6.47378 1.79519 6.54651 1.80481C6.61925 1.81444 6.68528 1.85231 6.73032 1.91023C6.77536 1.96816 6.79578 2.04148 6.78718 2.11435C6.77858 2.18722 6.74165 2.25377 6.68436 2.29962Z" fill="white"/>
</svg>
