<svg width="8" height="9" viewBox="0 0 8 9" fill="none" xmlns="http://www.w3.org/2000/svg">
<g id="Icons">
<g id="Color-">
<path id="Whatsapp" fill-rule="evenodd" clip-rule="evenodd" d="M3.99884 0.754517C1.79371 0.754517 0 2.54873 0 4.75448C0 5.62926 0.282107 6.44052 0.761668 7.09901L0.263265 8.58515L1.80074 8.09378C2.4331 8.51235 3.18774 8.75452 4.00116 8.75452C6.20629 8.75452 8 6.96024 8 4.75455C8 2.5488 6.20629 0.754583 4.00116 0.754583L3.99884 0.754517ZM2.88214 2.78632C2.80458 2.60056 2.7458 2.59353 2.6283 2.58875C2.58829 2.58643 2.5437 2.58411 2.49427 2.58411C2.34141 2.58411 2.18158 2.62877 2.08517 2.72752C1.96767 2.84745 1.67614 3.12725 1.67614 3.70105C1.67614 4.27485 2.0946 4.82981 2.15099 4.90746C2.20977 4.98497 2.9668 6.17957 4.14221 6.66643C5.06139 7.04738 5.33415 7.01207 5.54335 6.9674C5.84894 6.90157 6.23217 6.67572 6.32857 6.40303C6.42498 6.13019 6.42497 5.89738 6.39671 5.848C6.36851 5.79863 6.29088 5.77049 6.17338 5.71162C6.05588 5.65282 5.48456 5.37063 5.37641 5.333C5.27059 5.29305 5.16954 5.30718 5.08966 5.42007C4.9768 5.57762 4.86634 5.73757 4.77697 5.83393C4.70644 5.90919 4.59119 5.91862 4.49485 5.8786C4.36554 5.82457 4.00355 5.69748 3.55683 5.30008C3.21123 4.99207 2.97616 4.60881 2.90802 4.4936C2.83981 4.37606 2.90098 4.30777 2.95499 4.24432C3.01377 4.17139 3.07017 4.11969 3.12896 4.05146C3.18774 3.9833 3.22065 3.948 3.25827 3.86803C3.29828 3.79044 3.27001 3.71047 3.24181 3.65167C3.21361 3.59287 2.97854 3.01907 2.88214 2.78632Z" fill="white"/>
</g>
</g>
</svg>
