<svg width="8" height="8" viewBox="0 0 8 8" fill="none" xmlns="http://www.w3.org/2000/svg">
<g id="Social" clip-path="url(#clip0_111_89)">
<path id="Subtract" d="M4 1.13245C4.01503 1.13245 6.34952 1.13251 6.93457 1.2926C7.2557 1.37909 7.50916 1.63259 7.5957 1.95374C7.75638 2.54059 7.75 3.76428 7.75 3.76428C7.75 3.77317 7.74952 4.98317 7.5957 5.56799C7.5092 5.88919 7.25581 6.14264 6.93457 6.22913C6.34854 6.38339 4.007 6.38342 4 6.38342C4 6.38342 1.65846 6.38388 1.06543 6.22327C0.74418 6.13676 0.490841 5.88331 0.404297 5.56213C0.251413 4.98725 0.250015 3.7826 0.25 3.75842C0.25 3.75842 0.24986 2.54059 0.404297 1.95374C0.490846 1.63265 0.750484 1.37317 1.06543 1.28674C1.65239 1.13226 4 1.13245 4 1.13245ZM3.25195 4.88245L5.2041 3.75842L3.25195 2.63342V4.88245Z" fill="white"/>
</g>
<defs>
<clipPath id="clip0_111_89">
<rect width="7.5" height="7.5" fill="white" transform="translate(0.25 0.0045166)"/>
</clipPath>
</defs>
</svg>
