<svg width="24" height="25" viewBox="0 0 24 25" fill="none" xmlns="http://www.w3.org/2000/svg">
<path fill-rule="evenodd" clip-rule="evenodd" d="M4.875 7.25C4.57663 7.25 4.29048 7.36853 4.0795 7.5795C3.86853 7.79048 3.75 8.07663 3.75 8.375V19.625C3.75 19.9234 3.86853 20.2095 4.0795 20.4205C4.29048 20.6315 4.57663 20.75 4.875 20.75H16.125C16.2727 20.75 16.419 20.7209 16.5555 20.6644C16.692 20.6078 16.816 20.525 16.9205 20.4205C17.025 20.316 17.1078 20.192 17.1644 20.0555C17.2209 19.919 17.25 19.7727 17.25 19.625V11C17.25 10.5858 17.5858 10.25 18 10.25C18.4142 10.25 18.75 10.5858 18.75 11V19.625C18.75 19.9697 18.6821 20.3111 18.5502 20.6295C18.4183 20.948 18.2249 21.2374 17.9812 21.4812C17.7374 21.7249 17.448 21.9183 17.1295 22.0502C16.8111 22.1821 16.4697 22.25 16.125 22.25H4.875C4.17881 22.25 3.51113 21.9734 3.01884 21.4812C2.52656 20.9889 2.25 20.3212 2.25 19.625V8.375C2.25 7.67881 2.52656 7.01113 3.01884 6.51884C3.51113 6.02656 4.17881 5.75 4.875 5.75H12.7256C13.1398 5.75 13.4756 6.08579 13.4756 6.5C13.4756 6.91421 13.1398 7.25 12.7256 7.25H4.875Z" fill="white"/>
<path fill-rule="evenodd" clip-rule="evenodd" d="M15 3.5C15 3.08579 15.3358 2.75 15.75 2.75H21C21.4142 2.75 21.75 3.08579 21.75 3.5V8.75C21.75 9.16421 21.4142 9.5 21 9.5C20.5858 9.5 20.25 9.16421 20.25 8.75V4.25H15.75C15.3358 4.25 15 3.91421 15 3.5Z" fill="white"/>
<path fill-rule="evenodd" clip-rule="evenodd" d="M21.1553 3.34467C21.4482 3.63756 21.4482 4.11244 21.1553 4.40533L11.0303 14.5303C10.7374 14.8232 10.2626 14.8232 9.96967 14.5303C9.67678 14.2374 9.67678 13.7626 9.96967 13.4697L20.0947 3.34467C20.3876 3.05178 20.8624 3.05178 21.1553 3.34467Z" fill="white"/>
</svg>
