<svg width="16" height="17" viewBox="0 0 16 17" fill="none" xmlns="http://www.w3.org/2000/svg">
<path fill-rule="evenodd" clip-rule="evenodd" d="M7.85469 5.64507C8.05071 5.45057 8.36729 5.4518 8.56179 5.64782L11.0424 8.14782C11.2359 8.34277 11.2359 8.65723 11.0424 8.85218L8.56179 11.3522C8.36729 11.5482 8.05071 11.5494 7.85469 11.3549C7.65867 11.1604 7.65744 10.8438 7.85194 10.6478L9.98312 8.5L7.85194 6.35218C7.65744 6.15616 7.65867 5.83958 7.85469 5.64507Z" fill="#FFA348"/>
<path fill-rule="evenodd" clip-rule="evenodd" d="M4.8125 8.5C4.8125 8.22386 5.03636 8 5.3125 8H10.3428C10.619 8 10.8428 8.22386 10.8428 8.5C10.8428 8.77614 10.619 9 10.3428 9H5.3125C5.03636 9 4.8125 8.77614 4.8125 8.5Z" fill="#FFA348"/>
<path fill-rule="evenodd" clip-rule="evenodd" d="M1.5 8.5C1.5 4.91136 4.41136 2 8 2C11.5886 2 14.5 4.91136 14.5 8.5C14.5 12.0886 11.5886 15 8 15C4.41136 15 1.5 12.0886 1.5 8.5ZM8 3C4.96364 3 2.5 5.46364 2.5 8.5C2.5 11.5364 4.96364 14 8 14C11.0364 14 13.5 11.5364 13.5 8.5C13.5 5.46364 11.0364 3 8 3Z" fill="#FFA348"/>
</svg>
