<svg width="24" height="25" viewBox="0 0 24 25" fill="none" xmlns="http://www.w3.org/2000/svg">
<path d="M19.5 3.25H17.25V2.5C17.25 2.30109 17.171 2.11032 17.0303 1.96967C16.8897 1.82902 16.6989 1.75 16.5 1.75C16.3011 1.75 16.1103 1.82902 15.9697 1.96967C15.829 2.11032 15.75 2.30109 15.75 2.5V3.25H8.25V2.5C8.25 2.30109 8.17098 2.11032 8.03033 1.96967C7.88968 1.82902 7.69891 1.75 7.5 1.75C7.30109 1.75 7.11032 1.82902 6.96967 1.96967C6.82902 2.11032 6.75 2.30109 6.75 2.5V3.25H4.5C4.10218 3.25 3.72064 3.40804 3.43934 3.68934C3.15804 3.97064 3 4.35218 3 4.75V19.75C3 20.1478 3.15804 20.5294 3.43934 20.8107C3.72064 21.092 4.10218 21.25 4.5 21.25H19.5C19.8978 21.25 20.2794 21.092 20.5607 20.8107C20.842 20.5294 21 20.1478 21 19.75V4.75C21 4.35218 20.842 3.97064 20.5607 3.68934C20.2794 3.40804 19.8978 3.25 19.5 3.25ZM6.75 4.75V5.5C6.75 5.69891 6.82902 5.88968 6.96967 6.03033C7.11032 6.17098 7.30109 6.25 7.5 6.25C7.69891 6.25 7.88968 6.17098 8.03033 6.03033C8.17098 5.88968 8.25 5.69891 8.25 5.5V4.75H15.75V5.5C15.75 5.69891 15.829 5.88968 15.9697 6.03033C16.1103 6.17098 16.3011 6.25 16.5 6.25C16.6989 6.25 16.8897 6.17098 17.0303 6.03033C17.171 5.88968 17.25 5.69891 17.25 5.5V4.75H19.5V7.75H4.5V4.75H6.75ZM19.5 19.75H4.5V9.25H19.5V19.75Z" fill="white"/>
</svg>
