<svg width="30" height="31" viewBox="0 0 30 31" fill="none" xmlns="http://www.w3.org/2000/svg">
<path d="M25.3127 6.125H4.68733C4.19004 6.125 3.71312 6.32255 3.36148 6.67418C3.00984 7.02582 2.8123 7.50274 2.8123 8.00003V26.7503C2.81018 27.1077 2.91121 27.4581 3.10328 27.7596C3.29534 28.061 3.57029 28.3005 3.89513 28.4496C4.14335 28.5648 4.41365 28.6248 4.68733 28.6254C5.12749 28.6243 5.55306 28.4674 5.88852 28.1824C5.89411 28.1787 5.89923 28.1744 5.90375 28.1695L9.66788 24.8753H25.3127C25.81 24.8753 26.2869 24.6778 26.6385 24.3261C26.9901 23.9745 27.1877 23.4976 27.1877 23.0003V8.00003C27.1877 7.50274 26.9901 7.02582 26.6385 6.67418C26.2869 6.32255 25.81 6.125 25.3127 6.125ZM25.3127 23.0003H9.66788C9.22633 23.0001 8.79888 23.1557 8.46083 23.4397L8.44676 23.4526L4.68733 26.7503V8.00003H25.3127V23.0003ZM10.3124 13.6251C10.3124 13.3765 10.4112 13.138 10.587 12.9622C10.7628 12.7864 11.0013 12.6876 11.2499 12.6876H18.7501C18.9987 12.6876 19.2372 12.7864 19.413 12.9622C19.5888 13.138 19.6876 13.3765 19.6876 13.6251C19.6876 13.8738 19.5888 14.1122 19.413 14.288C19.2372 14.4639 18.9987 14.5626 18.7501 14.5626H11.2499C11.0013 14.5626 10.7628 14.4639 10.587 14.288C10.4112 14.1122 10.3124 13.8738 10.3124 13.6251ZM10.3124 17.3752C10.3124 17.1265 10.4112 16.8881 10.587 16.7123C10.7628 16.5364 11.0013 16.4377 11.2499 16.4377H18.7501C18.9987 16.4377 19.2372 16.5364 19.413 16.7123C19.5888 16.8881 19.6876 17.1265 19.6876 17.3752C19.6876 17.6238 19.5888 17.8623 19.413 18.0381C19.2372 18.2139 18.9987 18.3127 18.7501 18.3127H11.2499C11.0013 18.3127 10.7628 18.2139 10.587 18.0381C10.4112 17.8623 10.3124 17.6238 10.3124 17.3752Z" fill="white"/>
</svg>
