<svg width="24" height="25" viewBox="0 0 24 25" fill="none" xmlns="http://www.w3.org/2000/svg">
<path d="M17.3018 2.25C17.3303 2.25 17.3583 2.25 17.3868 2.25V6.71072H20.6811V21.0912H22V22.25H2V21.0814H3.32316V9.01314H6.60937V5.04118C6.6859 5.01964 6.75138 4.99928 6.8177 4.98204C9.84158 4.20073 12.8655 3.4202 15.8885 2.63733C16.3613 2.51475 16.8302 2.37963 17.3013 2.25L17.3018 2.25ZM16.0947 21.0806V3.81184C16.0428 3.82281 15.9952 3.83064 15.9489 3.84278C13.3123 4.52266 10.6762 5.2041 8.03839 5.88006C7.90659 5.91374 7.88023 5.97053 7.88065 6.08332C7.8849 7.00797 7.88278 7.93301 7.88363 8.85766C7.88363 8.9074 7.89298 8.95714 7.89978 9.0245H11.2124V21.0806H16.0943H16.0947ZM9.92406 21.0841V10.2006H4.6072V21.0841H9.92406ZM19.3877 21.0821V7.89071H17.3987V21.0821H19.3877Z" fill="white"/>
<path d="M14.4534 9.65615H12.959V6.84766H14.4534V9.65615Z" fill="white"/>
<path d="M14.4597 19.9912H12.9658V17.1973H14.4597V19.9912Z" fill="white"/>
<path d="M14.4546 12.0293V14.8218H12.9658V12.0293H14.4546Z" fill="white"/>
<path d="M5.57227 14.8199V12.0273H7.0626V14.8199H5.57227Z" fill="white"/>
<path d="M5.57227 19.9821V17.1934H7.06209V19.9821H5.57227Z" fill="white"/>
</svg>
