<svg width="24" height="24" viewBox="0 0 24 24" fill="none" xmlns="http://www.w3.org/2000/svg">
<path d="M3 13.1296C3 12.5083 3.50368 12.0046 4.125 12.0046H6.375C6.99632 12.0046 7.5 12.5083 7.5 13.1296V19.8796C7.5 20.501 6.99632 21.0046 6.375 21.0046H4.125C3.50368 21.0046 3 20.501 3 19.8796V13.1296Z" stroke="#0F172A" stroke-width="1.5" stroke-linecap="round" stroke-linejoin="round"/>
<path d="M9.75 8.62964C9.75 8.00832 10.2537 7.50464 10.875 7.50464H13.125C13.7463 7.50464 14.25 8.00832 14.25 8.62964V19.8796C14.25 20.501 13.7463 21.0046 13.125 21.0046H10.875C10.2537 21.0046 9.75 20.501 9.75 19.8796V8.62964Z" stroke="#0F172A" stroke-width="1.5" stroke-linecap="round" stroke-linejoin="round"/>
<path d="M16.5 4.12964C16.5 3.50832 17.0037 3.00464 17.625 3.00464H19.875C20.4963 3.00464 21 3.50832 21 4.12964V19.8796C21 20.501 20.4963 21.0046 19.875 21.0046H17.625C17.0037 21.0046 16.5 20.501 16.5 19.8796V4.12964Z" stroke="#0F172A" stroke-width="1.5" stroke-linecap="round" stroke-linejoin="round"/>
</svg>
