<svg width="18" height="19" viewBox="0 0 18 19" fill="none" xmlns="http://www.w3.org/2000/svg">
<path d="M16.2359 12.5937C16.3102 12.7226 16.3303 12.8757 16.292 13.0195C16.2536 13.1633 16.1599 13.286 16.0312 13.3608L9.28125 17.2983C9.19524 17.3485 9.09746 17.3749 8.99789 17.3749C8.89832 17.3749 8.80054 17.3485 8.71453 17.2983L1.96453 13.3608C1.83775 13.2846 1.74608 13.1616 1.70937 13.0183C1.67265 12.875 1.69385 12.723 1.76836 12.5953C1.84287 12.4675 1.96471 12.3742 2.1075 12.3356C2.25028 12.2971 2.40252 12.3163 2.53125 12.3891L9 16.1614L15.4687 12.3891C15.5977 12.3148 15.7508 12.2946 15.8946 12.333C16.0383 12.3713 16.1611 12.4651 16.2359 12.5937ZM15.4687 9.01408L9 12.7864L2.53125 9.01408C2.40317 8.95032 2.25561 8.93775 2.11859 8.97894C1.98157 9.02014 1.8654 9.11199 1.79372 9.23582C1.72204 9.35964 1.70024 9.50613 1.73276 9.64546C1.76528 9.78479 1.84967 9.9065 1.96875 9.9858L8.71875 13.9233C8.80476 13.9735 8.90254 13.9999 9.00211 13.9999C9.10168 13.9999 9.19946 13.9735 9.28547 13.9233L16.0355 9.9858C16.1003 9.94912 16.1572 9.89993 16.2029 9.84108C16.2485 9.78223 16.2821 9.7149 16.3015 9.64299C16.3209 9.57108 16.3259 9.49603 16.3161 9.42219C16.3063 9.34835 16.2819 9.27719 16.2444 9.21285C16.2069 9.1485 16.1569 9.09225 16.0975 9.04736C16.038 9.00246 15.9703 8.96983 15.8981 8.95134C15.826 8.93284 15.7508 8.92887 15.6771 8.93964C15.6034 8.95041 15.5326 8.97572 15.4687 9.01408ZM1.6875 6.12494C1.68772 6.02642 1.71382 5.92969 1.76318 5.84442C1.81254 5.75915 1.88343 5.68835 1.96875 5.63908L8.71875 1.70158C8.80476 1.65143 8.90254 1.625 9.00211 1.625C9.10168 1.625 9.19946 1.65143 9.28547 1.70158L16.0355 5.63908C16.1204 5.68862 16.1908 5.75955 16.2398 5.8448C16.2887 5.93005 16.3145 6.02664 16.3145 6.12494C16.3145 6.22325 16.2887 6.31984 16.2398 6.40509C16.1908 6.49034 16.1204 6.56126 16.0355 6.6108L9.28547 10.5483C9.19946 10.5985 9.10168 10.6249 9.00211 10.6249C8.90254 10.6249 8.80476 10.5985 8.71875 10.5483L1.96875 6.6108C1.88343 6.56154 1.81254 6.49074 1.76318 6.40547C1.71382 6.3202 1.68772 6.22347 1.6875 6.12494ZM3.36656 6.12494L9 9.41135L14.6334 6.12494L9 2.83854L3.36656 6.12494Z" fill="white"/>
</svg>
