<svg width="33" height="33" viewBox="0 0 33 33" fill="none" xmlns="http://www.w3.org/2000/svg">
<rect x="0.75" y="0.75" width="31.5" height="31.5" rx="15.75" fill="#D67A40"/>
<rect x="0.75" y="0.75" width="31.5" height="31.5" rx="15.75" stroke="#E0E0E0"/>
<path d="M25.7536 15.6695C25.7259 15.4825 25.6635 15.3129 25.5666 15.1605C25.4696 15.0012 25.3485 14.8628 25.203 14.745C25.0576 14.6273 24.8914 14.5373 24.7045 14.475C24.5244 14.4057 24.334 14.3711 24.1332 14.3711C23.7662 14.3711 23.4546 14.4438 23.1983 14.5892C22.9421 14.7277 22.7344 14.9182 22.5751 15.1605C22.4158 15.396 22.2981 15.666 22.2219 15.9707C22.1527 16.2754 22.1181 16.5905 22.1181 16.9159C22.1181 17.2275 22.1527 17.5322 22.2219 17.83C22.2981 18.1208 22.4158 18.384 22.5751 18.6194C22.7344 18.8549 22.9421 19.0453 23.1983 19.1907C23.4546 19.3292 23.7662 19.3985 24.1332 19.3985C24.6318 19.3985 25.0195 19.2461 25.2965 18.9414C25.5804 18.6367 25.7536 18.2351 25.8159 17.7365H27.3947C27.3532 18.2005 27.2458 18.6194 27.0727 18.9934C26.8996 19.3673 26.6711 19.6858 26.3872 19.949C26.1033 20.2121 25.7709 20.4129 25.39 20.5514C25.0092 20.6899 24.5902 20.7592 24.1332 20.7592C23.5653 20.7592 23.0529 20.6622 22.5959 20.4683C22.1458 20.2675 21.7649 19.994 21.4533 19.6477C21.1417 19.3015 20.9028 18.8964 20.7366 18.4325C20.5704 17.9616 20.4873 17.4561 20.4873 16.9159C20.4873 16.362 20.5704 15.8495 20.7366 15.3786C20.9028 14.9008 21.1417 14.4854 21.4533 14.1322C21.7649 13.779 22.1458 13.502 22.5959 13.3012C23.0529 13.1004 23.5653 13 24.1332 13C24.5417 13 24.9261 13.0589 25.2861 13.1766C25.6532 13.2943 25.9786 13.4674 26.2625 13.6959C26.5534 13.9175 26.7923 14.1945 26.9792 14.5269C27.1662 14.8593 27.2839 15.2402 27.3324 15.6695H25.7536Z" fill="white"/>
<path d="M17.8017 19.8558C17.5039 20.1466 17.1854 20.3647 16.8461 20.5101C16.5137 20.6556 16.1363 20.7283 15.7139 20.7283C15.3815 20.7283 15.0664 20.6798 14.7686 20.5828C14.4778 20.4859 14.2251 20.3439 14.0104 20.157C13.7957 19.9631 13.6261 19.7311 13.5014 19.461C13.3768 19.1841 13.3145 18.869 13.3145 18.5158C13.3145 18.2527 13.3595 18.0138 13.4495 17.7991C13.5395 17.5775 13.6607 17.3802 13.813 17.207C13.9723 17.027 14.1523 16.8677 14.3532 16.7292C14.554 16.5907 14.7617 16.4696 14.9764 16.3657C14.7756 16.1233 14.6059 15.881 14.4674 15.6386C14.3359 15.3962 14.2701 15.1123 14.2701 14.7868C14.2701 14.5306 14.322 14.2987 14.4259 14.0909C14.5367 13.8832 14.6821 13.7066 14.8621 13.5612C15.0422 13.4088 15.2465 13.2946 15.475 13.2184C15.7104 13.1353 15.9528 13.0938 16.2021 13.0938C16.486 13.0938 16.7491 13.1318 16.9915 13.208C17.2408 13.2842 17.4554 13.3984 17.6355 13.5508C17.8225 13.6962 17.9679 13.8797 18.0717 14.1013C18.1825 14.3229 18.2379 14.5791 18.2379 14.8699C18.2379 15.3062 18.1098 15.6732 17.8536 15.971C17.6043 16.2687 17.2927 16.518 16.9188 16.7188L17.8744 17.8926C17.9506 17.7541 18.0094 17.6121 18.051 17.4667C18.0925 17.3144 18.1237 17.162 18.1445 17.0097H19.4221C19.3874 17.3421 19.3113 17.6641 19.1936 17.9757C19.0758 18.2873 18.9131 18.5747 18.7054 18.8378L20.2115 20.5932H18.4041L17.8017 19.8558ZM15.7554 17.3213C15.6239 17.3767 15.4957 17.4425 15.3711 17.5187C15.2465 17.5948 15.1357 17.6848 15.0387 17.7887C14.9418 17.8926 14.8621 18.0068 14.7998 18.1315C14.7444 18.2561 14.7167 18.3946 14.7167 18.547C14.7167 18.6785 14.7444 18.8067 14.7998 18.9313C14.8621 19.049 14.9418 19.1529 15.0387 19.2429C15.1357 19.326 15.2465 19.3953 15.3711 19.4507C15.5027 19.4991 15.6377 19.5234 15.7762 19.5234C16.0393 19.5234 16.2679 19.4645 16.4617 19.3468C16.6626 19.2221 16.8495 19.0629 17.0226 18.869L15.7554 17.3213ZM16.9499 14.7868C16.9499 14.593 16.8807 14.4268 16.7422 14.2883C16.6106 14.1498 16.4548 14.0805 16.2748 14.0805C16.0947 14.0805 15.9389 14.1428 15.8074 14.2675C15.6758 14.3852 15.61 14.541 15.61 14.7349C15.61 14.9704 15.6723 15.1712 15.797 15.3374C15.9216 15.5036 16.0532 15.6732 16.1917 15.8463C16.3994 15.7148 16.576 15.5728 16.7214 15.4205C16.8738 15.2681 16.9499 15.0569 16.9499 14.7868Z" fill="white"/>
<path d="M6 13.1758H7.63077V16.0218H10.6326V13.1758H12.2634V20.5922H10.6326V17.3929H7.63077V20.5922H6V13.1758Z" fill="white"/>
</svg>
