<svg width="24" height="25" viewBox="0 0 24 25" fill="none" xmlns="http://www.w3.org/2000/svg">
<path d="M21 4.75V14.5C21 14.8978 20.842 15.2794 20.5607 15.5607C20.2794 15.842 19.8978 16 19.5 16H9.31031L10.2806 16.9694C10.3503 17.0391 10.4056 17.1218 10.4433 17.2128C10.481 17.3039 10.5004 17.4015 10.5004 17.5C10.5004 17.5985 10.481 17.6961 10.4433 17.7872C10.4056 17.8782 10.3503 17.9609 10.2806 18.0306C10.2109 18.1003 10.1282 18.1556 10.0372 18.1933C9.94613 18.231 9.84855 18.2504 9.75 18.2504C9.65145 18.2504 9.55387 18.231 9.46283 18.1933C9.37178 18.1556 9.28906 18.1003 9.21937 18.0306L6.96937 15.7806C6.89964 15.711 6.84432 15.6283 6.80658 15.5372C6.76884 15.4462 6.74941 15.3486 6.74941 15.25C6.74941 15.1514 6.76884 15.0538 6.80658 14.9628C6.84432 14.8717 6.89964 14.789 6.96937 14.7194L9.21937 12.4694C9.36011 12.3286 9.55098 12.2496 9.75 12.2496C9.94902 12.2496 10.1399 12.3286 10.2806 12.4694C10.4214 12.6101 10.5004 12.801 10.5004 13C10.5004 13.199 10.4214 13.3899 10.2806 13.5306L9.31031 14.5H19.5V4.75H9V5.5C9 5.69891 8.92098 5.88968 8.78033 6.03033C8.63968 6.17098 8.44891 6.25 8.25 6.25C8.05109 6.25 7.86032 6.17098 7.71967 6.03033C7.57902 5.88968 7.5 5.69891 7.5 5.5V4.75C7.5 4.35218 7.65804 3.97064 7.93934 3.68934C8.22064 3.40804 8.60218 3.25 9 3.25H19.5C19.8978 3.25 20.2794 3.40804 20.5607 3.68934C20.842 3.97064 21 4.35218 21 4.75ZM15.75 18.25C15.5511 18.25 15.3603 18.329 15.2197 18.4697C15.079 18.6103 15 18.8011 15 19V19.75H4.5V10H14.6897L13.7194 10.9694C13.5786 11.1101 13.4996 11.301 13.4996 11.5C13.4996 11.699 13.5786 11.8899 13.7194 12.0306C13.8601 12.1714 14.051 12.2504 14.25 12.2504C14.449 12.2504 14.6399 12.1714 14.7806 12.0306L17.0306 9.78063C17.1004 9.71097 17.1557 9.62825 17.1934 9.53721C17.2312 9.44616 17.2506 9.34856 17.2506 9.25C17.2506 9.15144 17.2312 9.05384 17.1934 8.96279C17.1557 8.87175 17.1004 8.78903 17.0306 8.71937L14.7806 6.46937C14.6399 6.32864 14.449 6.24958 14.25 6.24958C14.051 6.24958 13.8601 6.32864 13.7194 6.46937C13.5786 6.61011 13.4996 6.80098 13.4996 7C13.4996 7.19902 13.5786 7.38989 13.7194 7.53063L14.6897 8.5H4.5C4.10218 8.5 3.72064 8.65804 3.43934 8.93934C3.15804 9.22064 3 9.60218 3 10V19.75C3 20.1478 3.15804 20.5294 3.43934 20.8107C3.72064 21.092 4.10218 21.25 4.5 21.25H15C15.3978 21.25 15.7794 21.092 16.0607 20.8107C16.342 20.5294 16.5 20.1478 16.5 19.75V19C16.5 18.8011 16.421 18.6103 16.2803 18.4697C16.1397 18.329 15.9489 18.25 15.75 18.25Z" fill="white"/>
</svg>
