<svg width="24" height="24" viewBox="0 0 24 24" fill="none" xmlns="http://www.w3.org/2000/svg">
<path d="M8.88135 17.8502L2.02935 12.9302C1.86833 12.8346 1.73495 12.6987 1.64232 12.5359C1.54969 12.3731 1.50098 12.189 1.50098 12.0017C1.50098 11.8144 1.54969 11.6303 1.64232 11.4676C1.73495 11.3048 1.86833 11.1689 2.02935 11.0732L8.88135 6.15021C9.04469 6.05414 9.23054 6.003 9.42003 6.00197C9.60953 6.00094 9.79592 6.05007 9.96029 6.14436C10.1247 6.23866 10.2612 6.37477 10.3559 6.53887C10.4507 6.70297 10.5003 6.88922 10.4999 7.07871V9.00021C12.7499 9.00021 19.4999 9.00022 20.9999 21.0002C17.2499 14.2502 10.4999 15.0002 10.4999 15.0002V16.9217C10.4999 17.7617 9.59085 18.2687 8.88135 17.8517V17.8502Z" fill="white"/>
</svg>
