<svg width="24" height="25" viewBox="0 0 24 25" fill="none" xmlns="http://www.w3.org/2000/svg">
<path d="M21.5306 5.71899L18.5306 2.71899C18.461 2.64926 18.3783 2.59394 18.2872 2.55619C18.1962 2.51845 18.0986 2.49902 18 2.49902C17.9014 2.49902 17.8038 2.51845 17.7128 2.55619C17.6217 2.59394 17.539 2.64926 17.4694 2.71899L8.46937 11.719C8.39975 11.7887 8.34454 11.8714 8.3069 11.9625C8.26926 12.0535 8.24992 12.1511 8.25 12.2496V15.2496C8.25 15.4485 8.32902 15.6393 8.46967 15.7799C8.61032 15.9206 8.80109 15.9996 9 15.9996H12C12.0985 15.9997 12.1961 15.9804 12.2871 15.9427C12.3782 15.9051 12.4609 15.8499 12.5306 15.7802L21.5306 6.78024C21.6004 6.71058 21.6557 6.62787 21.6934 6.53682C21.7312 6.44577 21.7506 6.34818 21.7506 6.24961C21.7506 6.15105 21.7312 6.05346 21.6934 5.96241C21.6557 5.87136 21.6004 5.78864 21.5306 5.71899ZM11.6897 14.4996H9.75V12.5599L15.75 6.55993L17.6897 8.49961L11.6897 14.4996ZM18.75 7.4393L16.8103 5.49961L18 4.30993L19.9397 6.24961L18.75 7.4393ZM21 11.4996V19.7496C21 20.1474 20.842 20.529 20.5607 20.8103C20.2794 21.0916 19.8978 21.2496 19.5 21.2496H4.5C4.10218 21.2496 3.72064 21.0916 3.43934 20.8103C3.15804 20.529 3 20.1474 3 19.7496V4.74961C3 4.35179 3.15804 3.97026 3.43934 3.68895C3.72064 3.40765 4.10218 3.24961 4.5 3.24961H12.75C12.9489 3.24961 13.1397 3.32863 13.2803 3.46928C13.421 3.60994 13.5 3.8007 13.5 3.99961C13.5 4.19853 13.421 4.38929 13.2803 4.52994C13.1397 4.6706 12.9489 4.74961 12.75 4.74961H4.5V19.7496H19.5V11.4996C19.5 11.3007 19.579 11.1099 19.7197 10.9693C19.8603 10.8286 20.0511 10.7496 20.25 10.7496C20.4489 10.7496 20.6397 10.8286 20.7803 10.9693C20.921 11.1099 21 11.3007 21 11.4996Z" fill="white"/>
</svg>
