<svg width="24" height="25" viewBox="0 0 24 25" fill="none" xmlns="http://www.w3.org/2000/svg">
<path d="M15.75 12.25C15.75 12.4489 15.671 12.6397 15.5303 12.7803C15.3897 12.921 15.1989 13 15 13H9C8.80109 13 8.61032 12.921 8.46967 12.7803C8.32902 12.6397 8.25 12.4489 8.25 12.25C8.25 12.0511 8.32902 11.8603 8.46967 11.7197C8.61032 11.579 8.80109 11.5 9 11.5H15C15.1989 11.5 15.3897 11.579 15.5303 11.7197C15.671 11.8603 15.75 12.0511 15.75 12.25ZM15 14.5H9C8.80109 14.5 8.61032 14.579 8.46967 14.7197C8.32902 14.8603 8.25 15.0511 8.25 15.25C8.25 15.4489 8.32902 15.6397 8.46967 15.7803C8.61032 15.921 8.80109 16 9 16H15C15.1989 16 15.3897 15.921 15.5303 15.7803C15.671 15.6397 15.75 15.4489 15.75 15.25C15.75 15.0511 15.671 14.8603 15.5303 14.7197C15.3897 14.579 15.1989 14.5 15 14.5ZM20.25 4.75V19C20.25 19.7956 19.9339 20.5587 19.3713 21.1213C18.8087 21.6839 18.0456 22 17.25 22H6.75C5.95435 22 5.19129 21.6839 4.62868 21.1213C4.06607 20.5587 3.75 19.7956 3.75 19V4.75C3.75 4.35218 3.90804 3.97064 4.18934 3.68934C4.47064 3.40804 4.85218 3.25 5.25 3.25H6.75V2.5C6.75 2.30109 6.82902 2.11032 6.96967 1.96967C7.11032 1.82902 7.30109 1.75 7.5 1.75C7.69891 1.75 7.88968 1.82902 8.03033 1.96967C8.17098 2.11032 8.25 2.30109 8.25 2.5V3.25H11.25V2.5C11.25 2.30109 11.329 2.11032 11.4697 1.96967C11.6103 1.82902 11.8011 1.75 12 1.75C12.1989 1.75 12.3897 1.82902 12.5303 1.96967C12.671 2.11032 12.75 2.30109 12.75 2.5V3.25H15.75V2.5C15.75 2.30109 15.829 2.11032 15.9697 1.96967C16.1103 1.82902 16.3011 1.75 16.5 1.75C16.6989 1.75 16.8897 1.82902 17.0303 1.96967C17.171 2.11032 17.25 2.30109 17.25 2.5V3.25H18.75C19.1478 3.25 19.5294 3.40804 19.8107 3.68934C20.092 3.97064 20.25 4.35218 20.25 4.75ZM18.75 4.75H17.25V5.5C17.25 5.69891 17.171 5.88968 17.0303 6.03033C16.8897 6.17098 16.6989 6.25 16.5 6.25C16.3011 6.25 16.1103 6.17098 15.9697 6.03033C15.829 5.88968 15.75 5.69891 15.75 5.5V4.75H12.75V5.5C12.75 5.69891 12.671 5.88968 12.5303 6.03033C12.3897 6.17098 12.1989 6.25 12 6.25C11.8011 6.25 11.6103 6.17098 11.4697 6.03033C11.329 5.88968 11.25 5.69891 11.25 5.5V4.75H8.25V5.5C8.25 5.69891 8.17098 5.88968 8.03033 6.03033C7.88968 6.17098 7.69891 6.25 7.5 6.25C7.30109 6.25 7.11032 6.17098 6.96967 6.03033C6.82902 5.88968 6.75 5.69891 6.75 5.5V4.75H5.25V19C5.25 19.3978 5.40804 19.7794 5.68934 20.0607C5.97064 20.342 6.35218 20.5 6.75 20.5H17.25C17.6478 20.5 18.0294 20.342 18.3107 20.0607C18.592 19.7794 18.75 19.3978 18.75 19V4.75Z" fill="white"/>
</svg>
