<svg width="24" height="25" viewBox="0 0 24 25" fill="none" xmlns="http://www.w3.org/2000/svg">
<path d="M19 20.5H5C3.89543 20.5 3 19.6046 3 18.5V9.5C3 8.39543 3.89543 7.5 5 7.5H19C20.1046 7.5 21 8.39543 21 9.5V18.5C21 19.6046 20.1046 20.5 19 20.5Z" stroke="white" stroke-width="1.5"/>
<path d="M16.5 14.5C16.2239 14.5 16 14.2761 16 14C16 13.7239 16.2239 13.5 16.5 13.5C16.7761 13.5 17 13.7239 17 14C17 14.2761 16.7761 14.5 16.5 14.5Z" fill="white" stroke="white" stroke-width="1.5" stroke-linecap="round" stroke-linejoin="round"/>
<path d="M18 7.50041V6.10363C18 4.78957 16.7544 3.83258 15.4847 4.17116L4.48467 7.1045C3.60917 7.33797 3 8.13087 3 9.03697V9.50041" stroke="white" stroke-width="1.5"/>
</svg>
