<svg width="223" height="31" viewBox="0 0 223 31" fill="none" xmlns="http://www.w3.org/2000/svg">
<g clip-path="url(#clip0_1132_12813)">
<path d="M5.25938 24.6956H0V0.882812H5.20352V9.99075H14.8332V0.887567H20.0593V24.6813H14.8677V14.531H5.25938C5.25938 17.9113 5.25938 21.2619 5.25938 24.6956Z" fill="white"/>
<path d="M141.803 24.7339C139.82 24.7339 138.027 24.7458 136.233 24.7172C136.033 24.7137 135.794 24.5235 135.647 24.3547C135.112 23.7426 134.609 23.102 134.059 22.4293C133.672 22.743 133.323 23.0473 132.954 23.3207C130.113 25.4256 126.987 25.7477 123.769 24.4962C119.335 22.7728 118.147 16.9607 121.509 13.5888C122.471 12.6236 123.676 11.901 124.793 11.05C124.478 10.5983 124.073 10.0457 123.698 9.47515C121.264 5.77398 123.265 1.24081 128.197 0.717843C129.69 0.559765 131.157 0.77846 132.516 1.46901C135.548 3.0082 136.49 7.1218 134.323 9.7616C133.493 10.7719 132.388 11.5563 131.367 12.481C132.25 13.5638 133.214 14.7476 134.322 16.1061C134.585 15.2587 134.873 14.5658 134.999 13.8443C135.09 13.3249 135.294 13.2037 135.77 13.2156C136.9 13.2417 138.033 13.2239 139.234 13.2239C139.061 15.2135 138.471 16.9678 137.372 18.5237C137.025 19.0145 137.083 19.2772 137.458 19.7003C138.886 21.3037 140.268 22.9475 141.803 24.7339ZM131.516 19.2142C130.511 17.9876 129.544 16.8098 128.581 15.6283C127.339 14.1046 127 14.0796 125.512 15.4346C125.295 15.6331 125.087 15.8482 124.906 16.08C123.399 18.0209 124.299 20.5941 126.696 21.1706C128.715 21.6579 130.145 20.6357 131.516 19.2142ZM128.728 9.53815C130.03 8.6705 131.176 7.93002 131.287 6.36826C131.356 5.3972 130.989 4.62107 130.155 4.11594C129.377 3.64527 128.583 3.72371 127.863 4.24668C127.074 4.81837 126.769 5.67414 127.113 6.53822C127.523 7.56632 128.16 8.50648 128.728 9.53815Z" fill="white"/>
<path d="M163.926 8.84581H158.859C158.279 6.61607 156.864 5.24328 154.614 4.82966C151.677 4.29006 149.169 5.62481 148.03 8.39059C146.866 11.2205 146.823 14.1266 147.928 16.9839C149.099 20.0088 151.989 21.4647 155.131 20.672C157.408 20.0967 158.396 18.3721 158.896 16.2565C158.947 16.0425 158.982 15.8238 159.03 15.5719H164.139C164.022 16.228 163.943 16.8722 163.792 17.4997C162.676 22.1636 158.959 25.0792 154.163 25.1731C150.46 25.2456 147.238 24.2044 144.777 21.3304C142.78 18.9973 141.972 16.2006 141.903 13.1864C141.836 10.2103 142.471 7.39814 144.203 4.91286C146.215 2.02347 149.05 0.552035 152.508 0.278666C155.484 0.0433315 158.265 0.64712 160.63 2.5916C162.575 4.18784 163.609 6.28565 163.926 8.84581Z" fill="white"/>
<path d="M222.056 7.3929C220.004 9.57509 217.983 11.724 215.88 13.9597C218.157 17.4006 220.533 20.9924 223.004 24.7257H220.564C219.65 24.7257 218.735 24.7007 217.822 24.7364C217.366 24.7542 217.119 24.5902 216.886 24.2051C215.457 21.841 214.002 19.4936 212.494 17.0416C211.895 17.6276 211.317 18.1529 210.795 18.7306C210.661 18.8803 210.674 19.1917 210.673 19.4283C210.664 21.1564 210.668 22.8834 210.668 24.6686H205.969V0.886719H210.642V13.5782C210.927 13.3143 211.089 13.18 211.234 13.029C212.896 11.3021 214.542 9.56083 216.227 7.85762C216.47 7.61278 216.887 7.42499 217.23 7.41548C218.834 7.36675 220.439 7.3929 222.056 7.3929Z" fill="white"/>
<path d="M102.107 17.1693H89.6826C89.3629 19.9529 91.4869 21.9509 94.2883 21.5729C95.5981 21.3958 96.6856 20.8538 97.3976 19.6807C97.4808 19.544 97.6876 19.4014 97.8385 19.399C99.0948 19.3764 100.351 19.3859 101.699 19.3859C101.035 21.4849 100.02 23.2297 98.0418 24.1758C95.0823 25.5914 92.0514 25.6247 89.1288 24.1259C86.2061 22.6283 85.0282 19.9719 84.8214 16.8317C84.5528 12.755 86.489 8.866 90.6537 7.54075C96.1995 5.77693 101.233 8.73882 101.944 14.8338C102.028 15.5635 102.047 16.3004 102.107 17.1693ZM89.6494 14.1527H97.1729C96.9364 11.8053 95.4578 10.5062 93.2222 10.6441C91.0994 10.7748 89.6291 12.207 89.6494 14.1527Z" fill="white"/>
<path d="M39.9589 17.1609H27.5717C27.1058 19.8161 29.3141 21.9306 32.1156 21.5752C33.4254 21.4088 34.5153 20.8704 35.2427 19.708C35.3378 19.5558 35.5683 19.4013 35.7395 19.3978C36.9732 19.3716 38.2081 19.3835 39.5548 19.3835C38.9926 21.2139 38.1273 22.7436 36.5715 23.7942C31.223 27.4051 23.9549 24.3648 22.7961 18.0428C21.9534 13.4443 24.1427 9.12147 28.2052 7.65122C33.4848 5.74002 39.0152 8.3085 39.7996 14.8016C39.89 15.5516 39.903 16.3111 39.9589 17.1609ZM27.504 14.1586H35.0276C34.841 11.8789 33.3695 10.5501 31.1695 10.6405C29.017 10.7284 27.5123 12.1523 27.504 14.1586Z" fill="white"/>
<path d="M103.606 30.7979V26.7616C104.167 26.8008 104.68 26.8222 105.19 26.8745C107.659 27.1265 108.712 25.7608 107.839 23.4158C105.958 18.3597 104.068 13.3071 102.183 8.25333C102.107 8.0489 102.033 7.84209 101.918 7.52237C103.576 7.52237 105.164 7.50691 106.751 7.54851C106.898 7.55208 107.094 7.90627 107.169 8.12972C108.345 11.6312 109.505 15.1387 110.669 18.6449C110.723 18.8066 110.787 18.9646 110.899 19.2653C111.054 18.8279 111.178 18.513 111.28 18.1921C112.343 14.8605 113.413 11.5314 114.451 8.19153C114.607 7.69233 114.809 7.48314 115.365 7.50216C116.746 7.54851 118.129 7.51761 119.623 7.51761C119.449 7.98709 119.301 8.3912 119.151 8.79413C116.927 14.7738 114.707 20.7546 112.477 26.7319C111.362 29.7211 109.804 30.7896 106.603 30.7967C105.62 30.8003 104.636 30.7967 103.606 30.7967V30.7979Z" fill="white"/>
<path d="M194.271 25.236C189.567 25.1624 186.331 22.6604 185.554 18.151C184.919 14.4629 185.606 11.0625 188.833 8.68416C192.533 5.95761 198.503 6.65054 201.289 10.0974C203.13 12.3758 203.514 15.0477 203.106 17.867C202.564 21.6181 200.306 24.101 196.687 24.9223C195.899 25.1017 195.077 25.135 194.271 25.236ZM198.536 16.3944C198.458 15.6004 198.422 15.0323 198.342 14.4713C198.015 12.175 196.583 10.7499 194.513 10.6393C192.468 10.53 190.934 11.6984 190.409 13.8461C190.009 15.4792 190.014 17.1324 190.504 18.7501C191.065 20.603 192.418 21.5967 194.28 21.6014C196.164 21.605 197.511 20.6482 198.074 18.7881C198.327 17.9466 198.412 17.0528 198.536 16.3944Z" fill="white"/>
<path d="M174.8 7.0752C180.079 7.07877 183.621 10.6159 183.666 15.9074C183.691 18.8669 182.881 21.4603 180.489 23.3882C176.881 26.2978 168.363 26.2348 166.267 19.416C165.556 17.1066 165.582 14.7818 166.392 12.5034C167.63 9.01731 170.682 7.07163 174.8 7.0752ZM170.489 15.7873C170.606 16.8012 170.644 17.4941 170.774 18.1692C171.16 20.1874 172.446 21.4069 174.325 21.5887C176.206 21.7706 177.773 20.8601 178.409 19.0797C179.131 17.0603 179.134 14.9981 178.331 12.9978C177.694 11.4099 176.418 10.6504 174.726 10.6433C173.061 10.6373 171.778 11.3695 171.176 12.9384C170.794 13.9344 170.665 15.0255 170.489 15.7873Z" fill="white"/>
<path d="M57.9063 24.6918H53.1663V23.8681C53.1651 20.8527 53.171 17.8373 53.1556 14.8219C53.1532 14.2823 53.0974 13.7368 53.0047 13.2043C52.742 11.6889 52.0372 11.0019 50.6049 10.8082C49.0265 10.5942 47.5206 11.2194 47.0832 12.5102C46.7255 13.5645 46.5472 14.7174 46.5139 15.8346C46.4343 18.5017 46.4878 21.1724 46.4878 23.8419V24.6822H41.793V7.56817H46.2798V9.66598C47.1653 8.67947 48.1007 7.88789 49.3237 7.46952C51.0471 6.8788 52.7741 6.91446 54.482 7.48021C56.4218 8.12322 57.3999 9.59704 57.7161 11.5356C57.8623 12.4329 57.9312 13.3529 57.9384 14.2633C57.9645 17.5509 57.9491 20.8384 57.9467 24.1248C57.9479 24.2936 57.9241 24.4635 57.9063 24.6918Z" fill="white"/>
<path d="M75.3735 12.5364H70.9223C70.7844 11.6616 70.4873 10.9033 69.5804 10.5634C68.38 10.1129 67.151 9.99522 65.9767 10.5146C65.5809 10.6893 65.1578 11.2444 65.1186 11.6592C65.0805 12.0728 65.4038 12.7658 65.7545 12.9238C66.8194 13.4064 67.9664 13.7142 69.0955 14.0423C70.2306 14.3715 71.4037 14.5795 72.5209 14.9551C74.1647 15.5078 75.5268 16.4574 75.8156 18.3116C76.1544 20.495 75.5422 22.3753 73.6905 23.7302C72.5174 24.5884 71.16 24.9259 69.7445 25.0757C67.7857 25.2825 65.8448 25.2135 63.9645 24.5646C61.3972 23.6767 59.8616 21.5872 59.9531 19.1222H64.371C64.5017 20.2097 64.9676 21.1261 66.0266 21.6075C67.176 22.1292 68.361 22.1863 69.559 21.7715C69.7444 21.7073 69.9287 21.6312 70.0975 21.5326C70.7678 21.1427 71.1565 20.5877 71.1089 19.7783C71.0649 19.0247 70.5693 18.5933 69.9489 18.3865C68.7116 17.974 67.4446 17.6567 66.1895 17.3001C65.1946 17.0172 64.1772 16.7973 63.2109 16.4396C61.604 15.8453 60.4273 14.8029 60.2966 12.9702C60.1528 10.9449 60.7815 9.18462 62.6523 8.22546C63.7446 7.66564 65.0069 7.33998 66.2299 7.15813C67.9438 6.90378 69.6838 7.02026 71.3645 7.53371C73.7856 8.27419 75.3758 10.2377 75.3735 12.5364Z" fill="white"/>
<path d="M82.6089 24.6948H77.9688V0.886719H82.6089V24.6948Z" fill="white"/>
</g>
<defs>
<clipPath id="clip0_1132_12813">
<rect width="223" height="30.5674" fill="white" transform="translate(0 0.230469)"/>
</clipPath>
</defs>
</svg>
