<?xml version="1.0" encoding="utf-8"?>
<!-- Generator: Adobe Illustrator 28.1.0, SVG Export Plug-In . SVG Version: 6.00 Build 0)  -->
<svg version="1.1" id="Layer_1" xmlns="http://www.w3.org/2000/svg" xmlns:xlink="http://www.w3.org/1999/xlink" x="0px" y="0px"
	 viewBox="0 0 1200 912" style="enable-background:new 0 0 1200 912;" xml:space="preserve">
<style type="text/css">
	.st0{fill:#1E3961;}
</style>
<g>
	<path class="st0" d="M212.4,8c8.9,0.5,19,0.6,29,1.9c9.4,1.2,18.8,3.6,28.1,5.7c13.1,3,25.9,7.1,38.3,12.4
		c6.4,2.7,12.8,5.4,19.1,8.3c5.3,2.5,10.4,5.2,15.6,8c9.1,4.8,17.9,10.1,26.2,16.2c10.7,8,21.5,15.8,32.1,23.9
		c4.2,3.2,8,7,11.8,10.6c10.1,9.6,20.4,19.1,30.2,29c6.9,7,13,14.6,19.5,22c4.7,5.3,9.5,10.6,14,16.1c5.1,6.3,10.1,12.7,14.9,19.2
		c8.1,10.9,16.2,21.7,24,32.9c8.3,12,16.2,24.2,24.1,36.4c5.7,8.8,11.4,17.6,16.8,26.7c4.4,7.3,8.1,15.1,12.2,22.6
		c4.8,8.7,9.7,17.4,14.6,26.1c1.4,2.6,2.7,5.2,4.1,7.9c6.1,12.2,12.1,24.4,18.2,36.6c2.8,5.5,5.7,11,8.4,16.5
		c1.4,2.9,2.8,5.8,4.1,8.8c6.2,14,12.4,28,18.6,42c4.7,10.7,9.4,21.3,13.9,32.1c2.9,7,5.3,14.2,8,21.3c0.7,2,1.7,3.8,2.6,5.7
		c0.7,1.4,1.5,2.7,2,4.2c2.5,7,4.7,14.2,7.2,21.2c4.8,13.2,9.9,26.3,14.5,39.6c4.1,11.8,7.6,23.8,11.5,35.7
		c1.1,3.5,2.5,6.8,3.9,10.2c1.4,3.5,4.2,5.3,7.5,6c7.7,1.6,14.6,5.3,21.9,7.8c5.6,1.9,11.4,3.5,17.1,5.3c6.3,2,12.6,4.2,18.9,6.3
		c0.3,0.1,0.5,0.2,0.8,0.2c1.6-0.2,3.7,0.1,4.6-0.8c1.4-1.4,0.5-3.5-0.5-5.1c-8-12.8-13.3-27-18.7-41c-6.3-16.5-11.7-33.4-17.1-50.3
		c-2.4-7.5-3.4-15.4-5.8-22.9c-3.5-10.6-5.3-21.6-7.6-32.5c-2.2-10.3-4.8-20.6-5.7-31.2c-0.4-5.5-2-10.8-2.9-16.2
		c-0.7-4-1.1-8.1-1.6-12.1c-0.2-1.3-0.1-2.5-0.3-3.8c-3.2-19.8-5-39.7-6.3-59.7c-1-16.9-1.8-33.8-2.7-50.7c-0.2-3.2-0.4-6.5-0.5-9.7
		c-0.1-2.1-0.1-4.3,0.2-6.3c1-7.2,6.5-10.3,12.7-6.7c7,4.1,14,8.5,20.5,13.5c8.8,6.8,17.5,13.9,25.5,21.7c7,6.9,13,15,19.4,22.6
		c8.8,10.6,15.3,22.8,21.9,34.8c1.3,2.3,2.1,4.9,3,7.4c5.6,15.2,10.1,30.7,11.7,47c1.1,11.2,1.9,22.3,0.4,33.3
		c-2.3,17.6-5.6,35-11.7,51.8c-5.6,15.3-12.4,30.2-14.5,46.6c-1.1,8.5-2.4,17-3.3,25.6c-1,8.8,0.7,17.5,1.7,26.1
		c0.5,4.6,1.4,9.2,2.3,13.8c0.5,2.4,1.4,4.8,2.4,7.1c1.7,3.8,5,5.3,8.9,6c9.7,1.5,19.4,3.1,29,5c6,1.1,11.8,3.1,17.8,4.1
		c13.3,2.3,26.1,6.4,39.2,9.4c13,2.9,25.8,6.2,38.5,10.5c8.4,2.9,17.1,4.9,25.5,7.8c13.5,4.6,27,9.2,40.3,14.4
		c14.2,5.5,28.3,11.4,42.2,17.7c12,5.5,24,10.8,35.4,17.5c6.7,4,13.8,7.2,20.6,11c5.2,2.9,10.3,6.1,15.3,9.3
		c9.5,6.1,19.3,11.7,28.2,18.5c9.2,6.9,19,13.1,27.2,21.4c8.1,8.3,16.6,16.2,24.8,24.3c1.3,1.3,2.3,2.8,3.4,4.3c2.1,3,1.9,5.2-0.4,8
		c-2.9,3.6-6.9,5.7-10.8,7.8c-11.3,6-22.6,11.9-34,17.8c-2.3,1.2-4.9,1.9-7.3,2.9c-4.9,2-9.8,3.9-14.6,6
		c-10.6,4.5-21.3,8.8-32.3,12.1c-6.5,1.9-12.7,4.8-19.2,6.8c-8.5,2.6-17,4.8-25.6,7.1c-0.5,0.1-1.1,0.2-1.6,0.4
		c-11.8,4.6-24.6,5.5-36.5,9.8c-0.8,0.3-1.6,0.4-2.4,0.6c-11.6,1.7-23.3,3.3-34.9,5.1c-13.9,2.2-27.8,2.8-41.8,3.2
		c-13,0.4-26-0.2-39-0.4c-3.5-0.1-6.9-0.3-10.4-0.5c-16.6-1.2-33-3.3-49.2-7.1c-11.3-2.7-22.5-5.8-33.6-9.5
		c-11.6-3.8-23.2-7.7-34.2-13c-5.5-2.6-10.9-5.5-16.3-8.3c-6.6-3.5-13.3-7-19.8-10.6c-7.5-4.2-14.6-9.2-21.3-14.6
		c-2.2-1.8-4.5-2.6-7.2-2.7c-4.6-0.2-9,0.1-13.5,1.5c-4.3,1.3-9,1.8-13.5,2.4c-10.3,1.4-20.5,3-30.9,3.6c-6.9,0.4-13.8,1.2-20.7,1.6
		c-6.5,0.4-13,0.5-19.5,0.5c-9.1,0-18.3,0.4-27.4-0.2c-15.7-1-31.5-1.3-47.1-4.6c-6-1.2-12-2.2-18-3.2c-12.1-2-23.7-5.5-35.2-9.8
		c-3.5-1.3-7.3-1.9-10.7-3.4c-10.6-4.6-21.1-9.3-31.5-14.1c-11.6-5.3-21.7-12.9-31.7-20.6c-3.3-2.6-6.7-5-10.1-7.4
		c-7.5-5.4-13.6-12.3-20-19c-11.2-11.6-20.6-24.7-29.3-38.3c-6.8-10.6-12.4-22-17.3-33.7c-4.1-9.8-7.8-19.9-11.2-30
		c-4.3-12.5-7.9-25.3-9.6-38.5c-0.4-3-1.9-5.9-2.4-9c-0.6-3.6-1-7.3-0.7-10.9c0.4-4.7,2.9-7,7.6-7.4c3.4-0.3,6.9-0.4,10.4-0.2
		c10.6,0.9,21.1,2.4,31.6,4.3c14.6,2.7,28.2,7.9,42.2,12.5c9.3,3.1,18,7.2,26.5,11.9c2.2,1.2,4.7,1.9,6.8,3.2
		c7.4,4.6,15,9.1,22.1,14.2c8.1,5.9,15.8,12.3,23.6,18.7c9.3,7.5,17.1,16.4,24.6,25.7c6.1,7.5,11.8,15.2,17.6,23
		c3.7,4.9,6.8,10.3,10.7,15c6.2,7.6,13.3,14.3,20.8,20.5c6.8,5.6,13.1,11.8,20.2,16.9c9.3,6.8,19.1,13,28.7,19.3
		c4.5,3,9.2,5.8,13.9,8.4c15.1,8.5,31.2,14.3,47.6,19.6c2.8,0.9,5.4,2.1,8.2,3c1.7,0.6,3.4,1.2,5.2,1.3c2.8,0.2,3.9-1.7,2.3-4.1
		c-1.2-1.8-2.9-3.4-4.5-4.9c-4.1-3.6-8.7-6.6-12.4-10.5c-5.9-6.1-11.2-12.8-16.8-19.3c-3.7-4.2-7.3-8.4-11-12.7
		c-1.3-1.5-2.6-2.9-3.7-4.5c-7.4-10.3-14.7-20.8-21.9-31.3c-6.3-9.1-12-18.6-17.6-28.2c-9.1-15.6-18-31.4-25.1-48.1
		c-3.4-8-7.3-15.8-11-23.7c-0.8-1.8-1.4-3.7-2.2-5.5c-3.2-7.5-6.5-14.9-9.4-22.5c-2.3-6-4.2-12.2-6.4-18.3c-1.4-3.8-3-7.6-4.3-11.4
		c-1.9-5.2-3.7-10.3-5.3-15.6c-2.1-6.6-4-13.2-5.8-19.8c-4.4-16-8.9-32-13.1-48.1c-1.9-7.1-3.2-14.3-4.8-21.4
		c-1.2-5.1-2.7-10.1-3.9-15.1c-1.2-5.1-2.2-10.2-3.2-15.3c-2-10.1-3.9-20.2-5.8-30.3c-2.4-12.9-4.9-25.8-7.1-38.7
		c-0.6-3.5-0.5-7-1-10.5c-0.8-5.4-1.7-10.9-3-16.2c-2.1-8.8-4.5-17.5-6.8-26.2c-0.6-2.4-1.4-4.9-2.2-7.3c-0.5-1.6-1.2-3.2-1.6-4.8
		c-3.1-11-5.8-22.1-9.3-32.9c-4.7-14.7-10-29.3-15.2-43.9c-1.1-3-2.9-5.8-4.1-8.8c-3.7-8.7-7.1-17.4-11-26
		c-4-8.7-8.3-17.2-12.6-25.7c-3.3-6.4-6.5-12.8-10.3-18.8c-4.9-8-10-15.9-15.7-23.3c-3.8-5-8.9-8.9-15.7-9.4c-1.2-0.1-2.5-0.5-3.6-1
		c-9.6-4-19.7-5.4-29.8-7.3c-19.5-3.6-39.1-3.8-58.8-3.3c-11.1,0.3-22.1,1.4-33.1,2.9c-12.3,1.6-24.6,3.9-36.9,6.1
		c-3.7,0.7-7.1,2.4-10.7,3.2c-10.5,2.4-21,5.3-31.7,6.8c-12.6,1.8-25.1,4.5-38,3.8c-6.6-0.3-13.3,0-19.9-0.1c-2.5,0-5-0.4-7.4-0.8
		c-4.1-0.7-8.2-1.6-12.3-2.2c-12.3-1.8-23.9-5.8-35.2-11.1c-2-1-4-1.9-6-2.8c-9.5-4.6-17.5-11.3-25.1-18.5
		c-5.4-5.2-4.8-11.4,1.6-15.4c4.8-3,9.9-5.6,14.8-8.4c0.5-0.3,1-0.5,1.5-0.8c13.7-9.6,28.9-16,44-22.6c12.9-5.7,26.5-9.9,39.6-15.3
		c10.1-4.2,20.9-5.6,31.2-8.7c11.1-3.4,22.5-4.5,33.8-6.7c4.2-0.8,8.5-0.8,12.8-1C199.8,8.4,205.5,8.2,212.4,8z M349.2,64.1
		c-1,1.9,0.2,2.8,1.1,3.8c2.4,2.7,4.8,5.5,7.2,8.2c5.1,5.5,10.4,10.9,15.4,16.5c4.2,4.8,8.2,9.9,12.1,15c2.7,3.6,4.7,7.7,7.6,11.1
		c6.4,7.7,11.2,16.5,15.9,25.2c8.5,15.7,17,31.3,23.9,47.8c5,11.8,10.8,23.2,14.1,35.6c0.3,1.1,0.8,2.1,1.2,3.2
		c4,11,8.2,21.9,11.9,32.9c3.2,9.3,5.9,18.8,8.6,28.3c3.9,14.1,7.6,28.3,11.3,42.5c1.2,4.6,2.2,9.3,3.3,14
		c2.1,8.8,5.4,17.2,5.7,26.4c0,1.1,0.5,2.2,0.8,3.3c2,8.5,4.2,16.9,6.1,25.5c4,18.7,7.1,37.7,14.8,55.4c3.9,8.9,8.5,17.4,13.6,25.6
		c5.4,8.8,12.3,16.3,18.8,24.1c7,8.4,14.3,16.5,22.6,23.5c11.3,9.5,22.7,18.9,34.9,27.2c3.2,2.2,6.3,4.6,9.7,6.5
		c9.2,5.4,18.8,10.1,27.6,16.3c0.7,0.5,1.4,0.8,2.2,1.2c13.1,6.4,26.2,12.7,39.3,19.1c1.4,0.7,3.1,1.4,4.2,0.1c0.8-1,1.3-2.9,1-4.2
		c-0.8-2.8-2.1-5.5-3.2-8.2c-1-2.6-2.1-5.2-3-7.8c-0.9-2.8-1.5-5.7-2.5-8.5c-2.6-7.2-5.4-14.2-7.9-21.4c-3.9-11-7.6-22.1-11.5-33.1
		c-1.4-3.8-3.4-7.4-4.7-11.2c-4.2-12.2-8.6-24.4-14.5-36c-1.9-3.7-3.1-7.8-4.7-11.7c-1.5-3.8-2.9-7.6-4.5-11.3
		c-2.7-6.3-5.5-12.6-8.3-18.9c-2.7-6.3-5.2-12.8-8.1-19c-3.4-7.4-7.2-14.6-10.8-21.9c-4.2-8.6-8.3-17.2-12.5-25.8
		c-1-2.1-2.2-4.2-3.3-6.4c-4.3-8.5-8.6-17-13-25.5c-1.8-3.5-3.8-6.9-5.7-10.3c-5.4-9.7-10.8-19.4-16.2-29c-1.3-2.3-2.9-4.4-4.3-6.7
		c-2.6-4.5-5.2-9-7.8-13.4c-0.7-1.2-1.7-2.3-2.4-3.5c-4.1-6.8-7.9-13.9-12.3-20.5c-9.6-14.5-19.4-28.8-29.4-43
		c-5.7-8.1-12.1-15.8-18.2-23.6c-6.3-8-12.6-16-19.1-23.9c-2.4-2.9-5.2-5.4-7.8-8.2c-6.1-6.7-11.9-13.8-18.3-20.2
		c-10-9.9-20.3-19.5-30.7-29c-4.3-3.9-9.2-7.3-13.7-10.9c-10-8-19.6-16.6-30.6-23.2C353.3,65,351.5,63.7,349.2,64.1z M512.4,490
		c-0.5,0.1-0.9,0.3-1.4,0.4c-0.1,1.4-0.3,2.9-0.1,4.3c0.3,2.1,0.9,4.1,1.6,6.1c1.8,5.5,4.2,10.8,5.6,16.4c2.2,8.8,4.4,17.4,7.7,25.9
		c2.9,7.5,4.9,15.3,7.3,22.9c1.7,5.4,3.4,10.7,5.4,16c1.8,4.7,4,9.3,5.9,13.9c1.4,3.5,2.4,7.2,3.9,10.7c3.2,7.8,6.6,15.5,9.9,23.2
		c2.3,5.4,4.4,11,6.9,16.3c3.3,7,7,13.7,10.7,20.6c5.3,10,10.6,20.1,16.1,30c3.6,6.3,7.7,12.4,11.6,18.5c3.2,5.1,6.1,10.4,9.8,15.2
		c9.9,12.9,19.8,25.7,30.2,38.2c6.6,8,13.7,15.5,21.1,22.8c8.2,8,17,15.3,25.4,23.1c3.4,3.1,7.2,4.7,11.7,4.4
		c5.5-0.4,11.1-0.7,16.5-1.5c9.7-1.4,19.4-2.8,28.8-6.2c3.9-1.4,8.1-1.9,12.1-2.8c1.9-0.4,3.8-0.6,5.7-1.1
		c8.8-2.5,17.5-5.1,26.3-7.7c2-0.6,4.1-1,6-1.7c2.6-1,3.4-3.4,2.1-5.8c-0.5-1-1.4-1.7-2.2-2.5c-1.7-1.6-3.6-3.1-5.2-4.9
		c-6.9-7.7-13.7-15.5-20.5-23.3c-1.1-1.3-2.3-2.5-3.2-3.9c-7.4-10.6-14.7-21.1-22-31.7c-4.6-6.7-9.2-13.4-13.5-20.3
		c-2.7-4.3-4.7-8.9-7.1-13.4c-4.6-8.6-9.4-17.2-14-25.9c-1.5-2.7-2.8-5.5-4.1-8.3c-3.1-6.6-6.1-13.3-9.1-19.9
		c-2.1-4.6-3.8-9.4-6.2-13.8c-1-2-3.1-3.6-5-4.8c-2.2-1.4-4.9-2-7.3-3c-2.8-1.2-5.6-2.3-8.4-3.6c-5.6-2.7-11.1-6-16.9-8.1
		c-7.8-2.8-14.7-7.1-21.9-11.1c-9-5-17.6-10.7-26.4-15.9c-8.4-4.9-16.6-10.2-24.3-16.1c-13.6-10.2-26.7-21-38.4-33.4
		c-8.9-9.4-17.7-19-24.5-30.2C517.1,495.1,514.6,492.7,512.4,490z M661.3,829.1c-0.5-2.5-2-3.2-3.6-3.7c-4.1-1.2-8.2-2.4-12.4-3.6
		c-3.1-0.8-6.3-1.2-9.2-2.5c-12.6-5.4-25.5-10.2-37.5-17c-9-5-18-9.9-26.3-16.1c-12.3-9.3-24.8-18.4-36.7-28.2
		c-6.4-5.3-12.8-10.8-17.8-17.7c-3.6-5-7.9-9.5-11.7-14.3c-4.8-6.1-9.5-12.4-14.3-18.6c-3.9-5.1-7.7-10.3-11.7-15.3
		c-2.3-2.8-5.2-5-7.7-7.7c-8.3-8.9-17.2-17-27-24.2c-10.1-7.4-20.4-14.5-31.4-20.4c-14.9-8.1-30.5-14.7-46.8-19.4
		c-2.4-0.7-4.9-1-7.3-1.8c-14-4.7-28.7-6-43.2-8.3c-0.7-0.1-1.4-0.1-2.1,0c-3.2,0.4-4.8,2.2-4.2,5.5c0.8,4.6,1.6,9.2,2.7,13.7
		c1.9,7.5,4.1,14.9,6,22.4c4.3,16.4,10.5,32.1,17.6,47.4c5.9,12.5,13.2,24.2,21.3,35.2c11.7,15.9,24.7,30.8,40.7,42.6
		c7.4,5.4,14.9,10.8,22.6,15.7c6.2,3.9,12.8,7.2,19.4,10.5c6.8,3.4,13.7,6.7,20.8,9.5c9.2,3.5,18.4,6.9,28.1,8.9
		c4.9,1,9.5,3,14.4,3.9c14,2.4,28.1,4.7,42.3,6.7c6.4,0.9,13,1.1,19.4,1.4c6.2,0.3,12.4,0.5,18.7,0.7c2.8,0.1,5.5,0.3,8.3,0.2
		c12.6-0.5,25.2-1,37.7-1.8c9.1-0.6,18.2-1.6,27.3-2.5C659,830.1,660.1,829.5,661.3,829.1z M1011.9,868.2c8.2-0.6,15.5-1.2,22.8-1.7
		c17.6-1.1,34.5-6.3,51.8-9.7c1.7-0.3,3.4-1.1,5.1-1.7c4.8-1.7,9.5-4,14.5-5.1c6.8-1.5,13.1-4.3,19.5-7.1c7-3.1,14-6.1,20.9-9.3
		c6.5-3.1,13-6.3,19.3-9.9c4.1-2.3,4.8-5.9,2.3-10.1c-0.7-1.2-1.7-2.3-2.7-3.1c-5.7-4.9-11.5-9.6-17.3-14.5
		c-4.1-3.5-8.2-7.1-12.3-10.7c-7.4-6.5-16.2-10.7-24.5-15.8c-6.9-4.3-14.8-6.9-22-10.7c-7.5-4-15.6-6-23.6-8.1
		c-10.7-2.8-21.5-5.4-32.7-5.5c-1.1,0-2.2-0.3-3.3-0.5c-6.8-1.2-13.7-2.2-20.7-1.5c-9.1,0.9-18.2,1.1-27.2,2.1
		c-17,1.8-33.1,6.8-49.4,11c-4.6,1.2-8.9,4-13.5,5.4c-14.8,4.5-28.3,12-42.4,18.2c-12.8,5.6-25.7,11.3-38.6,16.6
		c-1.9,0.8-4,1.3-5.9,2.1c-3,1.4-3.5,4.5-1.2,6.9c0.6,0.6,1.3,1,2,1.5c4.9,3.6,10.1,6.9,14.8,10.9c7.6,6.5,16.7,10.5,25,15.8
		c10.7,6.8,22.1,12.3,34.1,16.5c5,1.7,9.9,3.5,15,5c7.8,2.4,15.5,5.3,23.5,6.8c11.8,2.2,23.6,4.8,35.7,5
		C991.5,867.1,1002.1,867.8,1011.9,868.2z M1010.5,730c7.9-0.4,18.4,0.9,28.9,3c1.2,0.2,2.5,0.4,3.7,0.3c0.7-0.1,1.8-0.6,2-1.2
		c0.2-0.8-0.1-2.2-0.6-2.6c-2-1.5-4.1-3-6.3-3.9c-8.6-3.8-17.3-7.6-26-11c-12.3-4.8-24.6-9.5-36.9-14c-7.5-2.8-15.2-5.4-22.8-7.9
		c-3.8-1.3-7.7-2.3-11.5-3.5c-5.8-1.9-11.5-4.1-17.3-5.8c-8.9-2.7-17.9-5-26.8-7.5c-3.6-1-7.2-2-10.9-2.9c-10.5-2.5-21-4.9-31.6-7.3
		c-8.6-1.9-17.3-3.7-25.9-5.6c-5.7-1.2-11.3-2.5-17.1-3.6c-3.4-0.7-6.8-1.4-10.2-1.4c-7.2-0.1-13.9-2.1-20.5-4.7
		c-2.5-1-5.3-1.5-7.9-2.1c-3.1-0.7-6.2-1.2-9.3-2c-2.1-0.5-4.2-1.5-6.3-2.1c-14.2-4.2-28.6-7.9-42-14.3c-0.6-0.3-1.3-0.5-2-0.7
		c-2.8-0.6-4.4,0.8-4,3.7c0.3,2,1.1,4.1,2.1,5.9c3.1,6,6.7,11.7,9.5,17.8c7.8,17.4,17.4,33.6,27.4,49.7c2.7,4.4,5.1,9.1,7.9,13.4
		c4.3,6.4,8.7,12.7,13.3,18.9c5.1,6.8,10.6,13.4,15.9,20c2.5,3,5,6.1,7.6,9c5.9,6.5,11.8,13.1,17.9,19.5c3.7,3.9,7.6,4.2,12.4,1.5
		c1.7-0.9,3.4-1.8,5.2-2.5c4.4-1.7,8.9-3.1,13.2-5c8.3-3.6,16.4-7.4,24.7-11c8-3.5,16-6.9,24-10.4c1.7-0.7,3.3-1.5,4.9-2.2
		c7.4-3.2,14.7-6.3,22.1-9.4c2.3-1,4.7-1.7,7.1-2.5c7.9-2.5,15.8-5.4,23.8-7.4c8-2.1,16.3-3.4,24.4-4.9c4.1-0.8,8.1-1.7,12.2-2
		C992.4,730.5,1000.1,730.4,1010.5,730z M352.4,95.7c3.7-0.1,4.8-1.8,3.5-4.5c-0.6-1.2-1.6-2.3-2.6-3.3
		c-9.6-9.3-19.5-18.4-30.1-26.5c-4.4-3.4-8.8-6.8-13.4-9.9c-3.1-2.1-6.5-3.7-9.8-5.4c-4.8-2.6-9.5-5.3-14.3-7.6
		c-3.5-1.7-7.2-3-10.9-4.1c-8.9-2.7-17.7-5.6-26.7-7.8c-15.7-4-31.8-4.1-47.9-3.6c-8.1,0.3-16.3,1.6-24.4,2
		c-8.2,0.4-16.1,2.6-24.2,3.8c-1.6,0.2-3.2,0.8-4.8,1.3c-7.9,2.2-15.7,4.6-23.6,6.7c-6.6,1.8-13.1,3.5-19.3,6.5
		c-4.5,2.2-9.2,3.9-13.8,5.8c-4.9,2-9.8,3.9-14.5,6.1c-6.5,3.1-12.9,6.4-19.4,9.6c-8.2,4.1-16.4,8.2-24.5,12.5
		c-4.1,2.2-4.4,5.4-0.5,8.1c5,3.5,10.4,6.4,15.6,9.5c1.5,0.9,3.4,1.2,4.9,2.2c5,3.2,10.7,4.7,16.2,6.3c9.3,2.7,18.8,4.7,28.5,5.2
		c11,0.6,22.1,2.3,33.1,0.2c0.4-0.1,0.8-0.1,1.2-0.1c14.6,0.6,28.5-3.8,42.7-5.8c0.8-0.1,1.6-0.4,2.4-0.7
		c10.4-2.9,20.6-6.5,31.4-7.7c1.4-0.2,2.7-0.8,4-1c3.4-0.6,6.8-1.3,10.2-1.8c7.1-1,14.3-1.9,21.4-2.9c1.9-0.3,3.8-0.5,5.8-0.6
		c7.7-0.5,15.4-1,23.1-1.3c4.6-0.2,9.1-0.4,13.7-0.2c10.4,0.4,20.7,1,31.1,1.7c10.7,0.7,21.2,1.9,31.3,6
		C349.7,95,351.5,95.4,352.4,95.7z M717,350.6c-0.1,0-0.2,0-0.2,0c0,3.5-0.3,7.1,0.1,10.6c1,10.8,2.3,21.6,3.5,32.4
		c0.8,7.3,1.8,14.5,2.7,21.8c1,8.1,1.9,16.3,3.2,24.3c1.6,9.7,3.7,19.4,5.5,29.1c0.4,1.9,0.5,3.9,0.7,5.9c0.4,2.8,0.7,5.6,1.3,8.3
		c1.2,5.3,2.7,10.6,4.1,15.9c2.2,8.7,4.3,17.5,6.7,26.2c2.2,7.9,4.8,15.6,7.1,23.4c2.1,7.3,3.9,14.6,6.9,21.7
		c3.7,8.6,6.5,17.7,9.7,26.5c0.5,1.5,1,3,1.8,4.2c0.6,0.9,1.8,1.7,2.9,1.8c0.5,0,1.5-1.6,1.6-2.5c0.3-2.4,0.1-4.8,0.2-7.2
		c0.2-7,0-14.1,0.8-21.1c1.2-10.9,3.5-21.7,7-32.1c4.3-12.9,9.4-25.6,13.5-38.6c5.6-17.7,7.9-35.8,8.1-54.2
		c0.2-12.7-1.8-25.3-4.9-37.7c-2.5-10.1-6.4-19.5-10.8-28.8c-5.5-11.5-12.5-22.2-20.3-32.4c-7.1-9.3-14.9-17.8-23.5-25.6
		c-7.4-6.6-15.2-12.7-22.8-18.9c-2-1.7-4.4-2.9-6.9-1.4c-2.3,1.4-1.6,3.9-1.4,6.2c0.4,4.2,0.8,8.4,1,12.6c0.3,3.9,0.2,7.9,0.6,11.8
		C715.8,338.8,716.5,344.7,717,350.6z M995.7,882.7c-1.6-0.6-2.2-1-2.8-1.1c-6.9-0.9-13.7-1.7-20.6-2.6c-7.8-1-15.7-1.8-23.5-3
		c-4.6-0.7-9.2-2.1-13.8-3.2c-8.3-1.8-16.4-3.8-24.3-7.2c-4.7-2-9.6-3.6-14.4-5.5c-3.5-1.4-7.1-2.6-10.4-4.3
		c-9.9-5.4-19.8-10.7-29.3-16.6c-7.7-4.7-14.9-10.3-22.3-15.4c-5.8-4.1-11.5-8.3-16.4-13.5c-0.9-0.9-2-1.6-3-2.3
		c-3-2.2-5.6-2.2-8.8-0.3c-1.9,1.1-3.9,2.2-6,2.8c-8.9,2.8-17.7,5.5-26.6,8.1c-7.2,2.1-14.3,4.6-21.6,6.2c-9.2,2-18.1,5.3-27.6,5.9
		c-1.1,0.1-2.2,0.3-3.2,0.8c-2.4,1.1-3,3-1.2,5c1.3,1.4,2.8,3,4.5,3.6c4.2,1.4,7.4,4.3,11.2,6.3c11.3,5.9,22.7,11.6,34.2,17.2
		c2.7,1.3,5.7,2.1,8.5,3.3c4.6,1.9,9.2,3.8,13.8,5.7c0.4,0.2,0.8,0.3,1.2,0.3c5.2,0.2,9.8,2.9,14.7,4.2c8.8,2.4,17.7,4.4,26.6,6.5
		c4.2,1,8.4,1.6,12.6,2.5c7.2,1.5,14.4,3,21.8,3c2.1,0,4.1,0.2,6.2,0.4c9.1,0.7,18.2,1.8,27.3,2.1c10.2,0.2,20.5-0.3,30.7-0.5
		c4.1-0.1,8.3-0.4,12.4-0.8c6.2-0.5,12.4-1.2,18.6-1.6c9.1-0.6,18.2-1.6,27.1-3.9C992.8,884.5,993.8,883.7,995.7,882.7z"/>
	<path class="st0" d="M1086.3,798.8c-0.1,10.6-9.5,19.9-19.9,20c-10.9,0-18-11.3-18.3-19.4c-0.4-9.6,9.4-20.2,19.2-20
		C1076.9,779.6,1086.9,789.8,1086.3,798.8z"/>
</g>
</svg>
