<?xml version="1.0" encoding="utf-8"?>
<!-- Generator: Adobe Illustrator 28.1.0, SVG Export Plug-In . SVG Version: 6.00 Build 0)  -->
<svg version="1.1" id="Layer_1" xmlns="http://www.w3.org/2000/svg" xmlns:xlink="http://www.w3.org/1999/xlink" x="0px" y="0px"
	 viewBox="0 0 850 600" style="enable-background:new 0 0 850 600;" xml:space="preserve">
<style type="text/css">
	.st0{fill:#1E3961;}
</style>
<path class="st0" d="M25.1,586H11.4v-31.5h13c6.1,0,10.2,3,10.2,7.7v0.1c0,4.3-2.8,6.4-5.3,7.5c3.8,1,7.1,3.1,7.1,7.5v0.1
	C36.4,582.7,31.9,586,25.1,586z M32.2,562.5c0-3.5-2.8-5.8-7.9-5.8H13.7v12.4h10.4C28.9,569.1,32.2,566.8,32.2,562.5L32.2,562.5z
	 M34,577.3c0-3.9-3.4-6.1-9.6-6.1H13.7v12.6h11.4C30.6,583.9,34,581.4,34,577.3L34,577.3z M85.9,586v-31.5h22.4v2.2h-20v12.4h18v2.2
	h-18v12.6h20.3v2.2H85.9z M184.3,586l-4-8.8h-18.6l-4,8.8h-2.4l14.7-31.7h2.2l14.7,31.7H184.3z M171,556.9l-8.3,18.2h16.6L171,556.9
	z M249.7,586.6c-9,0-15.6-7.1-15.6-16.2v-0.1c0-8.9,6.7-16.3,15.7-16.3c5.6,0,9,2.1,12.2,5l-1.7,1.7c-2.7-2.7-5.9-4.6-10.6-4.6
	c-7.6,0-13.3,6.2-13.3,14.1v0.1c0,8,5.8,14.2,13.3,14.2c4.5,0,7.6-1.8,10.8-4.9l1.6,1.5C258.9,584.3,255.3,586.6,249.7,586.6z
	 M333.1,586v-14.7H313V586h-2.3v-31.5h2.3v14.6h20.1v-14.6h2.3V586H333.1z M464.9,586l-10-13h-10.3v13h-2.3v-31.5h13.2
	c6.8,0,11.2,3.7,11.2,8.9v0.1c0,5.3-3.9,8.3-9.2,9l10.4,13.4H464.9z M464.4,563.6c0-4.2-3.3-6.9-9-6.9h-10.7v14.2h10.6
	C460.5,570.9,464.4,568.2,464.4,563.6L464.4,563.6z M516.8,586v-31.5h22.4v2.2h-20v12.4h18v2.2h-18v12.6h20.3v2.2H516.8z
	 M599.5,586.5c-5,0-8.9-1.7-12.7-5l1.5-1.8c3.5,3.2,6.7,4.7,11.3,4.7c4.7,0,8-2.7,8-6.2V578c0-3.3-1.8-5.3-8.9-6.7
	c-7.6-1.5-10.6-4.1-10.6-8.9v-0.1c0-4.7,4.3-8.3,10.1-8.3c4.6,0,7.6,1.3,10.8,3.8l-1.5,1.8c-3-2.6-5.9-3.6-9.4-3.6
	c-4.6,0-7.7,2.7-7.7,5.9v0.1c0,3.3,1.7,5.3,9.2,6.9c7.3,1.5,10.3,4.1,10.3,8.7v0.1C610,583,605.6,586.5,599.5,586.5z M674,586.6
	c-9.5,0-15.8-7.6-15.8-16.2v-0.1c0-8.6,6.3-16.3,15.9-16.3c9.5,0,15.8,7.6,15.8,16.2c0,0,0,0,0,0.1
	C689.9,578.9,683.5,586.6,674,586.6z M687.5,570.3c0-7.8-5.7-14.2-13.4-14.2c-7.8,0-13.4,6.3-13.4,14.1v0.1
	c0,7.8,5.7,14.2,13.4,14.2C681.9,584.4,687.5,578.1,687.5,570.3L687.5,570.3z M762.5,586l-10-13h-10.3v13h-2.3v-31.5H753
	c6.8,0,11.2,3.7,11.2,8.9v0.1c0,5.3-3.9,8.3-9.2,9l10.4,13.4H762.5z M761.9,563.6c0-4.2-3.3-6.9-9-6.9h-10.7v14.2h10.6
	C758,570.9,761.9,568.2,761.9,563.6L761.9,563.6z M825.4,556.7V586H823v-29.3h-11v-2.2h24.3v2.2H825.4z M30.2,491.2
	c7,0.4,16.7-0.2,23-5.5c5.5-4.6,7.8-11.9,6.8-21.9c-0.3-3.6-1.6-7-3.8-10.3c-1.7-2.6-4.1-5.1-6.9-7.4c-3.6-2.9-7.1-4.7-8.8-5.5
	c-0.3-0.2-0.7-0.2-1-0.3l-17.8-0.9l17.4-0.8c0.6,0,1.1-0.2,1.6-0.6c1.1-0.8,2.7-2.3,4.3-4.4c2.5-3.3,5.3-8.9,4.8-16.8
	c-0.4-6.9-2.9-11.9-7.5-15c-5-3.4-11.7-3.8-16.4-3.6c-4.5,0.2-8.1,1.1-9.3,1.4c-0.2,5.5-0.1,59.8,0,89.3
	C18.4,489.5,23.8,490.8,30.2,491.2z M31,441.8c0.5,0,1,0.1,1.3,0.1c1.6,0.2,3.2,0.4,5,0.9l0,0l0,0l0,0c1.7,0.5,3.5,1.3,5.7,2.8
	c3.3,2.3,5.8,5,7.6,8l0,0l0,0l0,0c3.7,5.9,4.8,12.6,4.8,17.7l0,0c0,0.2,0,0.4,0,0.6c0,0.1,0,0.1,0,0.2s0,0.3,0,0.4s0,0.1,0,0.2
	s0,0.3,0,0.4s0,0.1,0,0.2c0,0.2,0,0.4,0,0.5s0,0.1,0,0.2s0,0.2,0,0.3c0,0.1,0,0.2,0,0.3c0,0.1,0,0.2,0,0.3c0,0.1,0,0.2,0,0.3
	c0,0.1,0,0.1,0,0.2c0,0.2-0.1,0.4-0.1,0.6v0.1c0,0.1-0.1,0.2-0.1,0.3v0.1c0,0.1-0.1,0.2-0.1,0.4c0,0,0,0,0,0.1
	c-0.1,0.4-0.2,0.8-0.3,1.2l0,0c0,0.1-0.1,0.3-0.1,0.4c-2.2,6.2-7.3,9.2-12,10.4c-0.2,0-0.4,0.1-0.6,0.1c0,0,0,0-0.1,0
	c-0.2,0-0.4,0.1-0.6,0.1h-0.1c-0.2,0-0.4,0.1-0.6,0.1h-0.1c-0.2,0-0.4,0.1-0.6,0.1l0,0c-0.2,0-0.4,0-0.6,0.1h-0.1
	c-0.2,0-0.4,0-0.5,0h-0.1c-0.2,0-0.3,0-0.5,0h-0.1c-0.2,0-0.3,0-0.5,0l0,0c-2.3,0-7.8-0.3-11.3-1.9c0,0,0,0-0.1,0s-0.1-0.1-0.2-0.1
	h-0.1c-0.1,0-0.1-0.1-0.2-0.1h-0.1c-0.1,0-0.1-0.1-0.2-0.1c0,0,0,0-0.1,0s-0.1-0.1-0.2-0.1c0,0,0,0-0.1,0s-0.1-0.1-0.2-0.1
	c0,0,0,0-0.1,0s-0.1-0.1-0.2-0.1c0,0,0,0-0.1,0l-0.1-0.1c0,0,0,0-0.1,0l-0.1-0.1c0,0,0,0-0.1,0l-0.1-0.1c0,0,0,0-0.1,0l-0.1-0.1l0,0
	l-0.1-0.1l0,0l-0.1-0.1l0,0l-0.1-0.1l0,0l-0.1-0.1c0,0,0,0,0-0.1l-0.1-0.1c0,0,0,0,0-0.1l-0.1-0.1c0,0,0,0,0-0.1s-0.1-0.1-0.1-0.2
	c0,0,0,0,0-0.1c0,0,0-0.1-0.1-0.1c0,0,0,0,0-0.1s0-0.1-0.1-0.2v-0.1c0-0.1,0-0.1-0.1-0.2v-0.1v-0.1v-0.1v-0.1v-0.1
	c0-0.1,0-0.1,0-0.2v-0.1c0-0.1,0-0.1,0-0.2c0,0,0-0.1,0-0.2v-0.1c0-0.1,0-0.1,0-0.2s0-0.1,0-0.2v-0.1c0-0.1,0-0.1,0-0.2s0-0.1,0-0.2
	v-0.1c0-0.1,0-0.2,0-0.3V482c0-0.2,0-0.4-0.1-0.6l0,0c0-0.2,0-0.3,0-0.5l0,0c-0.1-0.8-0.1-1.8-0.2-2.9c-0.1-1.2-0.1-7.7-0.1-14.8
	l0,0c0-4.5,0-9.2,0-13v-8c0-0.1,0-0.1,0-0.2v-0.1l0,0l0,0l0,0c0,0,0.1,0,0.2,0C23.7,441.7,28.4,441.7,31,441.8z M21.5,400.8
	c0.1-0.1,0.4-0.2,1.3-0.4v-0.1l0,0v0.1c0.1,0,0.1,0,0.2,0c2.1-0.5,4.8-0.5,6.2-0.5c12.6,0,17.3,11.4,17.3,22.1c0,0.2,0,0.3,0,0.5
	c0,0.1,0,0.1,0,0.2s0,0.2,0,0.3c0,0.1,0,0.1,0,0.2s0,0.2,0,0.2c0,0.1,0,0.2,0,0.2c0,0.1,0,0.1,0,0.2s0,0.2,0,0.2c0,0.1,0,0.1,0,0.2
	s0,0.2,0,0.3c0,0.1,0,0.1,0,0.2s0,0.2,0,0.3v0.1c0,0.1,0,0.2,0,0.3l0,0c-0.6,3.8-2.3,7.2-4.4,9.6c-1.7,1.9-3,2.7-5.5,3.1l0,0
	c-0.6,0.1-1.3,0.1-2,0.2c0,0,0,0-0.1,0s-0.2,0-0.3,0l0,0c-0.2,0-0.3,0-0.5,0c-0.1,0-0.1,0-0.2,0c-0.1,0-0.2,0-0.2,0
	c-0.1,0-0.2,0-0.3,0s-0.1,0-0.2,0c-0.2,0-0.3,0-0.5,0h-0.1c-0.1,0-0.3,0-0.5,0h-0.1c-0.2,0-0.4,0-0.6,0l0,0c0,0,0,0-0.1,0
	c-0.2,0-0.5,0-0.7,0c-4.8,0-7.1-0.4-8-0.5c-0.5-0.1-0.7-0.1-0.7-0.2l0,0l0,0c0,0,0-0.1,0-0.2V412v-10.7l0,0v-0.1l0,0
	C21.5,401,21.5,400.9,21.5,400.8z M1.7,397.1c1.7,0,2.7,0.1,3.6,0.3c0.1,0,0.3,0,0.4,0.1c0,0,0,0,0.1,0s0.2,0,0.3,0.1h0.1
	c0.1,0,0.2,0,0.2,0.1h0.1c0.1,0,0.1,0,0.2,0.1h0.1c0.1,0,0.1,0.1,0.2,0.1h0.1c0.1,0,0.2,0.1,0.2,0.1s0,0,0.1,0
	c0.2,0.1,0.4,0.2,0.5,0.3c0,0,0,0,0.1,0c0.1,0,0.1,0.1,0.2,0.1c0,0,0,0,0.1,0.1c0.1,0,0.1,0.1,0.2,0.1c0,0,0,0,0.1,0.1
	c0.1,0,0.1,0.1,0.1,0.1s0,0,0.1,0.1l0.1,0.1c0,0,0,0,0.1,0.1s0.1,0.1,0.2,0.2l0,0c0.1,0.2,0.2,0.3,0.4,0.5c0,0,0,0,0,0.1
	s0.1,0.1,0.1,0.2v0.1c0,0.1,0.1,0.1,0.1,0.2v0.1c0,0.1,0.1,0.1,0.1,0.2v0.1c0,0.1,0.1,0.1,0.1,0.2v0.1c0,0.1,0.1,0.2,0.1,0.2
	s0,0,0,0.1c0.1,0.2,0.1,0.4,0.2,0.6c0,0,0,0,0,0.1s0,0.2,0.1,0.2v0.1c0,0.1,0,0.2,0.1,0.2v0.1c0,0.1,0,0.1,0,0.2v0.1
	c0,0.1,0,0.2,0,0.2v0.1c0,0.1,0,0.2,0,0.3v0.1c0,0.1,0,0.2,0,0.4l0,0c0.1,0.5,0.1,1,0.1,1.6c0.3,4.1,0.3,7.7,0.3,27.7V456
	c0,12.3,0,22.5-0.6,27.9c0,0.1,0,0.2,0,0.3l0,0c-0.5,3.6-1.2,7.4-3.7,7.9c-1.2,0.3-2.7,0.3-3.9,0.3c-0.9,0-1,0.3-1,0.4v0.1l0,0
	c0.1,0.2,0.5,0.4,2,0.4c3.9,0,11.9-0.4,12.6-0.4c0.5,0,4.1,0.1,7.8,0.4c3.7,0.1,7.8,0.4,9.2,0.4c0.1,0,0.2,0,0.3,0
	c0.2,0,0.3,0,0.5,0l0,0c15.2-0.2,24.9-7.4,29.3-16.3l0,0l0,0c0.1-0.2,0.2-0.4,0.3-0.6l0,0c0.3-0.7,0.6-1.4,0.8-2.1l0,0
	c0.1-0.2,0.2-0.4,0.2-0.7v-0.1c0.1-0.2,0.1-0.4,0.2-0.6c0-0.1,0-0.1,0-0.2c0.1-0.2,0.1-0.4,0.1-0.5s0-0.1,0-0.2
	c0-0.2,0.1-0.4,0.1-0.5s0-0.1,0-0.2c0-0.2,0.1-0.4,0.1-0.6c0,0,0,0,0-0.1c0-0.2,0.1-0.5,0.1-0.7c0-0.1,0-0.1,0-0.2
	c0-0.2,0.1-0.3,0.1-0.5c0-0.1,0-0.2,0-0.3c0-0.1,0-0.3,0.1-0.4c0-0.1,0-0.2,0-0.3c0-0.1,0-0.3,0-0.4s0-0.2,0-0.3c0-0.1,0-0.2,0-0.4
	c0-0.1,0-0.2,0-0.3c0-0.1,0-0.2,0-0.4c0-0.1,0-0.2,0-0.3c0-0.1,0-0.3,0-0.4s0-0.2,0-0.3c0-15-12.7-24.2-22.2-27.1l0,0l0,0
	c5.7-5.9,11.4-11.9,12-21.4l0,0c0-0.2,0-0.3,0-0.5c0,0,0,0,0-0.1c0-0.2,0-0.4,0-0.5l0,0c0-0.2,0-0.4,0-0.6l0,0c0-0.1,0-0.2,0-0.3
	v-0.1c0-0.1,0-0.1,0-0.2v-0.1c0-0.1,0-0.1,0-0.2v-0.1c0-0.1,0-0.1,0-0.2s0-0.1,0-0.2s0-0.1,0-0.2s0-0.1,0-0.2s0-0.1,0-0.2
	s0-0.1,0-0.2s0-0.1,0-0.2s0-0.1,0-0.2s0-0.1,0-0.2s0-0.1,0-0.2s0-0.1,0-0.2s0-0.1,0-0.2s0-0.1,0-0.2s0-0.1,0-0.2v-0.1
	c0-0.1,0-0.2-0.1-0.2v-0.1c0-0.1,0-0.2-0.1-0.2v-0.1c0-0.1,0-0.2-0.1-0.2v-0.1c0-0.1-0.1-0.2-0.1-0.2v-0.1c0-0.1-0.1-0.2-0.1-0.3
	v-0.1c0-0.1-0.1-0.2-0.1-0.3v-0.1c0-0.1-0.1-0.2-0.1-0.3c0,0,0-0.1-0.1-0.1c0-0.1-0.1-0.2-0.1-0.3c0,0,0-0.1-0.1-0.1
	c0-0.1-0.1-0.2-0.1-0.3c0,0,0-0.1-0.1-0.1c0-0.1-0.1-0.2-0.1-0.3c0,0,0-0.1-0.1-0.1c0-0.1-0.1-0.2-0.1-0.3c0,0,0-0.1-0.1-0.1
	c-0.1-0.1-0.1-0.2-0.2-0.3c0,0,0-0.1-0.1-0.1c-0.1-0.1-0.1-0.2-0.2-0.3c0,0,0-0.1-0.1-0.1c-0.1-0.1-0.1-0.2-0.2-0.3
	c0,0,0-0.1-0.1-0.1c-0.1-0.1-0.1-0.2-0.2-0.3c0,0,0-0.1-0.1-0.1c-0.1-0.1-0.1-0.2-0.2-0.3c0,0,0-0.1-0.1-0.1
	c-0.1-0.1-0.1-0.2-0.2-0.3c0,0,0-0.1-0.1-0.1c-0.1-0.1-0.1-0.2-0.2-0.3c0,0,0-0.1-0.1-0.1c-0.1-0.1-0.2-0.2-0.2-0.3
	c0,0,0-0.1-0.1-0.1c-0.1-0.1-0.2-0.2-0.3-0.3c0,0,0,0-0.1-0.1s-0.2-0.2-0.3-0.3c0,0,0,0-0.1-0.1s-0.2-0.2-0.3-0.3c0,0,0,0-0.1-0.1
	s-0.2-0.2-0.3-0.3c0,0,0,0-0.1-0.1s-0.2-0.2-0.3-0.3c0,0,0,0-0.1-0.1s-0.2-0.2-0.3-0.3c0,0,0,0-0.1,0c-0.1-0.1-0.2-0.2-0.4-0.3
	c0,0,0,0-0.1,0c-0.1-0.1-0.2-0.2-0.4-0.3l0,0c-0.1-0.1-0.3-0.2-0.4-0.3l0,0c-0.1-0.1-0.3-0.2-0.4-0.3l0,0c-0.1-0.1-0.3-0.2-0.4-0.3
	l0,0c-0.2-0.1-0.3-0.2-0.5-0.3l0,0c-3.3-2-7.8-3.5-13.7-3.9c0,0,0,0-0.1,0c-0.3,0-0.5,0-0.8,0h-0.1c-0.3,0-0.5,0-0.8,0h-0.1l0,0l0,0
	c-0.1,0-0.2,0-0.3,0c-0.3,0-0.5,0-0.8,0l0,0c-5.9,0-10.9,0.4-14,0.4c-1.7,0-6.4-0.4-14.5-0.4c-1.5,0-2,0.2-2.1,0.5l0,0l0,0l0,0
	C0,397,0.5,397.1,1.7,397.1z M15.4,398.6c0.1,0,0.2,0,0.3,0c0.2,0,0.1,0,0.3,0l0,0c0.3-0.1,0.9-0.3,2.2-0.5c1.2-0.3,3.2-0.6,5.5-0.8
	c4.1-0.4,10.1-0.4,15.4,1.5c3.5,1.3,6.3,3.3,8.3,6c2.4,3.1,3.7,7.2,4,12.2c0.5,8.4-2.6,14.3-5.2,17.8c-1.8,2.4-3.7,4.1-4.8,4.9
	c1.7,0.8,5.2,2.7,8.9,5.6c3,2.4,5.4,5,7.2,7.7c2.3,3.4,3.7,7.1,4,10.9c1,10.4-1.5,18.2-7.3,23.1c-3,2.5-6.9,4.2-11.5,5.1
	c-2.7,0.5-5.6,0.8-8.7,0.8c-1.2,0-2.5,0-3.8-0.1c-7.1-0.4-12.6-1.9-13.6-2.1c-0.1,0-0.2,0-0.3,0l-4.1,0.8l3.1-1.8
	c0.2-0.1,0.3-0.3,0.3-0.5c0-2.7-0.1-23.6-0.1-44.5c0-13.1,0-23.6,0-31.1c0-4.5,0-7.9,0-10.3c0-1.3,0-2.2,0-2.9c0-0.3,0-0.8-0.1-0.9
	c-0.1-0.3-5-1.8-5-1.8L15.4,398.6z M346.4,491.2c7,0.4,16.7-0.2,23-5.5c5.5-4.6,7.8-11.9,6.8-21.9c-0.3-3.6-1.6-7-3.8-10.3
	c-1.7-2.6-4.1-5.1-6.9-7.4c-3.6-2.9-7.1-4.7-8.8-5.5c-0.3-0.2-0.7-0.2-1-0.3l-17.8-0.9l17.4-0.8c0.6,0,1.1-0.2,1.6-0.6
	c1.1-0.8,2.7-2.3,4.3-4.4c2.5-3.3,5.3-8.9,4.8-16.8c-0.4-6.9-2.9-11.9-7.5-15c-5-3.4-11.7-3.8-16.4-3.6c-4.5,0.2-8.1,1.1-9.3,1.4
	c-0.2,5.5-0.1,59.8,0,89.3C334.6,489.5,340,490.8,346.4,491.2z M347.2,441.8c0.5,0,1,0.1,1.3,0.1c1.6,0.2,3.2,0.4,5,0.9l0,0l0,0l0,0
	c1.7,0.5,3.5,1.3,5.7,2.8c3.3,2.3,5.8,5,7.6,8l0,0l0,0l0,0c3.7,5.9,4.8,12.6,4.8,17.7l0,0c0,0.2,0,0.4,0,0.6c0,0.1,0,0.1,0,0.2
	s0,0.3,0,0.4s0,0.1,0,0.2s0,0.3,0,0.4s0,0.1,0,0.2c0,0.2,0,0.4,0,0.5s0,0.1,0,0.2s0,0.2,0,0.3c0,0.1,0,0.2,0,0.3c0,0.1,0,0.2,0,0.3
	c0,0.1,0,0.2,0,0.3c0,0.1,0,0.1,0,0.2c0,0.2-0.1,0.4-0.1,0.6v0.1c0,0.1-0.1,0.2-0.1,0.3v0.1c0,0.1-0.1,0.2-0.1,0.4c0,0,0,0,0,0.1
	c-0.1,0.4-0.2,0.8-0.3,1.2l0,0c0,0.1-0.1,0.3-0.1,0.4c-2.2,6.2-7.3,9.2-12,10.4c-0.2,0-0.4,0.1-0.6,0.1c0,0,0,0-0.1,0
	c-0.2,0-0.4,0.1-0.6,0.1h-0.1c-0.2,0-0.4,0.1-0.6,0.1h-0.1c-0.2,0-0.4,0.1-0.6,0.1l0,0c-0.2,0-0.4,0-0.6,0.1h-0.1
	c-0.2,0-0.4,0-0.5,0h-0.1c-0.2,0-0.3,0-0.5,0h-0.1c-0.2,0-0.3,0-0.5,0l0,0c-2.3,0-7.8-0.3-11.3-1.9c0,0,0,0-0.1,0s-0.1-0.1-0.2-0.1
	h-0.1c-0.1,0-0.1-0.1-0.2-0.1h-0.1c-0.1,0-0.1-0.1-0.2-0.1c0,0,0,0-0.1,0s-0.1-0.1-0.2-0.1c0,0,0,0-0.1,0s-0.1-0.1-0.2-0.1
	c0,0,0,0-0.1,0s-0.1-0.1-0.2-0.1c0,0,0,0-0.1,0l-0.1-0.1c0,0,0,0-0.1,0l-0.1-0.1c0,0,0,0-0.1,0l-0.1-0.1c0,0,0,0-0.1,0l-0.1-0.1l0,0
	l-0.1-0.1l0,0l-0.1-0.1l0,0l-0.1-0.1l0,0l-0.1-0.1c0,0,0,0,0-0.1l-0.1-0.1c0,0,0,0,0-0.1l-0.1-0.1c0,0,0,0,0-0.1s-0.1-0.1-0.1-0.2
	c0,0,0,0,0-0.1c0,0,0-0.1-0.1-0.1c0,0,0,0,0-0.1s0-0.1-0.1-0.2v-0.1c0-0.1,0-0.1-0.1-0.2v-0.1v-0.1v-0.1v-0.1v-0.1
	c0-0.1,0-0.1,0-0.2v-0.1c0-0.1,0-0.1,0-0.2c0,0,0-0.1,0-0.2v-0.1c0-0.1,0-0.1,0-0.2s0-0.1,0-0.2v-0.1c0-0.1,0-0.1,0-0.2s0-0.1,0-0.2
	v-0.1c0-0.1,0-0.2,0-0.3V482c0-0.2,0-0.4-0.1-0.6l0,0c0-0.2,0-0.3,0-0.5l0,0c-0.1-0.8-0.1-1.8-0.2-2.9c-0.1-1.2-0.1-7.7-0.1-14.8
	l0,0c0-4.5,0-9.2,0-13v-8c0-0.1,0-0.1,0-0.2v-0.1l0,0l0,0l0,0c0,0,0.1,0,0.2,0C339.9,441.7,344.6,441.7,347.2,441.8z M337.7,400.8
	c0.1-0.1,0.4-0.2,1.3-0.4v-0.1l0,0v0.1c0.1,0,0.1,0,0.2,0c2.1-0.5,4.8-0.5,6.2-0.5c12.6,0,17.3,11.4,17.3,22.1c0,0.2,0,0.3,0,0.5
	c0,0.1,0,0.1,0,0.2s0,0.2,0,0.3c0,0.1,0,0.1,0,0.2s0,0.2,0,0.2c0,0.1,0,0.2,0,0.2c0,0.1,0,0.1,0,0.2s0,0.2,0,0.2c0,0.1,0,0.1,0,0.2
	s0,0.2,0,0.3c0,0.1,0,0.1,0,0.2s0,0.2,0,0.3v0.1c0,0.1,0,0.2,0,0.3l0,0c-0.6,3.8-2.3,7.2-4.4,9.6c-1.7,1.9-3,2.7-5.5,3.1l0,0
	c-0.6,0.1-1.3,0.1-2,0.2c0,0,0,0-0.1,0s-0.2,0-0.3,0l0,0c-0.2,0-0.3,0-0.5,0c-0.1,0-0.1,0-0.2,0s-0.2,0-0.2,0c-0.1,0-0.2,0-0.3,0
	c-0.1,0-0.1,0-0.2,0c-0.2,0-0.3,0-0.5,0h-0.1c-0.1,0-0.3,0-0.5,0h-0.1c-0.2,0-0.4,0-0.6,0l0,0c0,0,0,0-0.1,0c-0.2,0-0.5,0-0.7,0
	c-4.8,0-7.1-0.4-8-0.5c-0.5-0.1-0.7-0.1-0.7-0.2l0,0l0,0c0,0,0-0.1,0-0.2V412v-10.7l0,0v-0.1l0,0C337.6,401,337.6,400.9,337.7,400.8
	z M317.9,397.1c1.7,0,2.7,0.1,3.6,0.3c0.1,0,0.3,0,0.4,0.1c0,0,0,0,0.1,0s0.2,0,0.3,0.1h0.1c0.1,0,0.2,0,0.2,0.1h0.1
	c0.1,0,0.1,0,0.2,0.1h0.1c0.1,0,0.1,0.1,0.2,0.1h0.1c0.1,0,0.2,0.1,0.2,0.1s0,0,0.1,0c0.2,0.1,0.4,0.2,0.5,0.3c0,0,0,0,0.1,0
	s0.1,0.1,0.2,0.1c0,0,0,0,0.1,0.1c0.1,0,0.1,0.1,0.2,0.1c0,0,0,0,0.1,0.1c0.1,0,0.1,0.1,0.1,0.1s0,0,0.1,0.1l0.1,0.1
	c0,0,0,0,0.1,0.1s0.1,0.1,0.2,0.2l0,0c0.1,0.2,0.2,0.3,0.4,0.5c0,0,0,0,0,0.1s0.1,0.1,0.1,0.2v0.1c0,0.1,0.1,0.1,0.1,0.2v0.1
	c0,0.1,0.1,0.1,0.1,0.2v0.1c0,0.1,0.1,0.1,0.1,0.2v0.1c0,0.1,0.1,0.2,0.1,0.2s0,0,0,0.1c0.1,0.2,0.1,0.4,0.2,0.6c0,0,0,0,0,0.1
	s0,0.2,0.1,0.2v0.1c0,0.1,0,0.2,0.1,0.2v0.1c0,0.1,0,0.1,0,0.2v0.1c0,0.1,0,0.2,0,0.2v0.1c0,0.1,0,0.2,0,0.3v0.1c0,0.1,0,0.2,0,0.4
	l0,0c0.1,0.5,0.1,1,0.1,1.6c0.3,4.1,0.3,7.7,0.3,27.7V456c0,12.3,0,22.5-0.6,27.9c0,0.1,0,0.2,0,0.3l0,0c-0.5,3.6-1.2,7.4-3.7,7.9
	c-1.2,0.3-2.7,0.3-3.9,0.3c-0.9,0-1,0.3-1,0.4v0.1l0,0c0.1,0.2,0.5,0.4,2,0.4c3.9,0,11.9-0.4,12.6-0.4c0.5,0,4.1,0.1,7.8,0.4
	c3.7,0.1,7.8,0.4,9.2,0.4c0.1,0,0.2,0,0.3,0c0.2,0,0.3,0,0.5,0l0,0c15.2-0.2,24.9-7.4,29.3-16.3l0,0l0,0c0.1-0.2,0.2-0.4,0.3-0.6
	l0,0c0.3-0.7,0.6-1.4,0.8-2.1l0,0c0.1-0.2,0.2-0.4,0.2-0.7v-0.1c0.1-0.2,0.1-0.4,0.2-0.6c0-0.1,0-0.1,0-0.2c0.1-0.2,0.1-0.4,0.1-0.5
	s0-0.1,0-0.2c0-0.2,0.1-0.4,0.1-0.5s0-0.1,0-0.2c0-0.2,0.1-0.4,0.1-0.6c0,0,0,0,0-0.1c0-0.2,0.1-0.5,0.1-0.7c0-0.1,0-0.1,0-0.2
	c0-0.2,0.1-0.3,0.1-0.5c0-0.1,0-0.2,0-0.3c0-0.1,0-0.3,0.1-0.4c0-0.1,0-0.2,0-0.3c0-0.1,0-0.3,0-0.4s0-0.2,0-0.3c0-0.1,0-0.2,0-0.4
	c0-0.1,0-0.2,0-0.3c0-0.1,0-0.2,0-0.4c0-0.1,0-0.2,0-0.3c0-0.1,0-0.3,0-0.4s0-0.2,0-0.3c0-15-12.7-24.2-22.2-27.1l0,0l0,0
	c5.7-5.9,11.4-11.9,12-21.4l0,0c0-0.2,0-0.3,0-0.5c0,0,0,0,0-0.1c0-0.2,0-0.4,0-0.5l0,0c0-0.2,0-0.4,0-0.6l0,0c0-0.1,0-0.2,0-0.3
	v-0.1c0-0.1,0-0.1,0-0.2v-0.1c0-0.1,0-0.1,0-0.2v-0.1c0-0.1,0-0.1,0-0.2s0-0.1,0-0.2s0-0.1,0-0.2s0-0.1,0-0.2s0-0.1,0-0.2
	s0-0.1,0-0.2s0-0.1,0-0.2s0-0.1,0-0.2s0-0.1,0-0.2s0-0.1,0-0.2s0-0.1,0-0.2s0-0.1,0-0.2s0-0.1,0-0.2s0-0.1,0-0.2v-0.1
	c0-0.1,0-0.2-0.1-0.2v-0.1c0-0.1,0-0.2-0.1-0.2v-0.1c0-0.1,0-0.2-0.1-0.2v-0.1c0-0.1-0.1-0.2-0.1-0.2v-0.1c0-0.1-0.1-0.2-0.1-0.3
	v-0.1c0-0.1-0.1-0.2-0.1-0.3v-0.1c0-0.1-0.1-0.2-0.1-0.3c0,0,0-0.1-0.1-0.1c0-0.1-0.1-0.2-0.1-0.3c0,0,0-0.1-0.1-0.1
	c0-0.1-0.1-0.2-0.1-0.3c0,0,0-0.1-0.1-0.1c0-0.1-0.1-0.2-0.1-0.3c0,0,0-0.1-0.1-0.1c0-0.1-0.1-0.2-0.1-0.3c0,0,0-0.1-0.1-0.1
	c-0.1-0.1-0.1-0.2-0.2-0.3c0,0,0-0.1-0.1-0.1c-0.1-0.1-0.1-0.2-0.2-0.3c0,0,0-0.1-0.1-0.1c-0.1-0.1-0.1-0.2-0.2-0.3
	c0,0,0-0.1-0.1-0.1c-0.1-0.1-0.1-0.2-0.2-0.3c0,0,0-0.1-0.1-0.1c-0.1-0.1-0.1-0.2-0.2-0.3c0,0,0-0.1-0.1-0.1
	c-0.1-0.1-0.1-0.2-0.2-0.3c0,0,0-0.1-0.1-0.1c-0.1-0.1-0.1-0.2-0.2-0.3c0,0,0-0.1-0.1-0.1c-0.1-0.1-0.2-0.2-0.2-0.3
	c0,0,0-0.1-0.1-0.1c-0.1-0.1-0.2-0.2-0.3-0.3c0,0,0,0-0.1-0.1s-0.2-0.2-0.3-0.3c0,0,0,0-0.1-0.1s-0.2-0.2-0.3-0.3c0,0,0,0-0.1-0.1
	s-0.2-0.2-0.3-0.3c0,0,0,0-0.1-0.1s-0.2-0.2-0.3-0.3c0,0,0,0-0.1-0.1s-0.2-0.2-0.3-0.3c0,0,0,0-0.1,0c-0.1-0.1-0.2-0.2-0.4-0.3
	c0,0,0,0-0.1,0c-0.1-0.1-0.2-0.2-0.4-0.3l0,0c-0.1-0.1-0.3-0.2-0.4-0.3l0,0c-0.1-0.1-0.3-0.2-0.4-0.3l0,0c-0.1-0.1-0.3-0.2-0.4-0.3
	l0,0c-0.2-0.1-0.3-0.2-0.5-0.3l0,0c-3.3-2-7.8-3.5-13.7-3.9c0,0,0,0-0.1,0c-0.3,0-0.5,0-0.8,0h-0.1c-0.3,0-0.5,0-0.8,0h-0.1l0,0l0,0
	c-0.1,0-0.2,0-0.3,0c-0.3,0-0.5,0-0.8,0l0,0c-5.9,0-10.9,0.4-14,0.4c-1.7,0-6.4-0.4-14.5-0.4c-1.5,0-2,0.2-2.1,0.5l0,0l0,0l0,0
	C316.2,397,316.7,397.1,317.9,397.1z M331.5,398.6c0.1,0,0.2,0,0.3,0c0.2,0,0.1,0,0.3,0l0,0c0.3-0.1,0.9-0.3,2.2-0.5
	c1.2-0.3,3.2-0.6,5.5-0.8c4.1-0.4,10.1-0.4,15.4,1.5c3.5,1.3,6.3,3.3,8.3,6c2.4,3.1,3.7,7.2,4,12.2c0.5,8.4-2.6,14.3-5.2,17.8
	c-1.8,2.4-3.7,4.1-4.8,4.9c1.7,0.8,5.2,2.7,8.9,5.6c3,2.4,5.4,5,7.2,7.7c2.3,3.4,3.7,7.1,4,10.9c1,10.4-1.5,18.2-7.3,23.1
	c-3,2.5-6.9,4.2-11.5,5.1c-2.7,0.5-5.6,0.8-8.7,0.8c-1.2,0-2.5,0-3.8-0.1c-7.1-0.4-12.6-1.9-13.6-2.1c-0.1,0-0.2,0-0.3,0l-4.1,0.8
	l3.1-1.8c0.2-0.1,0.3-0.3,0.3-0.5c0-2.7-0.1-23.6-0.1-44.5c0-13.1,0-23.6,0-31.1c0-4.5,0-7.9,0-10.3c0-1.3,0-2.2,0-2.9
	c0-0.3,0-0.8-0.1-0.9c-0.1-0.3-5-1.8-5-1.8L331.5,398.6z M170.5,492.3L170.5,492.3c0-0.3-0.4-0.4-1.4-0.4c-1.3,0-3.7,0-5.6-0.6
	c-0.1,0-0.2-0.1-0.3-0.1h-0.1c-0.1,0-0.2-0.1-0.3-0.1l0,0c-0.1,0-0.2-0.1-0.3-0.1c0,0,0,0-0.1,0s-0.2-0.1-0.2-0.1l0,0
	c-0.1,0-0.2-0.1-0.3-0.1c0,0,0,0-0.1,0s-0.1-0.1-0.2-0.1l0,0c-0.1,0-0.2-0.1-0.2-0.1l0,0c-0.1,0-0.1-0.1-0.2-0.1l0,0
	c-0.1,0-0.2-0.1-0.2-0.1l0,0c-0.1,0-0.1-0.1-0.2-0.1l0,0c-0.1,0-0.1-0.1-0.2-0.2l0,0c-0.1,0-0.1-0.1-0.2-0.1l0,0
	c-0.1-0.1-0.3-0.2-0.4-0.3l0,0c-0.1-0.1-0.3-0.2-0.4-0.4l0,0c-0.1-0.1-0.1-0.1-0.2-0.2l0,0c-0.1-0.1-0.1-0.1-0.2-0.2l0,0
	c-0.1-0.1-0.1-0.1-0.2-0.2l0,0c-0.1-0.1-0.1-0.2-0.2-0.2c0,0,0,0,0-0.1s-0.1-0.1-0.1-0.2l0,0c-0.1-0.1-0.1-0.2-0.2-0.3
	c0,0,0,0,0-0.1s-0.1-0.2-0.1-0.2s0,0,0-0.1c-0.1-0.1-0.1-0.2-0.2-0.3l0,0c0-0.1-0.1-0.2-0.1-0.3c0,0,0,0,0-0.1
	c-0.1-0.1-0.1-0.2-0.2-0.3l0,0c-0.1-0.1-0.1-0.2-0.2-0.3v-0.1c-0.1-0.2-0.2-0.5-0.3-0.7v-0.1c-0.1-0.1-0.1-0.3-0.2-0.4l0,0
	c-0.1-0.1-0.1-0.3-0.2-0.4c0,0,0,0,0-0.1c-0.1-0.1-0.1-0.3-0.2-0.4l0,0l0,0l0,0c-0.8-1.9-1.7-4.2-2.9-7.2l0,0
	c-7.7-19.2-27.5-71.3-29.2-75.5c-1.9-4.7-2.5-5.4-3-5.4l0,0v0.1l0,0v-0.1c-0.5,0.1-1.3,1-2.9,5.6l-28.5,78c-0.4,1-0.7,1.9-1.1,2.8
	c0,0.1-0.1,0.2-0.1,0.3c0,0.1-0.1,0.2-0.1,0.3c-0.1,0.1-0.1,0.3-0.2,0.4c0,0.1-0.1,0.2-0.1,0.2c-0.1,0.1-0.1,0.3-0.2,0.4
	c0,0.1-0.1,0.1-0.1,0.2c-0.1,0.1-0.1,0.2-0.2,0.3c-2.2,4.7-4.6,7.3-8.3,7.8c-1.9,0.3-2.8,0.3-3.8,0.3c-0.9,0-1.2,0.1-1.3,0.4l0,0
	l0,0c0,0.1,0.4,0.5,2.1,0.5c3.4,0,13.4-0.4,14.5-0.4c1.4,0,5.2,0.4,9.8,0.4c1.5,0,1.9-0.4,1.9-0.5l0,0l0,0v-0.1
	c-0.1-0.2-0.6-0.3-1.2-0.3c-0.8,0-2.1,0-3.8-0.4c0,0,0,0-0.1,0s-0.1,0-0.2-0.1h-0.1c-0.1,0-0.1-0.1-0.2-0.1h-0.1
	c-0.1,0-0.1,0-0.2-0.1h-0.1c-0.1,0-0.1-0.1-0.2-0.1c0,0-0.1,0-0.1-0.1c-0.1,0-0.1-0.1-0.2-0.1c0,0,0,0-0.1-0.1l-0.1-0.1
	c0,0,0,0-0.1-0.1l-0.1-0.1c0,0,0,0-0.1-0.1l-0.1-0.1c0,0,0-0.1-0.1-0.1l-0.1-0.1c0,0,0-0.1-0.1-0.1c0-0.1-0.1-0.1-0.1-0.2v-0.1
	c0,0,0-0.1-0.1-0.1c0-0.1,0-0.1-0.1-0.2c0-0.1,0-0.1,0-0.2v-0.1c0-0.1,0-0.1,0-0.2s0-0.1,0-0.2v-0.1c0-0.1,0-0.1,0-0.2s0-0.1,0-0.2
	s0-0.1,0-0.2s0-0.1,0-0.2s0-0.2,0-0.2c0-0.1,0-0.1,0-0.2s0-0.1,0-0.2s0-0.2,0-0.3c0-0.1,0-0.1,0-0.2s0-0.1,0-0.2s0-0.2,0-0.3
	c0-0.1,0-0.1,0-0.2s0-0.2,0-0.3v-0.1c0.1-0.3,0.1-0.7,0.2-1v-0.1c0-0.1,0-0.2,0.1-0.3c0-0.1,0-0.1,0-0.2s0-0.2,0.1-0.3
	c0-0.1,0-0.2,0.1-0.2c0-0.1,0.1-0.2,0.1-0.4c0-0.1,0.1-0.3,0.1-0.4s0-0.1,0.1-0.2c0-0.1,0.1-0.2,0.1-0.4c0-0.1,0-0.1,0.1-0.2
	c0-0.2,0.1-0.3,0.1-0.5v-0.1c0.1-0.4,0.3-0.9,0.4-1.3c0,0,0,0,0-0.1c0.1-0.5,0.3-0.9,0.5-1.4l7.7-22.7c0.2-0.4,0.2-0.5,0.3-0.6l0,0
	h0.1l0,0l0,0c0,0,0,0,0.1,0h28.3h0.1c0.1,0,0.2,0,0.2,0l0,0c0.1,0,0.1,0.1,0.2,0.3l11.9,31.4c0.9,2.5-0.1,3.3-0.8,3.7
	c-0.5,0.2-0.8,0.4-0.9,0.6c0,0,0,0,0.1,0l0,0c0,0,0,0-0.1,0l0,0c0,0.3,0.4,0.8,3.8,0.9c8.7,0.4,17.7,0.3,20.5,0.3
	C170.1,492.8,170.5,492.5,170.5,492.3L170.5,492.3L170.5,492.3L170.5,492.3z M133.5,454.3h-26.8c-0.2,0-0.4-0.2-0.3-0.5l0.3-0.7
	c0.1-0.1,0.2-0.2,0.3-0.2h26.3c0.1,0,0.3,0.1,0.3,0.2l0.3,0.7C133.9,454,133.7,454.3,133.5,454.3z M106.9,450.5l11.2-34.5
	c0.4-1.3,0.7-2,0.9-2l0,0l0,0l0,0l0,0l0,0l0,0l0,0l0,0l0,0l0,0c0,0,0,0.1,0.1,0.1l0,0l0,0l0,0c0,0,0.1,0.1,0.1,0.2l0,0
	c0,0,0,0.1,0.1,0.1l0,0c0.1,0.3,0.3,0.8,0.5,1.4l12.1,34.5c0.1,0.2,0.1,0.3,0.1,0.4l0.1,0.1l0,0l-0.1-0.1c0,0.1-0.1,0.1-0.4,0.1H107
	c-0.1,0-0.1,0-0.2,0l0,0l0,0l0,0l0,0C106.8,450.8,106.8,450.7,106.9,450.5L106.9,450.5z M154.5,490.7c-0.5,0-1,0-1.5,0l-4,0.6l2.4-1
	c0.9-0.4,1.2-1.1,0.9-1.9L121,403.9L91.7,488c-0.4,1.1,0.1,2.2,1.1,2.8l1.4,0.7l-3.8-0.5c-0.2,0-0.3,0-0.5,0l-4.3,0.4l3.1-1.3
	c0.6-0.2,1-0.7,1.2-1.3l31.2-88.9L154,489c0.2,0.5,0.6,0.8,1,0.9l4.6,1.3L154.5,490.7z M132.2,450.9L132.2,450.9L132.2,450.9
	L132.2,450.9z M486.8,492.3L486.8,492.3c0-0.3-0.4-0.4-1.4-0.4c-1.3,0-3.7,0-5.6-0.6c-0.1,0-0.2-0.1-0.3-0.1h-0.1
	c-0.1,0-0.2-0.1-0.3-0.1l0,0c-0.1,0-0.2-0.1-0.3-0.1c0,0,0,0-0.1,0s-0.2-0.1-0.2-0.1l0,0c-0.1,0-0.2-0.1-0.3-0.1c0,0,0,0-0.1,0
	s-0.1-0.1-0.2-0.1l0,0c-0.1,0-0.2-0.1-0.2-0.1l0,0c-0.1,0-0.1-0.1-0.2-0.1l0,0c-0.1,0-0.2-0.1-0.2-0.1l0,0c-0.1,0-0.1-0.1-0.2-0.1
	l0,0c-0.1,0-0.1-0.1-0.2-0.2l0,0c-0.1,0-0.1-0.1-0.2-0.1l0,0c-0.1-0.1-0.3-0.2-0.4-0.3l0,0c-0.1-0.1-0.3-0.2-0.4-0.4l0,0
	c-0.1-0.1-0.1-0.1-0.2-0.2l0,0c-0.1-0.1-0.1-0.1-0.2-0.2l0,0c-0.1-0.1-0.1-0.1-0.2-0.2l0,0c-0.1-0.1-0.1-0.2-0.2-0.2c0,0,0,0,0-0.1
	s-0.1-0.1-0.1-0.2l0,0c-0.1-0.1-0.1-0.2-0.2-0.3c0,0,0,0,0-0.1s-0.1-0.2-0.1-0.2s0,0,0-0.1c-0.1-0.1-0.1-0.2-0.2-0.3l0,0
	c0-0.1-0.1-0.2-0.1-0.3c0,0,0,0,0-0.1c-0.1-0.1-0.1-0.2-0.2-0.3l0,0c-0.1-0.1-0.1-0.2-0.2-0.3v-0.1c-0.1-0.2-0.2-0.5-0.3-0.7v-0.1
	c-0.1-0.1-0.1-0.3-0.2-0.4l0,0c-0.1-0.1-0.1-0.3-0.2-0.4c0,0,0,0,0-0.1c-0.1-0.1-0.1-0.3-0.2-0.4l0,0l0,0l0,0
	c-0.8-1.9-1.7-4.2-2.9-7.2l0,0c-7.7-19.2-27.5-71.3-29.2-75.5c-1.9-4.7-2.5-5.4-3-5.4l0,0v0.1l0,0v-0.1c-0.5,0.1-1.3,1-2.9,5.6
	l-28.5,78c-0.4,1-0.7,1.9-1.1,2.8c0,0.1-0.1,0.2-0.1,0.3c0,0.1-0.1,0.2-0.1,0.3c-0.1,0.1-0.1,0.3-0.2,0.4c0,0.1-0.1,0.2-0.1,0.2
	c-0.1,0.1-0.1,0.3-0.2,0.4c0,0.1-0.1,0.1-0.1,0.2c-0.1,0.1-0.1,0.2-0.2,0.3c-2.2,4.7-4.6,7.3-8.3,7.8c-1.9,0.3-2.8,0.3-3.8,0.3
	c-0.9,0-1.2,0.1-1.3,0.4l0,0l0,0c0,0.1,0.4,0.5,2.1,0.5c3.4,0,13.4-0.4,14.5-0.4c1.4,0,5.2,0.4,9.8,0.4c1.5,0,1.9-0.4,1.9-0.5l0,0
	l0,0v-0.1c-0.1-0.2-0.6-0.3-1.2-0.3c-0.8,0-2.1,0-3.8-0.4c0,0,0,0-0.1,0s-0.1,0-0.2-0.1H414c-0.1,0-0.1-0.1-0.2-0.1h-0.1
	c-0.1,0-0.1,0-0.2-0.1h-0.1c-0.1,0-0.1-0.1-0.2-0.1c0,0-0.1,0-0.1-0.1c-0.1,0-0.1-0.1-0.2-0.1c0,0,0,0-0.1-0.1l-0.1-0.1
	c0,0,0,0-0.1-0.1l-0.1-0.1c0,0,0,0-0.1-0.1l-0.1-0.1c0,0,0-0.1-0.1-0.1l-0.1-0.1c0,0,0-0.1-0.1-0.1c0-0.1-0.1-0.1-0.1-0.2v-0.1
	c0,0,0-0.1-0.1-0.1c0-0.1,0-0.1-0.1-0.2c0-0.1,0-0.1,0-0.2v-0.1c0-0.1,0-0.1,0-0.2s0-0.1,0-0.2v-0.1c0-0.1,0-0.1,0-0.2s0-0.1,0-0.2
	s0-0.1,0-0.2s0-0.1,0-0.2s0-0.2,0-0.2c0-0.1,0-0.1,0-0.2s0-0.1,0-0.2s0-0.2,0-0.3c0-0.1,0-0.1,0-0.2s0-0.1,0-0.2s0-0.2,0-0.3
	c0-0.1,0-0.1,0-0.2s0-0.2,0-0.3v-0.1c0.1-0.3,0.1-0.7,0.2-1v-0.1c0-0.1,0-0.2,0.1-0.3c0-0.1,0-0.1,0-0.2s0-0.2,0.1-0.3
	c0-0.1,0-0.2,0.1-0.2c0-0.1,0.1-0.2,0.1-0.4c0-0.1,0.1-0.3,0.1-0.4s0-0.1,0.1-0.2c0-0.1,0.1-0.2,0.1-0.4c0-0.1,0-0.1,0.1-0.2
	c0-0.2,0.1-0.3,0.1-0.5v-0.1c0.1-0.4,0.3-0.9,0.4-1.3c0,0,0,0,0-0.1c0.1-0.5,0.3-0.9,0.5-1.4l7.7-22.7c0.2-0.4,0.2-0.5,0.3-0.6l0,0
	h0.1l0,0l0,0c0,0,0,0,0.1,0h28.3h0.1c0.1,0,0.2,0,0.2,0l0,0c0.1,0,0.1,0.1,0.2,0.3l11.9,31.4c0.9,2.5-0.1,3.3-0.8,3.7
	c-0.5,0.2-0.8,0.4-0.9,0.6c0,0,0,0,0.1,0l0,0c0,0,0,0-0.1,0l0,0c0,0.3,0.4,0.8,3.8,0.9c8.7,0.4,17.7,0.3,20.5,0.3
	C486.4,492.8,486.7,492.5,486.8,492.3L486.8,492.3L486.8,492.3L486.8,492.3z M449.7,454.3h-26.8c-0.2,0-0.4-0.2-0.3-0.5l0.3-0.7
	c0.1-0.1,0.2-0.2,0.3-0.2h26.3c0.1,0,0.3,0.1,0.3,0.2l0.3,0.7C450.1,454,450,454.3,449.7,454.3z M423.1,450.5l11.2-34.5
	c0.4-1.3,0.7-2,0.9-2l0,0l0,0l0,0l0,0l0,0l0,0l0,0l0,0l0,0l0,0c0,0,0,0.1,0.1,0.1l0,0l0,0l0,0c0,0,0.1,0.1,0.1,0.2l0,0
	c0,0,0,0.1,0.1,0.1l0,0c0.1,0.3,0.3,0.8,0.5,1.4l12.1,34.5c0.1,0.2,0.1,0.3,0.1,0.4l0.1,0.1l0,0l-0.1-0.1c0,0.1-0.1,0.1-0.4,0.1
	h-24.9c-0.1,0-0.1,0-0.2,0l0,0l0,0l0,0l0,0C423,450.8,423.1,450.7,423.1,450.5L423.1,450.5z M470.7,490.7c-0.5,0-1,0-1.5,0l-4,0.6
	l2.4-1c0.9-0.4,1.2-1.1,0.9-1.9l-31.3-84.5L407.9,488c-0.4,1.1,0.1,2.2,1.1,2.8l1.4,0.7l-3.8-0.5c-0.2,0-0.3,0-0.5,0l-4.3,0.4
	l3.1-1.3c0.6-0.2,1-0.7,1.2-1.3l31.2-88.9l32.9,89.1c0.2,0.5,0.6,0.8,1,0.9l4.6,1.3L470.7,490.7z M448.5,450.9L448.5,450.9
	L448.5,450.9L448.5,450.9z M620.5,396.9c-0.1-0.2-0.5-0.5-2.2-0.5c-3.5,0-8.8,0.4-10,0.4c-1,0-8.6-0.4-13.3-0.4
	c-1.4,0-1.8,0.3-1.9,0.5c0,0,0,0,0.1,0l0,0c0,0,0,0-0.1,0l0,0c0,0.2,0.2,0.3,0.6,0.3c0.2,0,0.4,0,0.6,0c0.5,0,1.5,0,2.7,0.2
	c0.6,0.1,1.2,0.2,1.9,0.3c0.1,0,0.1,0,0.2,0h0.1c0.1,0,0.1,0,0.2,0.1h0.1c0.1,0,0.1,0.1,0.2,0.1c0,0,0,0,0.1,0s0.1,0.1,0.2,0.1
	c0,0,0,0,0.1,0s0.1,0.1,0.2,0.2l0,0c0.1,0.1,0.1,0.1,0.2,0.2l0,0c0.1,0.1,0.1,0.1,0.2,0.2l0,0c0.5,0.7,0.8,1.7,0.8,2.9l0,0
	c0,0.1,0,0.1,0,0.2c0,1.7-0.1,3.5-1.4,8.2c-4.2,15.2-14.7,48.5-19.1,63.1l0,0c-0.3,1.1-0.6,2.1-0.9,2.9l0,0l0,0L554.5,403
	c-1.4-4-2.3-5.8-3-6.1l0,0l0,0c-0.1,0-0.1,0-0.2,0c-0.6,0-1.3,0.8-3.2,6l-26.7,71.9l0,0l-0.5,1.4c-2-7.2-15.4-54.1-17.3-62.3
	c-1.3-5.6-2.3-10.1-2.4-11.8V402l0,0c0-0.1,0-0.1,0-0.2v-0.1v-0.1v-0.1v-0.1c0-0.1,0-0.1,0-0.2v-0.1c0-0.1,0-0.1,0-0.2v-0.1
	c0-0.1,0-0.1,0-0.2c0,0,0,0,0-0.1s0-0.1,0-0.2l0,0c0-0.1,0-0.1,0-0.2c0,0,0,0,0-0.1s0-0.1,0-0.2l0,0c0-0.1,0-0.1,0.1-0.2l0,0
	c0-0.1,0-0.1,0.1-0.2l0,0c0-0.1,0.1-0.1,0.1-0.2l0,0c0.1-0.1,0.2-0.3,0.2-0.4l0,0c0-0.1,0.1-0.1,0.1-0.2l0,0
	c0.1-0.1,0.1-0.1,0.2-0.2l0,0l0.1-0.1l0,0c0,0,0.1,0,0.1-0.1c0,0,0,0,0.1,0c0,0,0.1,0,0.1-0.1c0,0,0,0,0.1,0c0,0,0.1,0,0.1-0.1l0,0
	c1.9-0.6,4.2-0.5,5-0.5s1.3-0.1,1.3-0.4l0,0l0,0l0,0c0,0,0,0-0.1,0c0,0,0,0,0.1,0c-0.1-0.2-0.5-0.5-1.9-0.5
	c-4.7,0-12.5,0.4-13.6,0.4c-1.2,0-11.5-0.4-15-0.4c-1.6,0-2.1,0.3-2.2,0.5l0,0l0,0c0,0.3,0.4,0.4,1.3,0.4c1,0,2.7,0,4.6,0.4
	c0.1,0,0.2,0,0.3,0.1h0.1c0.1,0,0.2,0,0.2,0.1h0.1c0.1,0,0.2,0.1,0.3,0.1l0,0c0.1,0,0.2,0.1,0.3,0.1h0.1c0.1,0,0.1,0.1,0.2,0.1h0.1
	c0.1,0,0.2,0.1,0.3,0.1l0,0c0.1,0,0.2,0.1,0.3,0.2c0,0,0.1,0,0.1,0.1c0.1,0,0.1,0.1,0.2,0.1c0,0,0.1,0,0.1,0.1
	c0.1,0.1,0.2,0.1,0.3,0.2l0,0c0.1,0.1,0.1,0.1,0.2,0.2c0,0,0.1,0,0.1,0.1c0.1,0.1,0.1,0.1,0.2,0.2l0.1,0.1c0.1,0.1,0.2,0.2,0.2,0.2
	l0,0c0.1,0.1,0.1,0.1,0.2,0.2l0.1,0.1c0.1,0.1,0.1,0.1,0.2,0.2l0.1,0.1c0.1,0.1,0.1,0.2,0.2,0.3c0,0,0,0,0,0.1
	c0.1,0.1,0.1,0.2,0.2,0.2l0.1,0.1c0,0.1,0.1,0.1,0.1,0.2l0.1,0.1c0.1,0.1,0.1,0.2,0.2,0.3v0.1c0.1,0.1,0.1,0.2,0.2,0.3l0.1,0.1
	c0,0.1,0.1,0.2,0.1,0.2s0,0.1,0.1,0.1c0.1,0.1,0.1,0.2,0.2,0.4c0,0,0,0.1,0.1,0.1c0,0.1,0.1,0.2,0.1,0.3c0,0.1,0,0.1,0.1,0.2
	c0,0.1,0.1,0.2,0.1,0.3c0,0.1,0,0.1,0.1,0.2s0.1,0.3,0.2,0.4l0,0c0.2,0.5,0.4,1,0.6,1.6l0,0c0.1,0.2,0.1,0.3,0.2,0.5c0,0,0,0,0,0.1
	s0.1,0.3,0.1,0.4s0,0.1,0.1,0.2c0,0.1,0.1,0.3,0.1,0.4s0,0.1,0.1,0.2c0.1,0.4,0.3,0.8,0.4,1.2l22.8,75.9c0,0.1,0,0.1,0.1,0.2
	c0,0.1,0.1,0.2,0.1,0.3c0,0.1,0,0.1,0.1,0.2c0,0.2,0.1,0.3,0.1,0.5c0,0,0,0,0,0.1l0,0c2.2,7.3,3,8.9,4,9c0,0,0,0,0-0.1l0,0
	c0,0,0,0,0,0.1h0.1c1.2,0,2.2-1.5,4.2-6.9c4.6-11.9,22.1-58.7,26.9-71.4l25.2,71.5c1.8,5,2.7,6.8,3.8,6.8h0.1c0,0,0,0,0-0.1l0,0
	c0,0,0,0,0,0.1c1.2-0.1,2-2,5.2-11.1c5-14.3,17.9-55,23.5-71.3c2.4-7,4.5-14.2,8.4-15c0.3-0.1,0.5-0.1,0.8-0.1l0,0
	c1.5-0.2,2.4-0.2,3.3-0.2c0.5,0,0.8,0,1-0.1C620.4,397.1,620.5,397.1,620.5,396.9L620.5,396.9L620.5,396.9z M611.1,398.9l-2.6,1.7
	c0,0-1.6,1.3-1.9,2.4l-27.2,85.4l0,0L550,406.9l0,0l-31.8,83.7l0,0l-23.7-87.9c0,0-0.3-0.8-0.4-1c-0.1-0.1-0.2-0.2-0.3-0.3
	c-1-0.8-4.5-2.2-4.5-2.2l0,0c0,0,3.6,0.8,4.9,0.9c0.3,0,0.8,0,1.1,0c1.1-0.2,4.4-1,4.4-1l0,0c0,0-2.9,1.3-3.6,2.2
	c-0.2,0.2-0.2,0.4-0.2,0.6s0.1,0.8,0.1,0.8l22.6,83.7l0,0l31.6-83.2l0,0l29.2,81.1l0,0l25.3-79.5c0.6-2-0.2-4.7-1.8-6l0,0l0,0
	l2.9,1.3c0.1,0,0.1,0.1,0.2,0.1c0.5,0.1,0.9,0.1,1.4,0c0.1,0,0.1,0,0.2,0L611.1,398.9L611.1,398.9z M304,396.9
	c-0.1-0.2-0.5-0.5-2.2-0.5c-3.5,0-8.8,0.4-10,0.4c-1,0-8.6-0.4-13.3-0.4c-1.4,0-1.8,0.3-1.9,0.5c0,0,0,0,0.1,0l0,0c0,0,0,0-0.1,0
	l0,0c0,0.2,0.2,0.3,0.6,0.3c0.2,0,0.4,0,0.6,0c0.5,0,1.5,0,2.7,0.2c0.6,0.1,1.2,0.2,1.9,0.3c0.1,0,0.1,0,0.2,0h0.1
	c0.1,0,0.1,0,0.2,0.1h0.1c0.1,0,0.1,0.1,0.2,0.1c0,0,0,0,0.1,0s0.1,0.1,0.2,0.1c0,0,0,0,0.1,0s0.1,0.1,0.2,0.2l0,0
	c0.1,0.1,0.1,0.1,0.2,0.2l0,0c0.1,0.1,0.1,0.1,0.2,0.2l0,0c0.5,0.7,0.8,1.7,0.8,2.9l0,0c0,0.1,0,0.1,0,0.2c0,1.7-0.1,3.5-1.4,8.2
	c-4.2,15.2-14.7,48.5-19.1,63.1l0,0c-0.3,1.1-0.6,2.1-0.9,2.9l0,0l0,0L238.1,403c-1.4-4-2.3-5.8-3-6.1l0,0l0,0c-0.1,0-0.1,0-0.2,0
	c-0.6,0-1.3,0.8-3.2,6L205,474.8l0,0l-0.5,1.4c-2-7.2-15.4-54.1-17.3-62.3c-1.3-5.6-2.3-10.1-2.4-11.8V402l0,0c0-0.1,0-0.1,0-0.2
	v-0.1v-0.1v-0.1v-0.1c0-0.1,0-0.1,0-0.2v-0.1c0-0.1,0-0.1,0-0.2v-0.1c0-0.1,0-0.1,0-0.2c0,0,0,0,0-0.1s0-0.1,0-0.2l0,0
	c0-0.1,0-0.1,0-0.2c0,0,0,0,0-0.1s0-0.1,0-0.2l0,0c0-0.1,0-0.1,0.1-0.2l0,0c0-0.1,0-0.1,0.1-0.2l0,0c0-0.1,0.1-0.1,0.1-0.2l0,0
	c0.1-0.1,0.2-0.3,0.2-0.4l0,0c0-0.1,0.1-0.1,0.1-0.2l0,0c0.1-0.1,0.1-0.1,0.2-0.2l0,0l0.1-0.1l0,0c0,0,0.1,0,0.1-0.1c0,0,0,0,0.1,0
	c0,0,0.1,0,0.1-0.1c0,0,0,0,0.1,0c0,0,0.1,0,0.1-0.1l0,0c1.9-0.6,4.2-0.5,5-0.5s1.3-0.1,1.3-0.4l0,0l0,0l0,0c0,0,0,0-0.1,0
	c0,0,0,0,0.1,0c-0.1-0.2-0.5-0.5-1.9-0.5c-4.7,0-12.5,0.4-13.6,0.4c-1.2,0-11.5-0.4-15-0.4c-1.6,0-2.1,0.3-2.2,0.5l0,0l0,0
	c0,0.3,0.4,0.4,1.3,0.4c1,0,2.7,0,4.6,0.4c0.1,0,0.2,0,0.3,0.1h0.1c0.1,0,0.2,0,0.2,0.1h0.1c0.1,0,0.2,0.1,0.3,0.1l0,0
	c0.1,0,0.2,0.1,0.3,0.1h0.1c0.1,0,0.1,0.1,0.2,0.1h0.1c0.1,0,0.2,0.1,0.3,0.1l0,0c0.1,0,0.2,0.1,0.3,0.2c0,0,0.1,0,0.1,0.1
	c0.1,0,0.1,0.1,0.2,0.1c0,0,0.1,0,0.1,0.1c0.1,0.1,0.2,0.1,0.3,0.2l0,0c0.1,0.1,0.1,0.1,0.2,0.2c0,0,0.1,0,0.1,0.1
	c0.1,0.1,0.1,0.1,0.2,0.2l0.1,0.1c0.1,0.1,0.2,0.2,0.2,0.2l0,0c0.1,0.1,0.1,0.1,0.2,0.2l0.1,0.1c0.1,0.1,0.1,0.1,0.2,0.2l0.1,0.1
	c0.1,0.1,0.1,0.2,0.2,0.3c0,0,0,0,0,0.1c0.1,0.1,0.1,0.2,0.2,0.2l0.1,0.1c0,0.1,0.1,0.1,0.1,0.2l0.1,0.1c0.1,0.1,0.1,0.2,0.2,0.3
	v0.1c0.1,0.1,0.1,0.2,0.2,0.3l0.1,0.1c0,0.1,0.1,0.2,0.1,0.2s0,0.1,0.1,0.1c0.1,0.1,0.1,0.2,0.2,0.4c0,0,0,0.1,0.1,0.1
	c0,0.1,0.1,0.2,0.1,0.3c0,0.1,0,0.1,0.1,0.2c0,0.1,0.1,0.2,0.1,0.3c0,0.1,0,0.1,0.1,0.2s0.1,0.3,0.2,0.4l0,0c0.2,0.5,0.4,1,0.6,1.6
	l0,0c0.1,0.2,0.1,0.3,0.2,0.5c0,0,0,0,0,0.1s0.1,0.3,0.1,0.4s0,0.1,0.1,0.2c0,0.1,0.1,0.3,0.1,0.4s0,0.1,0.1,0.2
	c0.1,0.4,0.3,0.8,0.4,1.2l22.8,75.9c0,0.1,0,0.1,0.1,0.2c0,0.1,0.1,0.2,0.1,0.3c0,0.1,0,0.1,0.1,0.2c0,0.2,0.1,0.3,0.1,0.5
	c0,0,0,0,0,0.1l0,0c2.2,7.3,3,8.9,4,9c0,0,0,0,0-0.1l0,0c0,0,0,0,0,0.1h0.1c1.2,0,2.2-1.5,4.2-6.9c4.6-11.9,22.1-58.7,26.9-71.4
	l25.2,71.5c1.8,5,2.7,6.8,3.8,6.8h0.1c0,0,0,0,0-0.1l0,0c0,0,0,0,0,0.1c1.2-0.1,2-2,5.2-11.1c5-14.3,17.9-55,23.5-71.3
	c2.4-7,4.5-14.2,8.4-15c0.3-0.1,0.5-0.1,0.8-0.1l0,0c1.5-0.2,2.4-0.2,3.3-0.2c0.5,0,0.8,0,1-0.1C304,397.1,304.1,397.1,304,396.9
	C304.1,396.9,304.1,396.9,304,396.9L304,396.9z M294.7,398.9l-2.6,1.7c0,0-1.6,1.3-1.9,2.4L263,488.4l0,0l-29.4-81.5l0,0l-31.8,83.7
	l0,0l-23.7-87.9c0,0-0.3-0.8-0.4-1c-0.1-0.1-0.2-0.2-0.3-0.3c-1-0.8-4.5-2.2-4.5-2.2l0,0c0,0,3.6,0.8,4.9,0.9c0.3,0,0.8,0,1.1,0
	c1.1-0.2,4.4-1,4.4-1l0,0c0,0-2.9,1.3-3.6,2.2c-0.2,0.2-0.2,0.4-0.2,0.6s0.1,0.8,0.1,0.8l22.6,83.7l0,0l31.6-83.2l0,0l29.2,81.1l0,0
	l25.3-79.5c0.6-2-0.2-4.7-1.8-6l0,0l0,0l2.9,1.3c0.1,0,0.1,0.1,0.2,0.1c0.5,0.1,0.9,0.1,1.4,0c0.1,0,0.1,0,0.2,0L294.7,398.9
	L294.7,398.9z M678.7,396.4c-12,0-23.3,5-31.8,14.1s-13.2,21.2-13.2,34.1s4.7,25,13.2,34.1s19.8,14.1,31.8,14.1s23.3-5,31.8-14.1
	s13.2-21.2,13.2-34.1s-4.7-25-13.2-34.1S690.7,396.4,678.7,396.4z M711,417.9c0.1,0.2,0.2,0.3,0.3,0.5c0.1,0.1,0.1,0.2,0.2,0.3
	c0.1,0.2,0.2,0.3,0.3,0.5c0,0.1,0.1,0.2,0.1,0.2c0.2,0.3,0.3,0.6,0.5,1c0.1,0.1,0.1,0.2,0.2,0.3c0.1,0.2,0.2,0.4,0.2,0.5
	c3.1,6.8,4.9,15.1,4.9,24.8c0,38-24.3,44.8-36,44.8c-0.1,0-0.2,0-0.3,0l0,0c-0.5,0-0.9,0-1.4,0h-0.1c-0.7,0-1.3-0.1-2-0.1h-0.1
	c-0.7-0.1-1.3-0.1-2-0.2h-0.1c-0.7-0.1-1.3-0.2-1.9-0.3h-0.1c-0.4-0.1-0.8-0.2-1.3-0.3l0,0c-0.2-0.1-0.4-0.1-0.6-0.2c0,0,0,0-0.1,0
	c-0.4-0.1-0.8-0.2-1.2-0.3h-0.1c-0.6-0.2-1.2-0.4-1.8-0.6h-0.1c-0.6-0.2-1.2-0.4-1.8-0.7c0,0-0.1,0-0.1-0.1
	c-0.6-0.2-1.1-0.5-1.7-0.8c-0.1,0-0.1,0-0.2-0.1c-0.6-0.3-1.1-0.5-1.7-0.8c-0.1,0-0.1-0.1-0.2-0.1c-0.4-0.2-0.7-0.4-1.1-0.6l0,0
	c-0.2-0.1-0.3-0.2-0.5-0.3c-0.1,0-0.1-0.1-0.2-0.1c-0.3-0.2-0.6-0.4-0.9-0.6l-0.1-0.1c-0.2-0.1-0.3-0.2-0.5-0.3
	c-0.1,0-0.1-0.1-0.2-0.1c-0.3-0.2-0.6-0.4-0.9-0.6c-0.1,0-0.1-0.1-0.2-0.1c-0.2-0.1-0.3-0.2-0.5-0.4l-0.1-0.1
	c-0.3-0.2-0.6-0.4-0.8-0.7c-0.1-0.1-0.1-0.1-0.2-0.2c-0.1-0.1-0.3-0.2-0.4-0.4l-0.1-0.1c-0.3-0.2-0.6-0.5-0.8-0.7
	c-0.1-0.1-0.1-0.1-0.2-0.2c-0.4-0.4-0.9-0.8-1.3-1.3c-0.1-0.1-0.1-0.1-0.2-0.2c-0.4-0.4-0.8-0.9-1.2-1.3c-0.1-0.1-0.1-0.1-0.2-0.2
	c-0.2-0.3-0.5-0.5-0.7-0.8c0-0.1-0.1-0.1-0.1-0.2c-0.1-0.1-0.2-0.3-0.4-0.5c-0.1-0.1-0.1-0.1-0.2-0.2c-0.2-0.3-0.4-0.5-0.6-0.8
	c-0.1-0.1-0.1-0.1-0.2-0.2c-0.1-0.2-0.2-0.3-0.4-0.5c-0.1-0.1-0.1-0.1-0.2-0.2c-0.2-0.3-0.4-0.6-0.6-0.9c0-0.1-0.1-0.1-0.1-0.2
	c-0.1-0.2-0.2-0.3-0.3-0.5c0-0.1-0.1-0.1-0.1-0.2c-0.2-0.3-0.4-0.6-0.6-0.9c0-0.1-0.1-0.2-0.1-0.2c-0.1-0.2-0.2-0.4-0.3-0.5
	c0,0,0-0.1-0.1-0.1c-0.2-0.3-0.4-0.7-0.6-1c0-0.1-0.1-0.2-0.1-0.2c-0.2-0.4-0.4-0.8-0.6-1.2l0,0c-3.8-7.6-6-16.8-6-27.3
	c0-28.6,16.3-43,38.1-43c0.3,0,0.6,0,0.9,0c0.1,0,0.1,0,0.2,0c0.2,0,0.5,0,0.7,0c0.1,0,0.1,0,0.2,0c0.3,0,0.6,0,0.8,0.1
	c0.1,0,0.1,0,0.2,0c0.2,0,0.5,0,0.7,0.1c0.1,0,0.1,0,0.2,0c0.3,0,0.6,0.1,0.8,0.1h0.1c0.2,0,0.5,0.1,0.7,0.1c0.1,0,0.2,0,0.2,0
	c0.3,0,0.6,0.1,0.8,0.1c0,0,0,0,0.1,0c0.3,0,0.5,0.1,0.8,0.1c0.1,0,0.2,0,0.2,0.1c0.2,0.1,0.5,0.1,0.7,0.2h0.1
	c0.3,0.1,0.5,0.1,0.8,0.2c0.1,0,0.2,0,0.2,0.1c0.2,0.1,0.4,0.1,0.6,0.2c0.1,0,0.1,0,0.2,0.1c0.3,0.1,0.5,0.2,0.8,0.2
	c0.1,0,0.2,0.1,0.2,0.1c0.2,0.1,0.4,0.1,0.6,0.2c0.1,0,0.2,0.1,0.3,0.1c0.3,0.1,0.5,0.2,0.7,0.3c0.1,0,0.2,0.1,0.2,0.1
	c0.2,0.1,0.4,0.1,0.6,0.2c0.1,0,0.2,0.1,0.3,0.1c0.2,0.1,0.5,0.2,0.7,0.3c0.1,0,0.1,0.1,0.2,0.1c0.2,0.1,0.4,0.2,0.6,0.3
	c0.1,0,0.2,0.1,0.3,0.1c0.2,0.1,0.4,0.2,0.5,0.3c0.1,0.1,0.2,0.1,0.3,0.2c0.2,0.1,0.4,0.2,0.6,0.3c0.1,0.1,0.2,0.1,0.3,0.2
	c0.2,0.1,0.3,0.2,0.5,0.3c0.1,0.1,0.2,0.1,0.3,0.2c0.2,0.1,0.4,0.3,0.6,0.4c0.1,0.1,0.2,0.1,0.3,0.2s0.3,0.2,0.4,0.3
	c0.1,0.1,0.2,0.1,0.3,0.2c0.2,0.1,0.4,0.3,0.6,0.4c0.1,0.1,0.2,0.1,0.3,0.2s0.3,0.2,0.4,0.3c0.1,0.1,0.2,0.2,0.3,0.2
	c0.2,0.1,0.3,0.2,0.5,0.3c0.2,0.1,0.3,0.2,0.5,0.3c0.1,0.1,0.2,0.2,0.3,0.3c0.1,0.1,0.2,0.2,0.3,0.3c0.1,0.1,0.2,0.2,0.3,0.3
	c0.2,0.1,0.4,0.3,0.5,0.4s0.2,0.2,0.3,0.3c0.1,0.1,0.2,0.2,0.3,0.3c0.1,0.1,0.2,0.2,0.3,0.3c0.2,0.2,0.4,0.3,0.5,0.5
	c0.1,0.1,0.2,0.2,0.3,0.3c0.1,0.1,0.2,0.2,0.3,0.3c0.1,0.1,0.2,0.2,0.3,0.3c0.1,0.1,0.2,0.2,0.3,0.4c0.2,0.2,0.3,0.3,0.5,0.5
	c0.1,0.1,0.2,0.3,0.3,0.4s0.2,0.2,0.2,0.3c0.1,0.1,0.2,0.3,0.3,0.4s0.1,0.2,0.2,0.3c0.2,0.2,0.4,0.5,0.6,0.7
	c0.1,0.1,0.1,0.2,0.2,0.3c0.1,0.1,0.2,0.3,0.3,0.4s0.1,0.2,0.2,0.3c0.2,0.3,0.4,0.5,0.6,0.8c0.1,0.1,0.1,0.2,0.2,0.3
	c0.1,0.2,0.2,0.3,0.3,0.5c0.1,0.1,0.1,0.2,0.2,0.3c0.2,0.3,0.4,0.5,0.5,0.8c0.1,0.1,0.1,0.2,0.2,0.3c0.1,0.2,0.2,0.3,0.3,0.5
	c0.1,0.1,0.1,0.2,0.2,0.3c0.2,0.3,0.4,0.7,0.6,1C710.9,417.9,711,417.9,711,417.9z M723.7,416.8c0-0.1-0.1-0.1-0.1-0.2
	c-0.2-0.3-0.4-0.6-0.5-0.9c0,0,0-0.1-0.1-0.1c-0.2-0.3-0.3-0.5-0.5-0.8c0-0.1-0.1-0.1-0.1-0.2c-0.2-0.3-0.4-0.6-0.6-0.9
	c0,0,0,0,0-0.1c-0.2-0.3-0.4-0.5-0.6-0.8c0-0.1-0.1-0.1-0.1-0.2c-0.4-0.6-0.9-1.1-1.3-1.7c-0.1-0.1-0.1-0.1-0.2-0.2
	c-0.2-0.3-0.4-0.5-0.7-0.8l0,0c-0.2-0.3-0.5-0.5-0.7-0.8c-0.1-0.1-0.1-0.1-0.2-0.2c-0.2-0.2-0.4-0.5-0.7-0.7c0,0,0-0.1-0.1-0.1
	c-0.2-0.2-0.5-0.5-0.7-0.7c-0.1-0.1-0.1-0.1-0.2-0.2c-0.2-0.2-0.4-0.4-0.7-0.6l-0.1-0.1c-0.3-0.2-0.5-0.5-0.8-0.7
	c-0.1-0.1-0.1-0.1-0.2-0.2c-0.2-0.2-0.5-0.4-0.7-0.6l-0.1-0.1c-0.3-0.2-0.5-0.4-0.8-0.7c-0.1,0-0.1-0.1-0.2-0.1
	c-0.2-0.2-0.5-0.4-0.7-0.5c-0.1,0-0.1-0.1-0.2-0.1c-0.3-0.2-0.6-0.4-0.8-0.6c-0.1,0-0.1-0.1-0.2-0.1c-0.2-0.2-0.5-0.3-0.7-0.5
	c-0.1,0-0.1-0.1-0.2-0.1c-0.3-0.2-0.6-0.4-0.9-0.6c0,0-0.1-0.1-0.2-0.1c-0.3-0.2-0.5-0.3-0.8-0.5c-0.1,0-0.1-0.1-0.2-0.1
	c-0.3-0.2-0.6-0.4-0.9-0.5c0,0-0.1,0-0.1-0.1c-0.3-0.2-0.5-0.3-0.8-0.4c-0.1,0-0.2-0.1-0.2-0.1c-0.3-0.2-0.6-0.3-0.9-0.5h-0.1
	c-0.3-0.1-0.6-0.3-0.9-0.4c-0.1,0-0.2-0.1-0.2-0.1c-0.3-0.2-0.7-0.3-1-0.4l0,0c-0.3-0.1-0.7-0.3-1-0.4c-0.1,0-0.2-0.1-0.3-0.1
	c-0.3-0.1-0.6-0.3-0.9-0.4h-0.1c-0.3-0.1-0.7-0.3-1-0.4c-0.1,0-0.2-0.1-0.3-0.1c-0.3-0.1-0.6-0.2-0.9-0.3c0,0-0.1,0-0.1-0.1
	c-0.3-0.1-0.7-0.2-1-0.3c-0.1,0-0.2-0.1-0.3-0.1c-0.3-0.1-0.6-0.2-0.9-0.3c-0.1,0-0.1,0-0.2-0.1c-0.4-0.1-0.7-0.2-1.1-0.3
	c-0.1,0-0.2,0-0.3-0.1c-0.3-0.1-0.6-0.1-0.9-0.2c-0.1,0-0.2,0-0.2-0.1c-0.4-0.1-0.7-0.2-1.1-0.2c-0.1,0-0.2,0-0.3-0.1
	c-0.3-0.1-0.6-0.1-0.9-0.2c-0.1,0-0.2,0-0.3-0.1c-0.4-0.1-0.7-0.1-1.1-0.2c-0.1,0-0.2,0-0.3,0c-0.3,0-0.6-0.1-0.9-0.1
	c-0.1,0-0.2,0-0.3,0c-0.4-0.1-0.7-0.1-1.1-0.2c-0.1,0-0.2,0-0.2,0c-0.3,0-0.6-0.1-1-0.1c-0.1,0-0.2,0-0.3,0c-0.4,0-0.8-0.1-1.1-0.1
	c-0.1,0-0.1,0-0.2,0c-0.3,0-0.7,0-1-0.1c-0.1,0-0.2,0-0.3,0c-0.4,0-0.8,0-1.2-0.1h-0.1c-0.4,0-0.7,0-1.1,0c-0.1,0-0.2,0-0.3,0
	c-0.4,0-0.8,0-1.2,0l0,0c-0.3,0-0.6,0-0.9,0c0,0,0,0-0.1,0c-0.3,0-0.5,0-0.8,0l0,0c-34.8,0.9-49.7,30.2-49.7,51
	c0,13,4.5,27.3,14.6,37.5l0,0l0,0c0.2,0.2,0.4,0.4,0.7,0.7l0.1,0.1c0.2,0.2,0.5,0.4,0.7,0.6l0.1,0.1c0.2,0.2,0.5,0.4,0.7,0.7
	c0,0,0,0,0.1,0.1c0.2,0.2,0.5,0.4,0.7,0.6c0,0,0,0,0.1,0.1c0.3,0.2,0.5,0.4,0.8,0.6l0.1,0.1c0.3,0.2,0.5,0.4,0.8,0.6
	c0.1,0,0.1,0.1,0.2,0.1c0.3,0.2,0.5,0.4,0.8,0.6l0.1,0.1c0.3,0.2,0.5,0.4,0.8,0.6c0,0,0,0,0.1,0c0.3,0.2,0.5,0.4,0.8,0.5l0.1,0.1
	c0.3,0.2,0.6,0.3,0.8,0.5c0.1,0,0.1,0.1,0.2,0.1c0.3,0.2,0.6,0.3,0.8,0.5c0.1,0,0.1,0.1,0.2,0.1c0.3,0.2,0.6,0.3,0.9,0.5
	c0.1,0,0.1,0.1,0.2,0.1c0.3,0.2,0.6,0.3,0.9,0.5c0,0,0.1,0,0.1,0.1c0.3,0.1,0.6,0.3,0.9,0.4c0.1,0,0.1,0.1,0.2,0.1
	c0.3,0.1,0.6,0.3,0.9,0.4c0.1,0,0.2,0.1,0.2,0.1c0.3,0.1,0.6,0.3,0.9,0.4c0.1,0,0.2,0.1,0.2,0.1c0.3,0.1,0.6,0.2,0.9,0.4
	c0.1,0,0.1,0,0.2,0.1c0.3,0.1,0.6,0.2,0.9,0.3c0.1,0,0.1,0,0.2,0.1c0.3,0.1,0.6,0.2,1,0.3c0.1,0,0.2,0.1,0.3,0.1
	c0.3,0.1,0.6,0.2,1,0.3c0.1,0,0.2,0.1,0.3,0.1c0.3,0.1,0.6,0.2,1,0.3c0.1,0,0.2,0.1,0.3,0.1c0.3,0.1,0.7,0.2,1,0.3
	c0.1,0,0.2,0,0.2,0.1c0.3,0.1,0.6,0.1,0.9,0.2c0.1,0,0.2,0,0.2,0.1c0.3,0.1,0.7,0.1,1,0.2c0.1,0,0.2,0,0.3,0.1
	c0.3,0.1,0.7,0.1,1,0.2c0.1,0,0.2,0,0.3,0.1c0.3,0.1,0.7,0.1,1,0.2c0.1,0,0.2,0,0.3,0c0.3,0,0.7,0.1,1,0.1c0.1,0,0.2,0,0.3,0
	c0.3,0,0.7,0.1,1,0.1c0.1,0,0.2,0,0.3,0c0.4,0,0.7,0.1,1.1,0.1c0.1,0,0.2,0,0.4,0c0.4,0,0.7,0,1.1,0.1c0.1,0,0.3,0,0.4,0
	c0.4,0,0.8,0,1.1,0c0.1,0,0.2,0,0.3,0c0.4,0,0.7,0,1.1,0c0.1,0,0.1,0,0.2,0c3.9,0,7.7-0.4,11.2-1.1l0,0c25-5,40.9-26.7,40.9-52.3
	c0-9.8-2.3-18.3-6.3-25.4l0,0C723.8,417,723.7,416.9,723.7,416.8z M725.1,444.6c0,13.3-4.8,25.7-13.6,35.1s-20.5,14.6-32.9,14.6
	s-24.1-5.2-32.9-14.6c-8.8-9.4-13.6-21.9-13.6-35.1s4.8-25.7,13.6-35.1s20.5-14.6,32.9-14.6s24.1,5.2,32.9,14.6
	C720.3,418.9,725.1,431.3,725.1,444.6z M848.2,396.7L848.2,396.7c0-0.2-0.3-0.5-2-0.5c-3.8,0-10.4,0.4-11.1,0.4
	c-0.6,0-6.7-0.4-13-0.4c-2.4,0-2.8,0.3-2.8,0.5c0,0,0,0,0.1,0l0,0c0,0,0,0-0.1,0l0,0c0,0.1,0.1,0.4,1.1,0.4c1.3,0,3.7,0,5.5,0.3
	c0.2,0,0.3,0,0.5,0.1l0,0c0.1,0,0.3,0.1,0.4,0.1l0,0c0.1,0,0.3,0.1,0.4,0.1c0,0,0,0,0.1,0s0.2,0.1,0.3,0.1c0,0,0,0,0.1,0
	s0.2,0.1,0.3,0.1c0,0,0,0,0.1,0c0.1,0.1,0.2,0.1,0.3,0.2l0,0c0.1,0.1,0.2,0.1,0.3,0.2l0,0c0.1,0.1,0.2,0.1,0.3,0.2l0,0
	c0.1,0.1,0.2,0.2,0.3,0.2l0,0c0.1,0.1,0.2,0.2,0.2,0.3l0,0c0.1,0.1,0.1,0.2,0.2,0.3l0,0c0.1,0.1,0.1,0.2,0.2,0.3l0,0
	c0.1,0.1,0.1,0.2,0.2,0.3l0,0c0.1,0.1,0.1,0.2,0.2,0.3c0,0,0,0,0,0.1s0.1,0.2,0.1,0.3l0,0c0,0.1,0.1,0.2,0.1,0.4l0,0
	c0,0.1,0.1,0.3,0.1,0.4v0.1c0,0.1,0.1,0.2,0.1,0.3c0,0.1,0,0.1,0,0.2s0,0.2,0.1,0.3c0,0.1,0,0.1,0,0.2s0,0.2,0,0.3
	c0,0.1,0,0.2,0,0.2c0,0.1,0,0.2,0,0.3c0,0.1,0,0.2,0,0.3c0,0.1,0,0.2,0,0.3c0,0.1,0,0.2,0,0.3c0,0.1,0,0.2,0,0.3c0,0.1,0,0.2,0,0.3
	c0,0.1,0,0.2,0,0.3c0,0.1,0,0.2,0,0.3c0,0.1,0,0.2,0,0.3c0,0.1,0,0.2,0,0.3c0,0.1,0,0.2,0,0.3c0,0.1,0,0.2,0,0.4c0,0.1,0,0.2,0,0.2
	c0,0.1,0,0.3,0,0.4s0,0.1,0,0.2s0,0.3,0,0.4s0,0.1,0,0.2c0,0.8,0,1.7,0.1,2.6l1.4,64.5c-4.1-4.2-17.9-19.7-30.5-33.2
	c-19.6-21-38.5-41.4-40.4-43.6c-1.3-1.3-3.4-4.1-4.4-4.1c-0.1,0-0.1,0-0.2,0l0,0l0,0c-0.9,0.2-1.2,1.7-1.2,6.3c0,3.2,0,5.7,0,7.7
	l0,0c0,4.3,0,6.5,0,8.8c0,0,0,0,0,0.1s0,0.2,0,0.4l0,0c0,0.3,0,0.5,0,0.8c0,0.1,0,0.2,0,0.2c0,0.3,0,0.7,0,1.1c0,0.1,0,0.2,0,0.4
	c0,0.4,0,0.7,0,1.1c0,0,0,0,0,0.1s0,0.3,0,0.4v0.1v0.1c0,0,0,0,0,0.1c0,0.2,0,0.4,0,0.6v0.1c0,0.1,0,0.1,0,0.2l0,0
	c0,0.1,0,0.1,0,0.2v0.1c0,0.1,0,0.1,0,0.2v0.1c0,0.1,0,0.1,0,0.2v0.1c0,0.2,0,0.4,0,0.7v0.1c0,0.1,0,0.2,0,0.2s0,0,0,0.1
	s0,0.2,0,0.2s0,0,0,0.1s0,0.2,0,0.2v0.1c0,0.1,0,0.1,0,0.2s0,0.1,0,0.2v0.1c0,0.1,0,0.1,0,0.2c0,0.2,0,0.5,0,0.7c0,0.1,0,0.1,0,0.2
	c0,0,0,0,0,0.1s0,0.2,0,0.3c0,0.1,0,0.1,0,0.2s0,0.1,0,0.2s0,0.2,0,0.3v0.1c0,0.1,0,0.2,0,0.3c0,0.1,0,0.2,0,0.3v0.1
	c0,0.3,0,0.6,0,0.9c0,0.1,0,0.1,0,0.2s0,0.2,0,0.3c0,0.1,0,0.1,0,0.2s0,0.2,0,0.2c0,0.1,0,0.2,0,0.3c0,0.1,0,0.1,0,0.2s0,0.2,0,0.3
	c0,0.1,0,0.2,0,0.2c0,0.1,0,0.2,0,0.3c0,0.1,0,0.1,0,0.2s0,0.2,0,0.3c0,0.1,0,0.2,0,0.3c0,0.1,0,0.1,0,0.2c0,0.2,0,0.4,0,0.5
	s0,0.1,0,0.2s0,0.2,0,0.3c0,0.1,0,0.1,0,0.2s0,0.3,0,0.4s0,0.1,0,0.2s0,0.3,0,0.4s0,0.1,0,0.2c0,0.2,0,0.3,0,0.5v0.1
	c0,0.2,0,0.3,0,0.5c0,0.1,0,0.1,0,0.2c0,0.2,0,0.4,0,0.6s0,0.3,0,0.5c0,0.1,0,0.1,0,0.2s0,0.2,0,0.4c0,0.1,0,0.2,0,0.3
	c0,0.1,0,0.1,0,0.2c0,0.2,0,0.3,0,0.5c0,0.1,0,0.2,0,0.3c0,0.2,0,0.3,0,0.5c0,0.1,0,0.1,0,0.2c0,0.2,0,0.3,0,0.5c0,0.1,0,0.2,0,0.3
	c0,0.1,0,0.3,0,0.4s0,0.2,0,0.3c0,0.2,0,0.5,0,0.7l0,0c0,0.2,0,0.5,0,0.8v0.1c0,0.2,0,0.4,0,0.6c0,0.1,0,0.3,0,0.4s0,0.2,0,0.3
	c0,0.2,0,0.3,0,0.5s0,0.3,0,0.5c0,0.1,0,0.2,0,0.3c0,0.2,0,0.3,0,0.5c0,0.1,0,0.3,0,0.4s0,0.2,0,0.3c0,0.1,0,0.2,0,0.3
	c0,2.2,0,4.6,0,7.2v18.8c0,0.8,0,1.5,0,2.2c0,0.2,0,0.4,0,0.6v0.1c0,0.3,0,0.5,0,0.8v0.1c0,0.3,0,0.5,0,0.8l0,0
	c0,1.1-0.1,2.2-0.1,3.1l0,0c0,0.2,0,0.5,0,0.7l0,0c-0.1,1.4-0.2,2.6-0.4,3.7l0,0c-0.6,3.3-1.9,5-4.2,5.3c-1.1,0.1-3,0.3-4.2,0.3
	c-0.9,0-1,0.3-1,0.4v0.1h0.1l0,0h-0.1c0.1,0.2,0.5,0.4,2,0.4c3.8,0,11.6-0.4,12.2-0.4c0.6,0,6.7,0.4,13,0.4c2,0,2.6-0.2,2.7-0.4l0,0
	l0,0l0,0c0-0.1,0.1-0.1,0.1-0.1c0-0.1-0.1-0.4-1.1-0.4l0,0c-1.3,0-3.7,0-5.5-0.3l0,0c-0.1,0-0.2,0-0.3-0.1h-0.1
	c-0.1,0-0.2,0-0.3-0.1c0,0,0,0-0.1,0s-0.2-0.1-0.3-0.1h-0.1c-0.1,0-0.1-0.1-0.2-0.1h-0.1c-0.1,0-0.2-0.1-0.3-0.1c0,0-0.1,0-0.1-0.1
	c-0.1,0-0.1-0.1-0.2-0.1c0,0-0.1,0-0.1-0.1c-0.1-0.1-0.2-0.1-0.2-0.2c0,0,0,0-0.1-0.1s-0.1-0.1-0.2-0.2l-0.1-0.1
	c-0.1-0.1-0.1-0.1-0.2-0.2l-0.1-0.1c-0.1-0.1-0.1-0.1-0.2-0.2l-0.1-0.1c0-0.1-0.1-0.1-0.1-0.2c0,0,0-0.1-0.1-0.1
	c-0.1-0.1-0.1-0.2-0.2-0.3l-0.1-0.1c0-0.1-0.1-0.1-0.1-0.2c0,0,0-0.1-0.1-0.1c-0.1-0.1-0.1-0.2-0.2-0.3c0-0.1,0-0.1-0.1-0.2
	c0-0.1-0.1-0.2-0.1-0.2c0-0.1,0-0.1-0.1-0.2c0-0.1-0.1-0.2-0.1-0.3c0-0.1,0-0.1-0.1-0.2c0-0.1-0.1-0.2-0.1-0.3c0-0.1,0-0.1-0.1-0.2
	c0-0.1,0-0.2-0.1-0.3c0-0.1-0.1-0.2-0.1-0.3c0-0.1,0-0.2-0.1-0.3c0-0.1,0-0.2-0.1-0.3c0-0.1,0-0.2-0.1-0.3c0-0.1-0.1-0.3-0.1-0.4
	s0-0.2-0.1-0.3c0-0.1,0-0.2-0.1-0.3c0-0.1,0-0.2,0-0.3c0-0.1,0-0.2,0-0.3c0-0.2,0-0.3-0.1-0.5c0-0.1,0-0.2,0-0.3c0-0.1,0-0.2,0-0.3
	c0-0.2,0-0.3-0.1-0.5c0-0.1,0-0.2,0-0.3c0-0.1,0-0.2,0-0.3c0-0.2,0-0.3,0-0.5c0-0.1,0-0.2,0-0.3c0-0.1,0-0.2,0-0.3
	c0-0.2,0-0.3,0-0.5c0-0.1,0-0.3,0-0.4s0-0.2,0-0.4c0-0.1,0-0.3,0-0.5s0-0.3,0-0.5c0-0.1,0-0.3,0-0.4s0-0.2,0-0.4c0-0.2,0-0.4,0-0.6
	c0-0.1,0-0.3,0-0.4s0-0.3,0-0.4s0-0.2,0-0.3l-1.7-60.8l0,0c4.1,4.6,18.4,20.6,33.2,36.5c13.5,14.5,31.8,33.2,33.2,34.4
	c6.7,6.7,8.3,8.1,9.3,8.1c0.1,0,0.2,0,0.3,0l0,0c0.3-0.1,0.5-0.5,0.6-1.5l0,0c0-0.1,0-0.1,0-0.2s0-0.2,0-0.4c0-0.1,0-0.1,0-0.2
	c0.1-1.3,0.1-3.4,0.1-6.7l0.2-72.3V410c0-0.2,0-0.5,0-0.7v-0.1c0-0.2,0-0.4,0-0.7v-0.1c0-0.2,0-0.4,0-0.6v-0.1c0-0.2,0-0.4,0-0.6
	V407c0-0.2,0-0.4,0-0.6v-0.1c0-0.2,0-0.4,0-0.5v-0.1c0-0.2,0-0.4,0-0.5v-0.1c0-0.2,0-0.3,0-0.5v-0.1c0-0.2,0-0.3,0-0.5v-0.1
	c0-0.1,0-0.3,0-0.4v-0.1c0-0.1,0-0.3,0-0.4v-0.1c0-0.1,0-0.3,0-0.4v-0.1c0-0.1,0-0.2,0-0.4v-0.1c0-0.1,0-0.2,0.1-0.4c0,0,0,0,0-0.1
	s0-0.2,0.1-0.3V401c0-0.1,0-0.2,0.1-0.3v-0.1c0-0.1,0.1-0.2,0.1-0.3v-0.1c0-0.1,0.1-0.2,0.1-0.3c0,0,0,0,0-0.1s0.1-0.1,0.1-0.2
	c0,0,0-0.1,0.1-0.1c0,0,0-0.1,0.1-0.1c0,0,0-0.1,0.1-0.1l0.1-0.1c0,0,0-0.1,0.1-0.1c0-0.1,0.1-0.1,0.1-0.2c0,0,0-0.1,0.1-0.1
	l0.1-0.1l0.1-0.1l0.1-0.1l0.1-0.1l0.1-0.1l0.1-0.1l0.1-0.1c0,0,0.1,0,0.1-0.1c0.1,0,0.1-0.1,0.2-0.1h0.1c0.1,0,0.1-0.1,0.2-0.1h0.1
	c0.1,0,0.1,0,0.2-0.1h0.1c0.1,0,0.1,0,0.2,0h0.1c0.1,0,0.1,0,0.2,0h0.1c0.1,0,0.2,0,0.3,0l0,0c1.1-0.1,3-0.3,4.2-0.3
	C848.1,397.1,848.2,396.9,848.2,396.7C848.2,396.8,848.2,396.8,848.2,396.7C848.2,396.8,848.2,396.7,848.2,396.7z M833,475.3
	L833,475.3L833,475.3L833,475.3L833,475.3z M838,493.1L838,493.1L838,493.1L838,493.1z M837.7,399.7c-0.5,0.4-0.8,1-0.8,1.6v86.1
	l-76.6-84.6v83.4c0,1.1,0.6,2.2,1.6,2.8l3.3,1.8l-4.3-1.1c-0.7-0.2-1.5-0.2-2.2,0.1l-2.9,1l2.1-1.7c0.7-0.6,1.1-1.5,1.1-2.5v-87.5
	l76.6,84.6v-82.3c0-0.7-0.4-1.4-1-1.8l-2.5-1.4l4,0.8c0.1,0,0.2,0,0.3,0s0.1,0,0.2,0l2.7-0.6L837.7,399.7z M848.2,396.7L848.2,396.7
	L848.2,396.7L848.2,396.7L848.2,396.7z M249.6,6.4c2.9,0.2,6.2,0.2,9.5,0.6c3.1,0.4,6.1,1.2,9.2,1.9c4.3,1,8.5,2.3,12.5,4.1
	c2.1,0.9,4.2,1.8,6.2,2.7c1.7,0.8,3.4,1.7,5.1,2.6c3,1.6,5.8,3.3,8.5,5.3c3.5,2.6,7,5.2,10.5,7.8c1.4,1,2.6,2.3,3.9,3.5
	c3.3,3.1,6.7,6.2,9.8,9.5c2.2,2.3,4.2,4.8,6.4,7.2c1.5,1.7,3.1,3.5,4.6,5.3c1.7,2,3.3,4.1,4.9,6.3c2.6,3.6,5.3,7.1,7.8,10.7
	c2.7,3.9,5.3,7.9,7.9,11.9c1.9,2.9,3.7,5.8,5.5,8.7c1.4,2.4,2.7,4.9,4,7.4c1.6,2.8,3.2,5.7,4.8,8.5c0.5,0.8,0.9,1.7,1.3,2.6
	c2,4,4,8,5.9,11.9c0.9,1.8,1.9,3.6,2.8,5.4c0.5,0.9,0.9,1.9,1.3,2.9c2,4.6,4.1,9.1,6.1,13.7c1.5,3.5,3.1,7,4.5,10.5
	c0.9,2.3,1.7,4.6,2.6,7c0.2,0.6,0.6,1.2,0.8,1.9c0.2,0.5,0.5,0.9,0.6,1.4c0.8,2.3,1.5,4.6,2.4,6.9c1.6,4.3,3.2,8.6,4.7,12.9
	c1.3,3.9,2.5,7.8,3.8,11.7c0.4,1.1,0.8,2.2,1.3,3.3c0.4,1.1,1.4,1.7,2.5,2c2.5,0.5,4.8,1.7,7.2,2.6c1.8,0.6,3.7,1.1,5.6,1.7
	c2.1,0.7,4.1,1.4,6.2,2.1c0.1,0,0.2,0.1,0.3,0.1c0.5-0.1,1.2,0,1.5-0.3c0.5-0.4,0.2-1.1-0.2-1.7c-2.6-4.2-4.4-8.8-6.1-13.4
	c-2.1-5.4-3.8-10.9-5.6-16.4c-0.8-2.4-1.1-5-1.9-7.5c-1.1-3.5-1.7-7.1-2.5-10.6c-0.7-3.4-1.6-6.7-1.9-10.2c-0.1-1.8-0.6-3.5-0.9-5.3
	c-0.2-1.3-0.4-2.6-0.5-4c-0.1-0.4,0-0.8-0.1-1.2c-1.1-6.5-1.6-13-2-19.5c-0.3-5.5-0.6-11-0.9-16.5c-0.1-1.1-0.1-2.1-0.2-3.2
	c0-0.7,0-1.4,0.1-2.1c0.3-2.3,2.1-3.4,4.1-2.2c2.3,1.3,4.6,2.8,6.7,4.4c2.9,2.2,5.7,4.5,8.3,7.1c2.3,2.3,4.2,4.9,6.3,7.4
	c2.9,3.5,5,7.4,7.1,11.4c0.4,0.8,0.7,1.6,1,2.4c1.8,5,3.3,10,3.8,15.3c0.4,3.6,0.6,7.3,0.1,10.9c-0.8,5.8-1.8,11.4-3.8,16.9
	c-1.8,5-4.1,9.9-4.7,15.2c-0.4,2.8-0.8,5.6-1.1,8.4c-0.3,2.9,0.2,5.7,0.6,8.5c0.2,1.5,0.4,3,0.8,4.5c0.2,0.8,0.5,1.6,0.8,2.3
	c0.6,1.2,1.6,1.7,2.9,1.9c3.2,0.5,6.3,1,9.5,1.6c2,0.4,3.9,1,5.8,1.3c4.3,0.8,8.5,2.1,12.8,3.1c4.2,0.9,8.4,2,12.6,3.4
	c2.7,0.9,5.6,1.6,8.3,2.5c4.4,1.5,8.8,3,13.2,4.7c4.6,1.8,9.2,3.7,13.8,5.8c3.9,1.8,7.8,3.5,11.6,5.7c2.2,1.3,4.5,2.3,6.7,3.6
	c1.7,1,3.3,2,5,3c3.1,2,6.3,3.8,9.2,6c3,2.3,6.2,4.3,8.9,7c2.6,2.7,5.4,5.3,8.1,7.9c0.4,0.4,0.8,0.9,1.1,1.4c0.7,1,0.6,1.7-0.1,2.6
	c-1,1.2-2.2,1.9-3.5,2.5c-3.7,2-7.4,3.9-11.1,5.8c-0.8,0.4-1.6,0.6-2.4,1c-1.6,0.6-3.2,1.3-4.8,1.9c-3.5,1.5-6.9,2.9-10.5,4
	c-2.1,0.6-4.2,1.6-6.3,2.2c-2.8,0.9-5.6,1.6-8.3,2.3c-0.2,0-0.4,0.1-0.5,0.1c-3.9,1.5-8,1.8-11.9,3.2c-0.3,0.1-0.5,0.1-0.8,0.2
	c-3.8,0.6-7.6,1.1-11.4,1.7c-4.5,0.7-9.1,0.9-13.6,1.1c-4.2,0.1-8.5-0.1-12.7-0.1c-1.1,0-2.3-0.1-3.4-0.2
	c-5.4-0.4-10.8-1.1-16.1-2.3c-3.7-0.9-7.3-1.9-11-3.1c-3.8-1.2-7.6-2.5-11.2-4.2c-1.8-0.9-3.6-1.8-5.3-2.7c-2.2-1.1-4.3-2.3-6.5-3.5
	c-2.5-1.4-4.8-3-7-4.8c-0.7-0.6-1.5-0.9-2.4-0.9c-1.5-0.1-2.9,0-4.4,0.5c-1.4,0.4-2.9,0.6-4.4,0.8c-3.4,0.5-6.7,1-10.1,1.2
	c-2.3,0.1-4.5,0.4-6.7,0.5c-2.1,0.1-4.2,0.1-6.4,0.2c-3,0-6,0.1-8.9-0.1c-5.1-0.3-10.3-0.4-15.4-1.5c-1.9-0.4-3.9-0.7-5.9-1
	c-3.9-0.7-7.7-1.8-11.5-3.2c-1.1-0.4-2.4-0.6-3.5-1.1c-3.5-1.5-6.9-3-10.3-4.6c-3.8-1.7-7.1-4.2-10.4-6.7c-1.1-0.8-2.2-1.6-3.3-2.4
	c-2.4-1.8-4.4-4-6.5-6.2c-3.7-3.8-6.7-8.1-9.6-12.5c-2.2-3.5-4-7.2-5.6-11c-1.3-3.2-2.5-6.5-3.7-9.8c-1.4-4.1-2.6-8.2-3.1-12.6
	c-0.1-1-0.6-1.9-0.8-2.9c-0.2-1.2-0.3-2.4-0.2-3.5c0.1-1.6,1-2.3,2.5-2.4c1.1-0.1,2.3-0.1,3.4,0c3.5,0.3,6.9,0.8,10.3,1.4
	c4.8,0.9,9.2,2.6,13.8,4.1c3,1,5.9,2.3,8.6,3.9c0.7,0.4,1.5,0.6,2.2,1c2.4,1.5,4.9,3,7.2,4.6c2.6,1.9,5.2,4,7.7,6.1
	c3,2.4,5.6,5.4,8,8.4c2,2.4,3.9,5,5.7,7.5c1.2,1.6,2.2,3.4,3.5,4.9c2,2.5,4.3,4.7,6.8,6.7c2.2,1.8,4.3,3.8,6.6,5.5
	c3,2.2,6.2,4.2,9.4,6.3c1.5,1,3,1.9,4.5,2.8c4.9,2.8,10.2,4.7,15.5,6.4c0.9,0.3,1.8,0.7,2.7,1c0.6,0.2,1.1,0.4,1.7,0.4
	c0.9,0.1,1.3-0.6,0.8-1.3c-0.4-0.6-0.9-1.1-1.5-1.6c-1.3-1.2-2.8-2.2-4.1-3.4c-1.9-2-3.7-4.2-5.5-6.3c-1.2-1.4-2.4-2.8-3.6-4.1
	c-0.4-0.5-0.9-0.9-1.2-1.5c-2.4-3.4-4.8-6.8-7.1-10.2c-2.1-3-3.9-6.1-5.7-9.2c-3-5.1-5.9-10.2-8.2-15.7c-1.1-2.6-2.4-5.2-3.6-7.7
	c-0.3-0.6-0.5-1.2-0.7-1.8c-1-2.5-2.1-4.9-3.1-7.4c-0.8-2-1.4-4-2.1-6c-0.4-1.3-1-2.5-1.4-3.7c-0.6-1.7-1.2-3.4-1.7-5.1
	c-0.7-2.1-1.3-4.3-1.9-6.5c-1.4-5.2-2.9-10.5-4.3-15.7c-0.6-2.3-1-4.7-1.6-7c-0.4-1.7-0.9-3.3-1.3-4.9c-0.4-1.7-0.7-3.3-1.1-5
	c-0.6-3.3-1.3-6.6-1.9-9.9c-0.8-4.2-1.6-8.4-2.3-12.6c-0.2-1.1-0.2-2.3-0.3-3.4c-0.3-1.8-0.6-3.5-1-5.3c-0.7-2.9-1.5-5.7-2.2-8.5
	c-0.2-0.8-0.5-1.6-0.7-2.4c-0.2-0.5-0.4-1-0.5-1.6c-1-3.6-1.9-7.2-3-10.7c-1.5-4.8-3.3-9.6-5-14.3c-0.4-1-0.9-1.9-1.3-2.9
	c-1.2-2.8-2.3-5.7-3.6-8.5c-1.3-2.8-2.7-5.6-4.1-8.4c-1.1-2.1-2.1-4.2-3.4-6.1c-1.6-2.6-3.3-5.2-5.1-7.6c-1.3-1.6-2.9-2.9-5.1-3.1
	c-0.4,0-0.8-0.2-1.2-0.3c-3.1-1.3-6.4-1.8-9.7-2.4c-6.4-1.2-12.8-1.3-19.2-1.1c-3.6,0.1-7.2,0.5-10.8,0.9c-4,0.5-8,1.3-12,2
	c-1.2,0.2-2.3,0.8-3.5,1.1c-3.4,0.8-6.9,1.7-10.3,2.2c-4.1,0.6-8.2,1.5-12.4,1.2c-2.2-0.1-4.3,0-6.5,0c-0.8,0-1.6-0.1-2.4-0.3
	c-1.3-0.2-2.7-0.5-4-0.7c-4-0.6-7.8-1.9-11.5-3.6c-0.7-0.3-1.3-0.6-2-0.9c-3.1-1.5-5.7-3.7-8.2-6c-1.8-1.7-1.6-3.7,0.5-5
	c1.6-1,3.2-1.8,4.8-2.7c0.2-0.1,0.3-0.2,0.5-0.3c4.5-3.1,9.4-5.2,14.4-7.4c4.2-1.8,8.6-3.2,12.9-5c3.3-1.4,6.8-1.8,10.2-2.8
	c3.6-1.1,7.4-1.5,11-2.2c1.4-0.3,2.8-0.3,4.2-0.3C245.5,6.6,247.3,6.5,249.6,6.4z M294.2,24.8c-0.3,0.6,0.1,0.9,0.4,1.2
	c0.8,0.9,1.6,1.8,2.4,2.7c1.7,1.8,3.4,3.5,5,5.4c1.4,1.6,2.7,3.2,3.9,4.9c0.9,1.2,1.5,2.5,2.5,3.6c2.1,2.5,3.6,5.4,5.2,8.2
	c2.8,5.1,5.5,10.2,7.8,15.6c1.6,3.8,3.5,7.6,4.6,11.6c0.1,0.4,0.3,0.7,0.4,1c1.3,3.6,2.7,7.1,3.9,10.7c1,3,1.9,6.1,2.8,9.2
	c1.3,4.6,2.5,9.2,3.7,13.9c0.4,1.5,0.7,3,1.1,4.6c0.7,2.9,1.8,5.6,1.9,8.6c0,0.4,0.2,0.7,0.3,1.1c0.7,2.8,1.4,5.5,2,8.3
	c1.3,6.1,2.3,12.3,4.8,18.1c1.3,2.9,2.8,5.7,4.4,8.4c1.8,2.9,4,5.3,6.1,7.9c2.3,2.7,4.7,5.4,7.4,7.7c3.7,3.1,7.4,6.2,11.4,8.9
	c1.1,0.7,2.1,1.5,3.2,2.1c3,1.7,6.1,3.3,9,5.3c0.2,0.2,0.5,0.3,0.7,0.4c4.3,2.1,8.6,4.1,12.8,6.2c0.5,0.2,1,0.5,1.4,0
	c0.3-0.3,0.4-1,0.3-1.4c-0.2-0.9-0.7-1.8-1.1-2.7c-0.3-0.8-0.7-1.7-1-2.6c-0.3-0.9-0.5-1.9-0.8-2.8c-0.8-2.3-1.7-4.6-2.6-7
	c-1.3-3.6-2.5-7.2-3.7-10.8c-0.4-1.2-1.1-2.4-1.5-3.7c-1.4-4-2.8-8-4.7-11.7c-0.6-1.2-1-2.6-1.5-3.8s-0.9-2.5-1.5-3.7
	c-0.9-2.1-1.8-4.1-2.7-6.2c-0.9-2.1-1.7-4.2-2.6-6.2c-1.1-2.4-2.4-4.8-3.5-7.1c-1.4-2.8-2.7-5.6-4.1-8.4c-0.3-0.7-0.7-1.4-1.1-2.1
	c-1.4-2.8-2.8-5.6-4.2-8.3c-0.6-1.1-1.2-2.2-1.9-3.4c-1.8-3.2-3.5-6.3-5.3-9.5c-0.4-0.8-1-1.4-1.4-2.2c-0.9-1.5-1.7-2.9-2.5-4.4
	c-0.2-0.4-0.5-0.7-0.8-1.1c-1.3-2.2-2.6-4.5-4-6.7c-3.1-4.7-6.3-9.4-9.6-14c-1.9-2.6-3.9-5.2-5.9-7.7c-2.1-2.6-4.1-5.2-6.2-7.8
	c-0.8-0.9-1.7-1.8-2.5-2.7c-2-2.2-3.9-4.5-6-6.6c-3.3-3.2-6.6-6.4-10-9.5c-1.4-1.3-3-2.4-4.5-3.6c-3.3-2.6-6.4-5.4-10-7.6
	C295.6,25,295,24.6,294.2,24.8z M347.5,163.7c-0.2,0-0.3,0.1-0.5,0.1c0,0.5-0.1,1,0,1.4c0.1,0.7,0.3,1.3,0.5,2
	c0.6,1.8,1.4,3.5,1.8,5.3c0.7,2.9,1.4,5.7,2.5,8.4c0.9,2.4,1.6,5,2.4,7.5c0.6,1.7,1.1,3.5,1.8,5.2c0.6,1.5,1.3,3,1.9,4.6
	c0.5,1.1,0.8,2.4,1.3,3.5c1.1,2.5,2.2,5.1,3.2,7.6c0.8,1.8,1.4,3.6,2.3,5.3c1.1,2.3,2.3,4.5,3.5,6.7c1.7,3.3,3.4,6.6,5.3,9.8
	c1.2,2.1,2.5,4,3.8,6c1.1,1.7,2,3.4,3.2,5c3.2,4.2,6.5,8.4,9.8,12.5c2.2,2.6,4.5,5.1,6.9,7.4c2.7,2.6,5.5,5,8.3,7.5
	c1.1,1,2.4,1.5,3.8,1.4c1.8-0.1,3.6-0.2,5.4-0.5c3.2-0.4,6.3-0.9,9.4-2c1.3-0.5,2.6-0.6,4-0.9c0.6-0.1,1.3-0.2,1.9-0.4
	c2.9-0.8,5.7-1.7,8.6-2.5c0.7-0.2,1.3-0.3,2-0.6c0.8-0.3,1.1-1.1,0.7-1.9c-0.2-0.3-0.5-0.6-0.7-0.8c-0.6-0.5-1.2-1-1.7-1.6
	c-2.2-2.5-4.5-5.1-6.7-7.6c-0.4-0.4-0.7-0.8-1.1-1.3c-2.4-3.4-4.8-6.9-7.2-10.4c-1.5-2.2-3-4.4-4.4-6.6c-0.9-1.4-1.5-2.9-2.3-4.4
	c-1.5-2.8-3.1-5.6-4.6-8.4c-0.5-0.9-0.9-1.8-1.3-2.7c-1-2.2-2-4.3-3-6.5c-0.7-1.5-1.2-3.1-2-4.5c-0.3-0.6-1-1.2-1.6-1.6
	c-0.7-0.4-1.6-0.7-2.4-1c-0.9-0.4-1.8-0.7-2.7-1.2c-1.8-0.9-3.6-1.9-5.5-2.6c-2.5-0.9-4.8-2.3-7.1-3.6c-2.9-1.6-5.7-3.5-8.6-5.2
	c-2.7-1.6-5.4-3.3-7.9-5.2c-4.4-3.3-8.7-6.9-12.5-10.9c-2.9-3.1-5.8-6.2-8-9.9C349,165.4,348.2,164.6,347.5,163.7z M396.1,274.4
	c-0.2-0.8-0.7-1.1-1.2-1.2c-1.3-0.4-2.7-0.8-4-1.2c-1-0.3-2.1-0.4-3-0.8c-4.1-1.7-8.3-3.3-12.2-5.5c-2.9-1.6-5.9-3.2-8.6-5.3
	c-4-3-8.1-6-12-9.2c-2.1-1.7-4.2-3.5-5.8-5.8c-1.2-1.6-2.6-3.1-3.8-4.7c-1.6-2-3.1-4.1-4.7-6.1c-1.3-1.7-2.5-3.4-3.8-5
	c-0.7-0.9-1.7-1.6-2.5-2.5c-2.7-2.9-5.6-5.6-8.8-7.9c-3.3-2.4-6.7-4.7-10.2-6.7c-4.9-2.6-10-4.8-15.3-6.3c-0.8-0.2-1.6-0.3-2.4-0.6
	c-4.6-1.5-9.4-2-14.1-2.7c-0.2,0-0.5,0-0.7,0c-1.1,0.1-1.6,0.7-1.4,1.8c0.3,1.5,0.5,3,0.9,4.5c0.6,2.4,1.3,4.9,2,7.3
	c1.4,5.4,3.4,10.5,5.8,15.5c1.9,4.1,4.3,7.9,7,11.5c3.8,5.2,8.1,10.1,13.3,13.9c2.4,1.8,4.9,3.5,7.4,5.1c2,1.3,4.2,2.4,6.3,3.4
	c2.2,1.1,4.5,2.2,6.8,3.1c3,1.1,6,2.3,9.2,2.9c1.6,0.3,3.1,1,4.7,1.3c4.6,0.8,9.2,1.5,13.8,2.2c2.1,0.3,4.2,0.4,6.3,0.5
	c2,0.1,4.1,0.2,6.1,0.2c0.9,0,1.8,0.1,2.7,0.1c4.1-0.2,8.2-0.3,12.3-0.6c3-0.2,5.9-0.5,8.9-0.8C395.4,274.7,395.7,274.6,396.1,274.4
	z M510.5,287.2c2.7-0.2,5.1-0.4,7.5-0.6c5.8-0.4,11.3-2.1,16.9-3.2c0.6-0.1,1.1-0.4,1.7-0.6c1.6-0.6,3.1-1.3,4.7-1.7
	c2.2-0.5,4.3-1.4,6.4-2.3c2.3-1,4.6-2,6.8-3c2.1-1,4.2-2.1,6.3-3.2c1.4-0.8,1.6-1.9,0.8-3.3c-0.2-0.4-0.5-0.7-0.9-1
	c-1.9-1.6-3.8-3.1-5.6-4.7c-1.4-1.1-2.7-2.3-4-3.5c-2.4-2.1-5.3-3.5-8-5.2c-2.3-1.4-4.8-2.3-7.2-3.5c-2.4-1.3-5.1-1.9-7.7-2.6
	c-3.5-0.9-7-1.8-10.7-1.8c-0.4,0-0.7-0.1-1.1-0.1c-2.2-0.4-4.5-0.7-6.7-0.5c-3,0.3-5.9,0.4-8.9,0.7c-5.5,0.6-10.8,2.2-16.1,3.6
	c-1.5,0.4-2.9,1.3-4.4,1.8c-4.8,1.5-9.2,3.9-13.8,5.9c-4.2,1.8-8.4,3.7-12.6,5.4c-0.6,0.3-1.3,0.4-1.9,0.7c-1,0.4-1.1,1.5-0.4,2.2
	c0.2,0.2,0.4,0.3,0.6,0.5c1.6,1.2,3.3,2.3,4.8,3.6c2.5,2.1,5.4,3.4,8.2,5.1c3.5,2.2,7.2,4,11.1,5.4c1.6,0.6,3.2,1.1,4.9,1.6
	c2.5,0.8,5.1,1.7,7.7,2.2c3.9,0.7,7.7,1.6,11.7,1.6C503.9,286.8,507.3,287.1,510.5,287.2z M510.1,242.1c2.6-0.1,6,0.3,9.4,1
	c0.4,0.1,0.8,0.1,1.2,0.1c0.2,0,0.6-0.2,0.6-0.4c0.1-0.3,0-0.7-0.2-0.8c-0.6-0.5-1.3-1-2.1-1.3c-2.8-1.2-5.6-2.5-8.5-3.6
	c-4-1.6-8-3.1-12.1-4.6c-2.5-0.9-5-1.7-7.4-2.6c-1.2-0.4-2.5-0.7-3.8-1.2c-1.9-0.6-3.8-1.3-5.7-1.9c-2.9-0.9-5.8-1.6-8.7-2.4
	c-1.2-0.3-2.4-0.7-3.5-0.9c-3.4-0.8-6.9-1.6-10.3-2.4c-2.8-0.6-5.6-1.2-8.5-1.8c-1.9-0.4-3.7-0.8-5.6-1.2c-1.1-0.2-2.2-0.5-3.3-0.5
	c-2.4,0-4.5-0.7-6.7-1.5c-0.8-0.3-1.7-0.5-2.6-0.7c-1-0.2-2-0.4-3-0.6c-0.7-0.2-1.4-0.5-2.1-0.7c-4.6-1.4-9.3-2.6-13.7-4.7
	c-0.2-0.1-0.4-0.2-0.6-0.2c-0.9-0.2-1.4,0.2-1.3,1.2c0.1,0.7,0.4,1.3,0.7,1.9c1,2,2.2,3.8,3.1,5.8c2.5,5.7,5.7,11,9,16.2
	c0.9,1.4,1.7,3,2.6,4.4c1.4,2.1,2.8,4.2,4.3,6.2c1.7,2.2,3.4,4.4,5.2,6.5c0.8,1,1.6,2,2.5,2.9c1.9,2.1,3.9,4.3,5.8,6.3
	c1.2,1.3,2.5,1.4,4.1,0.5c0.6-0.3,1.1-0.6,1.7-0.8c1.4-0.6,2.9-1,4.3-1.6c2.7-1.2,5.4-2.4,8.1-3.6c2.6-1.1,5.2-2.3,7.8-3.4
	c0.5-0.2,1.1-0.5,1.6-0.7c2.4-1,4.8-2.1,7.2-3.1c0.8-0.3,1.5-0.6,2.3-0.8c2.6-0.8,5.1-1.8,7.8-2.4c2.6-0.7,5.3-1.1,8-1.6
	c1.3-0.3,2.7-0.6,4-0.7C504.2,242.2,506.7,242.2,510.1,242.1z M295.3,35.1c1.2,0,1.6-0.6,1.1-1.5c-0.2-0.4-0.5-0.8-0.8-1.1
	c-3.1-3.1-6.4-6-9.8-8.6c-1.4-1.1-2.9-2.2-4.4-3.2c-1-0.7-2.1-1.2-3.2-1.8c-1.6-0.8-3.1-1.7-4.7-2.5c-1.1-0.5-2.3-1-3.5-1.4
	c-2.9-0.9-5.8-1.8-8.7-2.6c-5.1-1.3-10.4-1.3-15.6-1.2c-2.7,0.1-5.3,0.5-8,0.6s-5.3,0.9-7.9,1.2c-0.5,0.1-1.1,0.3-1.6,0.4
	c-2.6,0.7-5.1,1.5-7.7,2.2c-2.1,0.6-4.3,1.1-6.3,2.1c-1.5,0.7-3,1.3-4.5,1.9c-1.6,0.7-3.2,1.3-4.7,2c-2.1,1-4.2,2.1-6.3,3.1
	c-2.7,1.3-5.3,2.7-8,4.1c-1.3,0.7-1.4,1.8-0.2,2.7c1.6,1.1,3.4,2.1,5.1,3.1c0.5,0.3,1.1,0.4,1.6,0.7c1.6,1,3.5,1.5,5.3,2.1
	c3,0.9,6.1,1.5,9.3,1.7c3.6,0.2,7.2,0.7,10.8,0.1c0.1,0,0.3,0,0.4,0c4.8,0.2,9.3-1.2,13.9-1.9c0.3,0,0.5-0.1,0.8-0.2
	c3.4-0.9,6.7-2.1,10.3-2.5c0.4,0,0.9-0.2,1.3-0.3c1.1-0.2,2.2-0.4,3.3-0.6c2.3-0.3,4.7-0.6,7-0.9c0.6-0.1,1.3-0.2,1.9-0.2
	c2.5-0.2,5-0.3,7.5-0.4c1.5-0.1,3-0.1,4.5-0.1c3.4,0.1,6.8,0.3,10.1,0.6c3.5,0.2,6.9,0.6,10.2,1.9C294.4,34.8,295,35,295.3,35.1z
	 M414.3,118.3L414.3,118.3c-0.1,1.2-0.2,2.3-0.1,3.5c0.3,3.5,0.8,7,1.2,10.6c0.3,2.4,0.6,4.7,0.9,7.1c0.3,2.6,0.6,5.3,1.1,7.9
	c0.5,3.2,1.2,6.3,1.8,9.5c0.1,0.6,0.2,1.3,0.2,1.9c0.1,0.9,0.2,1.8,0.4,2.7c0.4,1.7,0.9,3.5,1.3,5.2c0.7,2.9,1.4,5.7,2.2,8.6
	c0.7,2.6,1.6,5.1,2.3,7.6c0.7,2.4,1.3,4.8,2.3,7.1c1.2,2.8,2.1,5.8,3.2,8.7c0.2,0.5,0.3,1,0.6,1.4c0.2,0.3,0.6,0.5,0.9,0.6
	c0.2,0,0.5-0.5,0.5-0.8c0.1-0.8,0-1.6,0.1-2.3c0.1-2.3,0-4.6,0.3-6.9c0.4-3.6,1.2-7.1,2.3-10.5c1.4-4.2,3.1-8.4,4.4-12.6
	c1.8-5.8,2.6-11.7,2.7-17.7c0.1-4.1-0.6-8.2-1.6-12.3c-0.8-3.3-2.1-6.4-3.5-9.4c-1.8-3.8-4.1-7.2-6.6-10.6c-2.3-3-4.9-5.8-7.7-8.3
	c-2.4-2.2-5-4.1-7.5-6.2c-0.7-0.5-1.4-1-2.2-0.5c-0.7,0.5-0.5,1.3-0.5,2c0.1,1.4,0.3,2.7,0.3,4.1c0.1,1.3,0.1,2.6,0.2,3.9
	C413.9,114.4,414.1,116.3,414.3,118.3z M505.3,291.9c-0.5-0.2-0.7-0.3-0.9-0.3c-2.2-0.3-4.5-0.6-6.7-0.8c-2.6-0.3-5.1-0.6-7.7-1
	c-1.5-0.2-3-0.7-4.5-1c-2.7-0.6-5.4-1.3-7.9-2.4c-1.5-0.7-3.1-1.2-4.7-1.8c-1.1-0.4-2.3-0.8-3.4-1.4c-3.2-1.8-6.5-3.5-9.6-5.4
	c-2.5-1.5-4.9-3.3-7.3-5c-1.9-1.3-3.8-2.7-5.4-4.4c-0.3-0.3-0.6-0.5-1-0.8c-1-0.7-1.8-0.7-2.9-0.1c-0.6,0.4-1.3,0.7-1.9,0.9
	c-2.9,0.9-5.8,1.8-8.7,2.7c-2.3,0.7-4.7,1.5-7,2c-3,0.7-5.9,1.7-9,1.9c-0.4,0-0.7,0.1-1,0.3c-0.8,0.4-1,1-0.4,1.6
	c0.4,0.5,0.9,1,1.5,1.2c1.4,0.5,2.4,1.4,3.7,2.1c3.7,1.9,7.4,3.8,11.2,5.6c0.9,0.4,1.9,0.7,2.8,1.1c1.5,0.6,3,1.2,4.5,1.9
	c0.1,0.1,0.3,0.1,0.4,0.1c1.7,0.1,3.2,0.9,4.8,1.4c2.9,0.8,5.8,1.5,8.7,2.1c1.4,0.3,2.8,0.5,4.1,0.8c2.3,0.5,4.7,1,7.1,1
	c0.7,0,1.4,0.1,2,0.1c3,0.2,5.9,0.6,8.9,0.7c3.3,0.1,6.7-0.1,10-0.2c1.4,0,2.7-0.1,4.1-0.2c2-0.2,4-0.4,6.1-0.5
	c3-0.2,5.9-0.5,8.8-1.3C504.3,292.5,504.6,292.3,505.3,291.9z M534.8,264.6c0,3.4-3.1,6.5-6.5,6.5c-3.5,0-5.9-3.7-6-6.3
	c-0.1-3.1,3.1-6.6,6.3-6.5C531.8,258.3,535,261.6,534.8,264.6z"/>
</svg>
