<?xml version="1.0" encoding="UTF-8"?>
<svg id="Layer_2" data-name="Layer 2" xmlns="http://www.w3.org/2000/svg" viewBox="0 0 490.84 171.42">
  <defs>
    <style>
      .cls-1 {
        fill: #000;
        stroke-width: 0px;
      }
    </style>
  </defs>
  <g id="Object">
    <path class="cls-1" d="M58.17,127.82c-.46-.31-.9-.53-1.32-.64-.42-.11-.68-.16-.8-.15l-.05-.05c.5-.06.95-.21,1.37-.42.41-.22.76-.49,1.06-.81.3-.32.53-.69.69-1.11.16-.42.24-.86.24-1.33,0-.55-.09-1.09-.28-1.63-.19-.54-.49-1.02-.91-1.44-.42-.42-.97-.76-1.67-1.01-.69-.26-1.55-.39-2.59-.39h-6.91v17.25h6.91c.9,0,1.72-.1,2.46-.31.74-.21,1.37-.52,1.9-.93.52-.41.93-.91,1.22-1.51.29-.6.43-1.29.43-2.08,0-.87-.18-1.58-.54-2.14-.36-.56-.77-.99-1.23-1.3ZM48.08,119.76h5.85c.58,0,1.13.06,1.66.17.52.11.99.3,1.39.57.4.27.72.61.97,1.04.24.43.36.95.36,1.58,0,1.06-.36,1.92-1.09,2.57-.72.65-1.82.98-3.29.98h-5.85v-6.91ZM57.56,134.2c-.88.65-2.09.98-3.64.98h-5.85v-7.59h5.85c.56,0,1.14.05,1.73.16.59.1,1.12.29,1.59.57.47.27.87.65,1.17,1.12.31.48.46,1.08.46,1.82,0,1.3-.44,2.28-1.32,2.94ZM79.44,118.84l-6.93,17.25h1.14l2.2-5.53h8.26l2.17,5.53h1.14l-6.81-17.25h-1.16ZM76.18,129.64l3.84-9.76h.05l3.7,9.76h-7.59ZM101.79,135.17h9.79v.92h-10.85v-17.25h1.06v16.33ZM125.95,135.17h9.79v.92h-10.85v-17.25h1.06v16.33ZM161.5,134.7c-.03-.28-.05-.58-.05-.91v-.99c0-.56-.03-1.13-.1-1.69-.06-.56-.21-1.08-.43-1.55-.23-.47-.57-.86-1.03-1.18-.46-.32-1.08-.53-1.87-.63v-.05c1.16-.19,2.07-.69,2.72-1.49.65-.8.98-1.78.98-2.94,0-.84-.14-1.54-.42-2.1-.28-.56-.67-1.02-1.17-1.37-.5-.35-1.08-.6-1.74-.75-.66-.15-1.37-.23-2.13-.23h-7.2v17.25h1.06v-7.85h6.14c1.01,0,1.8.14,2.36.41.56.27.96.64,1.22,1.09.26.45.41.96.46,1.53.05.57.07,1.15.07,1.73s.01,1.14.04,1.68c.02.54.15,1.01.37,1.41h1.18c-.13-.16-.23-.36-.3-.6-.07-.24-.12-.5-.16-.79ZM156.25,127.32h-6.14v-7.56h6.14c.58,0,1.14.06,1.67.19.53.13,1,.34,1.4.63.4.29.72.66.97,1.12.24.46.36,1.01.36,1.66,0,.69-.11,1.29-.34,1.79-.23.5-.53.91-.92,1.23-.39.32-.85.56-1.39.71-.54.15-1.12.23-1.75.23ZM189.83,121.05c-.7-.81-1.56-1.45-2.57-1.92-1.01-.47-2.17-.7-3.46-.7s-2.44.23-3.47.7c-1.02.47-1.88,1.11-2.59,1.92-.7.81-1.24,1.77-1.61,2.88-.37,1.1-.56,2.28-.56,3.54s.19,2.44.56,3.54c.37,1.1.91,2.06,1.61,2.88.7.81,1.56,1.45,2.59,1.92,1.02.47,2.18.7,3.47.7s2.44-.23,3.46-.7c1.01-.47,1.87-1.11,2.57-1.92.7-.81,1.24-1.77,1.61-2.88.37-1.1.56-2.28.56-3.54s-.19-2.44-.56-3.54c-.37-1.1-.91-2.06-1.61-2.88ZM190.44,130.61c-.32.98-.79,1.84-1.4,2.57-.61.73-1.36,1.32-2.24,1.75-.88.43-1.88.65-3.01.65s-2.13-.22-3.02-.65c-.89-.43-1.64-1.02-2.25-1.75-.61-.73-1.08-1.59-1.4-2.57-.32-.98-.48-2.03-.48-3.14s.16-2.16.48-3.14c.32-.98.79-1.84,1.4-2.57.61-.73,1.36-1.32,2.25-1.75.89-.43,1.89-.65,3.02-.65s2.13.22,3.01.65c.88.43,1.62,1.02,2.24,1.75.61.73,1.08,1.59,1.4,2.57.32.98.48,2.03.48,3.14s-.16,2.16-.48,3.14ZM219.81,121.05c-.7-.81-1.56-1.45-2.57-1.92-1.01-.47-2.17-.7-3.46-.7s-2.44.23-3.47.7c-1.02.47-1.88,1.11-2.59,1.92-.7.81-1.24,1.77-1.61,2.88-.37,1.1-.56,2.28-.56,3.54s.18,2.44.56,3.54c.37,1.1.91,2.06,1.61,2.88.7.81,1.56,1.45,2.59,1.92,1.02.47,2.18.7,3.47.7s2.44-.23,3.46-.7c1.01-.47,1.87-1.11,2.57-1.92.7-.81,1.24-1.77,1.61-2.88.37-1.1.56-2.28.56-3.54s-.19-2.44-.56-3.54c-.37-1.1-.91-2.06-1.61-2.88ZM220.43,130.61c-.32.98-.79,1.84-1.4,2.57-.61.73-1.36,1.32-2.23,1.75-.88.43-1.88.65-3.01.65s-2.13-.22-3.02-.65c-.89-.43-1.64-1.02-2.25-1.75-.61-.73-1.08-1.59-1.4-2.57-.32-.98-.48-2.03-.48-3.14s.16-2.16.48-3.14c.32-.98.79-1.84,1.4-2.57.61-.73,1.36-1.32,2.25-1.75.89-.43,1.89-.65,3.02-.65s2.13.22,3.01.65c.88.43,1.62,1.02,2.23,1.75.61.73,1.08,1.59,1.4,2.57.32.98.48,2.03.48,3.14s-.16,2.16-.48,3.14ZM251.31,118.84h1.52v17.25h-1.06v-15.95h-.05l-6.57,15.95h-1.06l-6.64-15.95h-.05v15.95h-1.06v-17.25h1.52l6.74,16.07h.05l6.67-16.07ZM34.23,90.39v.65h21.2c37.33,0,38.89-46.04,4.94-50.2C87.42,36.81,85.73,0,55.43,0h-21.46C-7.39,0-9.08,51.63,18.62,51.63c17.17,0,18.99-25.1,3.64-26.01v.65c14.31.91,12.75,24.71-3.64,24.71C-1.67,50.98-.76.65,33.97.65h7.28v89.74h-7.02ZM49.58.65h5.85c21.59,0,21.72,39.93,0,39.93h-5.85V.65ZM49.58,41.23h5.85c27.44,0,27.44,48.77,0,49.16h-5.85v-49.16ZM134.11,91.04h-42.14v-.65h7.02V13.66h-7.02v-.65h42.14v21.72h-.65s.65-21.07-12.75-21.07h-13.4v37.72h9.1c8.84,0,8.19-10.79,8.19-10.79h.65v22.24h-.65s.65-10.79-8.19-10.79h-9.1v38.37h13.4c13.4,0,12.75-21.07,12.75-21.07h.65v21.72ZM186.13,91.04h-42.14v-.65h7.02V13.66h-7.02v-.65h22.5v.65h-7.15v76.73h13.4c13.4,0,12.75-21.07,12.75-21.07h.65v21.72ZM229.69,0h42.14v21.72h-.65s.65-21.07-12.75-21.07h-13.4v41.36h9.1c8.84,0,8.19-10.79,8.19-10.79h.65v22.24h-.65s.65-10.79-8.19-10.79h-9.1v47.73h13.4c13.4,0,12.75-21.07,12.75-21.07h.65v21.72h-42.14v-.65h7.02V.65h-7.02v-.65ZM282.37,35.25h-.65V13.01h45.91v22.24h-.65s.65-21.59-9.62-21.59h-7.93v76.73h7.15v.65h-22.5v-.65h7.02V13.66h-9.23c-10.14,0-9.49,21.59-9.49,21.59ZM431.8,102.1c-15.61,0-29.26,4.29-42.27,10.14-5.2-9.36-9.15-19.43-12.02-28.66l-19.85-71.75h-1.17l-20.55,78.56h-9.62v.65h20.16v-.65h-9.62l4.42-16.65h25.36l1.88,7.84c2.73,10.92,7.62,22.86,14.64,33.65-4.42,2.08-8.84,4.42-13.14,6.63-14.83-11.97-35.51-19.77-52.67-19.77-52.8,0-50.2,40.71-10.27,40.71,23.02,0,41.75-9.23,60.09-18.73,10.14,9.62,17.04,21.72,17.04,34.08,0,8.06-4.68,11.71-9.23,11.71-4.29,0-8.32-2.99-8.97-8.32h-.78c.78,6.37,6.24,9.88,11.71,9.88,6.37,0,13.01-4.68,13.01-14.96,0-12.88-7.93-24.71-19.38-34.21,4.29-2.21,8.58-4.42,12.88-6.5,11.06,16.78,28.35,30.17,54.89,30.17,49.42,0,45.91-43.83-6.5-43.83ZM341.41,73.09l12.49-47.08,12.62,47.08h-25.1ZM307.07,142.28c-38.76,0-41.36-39.67,10.27-39.67,16.91,0,35.9,8.45,49.42,21.07-18.34,9.49-36.94,18.6-59.7,18.6ZM438.3,145.28c-23.54,0-38.63-14.7-48.51-32.51,12.88-5.72,26.4-10.01,42.01-10.01,51.24,0,55.01,42.53,6.5,42.53ZM415.54,12.36c2.21,0,4.42.39,6.63,1.3,1.17.39,2.6.78,4.03.78,1.17,0,2.34-.39,2.86-1.43h.52v21.98h-.91c0-1.82-.78-16.65-6.89-20.42-1.95-1.04-4.16-1.56-6.37-1.56-24.71-.13-24.97,78.04.13,78.04,8.71,0,10.53-8.32,10.53-21.59v-17.43h-7.15v-.65h21.2v.65h-7.02v39.02h-1.17c0-2.99-.65-5.59-3.51-5.59-5.72,0-4.55,6.24-13.01,6.24-36.55,0-36.81-79.34.13-79.34ZM490.19,34.73s.65-21.07-12.75-21.07h-13.4v37.72h9.1c8.84,0,8.19-10.79,8.19-10.79h.65v22.24h-.65s.65-10.79-8.19-10.79h-9.1v38.37h13.4c13.4,0,12.75-21.07,12.75-21.07h.65v21.72h-42.14v-.65h7.02V13.66h-7.02v-.65h42.14v21.72h-.65Z"/>
  </g>
</svg>