<?xml version="1.0" encoding="UTF-8"?>
<svg id="Layer_2" data-name="Layer 2" xmlns="http://www.w3.org/2000/svg" viewBox="0 0 847.78 579.94">
  <defs>
    <style>
      .cls-1 {
        fill: #1e3961;
        stroke-width: 0px;
      }
    </style>
  </defs>
  <g id="Layer_1-2" data-name="Layer 1">
    <g>
      <g>
        <path class="cls-1" d="M30.16,484.55c6.98.43,16.65-.17,23.03-5.47,5.48-4.55,7.78-11.9,6.82-21.84-.34-3.56-1.62-7.01-3.78-10.25-1.75-2.61-4.08-5.08-6.93-7.36-3.59-2.88-7.13-4.71-8.76-5.49-.32-.15-.68-.24-1.03-.26l-17.74-.93,17.39-.76c.57-.02,1.12-.23,1.57-.58,1.07-.85,2.71-2.32,4.3-4.45,2.45-3.29,5.28-8.88,4.85-16.82-.38-6.85-2.89-11.89-7.48-14.97-5.02-3.37-11.68-3.8-16.39-3.57-4.55.22-8.11,1.06-9.27,1.36-.19,5.45-.06,59.8.04,89.26,1.62.43,7,1.73,13.39,2.12ZM30.94,435.15c.54.03.99.07,1.28.11,1.59.2,3.21.4,5.01.95h0s0,0,0,0h0c1.69.52,3.53,1.34,5.65,2.78,3.29,2.27,5.77,5.02,7.62,7.96h0,0s0,0,0,0c3.69,5.9,4.84,12.58,4.84,17.72,0,0,0,0,0,0,0,.2,0,.4,0,.6,0,.06,0,.13,0,.19,0,.14,0,.28-.02.41,0,.07,0,.14-.01.21,0,.14-.02.27-.03.41,0,.06,0,.12-.01.18-.01.18-.03.36-.05.54,0,.07-.02.15-.02.22-.01.11-.02.21-.04.32-.01.09-.02.18-.03.27-.01.09-.02.17-.04.26-.01.09-.03.19-.04.28-.01.07-.02.13-.03.2-.04.21-.08.42-.12.63,0,.03-.01.07-.02.1-.02.12-.05.23-.08.35,0,.04-.02.08-.03.12-.03.12-.06.24-.09.35,0,.02-.01.04-.02.07-.1.4-.22.79-.34,1.17,0,0,0,0,0,0-.04.13-.09.25-.13.38-2.21,6.24-7.26,9.21-12,10.36-.2.05-.4.09-.6.14-.02,0-.03,0-.05.01-.2.04-.39.08-.58.11-.03,0-.06.01-.09.02-.19.03-.38.06-.57.09-.03,0-.06,0-.09.01-.19.03-.38.05-.57.08,0,0-.01,0-.02,0-.19.02-.37.04-.55.06-.03,0-.05,0-.08,0-.18.02-.35.03-.52.04-.04,0-.07,0-.11,0-.17,0-.34.02-.5.02-.03,0-.06,0-.09,0-.17,0-.33,0-.5,0,0,0-.01,0-.02,0-2.31,0-7.83-.26-11.3-1.93-.02-.01-.04-.02-.07-.03-.06-.03-.11-.05-.16-.08-.03-.02-.07-.03-.1-.05-.07-.03-.13-.07-.2-.1-.03-.02-.06-.03-.09-.05-.07-.03-.13-.07-.19-.1-.02-.01-.05-.03-.07-.04-.05-.03-.1-.06-.15-.09-.02-.01-.04-.03-.07-.04-.06-.04-.12-.07-.18-.11-.02-.01-.05-.03-.07-.04-.06-.04-.11-.07-.17-.11-.02-.01-.04-.03-.06-.04-.05-.03-.1-.07-.14-.1-.02-.01-.04-.03-.06-.04-.05-.03-.09-.07-.14-.1-.02-.01-.04-.03-.05-.04-.05-.04-.1-.08-.14-.12-.02-.01-.03-.03-.05-.04-.05-.04-.09-.08-.14-.12-.01-.01-.03-.02-.04-.04-.04-.03-.07-.07-.11-.11-.01-.01-.03-.03-.04-.04-.04-.04-.08-.09-.12-.13-.01-.02-.03-.03-.04-.05-.04-.04-.08-.09-.11-.13-.01-.02-.03-.03-.04-.05-.03-.04-.06-.08-.09-.12-.01-.02-.03-.04-.04-.05-.03-.04-.06-.08-.09-.13-.01-.02-.02-.04-.04-.05-.03-.05-.06-.1-.09-.15-.01-.02-.02-.04-.03-.06-.03-.05-.06-.1-.08-.15,0-.02-.02-.04-.03-.06-.02-.04-.04-.09-.06-.13,0-.02-.02-.04-.03-.06-.02-.05-.05-.11-.07-.17-.01-.02-.02-.05-.03-.08-.02-.06-.04-.11-.06-.17,0-.03-.02-.05-.03-.08-.02-.05-.03-.09-.05-.14-.01-.04-.02-.07-.03-.11-.01-.05-.03-.1-.04-.15,0-.03-.02-.06-.03-.09-.02-.06-.03-.13-.05-.19,0-.04-.02-.07-.02-.11-.01-.05-.02-.11-.03-.16-.01-.05-.02-.1-.03-.15,0-.05-.02-.09-.03-.14-.01-.06-.02-.11-.03-.17,0-.05-.02-.11-.03-.16,0-.05-.02-.1-.02-.14,0-.05-.02-.11-.02-.17,0-.07-.02-.14-.03-.21,0-.04,0-.08-.01-.11-.01-.09-.02-.19-.03-.29,0-.03,0-.06-.01-.09-.02-.21-.04-.42-.07-.64,0,0,0-.02,0-.02-.01-.15-.03-.31-.04-.47,0,0,0,0,0,0-.07-.83-.12-1.78-.18-2.86-.08-1.18-.11-7.66-.12-14.76h0c0-4.45,0-9.16,0-12.97v-7.96c0-.07,0-.13,0-.16,0-.04.02-.06.04-.07h0s0,0,0,0h0s.1-.02.21-.02c2.01,0,6.71,0,9.24.14ZM21.49,394.16c.1-.14.4-.22,1.3-.45l-.04-.06s0,0,0,0l.04.06c.06-.02.13-.03.19-.05,2.05-.51,4.75-.51,6.16-.51,12.58,0,17.33,11.43,17.33,22.08,0,.16,0,.31,0,.46,0,.06,0,.11,0,.17,0,.1,0,.19,0,.29,0,.07,0,.14-.01.21,0,.08,0,.16-.01.25,0,.08-.01.15-.02.23,0,.07-.01.15-.02.22,0,.08-.01.16-.02.24,0,.06-.01.13-.02.19,0,.09-.02.17-.03.26,0,.06-.01.11-.02.17-.01.09-.02.19-.04.28,0,.04-.01.09-.02.13-.02.1-.03.21-.05.31h0c-.62,3.84-2.25,7.17-4.35,9.57-1.67,1.9-2.99,2.73-5.46,3.08h0c-.59.08-1.25.14-2,.18-.02,0-.04,0-.06,0-.1,0-.2,0-.3.01-.01,0-.03,0-.04,0-.17,0-.35.01-.53.02-.06,0-.12,0-.18,0-.08,0-.15,0-.23,0-.09,0-.18,0-.27,0-.06,0-.11,0-.17,0-.15,0-.31,0-.47,0-.04,0-.07,0-.11,0-.15,0-.3,0-.45,0-.03,0-.05,0-.08,0-.18,0-.37,0-.56,0h0s-.05,0-.07,0c-.23,0-.46,0-.7,0-4.75,0-7.06-.39-7.96-.51-.47-.08-.65-.11-.72-.18h0s0,0,0,0c-.05-.05-.05-.11-.05-.21v-36.11h0v-.09h0c0-.12,0-.21.05-.28ZM1.67,390.46c1.67,0,2.7.13,3.59.26.13.02.25.04.38.07.02,0,.04,0,.07.01.1.02.19.04.29.06.03,0,.07.02.1.03.08.02.16.04.24.07.04.01.07.02.1.03.07.02.15.05.22.07.03.01.07.02.1.04.07.03.15.06.22.09.03.01.06.02.09.04.08.03.15.07.23.11.02,0,.04.02.06.03.19.1.37.2.54.31.02.01.03.02.05.04.07.04.13.09.19.14.02.02.05.04.07.05.06.04.11.09.16.13.02.02.05.04.07.06.05.04.1.09.15.14.02.02.05.04.07.07.05.05.1.1.14.15.02.02.04.04.06.06.05.06.1.12.15.17.01.02.03.03.04.05.13.15.24.32.35.48.01.02.02.04.03.05.04.07.08.13.12.2.02.03.03.05.05.08.03.06.07.12.1.18.02.03.03.06.05.09.03.06.06.12.09.19.01.03.03.06.04.09.03.07.06.13.09.2.01.03.03.06.04.09.03.08.06.15.09.23,0,.02.02.04.03.07.07.2.14.41.2.62,0,.02.01.05.02.07.02.08.05.17.07.25,0,.03.02.07.03.1.02.07.04.15.05.23,0,.04.02.08.03.11.02.07.03.15.05.22,0,.04.02.08.02.12.01.08.03.16.04.23,0,.04.01.07.02.11.01.09.03.18.04.26,0,.03,0,.06.01.09.02.12.03.24.05.36h0c.06.51.11,1.04.14,1.58.26,4.11.26,7.7.26,27.73v22.6c0,12.33,0,22.47-.64,27.86-.01.09-.03.19-.04.28h0c-.51,3.64-1.18,7.44-3.68,7.94-1.16.26-2.7.26-3.85.26-.9,0-1.03.26-1.03.39,0,.03,0,.08.05.13h0c.12.16.55.39,2.01.39,3.85,0,11.94-.39,12.58-.39.51,0,4.11.13,7.83.39,3.72.13,7.83.39,9.24.39.1,0,.19,0,.29,0,.16,0,.32,0,.48,0h0c15.19-.23,24.9-7.37,29.28-16.34h0s.01-.02.02-.04c.1-.21.2-.42.3-.63,0-.01.01-.02.02-.04.31-.69.6-1.4.85-2.11,0,0,0,0,0-.01.08-.22.15-.45.23-.67.01-.04.02-.08.04-.12.06-.19.12-.38.17-.57.02-.05.03-.11.05-.16.05-.18.1-.36.15-.54.02-.06.03-.12.05-.17.05-.18.09-.36.13-.55.01-.05.03-.11.04-.16.05-.21.09-.43.14-.64,0-.02,0-.04.01-.06.05-.24.09-.47.13-.71,0-.05.02-.11.03-.17.03-.17.06-.35.08-.52.01-.09.02-.18.04-.27.02-.14.04-.28.05-.42.01-.1.02-.21.03-.31.01-.13.03-.25.04-.38,0-.11.02-.22.03-.33,0-.12.02-.24.03-.37,0-.11.01-.22.02-.33,0-.12.01-.24.02-.36,0-.11,0-.22.01-.33,0-.13,0-.27,0-.4,0-.09,0-.18,0-.27,0-15.02-12.71-24.14-22.21-27.09,0,0,0,0,0,0h0c5.69-5.93,11.38-11.87,12.01-21.35,0-.01,0-.02,0-.03.01-.17.02-.35.03-.52,0-.02,0-.04,0-.06,0-.18.01-.36.02-.55,0,0,0,0,0-.01,0-.19,0-.39,0-.59h0c0-.1,0-.2,0-.3,0-.04,0-.07,0-.11,0-.07,0-.13,0-.2,0-.04,0-.09,0-.13,0-.06,0-.12-.01-.18,0-.05,0-.1-.01-.15,0-.06,0-.12-.01-.18,0-.05-.01-.11-.02-.16,0-.06-.01-.11-.02-.17,0-.06-.01-.12-.02-.18,0-.05-.01-.11-.02-.17,0-.06-.02-.12-.03-.19,0-.05-.01-.11-.02-.16,0-.06-.02-.13-.03-.2,0-.05-.02-.11-.03-.16-.01-.07-.02-.14-.04-.21,0-.05-.02-.1-.03-.15-.01-.07-.03-.14-.04-.21-.01-.05-.02-.1-.03-.15-.02-.07-.03-.15-.05-.22-.01-.05-.02-.1-.03-.15-.02-.08-.04-.15-.06-.23-.01-.05-.02-.1-.04-.15-.02-.08-.04-.16-.06-.24-.01-.05-.03-.09-.04-.14-.02-.08-.05-.16-.07-.24-.01-.05-.03-.09-.04-.14-.03-.08-.05-.17-.08-.25-.01-.04-.03-.09-.04-.13-.03-.09-.06-.17-.09-.26-.02-.04-.03-.09-.05-.13-.03-.09-.06-.17-.1-.26-.02-.04-.03-.09-.05-.13-.03-.09-.07-.18-.1-.27-.02-.04-.03-.08-.05-.12-.04-.09-.08-.18-.11-.27-.02-.04-.03-.08-.05-.12-.04-.09-.08-.18-.12-.28-.02-.04-.04-.08-.05-.12-.04-.09-.09-.19-.13-.28-.02-.04-.04-.08-.06-.11-.05-.09-.09-.19-.14-.28-.02-.04-.04-.07-.06-.11-.05-.1-.1-.19-.15-.29-.02-.04-.04-.07-.06-.11-.05-.1-.11-.19-.17-.29-.02-.03-.04-.07-.06-.1-.06-.1-.12-.2-.18-.29-.02-.03-.04-.07-.06-.1-.06-.1-.12-.2-.19-.29-.02-.03-.04-.06-.06-.1-.07-.1-.13-.2-.2-.3-.02-.03-.04-.06-.06-.09-.07-.1-.14-.2-.21-.3-.02-.03-.04-.06-.06-.09-.07-.1-.15-.2-.23-.3-.02-.03-.04-.06-.06-.08-.08-.1-.16-.2-.24-.3-.02-.03-.04-.05-.06-.08-.08-.1-.17-.2-.25-.3-.02-.02-.04-.05-.06-.07-.09-.1-.18-.2-.27-.3-.02-.02-.04-.05-.06-.07-.09-.1-.19-.2-.28-.3-.02-.02-.04-.04-.06-.06-.1-.1-.2-.2-.3-.3-.02-.02-.04-.04-.06-.06-.1-.1-.21-.2-.32-.3-.02-.02-.04-.04-.06-.05-.11-.1-.22-.2-.34-.3-.02-.02-.04-.03-.06-.05-.12-.1-.23-.2-.35-.3-.02-.01-.03-.03-.05-.04-.12-.1-.25-.2-.38-.3-.02-.01-.03-.02-.05-.04-.13-.1-.26-.2-.4-.3-.01,0-.03-.02-.04-.03-.14-.1-.28-.2-.42-.3-.01,0-.02-.01-.03-.02-.15-.1-.29-.2-.44-.3,0,0-.01,0-.02-.01-.16-.1-.31-.2-.47-.3,0,0,0,0,0,0-3.32-2.05-7.78-3.53-13.72-3.91-.02,0-.04,0-.06,0-.26-.02-.53-.03-.8-.04-.04,0-.08,0-.11,0-.26-.01-.52-.02-.78-.03-.04,0-.09,0-.13,0h0s-.02,0-.03,0c-.11,0-.22,0-.33,0-.26,0-.53,0-.8,0h0c-5.91,0-10.91.39-13.99.39-1.67,0-6.42-.39-14.51-.39-1.46,0-2,.23-2.05.47,0,.01,0,.03,0,.04h0c0,.26.51.39,1.67.39ZM15.35,391.96c.09.02.19.03.28.03.15,0,.14,0,.29-.03h0c.3-.11.91-.27,2.18-.53,1.23-.26,3.19-.61,5.52-.83,4.08-.39,10.06-.45,15.35,1.51,3.49,1.3,6.29,3.32,8.32,6.02,2.36,3.14,3.69,7.23,3.96,12.15.46,8.39-2.55,14.29-5.16,17.77-1.83,2.45-3.7,4.06-4.83,4.9,1.74.83,5.23,2.67,8.87,5.57,2.97,2.37,5.4,4.95,7.23,7.68,2.31,3.43,3.66,7.1,4.03,10.9,1,10.43-1.46,18.18-7.32,23.04-2.99,2.48-6.87,4.2-11.53,5.11-2.66.52-5.59.79-8.73.79-1.22,0-2.47-.04-3.75-.12-7.06-.44-12.56-1.87-13.58-2.15-.11-.03-.23-.03-.34-.01l-4.07.79,3.07-1.83c.16-.1.26-.27.26-.46,0-2.74-.08-23.55-.11-44.45-.02-13.11-.03-23.55-.01-31.05,0-4.45.02-7.9.04-10.25.01-1.26.02-2.23.04-2.88,0-.35-.03-.77-.09-.89-.15-.27-5.04-1.8-5.04-1.8l5.14,1ZM346.19,484.55c6.98.43,16.65-.17,23.03-5.47,5.48-4.55,7.78-11.9,6.82-21.84-.34-3.56-1.62-7.01-3.78-10.25-1.75-2.61-4.08-5.08-6.93-7.36-3.59-2.88-7.13-4.71-8.76-5.49-.32-.15-.68-.24-1.03-.26l-17.74-.93,17.39-.76c.57-.02,1.12-.23,1.57-.58,1.07-.85,2.71-2.32,4.3-4.45,2.45-3.29,5.28-8.88,4.85-16.82-.38-6.85-2.89-11.89-7.48-14.97-5.02-3.37-11.68-3.8-16.39-3.57-4.55.22-8.11,1.06-9.27,1.36-.19,5.45-.06,59.8.04,89.26,1.62.43,7,1.73,13.39,2.12ZM346.97,435.15c.54.03.99.07,1.28.11,1.59.2,3.21.4,5.01.95h0s0,0,0,0h0c1.69.52,3.53,1.34,5.65,2.78,3.29,2.27,5.77,5.02,7.62,7.96h0,0s0,0,0,0c3.69,5.9,4.84,12.58,4.84,17.72,0,0,0,0,0,0,0,.2,0,.4,0,.6,0,.06,0,.13,0,.19,0,.14,0,.28-.02.41,0,.07,0,.14-.01.21,0,.14-.02.27-.03.41,0,.06,0,.12-.01.18-.01.18-.03.36-.05.54,0,.07-.02.15-.02.22-.01.11-.02.21-.04.32-.01.09-.02.18-.03.27-.01.09-.02.17-.04.26-.01.09-.03.19-.04.28-.01.07-.02.13-.03.2-.04.21-.08.42-.12.63,0,.03-.01.07-.02.1-.02.12-.05.23-.08.35,0,.04-.02.08-.03.12-.03.12-.06.24-.09.35,0,.02-.01.04-.02.07-.1.4-.22.79-.34,1.17,0,0,0,0,0,0-.04.13-.09.25-.13.38-2.21,6.24-7.26,9.21-12,10.36-.2.05-.4.09-.6.14-.02,0-.03,0-.05.01-.2.04-.39.08-.58.11-.03,0-.06.01-.09.02-.19.03-.38.06-.57.09-.03,0-.06,0-.09.01-.19.03-.38.05-.57.08,0,0-.01,0-.02,0-.19.02-.37.04-.55.06-.03,0-.05,0-.08,0-.18.02-.35.03-.52.04-.04,0-.07,0-.11,0-.17,0-.34.02-.5.02-.03,0-.06,0-.09,0-.17,0-.33,0-.5,0,0,0-.01,0-.02,0-2.31,0-7.83-.26-11.3-1.93-.02-.01-.04-.02-.07-.03-.06-.03-.11-.05-.16-.08-.03-.02-.07-.03-.1-.05-.07-.03-.13-.07-.2-.1-.03-.02-.06-.03-.09-.05-.07-.03-.13-.07-.19-.1-.02-.01-.05-.03-.07-.04-.05-.03-.1-.06-.15-.09-.02-.01-.04-.03-.07-.04-.06-.04-.12-.07-.18-.11-.02-.01-.05-.03-.07-.04-.06-.04-.11-.07-.17-.11-.02-.01-.04-.03-.06-.04-.05-.03-.1-.07-.14-.1-.02-.01-.04-.03-.06-.04-.05-.03-.09-.07-.14-.1-.02-.01-.04-.03-.05-.04-.05-.04-.1-.08-.14-.12-.02-.01-.03-.03-.05-.04-.05-.04-.09-.08-.14-.12-.01-.01-.03-.02-.04-.04-.04-.03-.07-.07-.11-.11-.01-.01-.03-.03-.04-.04-.04-.04-.08-.09-.12-.13-.01-.02-.03-.03-.04-.05-.04-.04-.08-.09-.11-.13-.01-.02-.03-.03-.04-.05-.03-.04-.06-.08-.09-.12-.01-.02-.03-.04-.04-.05-.03-.04-.06-.08-.09-.13-.01-.02-.02-.04-.04-.05-.03-.05-.06-.1-.09-.15-.01-.02-.02-.04-.03-.06-.03-.05-.06-.1-.08-.15,0-.02-.02-.04-.03-.06-.02-.04-.04-.09-.06-.13,0-.02-.02-.04-.03-.06-.02-.05-.05-.11-.07-.17-.01-.02-.02-.05-.03-.08-.02-.06-.04-.11-.06-.17,0-.03-.02-.05-.03-.08-.02-.05-.03-.09-.05-.14-.01-.04-.02-.07-.03-.11-.01-.05-.03-.1-.04-.15,0-.03-.02-.06-.03-.09-.02-.06-.03-.13-.05-.19,0-.04-.02-.07-.02-.11-.01-.05-.02-.11-.03-.16-.01-.05-.02-.1-.03-.15,0-.05-.02-.09-.03-.14-.01-.06-.02-.11-.03-.17,0-.05-.02-.11-.03-.16,0-.05-.02-.1-.02-.14,0-.05-.02-.11-.02-.17,0-.07-.02-.14-.03-.21,0-.04,0-.08-.01-.11-.01-.09-.02-.19-.03-.29,0-.03,0-.06-.01-.09-.02-.21-.04-.42-.07-.64,0,0,0-.02,0-.02-.01-.15-.03-.31-.04-.47,0,0,0,0,0,0-.07-.83-.12-1.78-.18-2.86-.08-1.18-.11-7.66-.12-14.76h0c0-4.45,0-9.16,0-12.97v-7.96c0-.07,0-.13,0-.16,0-.04.02-.06.04-.07h0s0,0,0,0h0s.1-.02.21-.02c2.01,0,6.71,0,9.24.14ZM337.52,394.16c.1-.14.4-.22,1.3-.45l-.04-.06h0s.04.06.04.06c.06-.02.13-.03.19-.05,2.05-.51,4.75-.51,6.16-.51,12.58,0,17.33,11.43,17.33,22.08,0,.16,0,.31,0,.46,0,.06,0,.11,0,.17,0,.1,0,.19,0,.29,0,.07,0,.14-.01.21,0,.08,0,.16-.01.25,0,.08-.01.15-.02.23,0,.07-.01.15-.02.22,0,.08-.01.16-.02.24,0,.06-.01.13-.02.19,0,.09-.02.17-.03.26,0,.06-.01.11-.02.17-.01.09-.02.19-.04.28,0,.04-.01.09-.02.13-.02.1-.03.21-.05.31h0c-.62,3.84-2.25,7.17-4.35,9.57-1.67,1.9-2.99,2.73-5.46,3.08h0c-.59.08-1.25.14-2,.18-.02,0-.04,0-.06,0-.1,0-.2,0-.3.01-.01,0-.03,0-.04,0-.17,0-.35.01-.53.02-.06,0-.12,0-.18,0-.08,0-.15,0-.23,0-.09,0-.18,0-.27,0-.06,0-.11,0-.17,0-.15,0-.31,0-.47,0-.04,0-.07,0-.11,0-.15,0-.3,0-.45,0-.03,0-.05,0-.08,0-.18,0-.37,0-.56,0h0s-.05,0-.07,0c-.23,0-.46,0-.7,0-4.75,0-7.06-.39-7.96-.51-.47-.08-.65-.11-.72-.18h0s0,0,0,0c-.05-.05-.05-.11-.05-.21v-36.11h0v-.09h0c0-.12,0-.21.05-.28ZM317.69,390.46c1.67,0,2.7.13,3.59.26.13.02.25.04.38.07.02,0,.04,0,.07.01.1.02.19.04.29.06.03,0,.07.02.1.03.08.02.16.04.24.07.04.01.07.02.1.03.07.02.15.05.22.07.03.01.07.02.1.04.07.03.15.06.22.09.03.01.06.02.09.04.08.03.15.07.23.11.02,0,.04.02.06.03.19.1.37.2.54.31.02.01.03.02.05.04.07.04.13.09.19.14.02.02.05.04.07.05.06.04.11.09.16.13.02.02.05.04.07.06.05.04.1.09.15.14.02.02.05.04.07.07.05.05.1.1.14.15.02.02.04.04.06.06.05.06.1.12.15.17.01.02.03.03.04.05.13.15.24.32.35.48.01.02.02.04.03.05.04.07.08.13.12.2.02.03.03.05.05.08.03.06.07.12.1.18.02.03.03.06.05.09.03.06.06.12.09.19.01.03.03.06.04.09.03.07.06.13.09.2.01.03.03.06.04.09.03.08.06.15.09.23,0,.02.02.04.03.07.07.2.14.41.2.62,0,.02.01.05.02.07.02.08.05.17.07.25,0,.03.02.07.03.1.02.07.04.15.05.23,0,.04.02.08.03.11.02.07.03.15.05.22,0,.04.02.08.02.12.01.08.03.16.04.23,0,.04.01.07.02.11.01.09.03.18.04.26,0,.03,0,.06.01.09.02.12.03.24.05.36h0c.06.51.11,1.04.14,1.58.26,4.11.26,7.7.26,27.73v22.6c0,12.33,0,22.47-.64,27.86-.01.09-.03.19-.04.28h0c-.51,3.64-1.18,7.44-3.68,7.94-1.16.26-2.7.26-3.85.26-.9,0-1.03.26-1.03.39,0,.03,0,.08.05.13h0c.12.16.55.39,2.01.39,3.85,0,11.94-.39,12.58-.39.51,0,4.11.13,7.83.39,3.72.13,7.83.39,9.24.39.1,0,.19,0,.29,0,.16,0,.32,0,.48,0h0c15.19-.23,24.9-7.37,29.28-16.34h0s.01-.02.02-.04c.1-.21.2-.42.3-.63,0-.01.01-.02.02-.04.31-.69.6-1.4.85-2.11,0,0,0,0,0-.01.08-.22.15-.45.23-.67.01-.04.02-.08.04-.12.06-.19.12-.38.17-.57.02-.05.03-.11.05-.16.05-.18.1-.36.15-.54.02-.06.03-.12.05-.17.05-.18.09-.36.13-.55.01-.05.03-.11.04-.16.05-.21.09-.43.14-.64,0-.02,0-.04.01-.06.05-.24.09-.47.13-.71,0-.05.02-.11.03-.17.03-.17.06-.35.08-.52.01-.09.02-.18.04-.27.02-.14.04-.28.05-.42.01-.1.02-.21.03-.31.01-.13.03-.25.04-.38,0-.11.02-.22.03-.33,0-.12.02-.24.03-.37,0-.11.01-.22.02-.33,0-.12.01-.24.02-.36,0-.11,0-.22.01-.33,0-.13,0-.27,0-.4,0-.09,0-.18,0-.27,0-15.02-12.71-24.14-22.21-27.09,0,0,0,0,0,0h0c5.69-5.93,11.38-11.87,12.01-21.35,0-.01,0-.02,0-.03.01-.17.02-.35.03-.52,0-.02,0-.04,0-.06,0-.18.01-.36.02-.55,0,0,0,0,0-.01,0-.19,0-.39,0-.59h0c0-.1,0-.2,0-.3,0-.04,0-.07,0-.11,0-.07,0-.13,0-.2,0-.04,0-.09,0-.13,0-.06,0-.12-.01-.18,0-.05,0-.1-.01-.15,0-.06,0-.12-.01-.18,0-.05-.01-.11-.02-.16,0-.06-.01-.11-.02-.17,0-.06-.01-.12-.02-.18,0-.05-.01-.11-.02-.17,0-.06-.02-.12-.03-.19,0-.05-.01-.11-.02-.16,0-.06-.02-.13-.03-.2,0-.05-.02-.11-.03-.16-.01-.07-.02-.14-.04-.21,0-.05-.02-.1-.03-.15-.01-.07-.03-.14-.04-.21-.01-.05-.02-.1-.03-.15-.02-.07-.03-.15-.05-.22-.01-.05-.02-.1-.03-.15-.02-.08-.04-.15-.06-.23-.01-.05-.02-.1-.04-.15-.02-.08-.04-.16-.06-.24-.01-.05-.03-.09-.04-.14-.02-.08-.05-.16-.07-.24-.01-.05-.03-.09-.04-.14-.03-.08-.05-.17-.08-.25-.01-.04-.03-.09-.04-.13-.03-.09-.06-.17-.09-.26-.02-.04-.03-.09-.05-.13-.03-.09-.06-.17-.1-.26-.02-.04-.03-.09-.05-.13-.03-.09-.07-.18-.1-.27-.02-.04-.03-.08-.05-.12-.04-.09-.08-.18-.11-.27-.02-.04-.03-.08-.05-.12-.04-.09-.08-.18-.12-.28-.02-.04-.04-.08-.05-.12-.04-.09-.09-.19-.13-.28-.02-.04-.04-.08-.06-.11-.05-.09-.09-.19-.14-.28-.02-.04-.04-.07-.06-.11-.05-.1-.1-.19-.15-.29-.02-.04-.04-.07-.06-.11-.05-.1-.11-.19-.17-.29-.02-.03-.04-.07-.06-.1-.06-.1-.12-.2-.18-.29-.02-.03-.04-.07-.06-.1-.06-.1-.12-.2-.19-.29-.02-.03-.04-.06-.06-.1-.07-.1-.13-.2-.2-.3-.02-.03-.04-.06-.06-.09-.07-.1-.14-.2-.21-.3-.02-.03-.04-.06-.06-.09-.07-.1-.15-.2-.23-.3-.02-.03-.04-.06-.06-.08-.08-.1-.16-.2-.24-.3-.02-.03-.04-.05-.06-.08-.08-.1-.17-.2-.25-.3-.02-.02-.04-.05-.06-.07-.09-.1-.18-.2-.27-.3-.02-.02-.04-.05-.06-.07-.09-.1-.19-.2-.28-.3-.02-.02-.04-.04-.06-.06-.1-.1-.2-.2-.3-.3-.02-.02-.04-.04-.06-.06-.1-.1-.21-.2-.32-.3-.02-.02-.04-.04-.06-.05-.11-.1-.22-.2-.34-.3-.02-.02-.04-.03-.06-.05-.12-.1-.23-.2-.35-.3-.02-.01-.03-.03-.05-.04-.12-.1-.25-.2-.38-.3-.02-.01-.03-.02-.05-.04-.13-.1-.26-.2-.4-.3-.01,0-.03-.02-.04-.03-.14-.1-.28-.2-.42-.3-.01,0-.02-.01-.03-.02-.15-.1-.29-.2-.44-.3,0,0-.01,0-.02-.01-.16-.1-.31-.2-.47-.3,0,0,0,0,0,0-3.32-2.05-7.78-3.53-13.72-3.91-.02,0-.04,0-.06,0-.26-.02-.53-.03-.8-.04-.04,0-.08,0-.11,0-.26-.01-.52-.02-.78-.03-.04,0-.09,0-.13,0h0s-.02,0-.03,0c-.11,0-.22,0-.33,0-.26,0-.53,0-.8,0h0c-5.91,0-10.91.39-13.99.39-1.67,0-6.42-.39-14.51-.39-1.46,0-2,.23-2.05.47,0,.01,0,.03,0,.04h0c0,.26.51.39,1.67.39ZM331.37,391.96c.09.02.19.03.28.03.15,0,.14,0,.29-.03h0c.3-.11.91-.27,2.18-.53,1.23-.26,3.19-.61,5.52-.83,4.08-.39,10.06-.45,15.35,1.51,3.49,1.3,6.29,3.32,8.32,6.02,2.36,3.14,3.69,7.23,3.96,12.15.46,8.39-2.55,14.29-5.16,17.77-1.83,2.45-3.7,4.06-4.83,4.9,1.74.83,5.23,2.67,8.87,5.57,2.97,2.37,5.4,4.95,7.23,7.68,2.31,3.43,3.66,7.1,4.03,10.9,1,10.43-1.46,18.18-7.32,23.04-2.99,2.48-6.87,4.2-11.53,5.11-2.66.52-5.59.79-8.73.79-1.22,0-2.47-.04-3.75-.12-7.06-.44-12.56-1.87-13.58-2.15-.11-.03-.23-.03-.34-.01l-4.07.79,3.07-1.83c.16-.1.26-.27.26-.46,0-2.74-.08-23.55-.11-44.45-.02-13.11-.03-23.55-.01-31.05,0-4.45.02-7.9.04-10.25.01-1.26.02-2.23.04-2.88,0-.35-.03-.77-.09-.89-.15-.27-5.04-1.8-5.04-1.8l5.14,1ZM170.43,485.63s0-.03,0-.04c0-.25-.38-.38-1.39-.38-1.26,0-3.66,0-5.55-.63-.11-.04-.21-.07-.31-.11-.03,0-.05-.02-.08-.03-.09-.03-.18-.07-.27-.1,0,0-.02,0-.03-.01-.1-.04-.19-.07-.29-.11-.02,0-.04-.02-.07-.03-.08-.03-.16-.07-.24-.1-.01,0-.03-.01-.04-.02-.09-.04-.18-.08-.26-.12-.02,0-.04-.02-.06-.03-.07-.03-.15-.07-.22-.1-.01,0-.03-.01-.04-.02-.08-.04-.17-.08-.25-.13-.01,0-.03-.02-.04-.02-.07-.04-.14-.08-.21-.11-.01,0-.03-.02-.04-.03-.08-.04-.15-.09-.23-.14-.01,0-.02-.01-.03-.02-.07-.04-.13-.08-.2-.13-.01,0-.03-.02-.04-.03-.07-.05-.14-.1-.21-.15,0,0-.01,0-.02-.01-.06-.05-.13-.1-.19-.15-.01-.01-.03-.02-.04-.03-.14-.11-.27-.22-.4-.34-.01-.01-.03-.03-.04-.04-.13-.12-.25-.24-.37-.37-.01-.01-.03-.03-.04-.04-.06-.06-.11-.12-.17-.19,0,0-.01-.01-.02-.02-.06-.07-.12-.14-.18-.21-.01-.02-.03-.03-.04-.05-.05-.06-.1-.13-.15-.19,0-.01-.02-.02-.03-.03-.06-.08-.11-.15-.17-.23-.01-.02-.02-.03-.04-.05-.05-.07-.09-.14-.14-.21-.01-.02-.02-.03-.03-.05-.05-.08-.11-.17-.16-.26-.01-.02-.02-.03-.03-.05-.05-.07-.09-.15-.14-.23-.01-.02-.02-.04-.04-.06-.05-.09-.11-.19-.16-.28,0-.02-.02-.03-.03-.05-.05-.08-.09-.17-.14-.26-.01-.02-.03-.05-.04-.07-.05-.1-.11-.21-.16-.31,0-.01-.01-.02-.02-.03-.05-.1-.1-.2-.15-.3-.01-.03-.03-.06-.04-.08-.11-.23-.23-.47-.34-.71-.01-.03-.03-.05-.04-.08-.06-.12-.12-.25-.17-.38,0,0,0,0,0,0-.06-.14-.12-.28-.19-.42,0-.02-.02-.04-.03-.06-.06-.14-.12-.28-.19-.43h0c-.8-1.86-1.73-4.21-2.95-7.21h0c-7.7-19.18-27.51-71.3-29.15-75.47-1.89-4.67-2.52-5.43-3.03-5.43-.01,0-.03,0-.04,0v.07h0v-.07c-.5.05-1.26,1.01-2.86,5.55l-28.52,77.99c-.36.99-.72,1.92-1.07,2.79-.04.1-.08.19-.12.29-.05.11-.09.23-.14.34-.05.13-.11.25-.16.38-.03.08-.07.16-.1.24-.06.13-.11.26-.17.38-.03.07-.06.14-.1.22-.05.11-.1.23-.16.34-2.2,4.74-4.56,7.29-8.33,7.78-1.89.25-2.78.25-3.79.25-.86,0-1.24.12-1.26.36h0s0,.01,0,.02c0,.13.38.5,2.15.5,3.41,0,13.38-.38,14.51-.38,1.39,0,5.17.38,9.84.38,1.51,0,1.89-.38,1.89-.5,0,0,0,0,0,0,0,0,0,0,0,0,0-.03,0-.06-.02-.09-.11-.19-.58-.29-1.24-.29-.76,0-2.15,0-3.79-.38-.02,0-.05-.01-.07-.02-.06-.02-.13-.03-.19-.05-.04-.01-.07-.02-.11-.03-.08-.03-.15-.05-.22-.08-.03-.01-.06-.03-.09-.04-.05-.02-.11-.05-.16-.07-.03-.01-.05-.02-.08-.04-.07-.03-.13-.07-.19-.11-.03-.02-.05-.03-.08-.05-.06-.04-.12-.08-.17-.12-.02-.02-.04-.03-.06-.05-.04-.03-.08-.07-.12-.1-.02-.02-.04-.04-.07-.06-.05-.05-.09-.1-.14-.15-.02-.02-.04-.05-.06-.07-.03-.04-.07-.08-.1-.12-.03-.03-.05-.07-.07-.11-.03-.04-.05-.08-.08-.13-.02-.03-.04-.06-.05-.09-.03-.06-.06-.12-.09-.18-.02-.03-.03-.07-.04-.1-.02-.04-.03-.09-.05-.13-.02-.05-.04-.1-.05-.15-.02-.05-.03-.1-.05-.15-.01-.04-.02-.08-.03-.13-.01-.06-.03-.12-.04-.17-.01-.06-.02-.12-.03-.17,0-.05-.01-.09-.02-.14,0-.06-.01-.12-.02-.17,0-.07-.01-.14-.02-.2,0-.05,0-.11,0-.16,0-.05,0-.11,0-.16,0-.08,0-.16,0-.25,0-.05,0-.11,0-.16,0-.06,0-.12,0-.18,0-.09,0-.18.02-.28,0-.06,0-.12.01-.18,0-.06.01-.13.02-.19,0-.08.02-.17.03-.26,0-.06.02-.13.02-.19.01-.1.03-.2.04-.31,0-.03,0-.06.01-.09.05-.33.12-.67.19-1.03,0-.04.01-.07.02-.11.02-.1.04-.2.07-.31.01-.06.03-.12.04-.18.02-.1.04-.19.07-.29.02-.08.04-.15.06-.23.03-.12.06-.24.09-.36.03-.13.07-.26.1-.39.02-.07.04-.14.06-.21.03-.12.07-.24.1-.36.02-.06.04-.13.06-.2.04-.15.09-.31.14-.47.01-.03.02-.07.03-.1.12-.42.26-.85.4-1.3,0-.02.01-.04.02-.05.14-.46.3-.93.46-1.41l7.7-22.72c.15-.38.21-.53.29-.59h0s.08-.04.14-.04c0,0,.01,0,.02,0h0s.03,0,.05,0h28.27s.06,0,.09,0c.12,0,.2,0,.25.04h0c.07.05.1.14.17.34l11.86,31.42c.88,2.52-.13,3.28-.76,3.66-.48.24-.85.37-.88.6.02,0,.04,0,.07,0,0,0,0,0,0,0-.02,0-.04,0-.06,0,0,.01,0,.02,0,.03,0,.25.38.76,3.79.88,8.71.38,17.67.25,20.44.25,1.5,0,1.84-.31,1.89-.47h0,0s0,0,0,0ZM133.39,447.61l-26.81-.05c-.24,0-.41-.25-.32-.47l.27-.67c.05-.13.18-.22.32-.22h26.26c.14,0,.27.09.32.22l.29.72c.09.23-.08.47-.32.47ZM106.83,443.82l11.23-34.45c.44-1.31.66-2.01.89-2.03h0s.03,0,.04,0c0,0,0,0,.01,0,0,0,.02,0,.03.01,0,0,0,0,.01,0,.01,0,.03.02.04.03,0,0,.01.01.02.02,0,0,.01.01.02.02,0,0,.02.02.02.03,0,0,.01.01.02.02.02.03.04.06.06.1h0s0,0,0,.01c0,.01.01.03.02.04.03.05.05.1.08.16,0,0,0,.02.01.03.02.04.04.08.06.12,0,0,0,0,0,.01.14.33.32.8.54,1.41l12.12,34.45c.06.19.13.31.11.39l.06.06s0,0,0,0l-.06-.06c-.02.08-.11.11-.36.11h-24.86c-.08,0-.14-.02-.17-.05h0s0,0,0,0h0s-.01-.02-.02-.03c-.04-.07,0-.21.07-.43h0ZM154.4,484.01c-.48-.04-.97-.03-1.45.04l-3.99.57,2.44-1.04c.86-.37,1.22-1.09.93-1.86l-31.24-84.45-29.48,84.07c-.37,1.07.1,2.25,1.12,2.75l1.41.7-3.84-.45c-.16-.02-.31-.02-.47,0l-4.28.4,3.11-1.31c.58-.25,1.04-.73,1.25-1.33l31.16-88.85,32.93,89.02c.17.46.56.8,1.04.9l4.58,1.31-5.21-.47ZM132.18,444.21s0,0,0,0h0s0,0,0,0ZM486.51,485.63s0-.03,0-.04c0-.25-.38-.38-1.39-.38-1.26,0-3.66,0-5.55-.63-.11-.04-.21-.07-.31-.11-.03,0-.05-.02-.08-.03-.09-.03-.18-.07-.27-.1,0,0-.02,0-.03-.01-.1-.04-.19-.07-.29-.11-.02,0-.04-.02-.07-.03-.08-.03-.16-.07-.24-.1-.01,0-.03-.01-.04-.02-.09-.04-.18-.08-.26-.12-.02,0-.04-.02-.06-.03-.07-.03-.15-.07-.22-.1-.01,0-.03-.01-.04-.02-.08-.04-.17-.08-.25-.13-.01,0-.03-.02-.04-.02-.07-.04-.14-.08-.21-.11-.01,0-.03-.02-.04-.03-.08-.04-.15-.09-.23-.14-.01,0-.02-.01-.03-.02-.07-.04-.13-.08-.2-.13-.01,0-.03-.02-.04-.03-.07-.05-.14-.1-.21-.15,0,0-.01,0-.02-.01-.06-.05-.13-.1-.19-.15-.01-.01-.03-.02-.04-.03-.14-.11-.27-.22-.4-.34-.01-.01-.03-.03-.04-.04-.13-.12-.25-.24-.37-.37-.01-.01-.03-.03-.04-.04-.06-.06-.11-.12-.17-.19,0,0-.01-.01-.02-.02-.06-.07-.12-.14-.18-.21-.01-.02-.03-.03-.04-.05-.05-.06-.1-.13-.15-.19,0-.01-.02-.02-.03-.03-.06-.08-.11-.15-.17-.23-.01-.02-.02-.03-.04-.05-.05-.07-.09-.14-.14-.21-.01-.02-.02-.03-.03-.05-.05-.08-.11-.17-.16-.26-.01-.02-.02-.03-.03-.05-.05-.07-.09-.15-.14-.23-.01-.02-.02-.04-.04-.06-.05-.09-.11-.19-.16-.28,0-.02-.02-.03-.03-.05-.05-.08-.09-.17-.14-.26-.01-.02-.03-.05-.04-.07-.05-.1-.11-.21-.16-.31,0-.01-.01-.02-.02-.03-.05-.1-.1-.2-.15-.3-.01-.03-.03-.06-.04-.08-.11-.23-.23-.47-.34-.71-.01-.03-.03-.05-.04-.08-.06-.12-.12-.25-.17-.38,0,0,0,0,0,0-.06-.14-.12-.28-.19-.42,0-.02-.02-.04-.03-.06-.06-.14-.12-.28-.19-.43h0c-.8-1.86-1.73-4.21-2.95-7.21h0c-7.7-19.18-27.51-71.3-29.15-75.47-1.89-4.67-2.52-5.43-3.03-5.43-.01,0-.03,0-.04,0v.07h0v-.07c-.5.05-1.26,1.01-2.86,5.55l-28.52,77.99c-.36.99-.72,1.92-1.07,2.79-.04.1-.08.19-.12.29-.05.11-.09.23-.14.34-.05.13-.11.25-.16.38-.03.08-.07.16-.1.24-.06.13-.11.26-.17.38-.03.07-.06.14-.1.22-.05.11-.1.23-.16.34-2.2,4.74-4.56,7.29-8.33,7.78-1.89.25-2.78.25-3.79.25-.86,0-1.24.12-1.26.36h0s0,.01,0,.02c0,.13.38.5,2.15.5,3.41,0,13.38-.38,14.51-.38,1.39,0,5.17.38,9.84.38,1.51,0,1.89-.38,1.89-.5,0,0,0,0,0,0h0s0-.06-.02-.09c-.11-.19-.58-.29-1.24-.29-.76,0-2.15,0-3.79-.38-.02,0-.05-.01-.07-.02-.06-.02-.13-.03-.19-.05-.04-.01-.07-.02-.11-.03-.08-.03-.15-.05-.22-.08-.03-.01-.06-.03-.09-.04-.05-.02-.11-.05-.16-.07-.03-.01-.05-.02-.08-.04-.07-.03-.13-.07-.19-.11-.03-.02-.05-.03-.08-.05-.06-.04-.12-.08-.17-.12-.02-.02-.04-.03-.06-.05-.04-.03-.08-.07-.12-.1-.02-.02-.04-.04-.07-.06-.05-.05-.09-.1-.14-.15-.02-.02-.04-.05-.06-.07-.03-.04-.07-.08-.1-.12-.03-.03-.05-.07-.07-.11-.03-.04-.05-.08-.08-.13-.02-.03-.04-.06-.05-.09-.03-.06-.06-.12-.09-.18-.02-.03-.03-.07-.04-.1-.02-.04-.03-.09-.05-.13-.02-.05-.04-.1-.05-.15-.02-.05-.03-.1-.05-.15-.01-.04-.02-.08-.03-.13-.01-.06-.03-.12-.04-.17-.01-.06-.02-.12-.03-.17,0-.05-.01-.09-.02-.14,0-.06-.01-.12-.02-.17,0-.07-.01-.14-.02-.2,0-.05,0-.11,0-.16,0-.05,0-.11,0-.16,0-.08,0-.16,0-.25,0-.05,0-.11,0-.16,0-.06,0-.12,0-.18,0-.09,0-.18.02-.28,0-.06,0-.12.01-.18,0-.06.01-.13.02-.19,0-.08.02-.17.03-.26,0-.06.02-.13.02-.19.01-.1.03-.2.04-.31,0-.03,0-.06.01-.09.05-.33.12-.67.19-1.03,0-.04.01-.07.02-.11.02-.1.04-.2.07-.31.01-.06.03-.12.04-.18.02-.1.04-.19.07-.29.02-.08.04-.15.06-.23.03-.12.06-.24.09-.36.03-.13.07-.26.1-.39.02-.07.04-.14.06-.21.03-.12.07-.24.1-.36.02-.06.04-.13.06-.2.04-.15.09-.31.14-.47.01-.03.02-.07.03-.1.12-.42.26-.85.4-1.3,0-.02.01-.04.02-.05.14-.46.3-.93.46-1.41l7.7-22.72c.15-.38.21-.53.29-.59h0s.08-.04.14-.04c0,0,.01,0,.02,0h0s.03,0,.05,0h28.27s.06,0,.09,0c.12,0,.2,0,.25.04h0c.07.05.1.14.17.34l11.86,31.42c.88,2.52-.13,3.28-.76,3.66-.48.24-.85.37-.88.6.02,0,.04,0,.07,0,0,0,0,0,0,0-.02,0-.04,0-.06,0,0,.01,0,.02,0,.03,0,.25.38.76,3.79.88,8.71.38,17.67.25,20.44.25,1.5,0,1.84-.31,1.89-.47h0s0,0,0,0h0ZM449.47,447.61l-26.81-.05c-.24,0-.41-.25-.32-.47l.27-.67c.05-.13.18-.22.32-.22h26.26c.14,0,.27.09.32.22l.29.72c.09.23-.08.47-.32.47ZM422.91,443.82l11.23-34.45c.44-1.31.66-2.01.89-2.03h0s.03,0,.04,0c0,0,0,0,.01,0,0,0,.02,0,.03.01,0,0,0,0,.01,0,.01,0,.03.02.04.03,0,0,.01.01.02.02,0,0,.01.01.02.02,0,0,.02.02.02.03,0,0,.01.01.02.02.02.03.04.06.06.1h0s0,0,0,.01c0,.01.01.03.02.04.03.05.05.1.08.16,0,0,0,.02.01.03.02.04.04.08.06.12,0,0,0,0,0,.01.14.33.32.8.54,1.41l12.12,34.45c.06.19.13.31.11.39l.06.06s0,0,0,0l-.06-.06c-.02.08-.11.11-.36.11h-24.86c-.08,0-.14-.02-.17-.05h0s0,0,0,0h0s-.01-.02-.02-.03c-.04-.07,0-.21.07-.43h0ZM470.48,484.01c-.48-.04-.97-.03-1.45.04l-3.99.57,2.44-1.04c.86-.37,1.22-1.09.93-1.86l-31.24-84.45-29.48,84.07c-.37,1.07.1,2.25,1.12,2.75l1.41.7-3.84-.45c-.16-.02-.31-.02-.47,0l-4.28.4,3.11-1.31c.58-.25,1.04-.73,1.25-1.33l31.16-88.85,32.93,89.02c.17.46.56.8,1.04.9l4.58,1.31-5.21-.47ZM448.26,444.21s0,0,0,0h0s0,0,0,0ZM620.15,390.26c-.07-.15-.54-.47-2.16-.47-3.45,0-8.82.38-9.97.38-1.02,0-8.57-.38-13.3-.38-1.4,0-1.84.32-1.91.47.02,0,.05,0,.07,0h0s-.05,0-.07,0c0,.01-.01.03-.01.04,0,.18.24.29.64.35.18.03.4.04.64.04.53,0,1.48,0,2.73.17.57.08,1.2.19,1.87.35.06.01.11.03.17.04.05.01.1.02.15.04.07.02.13.05.2.07.03.01.07.02.1.04.07.03.13.06.2.1.02.01.05.02.07.04.07.04.13.08.2.12.02.01.03.02.05.03.07.05.13.1.19.15.01,0,.02.02.03.03.06.06.13.12.19.18,0,0,.01.01.02.02.06.07.12.14.18.21,0,0,0,0,0,0,.53.7.78,1.7.81,2.92h0c0,.07,0,.15,0,.22,0,1.66-.13,3.45-1.41,8.18-4.17,15.24-14.65,48.43-19.07,63.05h0c-.33,1.08-.62,2.06-.88,2.92h0s0,0,0,0l-25.7-73.26c-1.41-3.99-2.28-5.83-3.01-6.1h0s0,0,0,0c-.06-.02-.13-.04-.19-.04-.64,0-1.28.77-3.2,6.01l-26.71,71.86h0s-.52,1.4-.52,1.4c-2.05-7.16-15.34-54.08-17.26-62.26-1.28-5.63-2.3-10.1-2.43-11.76,0-.05,0-.1-.01-.15,0,0,0,0,0-.01,0-.07,0-.13-.01-.2,0-.04,0-.08,0-.12,0-.04,0-.08,0-.12,0-.05,0-.1,0-.14,0-.04,0-.08,0-.12,0-.05,0-.1,0-.16,0-.03,0-.05,0-.08,0-.07,0-.14,0-.21,0-.03,0-.05,0-.08,0-.07,0-.14.01-.21,0-.02,0-.04,0-.05,0-.06.01-.13.02-.19,0-.02,0-.03,0-.05,0-.07.02-.14.03-.21,0-.02,0-.04,0-.05.01-.07.03-.14.04-.21,0-.01,0-.03.01-.04.02-.07.04-.14.06-.21,0,0,0-.01,0-.02.02-.07.05-.14.07-.21,0-.01,0-.03.01-.04.03-.07.06-.13.09-.19,0-.01.01-.02.02-.03.07-.13.15-.26.24-.38,0,0,.01-.02.02-.02.05-.06.1-.11.15-.16,0,0,.02-.02.02-.02.05-.05.11-.1.17-.15,0,0,.01-.01.02-.02.04-.03.08-.06.12-.08.02-.01.03-.02.05-.03.03-.02.07-.04.1-.06.02-.01.04-.02.06-.03.03-.02.07-.04.11-.05.02-.01.04-.02.07-.03.04-.02.09-.04.14-.06.01,0,.03-.01.04-.02,1.92-.64,4.22-.51,4.99-.51s1.28-.13,1.28-.38c0-.01,0-.03-.01-.04h0s0,0,0,0c-.02,0-.04,0-.06,0,.02,0,.04,0,.06,0-.07-.15-.51-.47-1.91-.47-4.73,0-12.53.38-13.55.38-1.15,0-11.51-.38-14.96-.38-1.64,0-2.1.32-2.16.47h0s0,.03,0,.04c0,.26.38.38,1.28.38,1.02,0,2.68,0,4.6.38.11.02.22.05.33.07.03,0,.06.02.1.02.08.02.16.04.24.07.03,0,.06.02.09.03.1.03.21.07.31.1,0,0,0,0,0,0,.1.04.2.07.29.12.03.01.06.03.09.04.07.03.14.06.21.1.03.01.06.03.09.04.09.05.19.1.28.15,0,0,.01,0,.02.01.09.05.17.1.25.15.03.02.06.04.09.06.06.04.13.09.19.13.03.02.06.04.08.06.09.06.17.13.25.19.01,0,.02.02.03.03.07.06.15.12.22.19.03.02.06.05.08.08.06.05.11.1.17.16.03.03.05.05.08.08.08.08.16.16.23.24.01.01.03.03.04.04.06.07.13.14.19.21.03.03.05.06.08.1.05.06.1.12.15.19.03.03.05.06.08.1.07.09.14.18.21.28.02.02.03.04.05.06.06.08.11.16.17.24.03.04.05.08.08.12.05.07.09.14.14.21.03.04.05.08.08.12.07.11.13.21.2.32.02.03.03.06.05.09.05.09.1.18.15.27.03.05.05.09.08.14.04.08.08.16.13.24.02.05.05.09.07.14.06.12.12.24.18.37.02.03.03.07.05.11.05.1.09.19.14.29.02.05.05.11.07.16.04.09.08.18.12.27.02.05.05.1.07.16.06.13.11.27.17.41h0c.2.49.4,1.02.6,1.56,0,0,0,0,0,0,.06.16.12.32.17.49,0,.02.02.05.03.07.05.14.1.28.14.42.02.05.03.1.05.15.04.13.08.26.13.39.02.07.05.14.07.21.13.4.26.81.39,1.24l22.76,75.82c.02.06.03.12.05.17.03.11.06.21.09.32.02.07.04.15.07.22.05.15.09.31.14.46,0,.02.01.04.02.06h0c2.18,7.3,2.95,8.87,3.98,8.99,0-.02,0-.04,0-.06h0s0,.04,0,.06c.04,0,.09,0,.13,0,1.15,0,2.17-1.53,4.22-6.9,4.6-11.89,22.12-58.68,26.85-71.34l25.19,71.47c1.79,4.99,2.68,6.78,3.84,6.78.04,0,.09,0,.13,0,0-.02,0-.04,0-.06,0,0,0,0,0,0,0,.02,0,.04,0,.06,1.2-.12,2.03-1.99,5.24-11.12,4.99-14.32,17.9-54.98,23.52-71.21,2.43-7.03,4.47-14.19,8.44-14.96.27-.05.53-.1.77-.14h0c1.47-.24,2.44-.24,3.32-.24.5,0,.85-.04,1.05-.12.16-.06.23-.15.23-.26,0-.01,0-.03-.01-.04h0ZM610.82,392.27l-2.65,1.69s-1.55,1.34-1.88,2.36l-27.15,85.4s-.01,0-.02,0l-29.34-81.43s-.01,0-.02,0l-31.8,83.63s-.01,0-.02,0l-23.71-87.9s-.3-.76-.42-.99c-.07-.13-.16-.24-.28-.33-1.03-.8-4.55-2.23-4.55-2.23,0,0,0,0,0,0,0,0,3.63.8,4.87.9.3.03.78.01,1.09-.03,1.13-.15,4.43-1.05,4.43-1.05,0,0,0,0,0,0,0,0-2.92,1.34-3.63,2.15-.16.18-.23.35-.24.59-.01.19.1.75.1.75l22.56,83.66s.01,0,.02,0l31.61-83.14s.01,0,.02,0l29.23,81.11s.01,0,.02,0l25.25-79.45c.64-2-.18-4.71-1.81-6.03h0s0-.02,0-.01l2.88,1.26c.07.03.15.06.23.07.46.1.94.11,1.41.05.06,0,.11-.02.16-.04l3.62-1.02s.02.01,0,.02ZM303.89,390.26c-.07-.15-.54-.47-2.16-.47-3.45,0-8.82.38-9.97.38-1.02,0-8.57-.38-13.3-.38-1.4,0-1.84.32-1.91.47.02,0,.05,0,.07,0h0s-.05,0-.07,0c0,.01-.01.03-.01.04,0,.18.24.29.64.35.18.03.4.04.64.04.53,0,1.48,0,2.73.17.57.08,1.2.19,1.87.35.06.01.11.03.17.04.05.01.1.02.15.04.07.02.13.05.2.07.03.01.07.02.1.04.07.03.13.06.2.1.02.01.05.02.07.04.07.04.13.08.2.12.02.01.03.02.05.03.07.05.13.1.19.15.01,0,.02.02.03.03.06.06.13.12.19.18,0,0,.01.01.02.02.06.07.12.14.18.21,0,0,0,0,0,0,.53.7.78,1.7.81,2.92h0c0,.07,0,.15,0,.22,0,1.66-.13,3.45-1.41,8.18-4.17,15.24-14.65,48.43-19.07,63.05h0c-.33,1.08-.62,2.06-.88,2.92h0s0,0,0,0l-25.7-73.26c-1.41-3.99-2.28-5.83-3.01-6.1h0s0,0,0,0c-.06-.02-.13-.04-.19-.04-.64,0-1.28.77-3.2,6.01l-26.71,71.86h0s-.52,1.4-.52,1.4c-2.05-7.16-15.34-54.08-17.26-62.26-1.28-5.63-2.3-10.1-2.43-11.76,0-.05,0-.1-.01-.15,0,0,0,0,0-.01,0-.07,0-.13-.01-.2,0-.04,0-.08,0-.12,0-.04,0-.08,0-.12,0-.05,0-.1,0-.14,0-.04,0-.08,0-.12,0-.05,0-.1,0-.16,0-.03,0-.05,0-.08,0-.07,0-.14,0-.21,0-.03,0-.05,0-.08,0-.07,0-.14.01-.21,0-.02,0-.04,0-.05,0-.06.01-.13.02-.19,0-.02,0-.03,0-.05,0-.07.02-.14.03-.21,0-.02,0-.04,0-.05.01-.07.03-.14.04-.21,0-.01,0-.03.01-.04.02-.07.04-.14.06-.21,0,0,0-.01,0-.02.02-.07.05-.14.07-.21,0-.01,0-.03.01-.04.03-.07.06-.13.09-.19,0-.01.01-.02.02-.03.07-.13.15-.26.24-.38,0,0,.01-.02.02-.02.05-.06.1-.11.15-.16,0,0,.02-.02.02-.02.05-.05.11-.1.17-.15,0,0,.01-.01.02-.02.04-.03.08-.06.12-.08.02-.01.03-.02.05-.03.03-.02.07-.04.1-.06.02-.01.04-.02.06-.03.03-.02.07-.04.11-.05.02-.01.04-.02.07-.03.04-.02.09-.04.14-.06.01,0,.03-.01.04-.02,1.92-.64,4.22-.51,4.99-.51s1.28-.13,1.28-.38c0-.01,0-.03-.01-.04h0s0,0,0,0c-.02,0-.04,0-.06,0,.02,0,.04,0,.06,0-.07-.15-.51-.47-1.91-.47-4.73,0-12.53.38-13.55.38-1.15,0-11.51-.38-14.96-.38-1.64,0-2.1.32-2.16.47h0s0,.03,0,.04c0,.26.38.38,1.28.38,1.02,0,2.68,0,4.6.38.11.02.22.05.33.07.03,0,.06.02.1.02.08.02.16.04.24.07.03,0,.06.02.09.03.1.03.21.07.31.1,0,0,0,0,0,0,.1.04.2.07.29.12.03.01.06.03.09.04.07.03.14.06.21.1.03.01.06.03.09.04.09.05.19.1.28.15,0,0,.01,0,.02.01.09.05.17.1.25.15.03.02.06.04.09.06.06.04.13.09.19.13.03.02.06.04.08.06.09.06.17.13.25.19.01,0,.02.02.03.03.07.06.15.12.22.19.03.02.06.05.08.08.06.05.11.1.17.16.03.03.05.05.08.08.08.08.16.16.23.24.01.01.03.03.04.04.06.07.13.14.19.21.03.03.05.06.08.1.05.06.1.12.15.19.03.03.05.06.08.1.07.09.14.18.21.28.02.02.03.04.05.06.06.08.11.16.17.24.03.04.05.08.08.12.05.07.09.14.14.21.03.04.05.08.08.12.07.11.13.21.2.32.02.03.03.06.05.09.05.09.1.18.15.27.03.05.05.09.08.14.04.08.08.16.13.24.02.05.05.09.07.14.06.12.12.24.18.37.02.03.03.07.05.11.05.1.09.19.14.29.02.05.05.11.07.16.04.09.08.18.12.27.02.05.05.1.07.16.06.13.11.27.17.41h0c.2.49.4,1.02.6,1.56,0,0,0,0,0,0,.06.16.12.32.17.49,0,.02.02.05.03.07.05.14.1.28.14.42.02.05.03.1.05.15.04.13.08.26.13.39.02.07.05.14.07.21.13.4.26.81.39,1.24l22.76,75.82c.02.06.03.12.05.17.03.11.06.21.09.32.02.07.04.15.07.22.05.15.09.31.14.46,0,.02.01.04.02.06h0c2.18,7.3,2.95,8.87,3.98,8.99,0-.02,0-.04,0-.06h0s0,.04,0,.06c.04,0,.09,0,.13,0,1.15,0,2.17-1.53,4.22-6.9,4.6-11.89,22.12-58.68,26.85-71.34l25.19,71.47c1.79,4.99,2.68,6.78,3.84,6.78.04,0,.09,0,.13,0,0-.02,0-.04,0-.06,0,0,0,0,0,0,0,.02,0,.04,0,.06,1.2-.12,2.03-1.99,5.24-11.12,4.99-14.32,17.9-54.98,23.52-71.21,2.43-7.03,4.47-14.19,8.44-14.96.27-.05.53-.1.77-.14h0c1.47-.24,2.44-.24,3.32-.24.5,0,.85-.04,1.05-.12.16-.06.23-.15.23-.26,0-.01,0-.03-.01-.04h0ZM294.55,392.27l-2.65,1.69s-1.55,1.34-1.88,2.36l-27.15,85.4s-.01,0-.02,0l-29.34-81.43s-.01,0-.02,0l-31.8,83.63s-.01,0-.02,0l-23.71-87.9s-.3-.76-.42-.99c-.07-.13-.16-.24-.28-.33-1.03-.8-4.55-2.23-4.55-2.23,0,0,0,0,0,0,0,0,3.63.8,4.87.9.3.03.78.01,1.09-.03,1.13-.15,4.43-1.05,4.43-1.05,0,0,0,0,0,0,0,0-2.92,1.34-3.63,2.15-.16.18-.23.35-.24.59-.01.19.1.75.1.75l22.56,83.66s.01,0,.02,0l31.61-83.14s.01,0,.02,0l29.23,81.11s.01,0,.02,0l25.25-79.45c.64-2-.18-4.71-1.81-6.03h0s0-.02,0-.01l2.88,1.26c.07.03.15.06.23.07.46.1.94.11,1.41.05.06,0,.11-.02.16-.04l3.62-1.02s.02.01,0,.02ZM678.32,389.74c-12,0-23.29,5.01-31.78,14.1-8.5,9.11-13.19,21.22-13.19,34.11s4.68,25,13.19,34.11c8.49,9.09,19.78,14.1,31.78,14.1s23.29-5.01,31.78-14.1c8.5-9.11,13.19-21.22,13.19-34.11s-4.68-25-13.19-34.11c-8.49-9.09-19.78-14.1-31.78-14.1ZM710.6,411.29c.09.17.19.34.28.51.06.1.11.21.17.31.09.17.18.34.27.51.04.08.08.16.12.24.16.32.32.64.48.97.05.11.1.22.16.33.08.18.17.35.25.53,3.12,6.84,4.94,15.14,4.94,24.81,0,37.97-24.27,44.76-36.02,44.76-.09,0-.17,0-.26,0h0c-.45,0-.91-.01-1.36-.03-.04,0-.08,0-.12,0-.67-.03-1.34-.07-2-.13-.04,0-.08,0-.12-.01-.66-.06-1.32-.14-1.97-.23-.04,0-.07-.01-.11-.02-.65-.1-1.3-.21-1.94-.33-.03,0-.06-.01-.09-.02-.43-.09-.85-.18-1.27-.28,0,0,0,0-.01,0-.22-.05-.43-.1-.65-.16-.02,0-.04-.01-.06-.02-.41-.1-.81-.21-1.21-.33-.03,0-.06-.02-.08-.02-.62-.18-1.23-.38-1.83-.59-.04-.01-.08-.03-.12-.04-.6-.21-1.19-.44-1.77-.67-.05-.02-.09-.04-.14-.06-.58-.24-1.15-.49-1.71-.76-.05-.02-.1-.05-.16-.07-.56-.27-1.11-.55-1.65-.84-.05-.03-.11-.06-.16-.09-.36-.19-.71-.39-1.06-.6,0,0-.01,0-.02-.01-.17-.1-.35-.21-.52-.31-.05-.03-.11-.07-.16-.1-.31-.19-.62-.39-.93-.59-.04-.03-.08-.05-.12-.08-.17-.11-.33-.22-.49-.33-.05-.04-.1-.07-.16-.11-.29-.2-.58-.41-.86-.62-.06-.04-.11-.08-.17-.12-.16-.12-.31-.24-.47-.36-.05-.04-.09-.07-.14-.11-.28-.22-.56-.44-.83-.66-.06-.05-.12-.1-.19-.15-.15-.12-.3-.25-.45-.38-.03-.03-.06-.05-.09-.08-.28-.24-.56-.49-.83-.74-.06-.06-.13-.12-.19-.18-.44-.41-.88-.83-1.31-1.26-.06-.07-.13-.13-.19-.2-.42-.43-.84-.88-1.25-1.34-.06-.07-.12-.14-.19-.21-.23-.27-.46-.53-.69-.81-.04-.05-.08-.1-.13-.15-.12-.15-.25-.3-.37-.45-.06-.07-.12-.15-.18-.22-.21-.27-.42-.54-.63-.81-.05-.07-.1-.13-.15-.2-.12-.16-.24-.32-.35-.48-.05-.07-.1-.14-.16-.22-.2-.28-.4-.57-.6-.86-.05-.07-.1-.14-.15-.22-.11-.17-.22-.33-.34-.5-.04-.06-.08-.13-.13-.2-.2-.3-.39-.61-.58-.92-.05-.08-.09-.15-.14-.23-.11-.18-.21-.36-.32-.54-.02-.04-.04-.08-.07-.12-.2-.35-.4-.69-.59-1.05-.04-.08-.08-.15-.12-.23-.22-.4-.43-.81-.64-1.22h0c-3.84-7.56-6.02-16.79-6.02-27.31,0-28.58,16.31-42.93,38.1-42.93.29,0,.59,0,.88.01.07,0,.14,0,.21,0,.24,0,.48.02.72.03.06,0,.11,0,.17,0,.28.01.57.03.85.05.06,0,.13.01.19.02.23.02.47.04.7.06.07,0,.14.01.21.02.28.03.56.06.84.1.05,0,.1.01.15.02.24.03.47.06.71.1.08.01.15.02.23.04.28.04.55.09.83.14.02,0,.05,0,.07.01.25.05.51.1.76.15.08.02.16.03.24.05.24.05.47.1.71.16.04,0,.08.02.13.03.27.06.53.13.8.2.08.02.16.04.25.07.21.06.42.11.63.17.07.02.14.04.21.06.26.08.52.16.77.24.08.03.16.05.24.08.19.06.39.13.58.19.08.03.17.06.25.09.25.09.5.18.75.27.08.03.16.06.24.09.19.07.37.14.56.22.09.04.19.08.28.11.24.1.48.2.71.3.07.03.15.07.22.1.19.08.37.17.55.25.1.05.2.09.3.14.18.09.36.17.54.26.1.05.21.1.31.16.2.1.39.2.59.31.1.06.21.11.31.17.15.08.31.17.46.26.09.05.19.11.28.16.22.13.43.25.65.38.11.06.21.13.32.19.14.08.27.17.41.26.11.07.21.13.32.2.21.13.41.27.62.41.11.07.21.15.32.22.13.09.25.18.38.26.11.08.22.16.33.24.15.11.3.22.45.34.15.11.3.23.45.35.12.09.23.18.35.27.11.09.23.18.34.28.11.09.23.19.34.28.18.15.35.3.53.45.11.1.22.19.33.29.12.1.23.21.34.31.1.09.2.18.29.27.18.17.36.33.53.5.11.1.21.2.32.31.12.11.23.23.34.34.09.09.17.18.26.27.11.12.23.24.34.36.16.17.32.35.48.52.11.13.23.25.34.38.08.09.16.18.24.27.11.13.23.26.34.39.07.09.15.18.22.27.19.23.38.46.57.7.07.09.14.18.22.27.11.14.22.28.33.42.07.09.13.18.2.27.19.25.37.5.56.76.06.09.13.18.19.27.11.15.21.3.31.45.06.09.13.19.19.28.18.27.36.55.54.83.06.09.11.17.17.26.1.16.2.32.3.48.06.1.12.19.18.29.2.34.41.68.6,1.03.02.04.04.07.06.11ZM723.3,410.12c-.04-.07-.08-.14-.12-.21-.18-.3-.36-.61-.55-.9-.02-.04-.05-.07-.07-.11-.17-.27-.34-.53-.51-.79-.05-.07-.09-.14-.14-.21-.19-.29-.39-.58-.59-.87-.01-.02-.03-.04-.04-.06-.19-.27-.38-.54-.58-.8-.05-.07-.1-.13-.15-.2-.42-.56-.85-1.11-1.3-1.65-.05-.06-.11-.13-.16-.19-.22-.26-.43-.52-.65-.77,0,0-.02-.02-.03-.03-.23-.26-.47-.52-.7-.78-.06-.06-.11-.12-.17-.18-.22-.23-.43-.46-.66-.69-.02-.02-.05-.05-.07-.08-.24-.25-.49-.49-.74-.74-.06-.06-.11-.11-.17-.17-.22-.21-.44-.42-.66-.63-.04-.03-.07-.07-.11-.1-.25-.23-.51-.47-.77-.69-.06-.05-.12-.1-.17-.15-.22-.2-.45-.39-.68-.58-.05-.04-.1-.08-.14-.12-.27-.22-.54-.44-.81-.65-.06-.05-.12-.09-.17-.13-.23-.18-.47-.36-.7-.54-.06-.04-.11-.09-.17-.13-.28-.21-.56-.41-.84-.61-.05-.04-.11-.08-.17-.12-.24-.17-.49-.34-.73-.5-.07-.04-.13-.09-.2-.13-.29-.19-.58-.38-.88-.57-.05-.03-.1-.06-.15-.09-.26-.16-.51-.32-.77-.47-.07-.04-.14-.09-.22-.13-.3-.18-.6-.35-.91-.53-.04-.02-.08-.05-.12-.07-.27-.15-.55-.3-.82-.45-.08-.04-.16-.08-.23-.12-.31-.16-.63-.33-.94-.49-.03-.01-.05-.03-.08-.04-.29-.15-.59-.29-.89-.43-.08-.04-.17-.08-.25-.12-.32-.15-.65-.3-.98-.44,0,0,0,0-.01,0-.33-.14-.65-.28-.98-.42-.09-.04-.17-.07-.26-.11-.31-.13-.62-.25-.93-.37-.03-.01-.05-.02-.08-.03-.34-.13-.67-.25-1.02-.38-.09-.03-.18-.06-.27-.1-.3-.11-.6-.21-.9-.31-.05-.02-.1-.03-.15-.05-.34-.11-.69-.22-1.04-.33-.09-.03-.18-.06-.27-.08-.3-.09-.59-.18-.89-.26-.07-.02-.13-.04-.2-.06-.35-.1-.7-.19-1.06-.29-.09-.02-.18-.05-.27-.07-.3-.08-.59-.15-.89-.22-.08-.02-.16-.04-.24-.06-.36-.08-.72-.16-1.08-.24-.09-.02-.18-.04-.27-.06-.3-.06-.6-.12-.9-.18-.09-.02-.18-.04-.27-.05-.37-.07-.73-.13-1.1-.2-.09-.01-.17-.03-.26-.04-.31-.05-.61-.1-.92-.14-.1-.01-.2-.03-.3-.04-.37-.05-.75-.1-1.12-.15-.08,0-.16-.02-.24-.03-.32-.04-.63-.07-.95-.11-.11-.01-.21-.02-.32-.03-.38-.04-.76-.07-1.15-.1-.07,0-.13,0-.2-.01-.33-.03-.67-.05-1-.07-.11,0-.22-.01-.33-.02-.39-.02-.78-.04-1.17-.06-.05,0-.09,0-.14,0-.36-.01-.71-.02-1.07-.03-.11,0-.23,0-.34,0-.39,0-.77-.01-1.16-.01-.01,0-.03,0-.04,0-.29,0-.57,0-.86,0-.02,0-.05,0-.07,0-.26,0-.52,0-.78.02,0,0,0,0,0,0-34.79.93-49.7,30.2-49.7,51,0,12.98,4.54,27.27,14.64,37.47h0s.03.03.04.04c.22.22.44.44.67.66.04.04.09.08.13.12.23.22.46.43.69.65.04.04.08.07.12.11.24.22.48.44.73.65.02.02.04.04.07.06.24.21.49.42.74.63.03.02.05.04.07.06.25.21.51.41.76.62.04.04.09.07.13.11.25.2.5.39.76.58.05.04.1.08.15.11.26.19.52.38.78.57.04.03.09.06.14.1.27.19.55.38.83.57.02.01.04.03.06.04.27.18.54.36.82.54.04.03.08.05.12.08.28.17.55.35.84.52.06.04.12.07.18.11.28.16.55.33.84.49.06.04.13.07.19.11.28.16.57.32.86.47.05.03.11.06.16.09.29.15.58.3.88.45.04.02.07.04.11.05.29.15.59.29.89.43.06.03.12.06.19.09.3.14.6.27.9.41.08.03.15.07.23.1.3.13.6.26.9.38.08.03.16.06.24.1.31.12.62.25.94.37.07.02.13.05.2.07.3.11.6.22.9.32.06.02.11.04.17.06.32.11.64.22.97.32.08.03.17.05.25.08.32.1.64.2.96.29.1.03.19.06.29.08.32.09.64.18.97.27.1.03.19.05.29.07.33.09.67.17,1.01.25.08.02.16.04.23.05.31.07.61.14.92.21.08.02.16.04.25.05.34.07.69.14,1.03.21.11.02.21.04.32.06.34.06.68.12,1.02.18.11.02.23.04.34.06.35.05.69.11,1.04.16.11.02.22.03.33.04.34.05.68.09,1.02.13.11.01.21.02.32.04.33.04.65.07.98.1.1,0,.21.02.31.03.37.03.74.06,1.11.09.12,0,.25.02.37.03.37.02.74.04,1.11.06.13,0,.25.01.38.02.38.02.76.03,1.14.04.11,0,.23,0,.34,0,.36,0,.72.01,1.08.01.06,0,.12,0,.17,0,3.92,0,7.67-.38,11.23-1.09h0c25.03-5.01,40.83-26.7,40.83-52.28,0-9.77-2.27-18.31-6.31-25.41h0c-.06-.11-.12-.21-.19-.32ZM724.75,437.95c0,13.26-4.82,25.73-13.58,35.11-8.77,9.39-20.44,14.57-32.85,14.57s-24.08-5.17-32.85-14.57c-8.76-9.38-13.58-21.85-13.58-35.11s4.82-25.73,13.58-35.11c8.77-9.39,20.44-14.57,32.85-14.57s24.08,5.17,32.85,14.57c8.76,9.38,13.58,21.85,13.58,35.11ZM847.78,390.07h0c-.04-.16-.33-.46-2.02-.46-3.81,0-10.41.38-11.04.38s-6.73-.38-12.95-.38c-2.42,0-2.75.31-2.79.47.02,0,.05,0,.07,0h0s-.05,0-.07,0c0,.02,0,.03,0,.04,0,.13.13.38,1.14.38,1.27,0,3.68,0,5.46.25.16.02.31.04.46.07.01,0,.02,0,.03,0,.14.02.28.05.41.08.02,0,.03,0,.05.01.13.03.25.07.38.1.02,0,.04.01.06.02.12.04.23.08.35.12.02,0,.04.01.06.02.11.04.22.09.32.14.02,0,.03.02.05.02.1.05.2.1.3.16.01,0,.03.02.04.03.1.06.19.12.29.18.01,0,.02.01.03.02.09.07.19.14.27.21,0,0,0,0,.01.01.09.07.18.15.26.23,0,0,0,0,0,0,.08.08.16.17.24.25,0,0,.02.02.02.03.07.08.14.17.21.26,0,.01.02.02.03.04.06.09.13.18.19.28,0,.01.02.03.03.05.06.1.11.19.17.29,0,.02.02.03.03.05.05.1.1.21.15.31,0,.02.02.03.02.05.05.11.09.22.14.34,0,.02.01.03.02.05.04.12.09.24.13.36,0,.01,0,.02.01.04.04.13.08.26.12.4.01.04.02.08.03.12.03.11.05.21.08.32.01.06.03.13.04.19.02.09.04.17.05.26.01.07.03.15.04.22.01.08.03.17.04.25.01.08.02.16.04.24.01.08.03.17.04.25.01.09.02.17.03.26.01.08.02.17.03.26.01.09.02.19.03.28,0,.09.02.17.03.26,0,.1.02.2.03.3,0,.09.01.17.02.26,0,.1.02.21.02.31,0,.09.01.17.02.26,0,.11.01.22.02.33,0,.09,0,.17.01.26,0,.12.01.24.02.36,0,.08,0,.17.01.25,0,.13.01.26.01.39,0,.07,0,.15,0,.22,0,.15,0,.29.01.44,0,.05,0,.1,0,.15.02.83.04,1.7.05,2.62l1.4,64.49c-4.06-4.19-17.9-19.68-30.47-33.13-19.55-20.95-38.47-41.39-40.37-43.54-1.27-1.27-3.43-4.06-4.44-4.06-.07,0-.14,0-.21.02h0c-.86.19-1.19,1.73-1.19,6.32.02,3.2.03,5.71.03,7.74h0c.01,4.31,0,6.53-.02,8.81v.06c0,.12,0,.24,0,.36,0,0,0,0,0,.01,0,.26,0,.52,0,.79,0,.08,0,.15,0,.23,0,.34,0,.69-.01,1.06,0,.12,0,.24,0,.36,0,.35,0,.72-.01,1.11v.05c0,.13,0,.26,0,.4,0,.04,0,.07,0,.11,0,.04,0,.09,0,.13,0,.02,0,.04,0,.06,0,.19,0,.39,0,.59,0,.04,0,.07,0,.11,0,.07,0,.13,0,.2,0,.01,0,.03,0,.04,0,.06,0,.12,0,.19,0,.04,0,.07,0,.11,0,.06,0,.12,0,.17,0,.04,0,.08,0,.11,0,.05,0,.11,0,.16,0,.03,0,.06,0,.09,0,.22,0,.44,0,.68,0,.04,0,.08,0,.12,0,.08,0,.15,0,.23,0,.02,0,.05,0,.07,0,.08,0,.16,0,.24,0,.02,0,.05,0,.07,0,.08,0,.15,0,.23,0,.05,0,.09,0,.14,0,.06,0,.12,0,.19,0,.06,0,.13,0,.19,0,.04,0,.08,0,.12,0,.07,0,.13,0,.2,0,.24,0,.49,0,.74,0,.07,0,.13,0,.2,0,.02,0,.04,0,.07,0,.1,0,.21,0,.31,0,.06,0,.12,0,.19,0,.05,0,.11,0,.16,0,.1,0,.19,0,.29,0,.03,0,.07,0,.1,0,.09,0,.18,0,.27,0,.09,0,.18,0,.28,0,.03,0,.07,0,.1,0,.29,0,.59,0,.9,0,.05,0,.11,0,.16,0,.1,0,.2,0,.31,0,.07,0,.13,0,.2,0,.08,0,.15,0,.23,0,.1,0,.2,0,.3,0,.06,0,.12,0,.18,0,.09,0,.18,0,.27,0,.08,0,.15,0,.23,0,.1,0,.2,0,.3,0,.05,0,.11,0,.16,0,.11,0,.22,0,.33,0,.1,0,.21,0,.32,0,.06,0,.12,0,.18,0,.18,0,.35,0,.53,0,.07,0,.14,0,.21,0,.11,0,.22,0,.33,0,.07,0,.14,0,.21,0,.13,0,.26,0,.38,0,.07,0,.13,0,.2,0,.13,0,.26,0,.4,0,.06,0,.12,0,.17,0,.16,0,.32,0,.49,0,.04,0,.08,0,.11,0,.16,0,.32,0,.48,0,.06,0,.12,0,.18,0,.18,0,.37,0,.55,0,.16,0,.32,0,.48,0,.06,0,.13,0,.19,0,.12,0,.25,0,.37,0,.12,0,.23,0,.35,0,.07,0,.14,0,.2,0,.16,0,.32,0,.48,0,.08,0,.17,0,.25,0,.17,0,.34,0,.51,0,.05,0,.1,0,.15,0,.16,0,.32,0,.49,0,.1,0,.21,0,.31,0,.13,0,.27,0,.4,0,.11,0,.21,0,.32,0,.24,0,.49,0,.74,0,.01,0,.03,0,.04,0,.25,0,.5,0,.75,0,.04,0,.08,0,.13,0,.2,0,.4,0,.6,0,.13,0,.27,0,.41,0,.1,0,.21,0,.31,0,.16,0,.32,0,.48,0,.15,0,.31,0,.46,0,.1,0,.2,0,.29,0,.16,0,.32,0,.48,0,.13,0,.27,0,.4,0,.11,0,.23,0,.34,0,.09,0,.18,0,.27,0,2.21,0,4.59,0,7.17v18.79c0,.76,0,1.5,0,2.21,0,.2,0,.41,0,.61,0,.03,0,.07,0,.1,0,.27,0,.55-.01.81,0,.03,0,.05,0,.08,0,.27,0,.54-.02.8,0,.02,0,.03,0,.05-.02,1.12-.06,2.16-.12,3.13,0,0,0,0,0,.01-.01.24-.03.47-.04.71,0,0,0,.01,0,.02-.1,1.41-.24,2.64-.44,3.7h0c-.63,3.31-1.85,5.02-4.17,5.29-1.14.13-3.05.25-4.19.25-.89,0-1.02.25-1.02.38,0,.03,0,.08.05.13h.09s-.06,0-.09,0c.12.16.54.38,1.99.38,3.81,0,11.55-.38,12.19-.38s6.73.38,12.95.38c2.03,0,2.59-.22,2.74-.38h0s0,0,0,0c.05-.05.05-.09.05-.13,0-.13-.13-.38-1.14-.38h0c-1.27,0-3.68,0-5.46-.25,0,0-.01,0-.02,0-.11-.01-.22-.03-.32-.05-.03,0-.07-.01-.1-.02-.09-.02-.18-.04-.26-.06-.02,0-.04-.01-.07-.02-.1-.03-.2-.06-.3-.1-.03-.01-.06-.02-.09-.04-.07-.03-.15-.06-.22-.1-.03-.01-.06-.03-.08-.04-.09-.05-.18-.09-.27-.15-.03-.02-.05-.03-.08-.05-.07-.04-.13-.08-.19-.13-.03-.02-.06-.04-.09-.06-.08-.06-.16-.12-.24-.19-.02-.02-.04-.04-.07-.06-.06-.05-.12-.11-.18-.16-.03-.03-.06-.06-.09-.09-.06-.06-.12-.13-.18-.2-.03-.03-.05-.06-.08-.09-.06-.07-.11-.14-.17-.21-.03-.04-.06-.07-.08-.11-.05-.07-.09-.13-.14-.2-.02-.03-.04-.07-.07-.1-.06-.09-.12-.19-.17-.29-.03-.05-.05-.09-.08-.14-.04-.07-.07-.14-.11-.21-.02-.05-.05-.09-.07-.14-.05-.11-.1-.22-.15-.33-.02-.05-.05-.11-.07-.17-.03-.08-.06-.15-.09-.23-.02-.06-.05-.12-.07-.18-.04-.11-.08-.22-.12-.34-.02-.07-.05-.15-.07-.22-.03-.08-.05-.17-.08-.25-.02-.07-.04-.15-.06-.22-.03-.09-.05-.18-.07-.27-.03-.11-.06-.23-.09-.35-.02-.09-.04-.18-.06-.27-.02-.09-.04-.17-.06-.26-.02-.08-.04-.17-.05-.26-.03-.14-.05-.28-.08-.42-.02-.1-.04-.2-.06-.3-.02-.1-.03-.2-.05-.31-.01-.08-.03-.17-.04-.25-.02-.11-.03-.21-.05-.32-.02-.15-.04-.31-.06-.47-.01-.1-.03-.2-.04-.3-.01-.11-.03-.21-.04-.32-.02-.15-.04-.3-.05-.46-.01-.11-.02-.22-.03-.33-.01-.11-.02-.22-.03-.33-.02-.17-.03-.35-.05-.52,0-.11-.02-.23-.03-.34,0-.11-.02-.23-.03-.35-.01-.16-.02-.32-.03-.48,0-.14-.02-.28-.03-.42,0-.12-.01-.24-.02-.36,0-.15-.02-.3-.02-.45,0-.16-.02-.33-.02-.5,0-.13-.01-.26-.02-.4,0-.12-.01-.25-.02-.37,0-.21-.02-.42-.02-.64,0-.13,0-.26-.01-.4,0-.15,0-.29-.01-.44,0-.1,0-.19,0-.29l-1.65-60.81h0c4.06,4.57,18.41,20.57,33.13,36.44,13.46,14.47,31.74,33.13,33.13,34.4,6.73,6.73,8.25,8.12,9.27,8.12.11,0,.22-.01.31-.05,0,0,0,0,0,0,.29-.11.49-.46.62-1.49,0,0,0,0,0,0,0-.06.01-.12.02-.18.01-.11.02-.24.04-.37,0-.06.01-.13.02-.19.1-1.33.14-3.43.14-6.73l.25-72.24v-1.9c0-.23,0-.46,0-.69,0-.05,0-.1,0-.15,0-.22,0-.44,0-.66,0-.05,0-.1,0-.15,0-.22,0-.43,0-.64,0-.03,0-.07,0-.1,0-.19,0-.38,0-.57,0-.03,0-.07,0-.1,0-.19,0-.39,0-.57,0-.05,0-.09,0-.14,0-.18,0-.36,0-.54,0-.04,0-.09,0-.13,0-.18,0-.35.01-.52,0-.03,0-.05,0-.08,0-.16,0-.31.02-.46,0-.04,0-.08,0-.12,0-.16.01-.31.02-.46,0-.04,0-.09,0-.13,0-.15.02-.3.03-.44,0-.04,0-.07,0-.11,0-.13.02-.26.03-.38,0-.03,0-.05,0-.08.01-.14.03-.27.04-.4,0-.04,0-.07.01-.11.01-.13.03-.25.05-.37,0-.04,0-.07.01-.1.02-.12.03-.24.05-.36,0-.02,0-.05.01-.07.02-.1.04-.2.06-.3,0-.03.01-.06.02-.08.02-.11.05-.21.07-.31,0-.03.01-.06.02-.09.03-.1.05-.2.08-.29,0-.03.02-.05.02-.08.03-.09.05-.17.08-.25,0-.02.01-.04.02-.06.03-.08.06-.15.09-.22.02-.05.04-.09.06-.14.02-.05.04-.09.07-.14.02-.04.04-.09.06-.13.02-.05.05-.09.08-.14.02-.04.04-.07.06-.11.05-.07.09-.15.15-.21.02-.03.04-.06.07-.08.03-.04.07-.08.1-.13.03-.03.05-.06.08-.09.03-.04.07-.07.1-.1.03-.03.06-.06.09-.08.04-.03.07-.06.11-.09.03-.03.06-.05.09-.07.04-.03.08-.06.13-.09.03-.02.06-.04.09-.06.07-.04.14-.08.21-.12.03-.01.06-.03.08-.04.06-.03.12-.06.18-.08.04-.02.07-.03.11-.04.05-.02.11-.04.16-.06.04-.01.08-.03.12-.04.06-.02.11-.03.17-.05.04-.01.08-.02.13-.03.06-.02.13-.03.2-.04.04,0,.08-.02.12-.02.1-.02.2-.03.3-.05.01,0,.02,0,.03,0,1.14-.13,3.05-.25,4.19-.25.89,0,1.02-.25,1.02-.38h0s0-.03,0-.05ZM832.55,468.58l.03.05h0s-.03-.05-.03-.05h0ZM837.54,486.38h0s.02.04.02.05c0-.01-.01-.03-.02-.05ZM837.25,393.05c-.5.39-.8.98-.8,1.62v86.08l-76.59-84.6v83.38c0,1.14.59,2.21,1.57,2.81l3.27,1.82-4.29-1.14c-.73-.22-1.51-.18-2.22.12l-2.93,1.04,2.11-1.65c.71-.63,1.12-1.53,1.12-2.48v-87.45l76.59,84.6v-82.27c0-.74-.4-1.42-1.04-1.78l-2.53-1.43,3.99.77c.1.01.2.02.3.02.06,0,.13,0,.19-.02l2.7-.56-1.45,1.13ZM847.78,390.07s-.05,0-.07,0h0s.05,0,.07,0h0Z"/>
        <g>
          <path class="cls-1" d="M249.46,0c2.9.18,6.21.21,9.48.63,3.08.4,6.12,1.17,9.16,1.86,4.28.97,8.45,2.32,12.49,4.06,2.08.89,4.17,1.76,6.22,2.71,1.72.8,3.4,1.71,5.07,2.6,2.96,1.58,5.84,3.28,8.54,5.3,3.49,2.61,7.03,5.15,10.49,7.8,1.37,1.05,2.61,2.27,3.86,3.46,3.3,3.13,6.65,6.21,9.84,9.46,2.23,2.27,4.25,4.76,6.36,7.16,1.53,1.74,3.11,3.45,4.58,5.25,1.67,2.05,3.29,4.15,4.86,6.27,2.64,3.55,5.3,7.09,7.82,10.73,2.7,3.9,5.28,7.9,7.87,11.88,1.87,2.87,3.73,5.75,5.48,8.7,1.42,2.4,2.65,4.91,4,7.36,1.57,2.84,3.18,5.66,4.75,8.5.47.84.9,1.7,1.33,2.56,1.98,3.97,3.95,7.96,5.94,11.93.9,1.8,1.85,3.58,2.75,5.38.47.94.9,1.91,1.32,2.87,2.03,4.57,4.06,9.13,6.07,13.71,1.53,3.48,3.08,6.96,4.53,10.48.95,2.29,1.74,4.64,2.62,6.96.24.64.56,1.25.85,1.87.21.46.48.89.64,1.36.8,2.3,1.53,4.62,2.36,6.91,1.56,4.32,3.24,8.59,4.74,12.93,1.34,3.85,2.49,7.77,3.76,11.64.37,1.13.83,2.23,1.26,3.33.44,1.13,1.37,1.74,2.46,1.97,2.5.53,4.75,1.74,7.15,2.55,1.84.62,3.72,1.13,5.57,1.72,2.06.66,4.11,1.37,6.17,2.06.09.03.18.07.26.06.51-.07,1.19.04,1.5-.26.46-.45.17-1.13-.15-1.65-2.61-4.19-4.35-8.8-6.1-13.37-2.06-5.39-3.81-10.91-5.57-16.42-.78-2.44-1.11-5.04-1.9-7.48-1.13-3.47-1.73-7.05-2.48-10.6-.71-3.37-1.57-6.71-1.86-10.17-.15-1.78-.64-3.53-.94-5.3-.22-1.31-.36-2.64-.53-3.96-.05-.41-.04-.83-.11-1.24-1.05-6.46-1.65-12.96-2.05-19.49-.34-5.51-.59-11.03-.89-16.54-.06-1.06-.15-2.11-.18-3.17-.02-.69-.02-1.39.07-2.07.33-2.35,2.12-3.36,4.14-2.19,2.3,1.35,4.58,2.77,6.69,4.41,2.87,2.22,5.71,4.52,8.3,7.07,2.29,2.26,4.24,4.88,6.31,7.37,2.89,3.46,4.98,7.43,7.14,11.37.42.76.69,1.6.99,2.42,1.83,4.97,3.29,10,3.83,15.33.37,3.64.61,7.27.13,10.88-.76,5.75-1.82,11.42-3.82,16.91-1.81,4.99-4.05,9.86-4.74,15.22-.36,2.78-.77,5.56-1.08,8.35-.32,2.87.23,5.69.55,8.52.17,1.51.44,3.01.75,4.49.17.8.46,1.58.8,2.32.57,1.24,1.63,1.74,2.92,1.95,3.16.5,6.33,1.03,9.47,1.63,1.95.37,3.85,1,5.81,1.34,4.32.76,8.5,2.1,12.78,3.06,4.23.95,8.43,2.02,12.55,3.42,2.74.93,5.56,1.61,8.31,2.53,4.41,1.49,8.82,3,13.16,4.68,4.64,1.8,9.24,3.72,13.77,5.78,3.91,1.78,7.84,3.52,11.56,5.72,2.18,1.29,4.49,2.35,6.71,3.59,1.7.95,3.35,2,4.99,3.05,3.09,1.97,6.28,3.82,9.21,6.02,3,2.26,6.2,4.27,8.87,6.99,2.65,2.7,5.41,5.28,8.1,7.93.42.41.76.91,1.1,1.4.67.99.61,1.7-.14,2.62-.96,1.16-2.24,1.87-3.51,2.55-3.67,1.97-7.37,3.89-11.08,5.8-.76.39-1.59.63-2.39.95-1.59.64-3.19,1.27-4.77,1.95-3.46,1.47-6.94,2.87-10.54,3.95-2.12.64-4.15,1.56-6.26,2.21-2.76.85-5.56,1.56-8.34,2.33-.17.05-.36.06-.53.12-3.86,1.49-8.02,1.8-11.91,3.19-.25.09-.52.15-.79.19-3.8.56-7.6,1.07-11.39,1.67-4.52.71-9.08.91-13.64,1.06-4.24.14-8.49-.06-12.73-.14-1.13-.02-2.26-.09-3.38-.17-5.41-.39-10.78-1.07-16.06-2.32-3.69-.87-7.34-1.9-10.95-3.08-3.79-1.24-7.55-2.53-11.16-4.24-1.79-.85-3.56-1.78-5.32-2.7-2.16-1.14-4.32-2.28-6.46-3.47-2.46-1.37-4.76-2.99-6.95-4.76-.71-.58-1.45-.85-2.35-.88-1.5-.05-2.95.05-4.41.48-1.42.42-2.92.58-4.39.78-3.35.46-6.69.99-10.08,1.17-2.25.12-4.49.41-6.74.53-2.11.12-4.23.15-6.35.16-2.98.02-5.96.11-8.93-.07-5.13-.31-10.29-.43-15.35-1.48-1.94-.41-3.91-.7-5.87-1.03-3.94-.66-7.74-1.8-11.48-3.2-1.14-.43-2.37-.62-3.49-1.1-3.45-1.48-6.87-3.04-10.29-4.6-3.77-1.72-7.08-4.21-10.35-6.74-1.08-.83-2.19-1.62-3.29-2.42-2.44-1.77-4.44-4.02-6.53-6.18-3.66-3.79-6.71-8.06-9.56-12.48-2.23-3.46-4.04-7.19-5.64-10.99-1.35-3.21-2.54-6.49-3.66-9.79-1.39-4.09-2.57-8.24-3.13-12.56-.13-.99-.61-1.94-.77-2.93-.18-1.17-.34-2.38-.24-3.55.13-1.55.95-2.28,2.48-2.42,1.12-.1,2.26-.14,3.38-.05,3.46.29,6.89.79,10.32,1.42,4.75.87,9.21,2.58,13.76,4.09,3.02,1,5.87,2.34,8.64,3.89.71.4,1.53.6,2.21,1.03,2.42,1.5,4.89,2.96,7.2,4.63,2.64,1.92,5.15,4.03,7.69,6.09,3.02,2.45,5.59,5.36,8.04,8.37,1.98,2.44,3.86,4.97,5.74,7.5,1.2,1.61,2.23,3.36,3.5,4.91,2.02,2.47,4.34,4.65,6.8,6.68,2.21,1.82,4.27,3.84,6.57,5.53,3.03,2.22,6.22,4.23,9.36,6.29,1.48.97,2.99,1.89,4.52,2.75,4.92,2.78,10.19,4.68,15.54,6.38.9.29,1.77.68,2.67.99.55.19,1.12.4,1.7.43.91.05,1.27-.56.76-1.33-.4-.6-.93-1.12-1.48-1.59-1.34-1.16-2.83-2.16-4.05-3.43-1.92-2-3.67-4.18-5.49-6.28-1.2-1.38-2.4-2.75-3.59-4.13-.42-.48-.85-.95-1.22-1.46-2.42-3.37-4.78-6.79-7.14-10.21-2.06-2.98-3.92-6.07-5.73-9.18-2.96-5.1-5.87-10.24-8.18-15.7-1.11-2.62-2.4-5.15-3.59-7.73-.27-.58-.46-1.2-.71-1.79-1.03-2.45-2.12-4.87-3.08-7.35-.77-1.96-1.37-3.99-2.08-5.98-.44-1.25-.97-2.47-1.42-3.72-.6-1.68-1.21-3.37-1.74-5.08-.67-2.14-1.3-4.3-1.9-6.47-1.45-5.22-2.9-10.45-4.28-15.69-.61-2.31-1.03-4.67-1.58-7-.39-1.65-.89-3.28-1.28-4.93-.39-1.65-.72-3.32-1.05-4.99-.64-3.29-1.27-6.59-1.88-9.89-.79-4.2-1.58-8.41-2.33-12.62-.2-1.13-.16-2.3-.33-3.43-.27-1.77-.56-3.54-.98-5.28-.68-2.86-1.46-5.69-2.21-8.54-.21-.8-.46-1.58-.71-2.37-.17-.53-.38-1.03-.53-1.56-1.01-3.58-1.9-7.2-3.04-10.74-1.55-4.81-3.27-9.56-4.96-14.32-.35-.99-.93-1.89-1.34-2.86-1.21-2.82-2.32-5.69-3.59-8.48-1.29-2.83-2.7-5.62-4.11-8.39-1.06-2.08-2.13-4.16-3.36-6.14-1.61-2.6-3.27-5.2-5.13-7.61-1.25-1.62-2.9-2.91-5.11-3.06-.4-.03-.8-.16-1.17-.32-3.13-1.29-6.44-1.77-9.73-2.39-6.35-1.18-12.77-1.25-19.18-1.08-3.61.1-7.22.47-10.8.94-4.03.53-8.03,1.27-12.03,2.01-1.19.22-2.32.78-3.5,1.05-3.43.8-6.86,1.74-10.33,2.23-4.1.58-8.19,1.45-12.38,1.24-2.16-.11-4.33,0-6.49-.04-.81-.02-1.62-.14-2.42-.27-1.34-.22-2.66-.51-4-.71-4.01-.6-7.81-1.88-11.47-3.62-.65-.31-1.32-.61-1.97-.92-3.1-1.49-5.71-3.67-8.18-6.03-1.77-1.68-1.56-3.71.54-5.03,1.57-.99,3.22-1.84,4.84-2.75.16-.09.33-.16.47-.27,4.46-3.13,9.44-5.23,14.37-7.38,4.22-1.84,8.64-3.22,12.9-4.98,3.3-1.36,6.8-1.82,10.17-2.84,3.61-1.1,7.35-1.47,11.02-2.18,1.37-.27,2.79-.25,4.19-.32,1.85-.09,3.7-.14,5.94-.21ZM294.09,18.3c-.34.62.08.92.36,1.25.78.89,1.55,1.79,2.36,2.66,1.67,1.8,3.4,3.54,5.02,5.39,1.38,1.57,2.68,3.23,3.95,4.9.88,1.16,1.55,2.5,2.47,3.62,2.08,2.52,3.65,5.38,5.18,8.23,2.76,5.11,5.54,10.22,7.81,15.6,1.62,3.84,3.52,7.56,4.61,11.62.1.35.26.69.39,1.03,1.31,3.58,2.68,7.13,3.9,10.73,1.03,3.04,1.94,6.13,2.8,9.22,1.27,4.61,2.47,9.23,3.67,13.86.39,1.51.71,3.05,1.07,4.57.68,2.85,1.77,5.62,1.86,8.6.01.36.17.71.25,1.07.66,2.77,1.38,5.52,1.98,8.31,1.31,6.11,2.32,12.3,4.82,18.08,1.26,2.91,2.79,5.67,4.44,8.36,1.75,2.86,4,5.32,6.15,7.86,2.3,2.73,4.67,5.38,7.38,7.68,3.68,3.11,7.4,6.17,11.39,8.87,1.05.71,2.07,1.49,3.16,2.12,3.01,1.75,6.14,3.29,8.99,5.32.22.16.47.27.72.39,4.27,2.07,8.55,4.14,12.82,6.22.47.23,1.02.47,1.37.04.27-.33.43-.96.32-1.37-.25-.92-.69-1.79-1.05-2.68-.34-.85-.7-1.69-.99-2.55-.31-.91-.49-1.87-.82-2.77-.83-2.33-1.75-4.64-2.57-6.97-1.27-3.59-2.46-7.21-3.74-10.8-.44-1.25-1.11-2.42-1.54-3.67-1.38-3.99-2.81-7.96-4.73-11.73-.62-1.22-1.03-2.55-1.53-3.83-.49-1.23-.94-2.48-1.46-3.7-.88-2.07-1.8-4.11-2.69-6.17-.89-2.07-1.7-4.17-2.64-6.21-1.12-2.41-2.35-4.76-3.52-7.14-1.37-2.8-2.71-5.6-4.07-8.4-.34-.7-.72-1.38-1.08-2.07-1.41-2.77-2.8-5.55-4.23-8.32-.59-1.14-1.24-2.25-1.86-3.37-1.76-3.16-3.51-6.32-5.29-9.47-.43-.75-.96-1.44-1.4-2.19-.86-1.45-1.68-2.93-2.54-4.38-.23-.39-.54-.74-.77-1.13-1.34-2.23-2.58-4.54-4.02-6.7-3.14-4.72-6.32-9.4-9.59-14.02-1.87-2.64-3.93-5.15-5.93-7.69-2.06-2.62-4.12-5.22-6.23-7.79-.78-.95-1.71-1.76-2.54-2.67-2-2.19-3.88-4.5-5.97-6.58-3.26-3.23-6.63-6.36-10.02-9.45-1.41-1.29-2.99-2.37-4.48-3.56-3.26-2.62-6.38-5.42-9.99-7.56-.62-.37-1.21-.77-1.95-.65ZM347.33,157.23c-.15.04-.3.09-.45.13-.02.47-.11.96-.04,1.41.11.68.31,1.34.53,2,.6,1.78,1.36,3.52,1.81,5.34.7,2.86,1.44,5.68,2.5,8.43.94,2.43,1.59,4.98,2.39,7.47.56,1.75,1.11,3.5,1.76,5.22.58,1.54,1.31,3.02,1.92,4.55.46,1.15.79,2.35,1.27,3.49,1.05,2.54,2.16,5.05,3.24,7.58.75,1.77,1.42,3.58,2.26,5.31,1.09,2.27,2.3,4.48,3.48,6.71,1.74,3.28,3.44,6.57,5.27,9.8,1.17,2.07,2.52,4.03,3.79,6.04,1.05,1.66,2,3.4,3.18,4.95,3.21,4.2,6.46,8.39,9.84,12.46,2.15,2.6,4.47,5.07,6.88,7.42,2.66,2.61,5.54,5,8.27,7.54,1.11,1.03,2.35,1.54,3.82,1.44,1.8-.13,3.61-.24,5.39-.49,3.17-.45,6.34-.93,9.39-2.03,1.27-.46,2.63-.62,3.96-.9.62-.13,1.25-.19,1.86-.36,2.86-.82,5.72-1.67,8.58-2.51.65-.19,1.32-.31,1.96-.55.83-.31,1.12-1.1.69-1.9-.16-.31-.45-.56-.71-.81-.56-.54-1.18-1.01-1.69-1.59-2.24-2.52-4.46-5.07-6.68-7.6-.36-.41-.74-.81-1.05-1.26-2.4-3.44-4.81-6.89-7.19-10.35-1.5-2.18-3-4.37-4.4-6.61-.87-1.39-1.54-2.91-2.32-4.36-1.52-2.82-3.05-5.63-4.57-8.45-.48-.89-.92-1.79-1.35-2.7-1-2.16-1.99-4.33-2.97-6.5-.67-1.5-1.24-3.06-2.01-4.51-.34-.64-1-1.19-1.64-1.58-.72-.44-1.58-.65-2.38-.98-.92-.38-1.84-.75-2.74-1.17-1.84-.88-3.61-1.95-5.51-2.64-2.53-.93-4.81-2.32-7.14-3.61-2.93-1.62-5.73-3.48-8.62-5.17-2.74-1.6-5.4-3.33-7.94-5.24-4.43-3.33-8.7-6.86-12.53-10.91-2.92-3.08-5.77-6.2-8-9.86-.58-.95-1.4-1.76-2.11-2.63ZM395.89,267.85c-.16-.81-.65-1.05-1.17-1.21-1.34-.41-2.69-.79-4.04-1.16-1-.28-2.06-.4-3.01-.8-4.12-1.75-8.3-3.34-12.23-5.53-2.93-1.64-5.88-3.22-8.57-5.25-4.02-3.04-8.1-5.99-11.98-9.2-2.09-1.72-4.16-3.53-5.8-5.78-1.18-1.62-2.56-3.08-3.8-4.66-1.58-2-3.11-4.05-4.66-6.08-1.27-1.67-2.5-3.37-3.83-4.99-.75-.91-1.7-1.64-2.5-2.51-2.69-2.92-5.59-5.56-8.81-7.91-3.31-2.41-6.66-4.74-10.24-6.67-4.88-2.63-9.95-4.8-15.27-6.33-.78-.22-1.6-.32-2.37-.58-4.58-1.53-9.36-1.96-14.09-2.69-.22-.03-.45-.03-.68,0-1.05.12-1.56.73-1.38,1.78.26,1.49.52,2.99.89,4.46.61,2.45,1.32,4.87,1.96,7.31,1.4,5.35,3.42,10.46,5.75,15.46,1.91,4.09,4.31,7.89,6.95,11.48,3.82,5.19,8.06,10.05,13.27,13.89,2.41,1.77,4.85,3.52,7.38,5.11,2.03,1.28,4.17,2.36,6.32,3.43,2.23,1.1,4.47,2.2,6.79,3.08,2.99,1.14,6.01,2.25,9.17,2.89,1.59.32,3.11.98,4.7,1.26,4.58.8,9.18,1.53,13.78,2.18,2.1.29,4.23.35,6.34.47,2.03.11,4.06.17,6.09.24.9.03,1.81.1,2.71.06,4.1-.18,8.21-.34,12.31-.6,2.97-.19,5.93-.52,8.9-.81.37-.04.72-.22,1.11-.35ZM510.27,280.61c2.68-.2,5.06-.41,7.45-.56,5.75-.37,11.27-2.05,16.88-3.17.57-.11,1.12-.35,1.67-.55,1.57-.57,3.11-1.31,4.73-1.67,2.23-.5,4.29-1.4,6.35-2.33,2.27-1.02,4.57-1.97,6.82-3.04,2.12-1.01,4.23-2.07,6.28-3.22,1.35-.76,1.56-1.94.76-3.28-.23-.38-.55-.73-.89-1.02-1.87-1.59-3.77-3.14-5.63-4.73-1.35-1.15-2.68-2.32-4.01-3.5-2.4-2.14-5.29-3.5-7.98-5.16-2.26-1.39-4.82-2.26-7.18-3.51-2.44-1.29-5.07-1.95-7.68-2.63-3.49-.92-7.02-1.78-10.67-1.79-.36,0-.72-.08-1.07-.15-2.23-.41-4.48-.7-6.74-.49-2.96.28-5.93.37-8.89.68-5.53.58-10.79,2.2-16.12,3.59-1.52.39-2.9,1.31-4.4,1.77-4.83,1.47-9.24,3.93-13.84,5.94-4.19,1.83-8.37,3.68-12.6,5.4-.63.26-1.3.42-1.91.7-.97.45-1.14,1.46-.4,2.25.19.2.43.34.65.5,1.61,1.18,3.3,2.26,4.82,3.55,2.48,2.11,5.45,3.41,8.15,5.14,3.47,2.22,7.21,4.01,11.12,5.37,1.62.57,3.24,1.13,4.88,1.63,2.55.78,5.07,1.74,7.67,2.22,3.85.71,7.7,1.57,11.65,1.64,3.47.06,6.94.29,10.13.44ZM509.82,235.51c2.57-.12,6.02.28,9.44.99.39.08.81.13,1.21.1.24-.02.6-.21.64-.38.06-.26-.03-.7-.21-.84-.65-.49-1.33-.96-2.06-1.28-2.82-1.24-5.64-2.47-8.5-3.6-4-1.58-8.02-3.09-12.05-4.58-2.46-.91-4.95-1.75-7.43-2.58-1.24-.42-2.51-.74-3.76-1.15-1.89-.62-3.75-1.34-5.65-1.91-2.9-.86-5.82-1.64-8.74-2.45-1.18-.32-2.35-.65-3.54-.93-3.43-.81-6.86-1.61-10.3-2.39-2.81-.63-5.64-1.22-8.46-1.82-1.85-.4-3.7-.82-5.56-1.19-1.1-.22-2.22-.46-3.33-.47-2.35-.03-4.53-.69-6.69-1.54-.83-.33-1.72-.48-2.59-.68-1.01-.23-2.03-.39-3.03-.65-.7-.18-1.36-.49-2.06-.69-4.63-1.36-9.32-2.56-13.71-4.67-.2-.1-.42-.17-.64-.21-.92-.18-1.44.25-1.29,1.2.1.67.36,1.33.67,1.94,1.01,1.95,2.2,3.81,3.09,5.82,2.54,5.66,5.69,10.96,8.95,16.2.89,1.43,1.65,2.96,2.59,4.36,1.39,2.09,2.83,4.15,4.34,6.16,1.67,2.22,3.44,4.37,5.19,6.53.8.99,1.61,1.98,2.47,2.93,1.92,2.13,3.85,4.27,5.83,6.35,1.22,1.28,2.48,1.38,4.05.5.55-.31,1.13-.59,1.71-.82,1.43-.56,2.9-1.02,4.31-1.63,2.7-1.16,5.37-2.41,8.06-3.59,2.61-1.14,5.23-2.25,7.84-3.38.54-.23,1.07-.5,1.61-.73,2.41-1.03,4.81-2.07,7.22-3.07.75-.31,1.53-.56,2.31-.8,2.58-.83,5.14-1.75,7.76-2.42,2.62-.67,5.3-1.09,7.96-1.6,1.33-.25,2.65-.57,3.99-.66,2.48-.18,4.96-.21,8.37-.34ZM295.15,28.6c1.21-.02,1.58-.59,1.13-1.47-.2-.4-.52-.75-.84-1.06-3.13-3.05-6.36-5.99-9.83-8.64-1.44-1.1-2.88-2.21-4.38-3.22-1-.68-2.11-1.19-3.18-1.77-1.55-.84-3.09-1.71-4.68-2.47-1.14-.54-2.34-.98-3.55-1.35-2.89-.89-5.78-1.82-8.71-2.56-5.13-1.29-10.38-1.34-15.62-1.18-2.66.08-5.3.51-7.96.64-2.68.13-5.25.85-7.88,1.24-.53.08-1.05.26-1.57.41-2.56.73-5.12,1.49-7.69,2.18-2.14.58-4.27,1.15-6.29,2.12-1.46.71-3,1.26-4.5,1.88-1.58.66-3.19,1.27-4.74,2-2.13,1-4.22,2.07-6.32,3.13-2.67,1.35-5.34,2.68-7.98,4.09-1.34.71-1.43,1.78-.17,2.66,1.63,1.13,3.38,2.1,5.09,3.11.5.3,1.12.41,1.61.72,1.63,1.05,3.49,1.53,5.28,2.05,3.03.87,6.12,1.53,9.31,1.7,3.6.2,7.19.74,10.8.05.13-.03.27-.03.41-.03,4.75.19,9.29-1.23,13.93-1.88.27-.04.52-.14.79-.21,3.4-.93,6.73-2.13,10.26-2.52.44-.05.87-.25,1.31-.33,1.11-.21,2.21-.42,3.33-.58,2.32-.33,4.65-.63,6.98-.94.62-.08,1.25-.17,1.88-.21,2.51-.16,5.03-.32,7.55-.43,1.49-.07,2.98-.13,4.46-.07,3.38.14,6.76.34,10.14.55,3.48.22,6.92.63,10.2,1.94.54.22,1.12.33,1.44.42ZM414.09,111.76s-.05,0-.08.01c0,1.15-.09,2.31.02,3.45.34,3.52.75,7.04,1.15,10.56.27,2.37.57,4.75.87,7.12.34,2.65.62,5.3,1.05,7.93.53,3.17,1.2,6.32,1.79,9.48.12.63.15,1.28.24,1.92.13.91.21,1.83.42,2.72.41,1.74.89,3.46,1.33,5.2.73,2.85,1.39,5.72,2.18,8.55.71,2.57,1.58,5.09,2.33,7.64.7,2.37,1.27,4.77,2.26,7.07,1.21,2.82,2.13,5.77,3.18,8.66.17.47.32.98.6,1.38.2.29.6.54.93.57.16.01.49-.52.52-.83.08-.77.03-1.56.05-2.34.07-2.3,0-4.61.25-6.89.38-3.57,1.15-7.07,2.3-10.48,1.42-4.22,3.05-8.35,4.39-12.6,1.82-5.78,2.56-11.68,2.65-17.67.06-4.14-.58-8.24-1.59-12.28-.82-3.28-2.08-6.38-3.52-9.39-1.8-3.77-4.06-7.24-6.61-10.56-2.32-3.03-4.87-5.81-7.68-8.34-2.4-2.16-4.96-4.13-7.45-6.18-.66-.54-1.43-.96-2.24-.46-.74.46-.53,1.28-.47,2.02.12,1.37.25,2.74.34,4.12.08,1.28.08,2.58.19,3.86.16,1.92.37,3.84.56,5.76ZM505,285.34c-.52-.2-.71-.32-.91-.35-2.24-.29-4.48-.56-6.72-.84-2.55-.32-5.11-.58-7.65-.98-1.51-.24-2.99-.7-4.49-1.03-2.69-.6-5.36-1.25-7.91-2.36-1.53-.67-3.13-1.18-4.69-1.78-1.14-.44-2.31-.83-3.38-1.42-3.22-1.75-6.45-3.49-9.57-5.42-2.5-1.54-4.85-3.35-7.27-5.03-1.9-1.33-3.75-2.71-5.35-4.41-.28-.29-.64-.51-.97-.75-.99-.73-1.81-.73-2.88-.1-.62.36-1.27.71-1.95.92-2.89.91-5.79,1.79-8.69,2.66-2.34.7-4.66,1.49-7.04,2.02-2.99.66-5.91,1.72-9,1.94-.35.03-.72.11-1.05.25-.8.36-.96.98-.39,1.64.41.47.91.99,1.47,1.18,1.36.46,2.42,1.41,3.66,2.05,3.7,1.91,7.42,3.77,11.15,5.61.89.44,1.86.69,2.79,1.07,1.5.61,2.99,1.24,4.49,1.86.12.05.26.1.39.1,1.71.07,3.2.93,4.8,1.38,2.87.8,5.78,1.45,8.68,2.13,1.36.32,2.75.54,4.12.82,2.34.49,4.69.97,7.1.98.68,0,1.35.08,2.03.13,2.97.23,5.93.6,8.91.67,3.34.08,6.68-.08,10.02-.17,1.35-.04,2.7-.14,4.05-.25,2.03-.16,4.05-.39,6.07-.52,2.98-.19,5.94-.51,8.83-1.27.39-.1.73-.38,1.35-.7Z"/>
          <path class="cls-1" d="M534.53,257.98c-.03,3.44-3.12,6.5-6.48,6.51-3.55.01-5.87-3.68-5.98-6.32-.12-3.14,3.08-6.59,6.27-6.53,3.14.06,6.4,3.39,6.19,6.33Z"/>
        </g>
      </g>
      <g>
        <path class="cls-1" d="M33.49,579.38v-15.16H12.78v15.16h-2.4v-32.35h2.4v14.98h20.71v-14.98h2.4v32.35h-2.4Z"/>
        <path class="cls-1" d="M81.1,579.94c-9.8,0-16.22-7.81-16.22-16.64v-.09c0-8.83,6.52-16.73,16.32-16.73s16.22,7.81,16.22,16.64t0,.09c0,8.83-6.52,16.73-16.32,16.73ZM94.92,563.2c0-8-5.82-14.56-13.82-14.56s-13.73,6.47-13.73,14.47v.09c0,8,5.82,14.56,13.82,14.56s13.73-6.47,13.73-14.47v-.09Z"/>
        <path class="cls-1" d="M137.13,579.84c-5.18,0-9.15-1.71-13.03-5.18l1.57-1.8c3.56,3.28,6.84,4.81,11.6,4.81s8.18-2.73,8.18-6.42v-.09c0-3.42-1.8-5.41-9.15-6.89-7.76-1.57-10.91-4.21-10.91-9.11v-.09c0-4.81,4.39-8.5,10.4-8.5,4.71,0,7.81,1.29,11.09,3.93l-1.53,1.89c-3.05-2.63-6.1-3.65-9.66-3.65-4.76,0-7.9,2.73-7.9,6.1v.09c0,3.42,1.76,5.5,9.43,7.07,7.49,1.52,10.63,4.21,10.63,8.92v.09c0,5.22-4.48,8.83-10.72,8.83Z"/>
        <path class="cls-1" d="M187.7,567.32h-8.74v12.06h-2.4v-32.35h11.74c7.12,0,12.02,3.65,12.02,9.89v.09c0,6.79-5.87,10.31-12.62,10.31ZM197.91,557.06c0-5.13-3.97-7.81-9.8-7.81h-9.15v15.85h8.87c6.01,0,10.08-3.14,10.08-7.95v-.09Z"/>
        <path class="cls-1" d="M228.56,579.38v-32.35h2.4v32.35h-2.4Z"/>
        <path class="cls-1" d="M273.07,549.25v30.13h-2.4v-30.13h-11.28v-2.22h24.96v2.22h-11.28Z"/>
        <path class="cls-1" d="M335.33,579.38l-4.11-9.06h-19.09l-4.11,9.06h-2.5l15.07-32.58h2.31l15.07,32.58h-2.63ZM321.7,549.43l-8.55,18.72h17.05l-8.5-18.72Z"/>
        <path class="cls-1" d="M365.61,579.38v-32.35h2.4v30.13h19v2.22h-21.4Z"/>
        <path class="cls-1" d="M415.35,579.38v-32.35h2.4v32.35h-2.4Z"/>
        <path class="cls-1" d="M459.86,549.25v30.13h-2.4v-30.13h-11.28v-2.22h24.96v2.22h-11.28Z"/>
        <path class="cls-1" d="M512.19,566.53v12.85h-2.4v-12.8l-13.87-19.55h3l12.11,17.38,12.16-17.38h2.87l-13.87,19.5Z"/>
        <path class="cls-1" d="M602.64,579.94c-10.21,0-16.27-7.53-16.27-16.64v-.09c0-8.74,6.33-16.73,15.99-16.73,5.27,0,8.6,1.57,11.83,4.25l-1.57,1.8c-2.54-2.22-5.5-3.88-10.4-3.88-7.86,0-13.36,6.66-13.36,14.47v.09c0,8.37,5.22,14.61,13.87,14.61,4.11,0,7.95-1.71,10.31-3.7v-9.29h-10.82v-2.22h13.13v12.48c-2.91,2.59-7.44,4.85-12.71,4.85Z"/>
        <path class="cls-1" d="M668.14,579.38l-10.31-13.4h-10.58v13.4h-2.4v-32.35h13.59c6.98,0,11.55,3.79,11.55,9.2v.09c0,5.41-4.02,8.5-9.48,9.24l10.68,13.82h-3.05ZM667.59,556.32c0-4.34-3.42-7.07-9.29-7.07h-11.05v14.56h10.91c5.41,0,9.43-2.73,9.43-7.39v-.09Z"/>
        <path class="cls-1" d="M713.86,579.94c-9.8,0-16.22-7.81-16.22-16.64v-.09c0-8.83,6.52-16.73,16.32-16.73s16.22,7.81,16.22,16.64t0,.09c0,8.83-6.52,16.73-16.32,16.73ZM727.68,563.2c0-8-5.82-14.56-13.82-14.56s-13.73,6.47-13.73,14.47v.09c0,8,5.82,14.56,13.82,14.56s13.73-6.47,13.73-14.47v-.09Z"/>
        <path class="cls-1" d="M771.92,579.89c-7.76,0-13.26-4.9-13.26-13.96v-18.9h2.4v18.67c0,7.63,4.11,12.02,10.95,12.02s10.77-3.97,10.77-11.79v-18.9h2.4v18.63c0,9.29-5.41,14.24-13.26,14.24Z"/>
        <path class="cls-1" d="M826.23,567.32h-8.74v12.06h-2.4v-32.35h11.74c7.12,0,12.02,3.65,12.02,9.89v.09c0,6.79-5.87,10.31-12.62,10.31ZM836.45,557.06c0-5.13-3.97-7.81-9.8-7.81h-9.15v15.85h8.87c6.01,0,10.08-3.14,10.08-7.95v-.09Z"/>
      </g>
    </g>
  </g>
</svg>