<?xml version="1.0" encoding="UTF-8"?>
<svg id="Layer_2" data-name="Layer 2" xmlns="http://www.w3.org/2000/svg" viewBox="0 0 1203.37 170.01">
  <defs>
    <style>
      .cls-1 {
        fill: maroon;
      }

      .cls-1, .cls-2 {
        stroke-width: 0px;
      }

      .cls-2 {
        fill: #092b49;
      }
    </style>
  </defs>
  <g id="Layer_6" data-name="Layer 6">
    <g>
      <path class="cls-2" d="M298.84,167.19h-78.19V2.82h76.32c33.58,0,54.24,16.67,54.24,42.5v.47c0,18.55-9.86,28.88-21.6,35.46,19.02,7.28,30.76,18.32,30.76,40.39v.47c0,30.06-24.42,45.08-61.52,45.08ZM315.28,51.43c0-10.8-8.45-16.91-23.72-16.91h-35.69v34.75h33.34c15.97,0,26.06-5.17,26.06-17.38v-.47ZM324.43,117.17c0-11.04-8.22-17.85-26.77-17.85h-41.8v36.16h42.97c15.97,0,25.6-5.64,25.6-17.85v-.47Z"/>
      <path class="cls-2" d="M380.09,167.19V2.82h36.16v164.37h-36.16Z"/>
      <path class="cls-2" d="M560.9,167.19l-79.6-104.49v104.49h-35.69V2.82h33.34l77.02,101.21V2.82h35.69v164.37h-30.76Z"/>
      <path class="cls-2" d="M696.39,170.01c-48.37,0-84.3-37.34-84.3-84.53v-.47c0-46.73,35.22-85,85.71-85,31,0,49.55,10.33,64.81,25.36l-23.01,26.54c-12.68-11.51-25.59-18.55-42.03-18.55-27.71,0-47.67,23.01-47.67,51.19v.47c0,28.18,19.49,51.66,47.67,51.66,18.79,0,30.29-7.51,43.21-19.25l23.01,23.25c-16.91,18.08-35.69,29.35-67.39,29.35Z"/>
      <path class="cls-2" d="M880.73,167.19l-35.22-52.6h-28.41v52.6h-36.16V2.82h75.14c38.75,0,61.99,20.43,61.99,54.24v.47c0,26.54-14.32,43.21-35.22,50.96l40.15,58.7h-42.27ZM881.43,58.94c0-15.5-10.8-23.48-28.41-23.48h-35.93v47.2h36.63c17.61,0,27.71-9.39,27.71-23.25v-.47Z"/>
      <path class="cls-2" d="M938.96,167.19V2.82h123.98v32.17h-88.06v33.34h77.49v32.17h-77.49v34.52h89.23v32.17h-125.16Z"/>
      <path class="cls-2" d="M1143.02,169.54c-24.89,0-50.02-8.69-69.74-26.3l21.37-25.6c14.79,12.21,30.29,19.96,49.08,19.96,14.79,0,23.72-5.87,23.72-15.5v-.47c0-9.16-5.64-13.85-33.11-20.9-33.11-8.45-54.48-17.61-54.48-50.25v-.47c0-29.82,23.95-49.55,57.53-49.55,23.95,0,44.38,7.51,61.05,20.9l-18.79,27.24c-14.56-10.1-28.88-16.2-42.74-16.2s-21.13,6.34-21.13,14.32v.47c0,10.8,7.04,14.32,35.46,21.6,33.34,8.69,52.13,20.66,52.13,49.31v.47c0,32.64-24.89,50.96-60.35,50.96Z"/>
    </g>
    <polygon class="cls-1" points="180.91 59.01 180.91 108.52 106.59 83.77 180.91 59.01"/>
    <polygon class="cls-2" points="156.25 166.7 156.25 166.74 7.62 166.74 7.62 117.18 156.25 166.7"/>
    <polygon class="cls-2" points="156.05 2.03 156.05 2.07 7.42 51.58 7.42 2.03 156.05 2.03"/>
    <polygon class="cls-2" points="156.05 59.01 81.74 83.77 156.05 108.52 163.48 111 163.48 160.52 156.05 158.04 7.42 108.53 0 106.06 0 61.47 7.42 59 156.05 9.49 163.48 7.02 163.48 56.54 156.05 59.01"/>
  </g>
</svg>