<?xml version="1.0" encoding="UTF-8"?>
<svg id="Layer_2" data-name="Layer 2" xmlns="http://www.w3.org/2000/svg" viewBox="0 0 726.16 944.39">
  <defs>
    <style>
      .cls-1 {
        fill: #00f2f4;
      }

      .cls-1, .cls-2, .cls-3, .cls-4, .cls-5, .cls-6, .cls-7, .cls-8 {
        stroke-width: 0px;
      }

      .cls-2 {
        fill: #000;
      }

      .cls-3 {
        fill: #4cf21f;
      }

      .cls-4 {
        fill: #f9ed3f;
      }

      .cls-5 {
        fill: #fdb308;
      }

      .cls-6 {
        fill: #00bbf1;
      }

      .cls-7 {
        fill: #f3478c;
      }

      .cls-8 {
        fill: #f23fff;
      }
    </style>
  </defs>
  <g id="Layer_2-2" data-name="Layer 2">
    <rect class="cls-2" width="726.16" height="944.39" rx="75.8" ry="75.8"/>
    <g>
      <path class="cls-1" d="M333.83,510.6c-.38-6.62,3.64-23.03,5.81-28.55,1.03-3.79,4.67-5.25,9.22-5.51,9.51-.55,22.3,5.34,22.66,11.54.05.83.12,2.07-.66,2.94-1.85,3.84-6.77,19.07-9.31,25.43-.71,2.12-3.55,3.11-6.86,3.3-8.27.48-20.55-3.78-20.86-9.16ZM580.75,582.7c-7.58,19.52-19.55,49.26-32.52,68.69-4.17,6.88-12.64,18.16-21.3,19.08l-5.79.33c-9.92.58-19.51-.11-24.15-8.56-2.33-4.42-3.52-10.58-3.92-17.61-.56-9.73.35-21.63,2.21-34.59-19.96,40.99-37.67,56.26-51.45,62-5.28,1.97-10.22,2.67-14.35,2.91l-4.55.26c-35.22.8-49.24-19.13-50.75-45.18-.08-1.37-.11-2.76-.13-4.16-11.71,27.14-26.73,55.53-40.18,56.9l-5.38.31c-10.34.6-21.16-.02-26.21-8.44-2.72-3.99-4.35-10.53-4.78-17.98-.42-7.27.25-15.78,1.33-24.73-22,42.95-59.33,80.22-109.82,83.15l-.83.05c-38.04,2.21-73.39-20.64-76.46-73.56-4.1-70.71,48.28-183.28,126.79-188.66,37.21-2.16,55.81,17.92,57.53,47.69,2.06,35.56-21.03,87.93-42.89,104.55-3.58,2.69-8.05,4.2-13.43,4.51-13.65.79-31.49-6.47-33.26-15.5-.14-2.48,1.41-4.23,3.9-4.37,22.62-3.38,63.83-72.57,62.08-102.76-.58-9.92-6.61-13.72-15.29-13.22-3.31.19-6.16,1.18-9.03,1.77-52.28,14.24-96.58,123.01-93.06,183.8,1.42,24.4,11.28,37.1,34.88,36.14,46.31-2.69,91.98-59.27,113.51-95.79.39-.67,1.01-1.23,1.69-1.63,5.39-23.02,12.23-45.02,15.98-56.08,1.46-3.4,5.5-5.29,10.05-5.56,9.92-.57,23.1,4.89,23.46,11.09l-.32,1.68c-2.78,9.29-26.95,93.25-25.48,118.47.26,4.55,1.24,6.98,3.72,6.84,13.62-1.21,36.19-55.62,46.25-82.34.17-.53.38-.95.62-1.29.1-.34.19-.69.3-1.03,8.39-27.04,28.45-60.15,58.64-61.9l1.65-.09c15.74-.5,29.02,6.61,29.93,22.33l.05.82c.87,29.41-27.22,67.14-49.55,68.43-4.13.24-8.34-.76-11.82-3.47-.54,5.01-1.06,10.43-.74,15.81.91,15.71,6.4,31.57,20.21,33.67l4.57.15c2.48-.14,5.76-.75,9.03-1.77,14.16-6.21,33.8-25.2,56.71-80.87.55-1.28,1.36-2.11,2.26-2.47,10.35-48.23,27.83-99.9,31.65-110.36,1.88-3.43,5.91-5.32,10.87-5.61,10.75-.62,24.81,5.61,25.14,11.4l-.34,1.26c-4.19,13.52-41.01,129.75-43.09,172.6l.07,8.29c.14,2.48.24,4.14,1.07,4.09l.82-.05c5.38-.31,12.61-11.52,14.9-14.97,11.79-18.53,24.09-49.53,31.35-67.37.71-2.12,1.93-2.6,3.58-2.7.42-.02,1.24-.07,2.09.29,1.29.76,2.19,1.95,2.26,3.19.05.83.07,1.24-.29,2.09ZM411.65,603.8c1.73,1.14,3.82,1.44,5.88,1.32,17.78-1.03,39.24-38.79,38.47-52.02-.14-2.48-1.04-3.67-2.33-4.43-1.29-.75-2.11-.7-3.36-.63-9.51.55-21.74,18.68-25.53,24.72-5.65,9.87-10.4,20.93-13.13,31.05Z"/>
      <path class="cls-5" d="M574.03,247.08c-1.36.03-2.75-.38-3.93-1.26-2.82-2.09-3.4-6.08-1.31-8.89l25.49-34.28c2.09-2.81,6.08-3.4,8.89-1.31,2.82,2.09,3.4,6.08,1.31,8.89l-25.49,34.28c-1.22,1.64-3.07,2.52-4.97,2.56ZM454.46,412.04l62.27-83.76c2.09-2.82,1.51-6.8-1.31-8.89-2.82-2.1-6.8-1.51-8.89,1.31l-62.27,83.76c-2.09,2.82-1.51,6.8,1.31,8.89,1.18.88,2.56,1.28,3.93,1.25,1.89-.04,3.75-.92,4.97-2.56Z"/>
      <path class="cls-6" d="M437.32,434.99c-20.7.45-42.48-1.03-64.6-4.58-78.93-12.68-145.5-49.05-169.6-92.67-1.18-2.13-1.04-4.74.36-6.73,1.4-1.99,3.81-3.01,6.21-2.62l90.55,14.54c3.47.56,5.82,3.82,5.27,7.28-.56,3.47-3.82,5.83-7.28,5.27l-76.13-12.22c23.89,30.16,76.99,62.45,152.63,74.6,56.29,9.04,127.37,4.87,168.55-23.02l-41.92-6.73c-3.47-.56-5.83-3.82-5.27-7.28.56-3.47,3.82-5.82,7.28-5.27l56.18,9.02c2.4.39,4.37,2.1,5.08,4.43.7,2.33.02,4.85-1.76,6.5-26.3,24.39-72.35,38.32-125.54,39.48ZM451.36,373.64c.56-3.47-1.8-6.73-5.27-7.28l-88.19-14.17c-3.47-.55-6.73,1.8-7.28,5.27-.56,3.46,1.8,6.73,5.27,7.28l88.18,14.17c.39.06.78.09,1.15.08,3.01-.07,5.64-2.27,6.13-5.35Z"/>
      <path class="cls-4" d="M345.95,388.66l-66.05-198.75-11.97,4.32,65.95,198.45c.91,2.72,3.46,4.39,6.17,4.34.62,0,1.26-.12,1.88-.32,3.33-1.11,5.13-4.71,4.02-8.05ZM245.77,86.59c-1.11-3.33-4.71-5.13-8.05-4.02-3.33,1.11-5.13,4.71-4.02,8.05l7.06,21.25,2.2-2.86c1.53-2,4.05-2.91,6.49-2.34l3.23.74-6.91-20.81Z"/>
      <path class="cls-8" d="M543.65,321.7c-2.36.05-4.74-.11-7.09-.49-10.31-1.65-19.36-7.22-25.48-15.69-6.12-8.46-8.58-18.8-6.92-29.11,3-18.65,18.86-32.48,37.71-32.89,2.36-.05,4.74.11,7.09.49,21.27,3.41,35.81,23.51,32.4,44.79-3,18.65-18.85,32.48-37.71,32.89ZM542.15,256.23c-12.71.28-23.41,9.61-25.43,22.19-1.12,6.96.54,13.94,4.67,19.65,4.13,5.71,10.24,9.47,17.19,10.59,1.59.25,3.2.37,4.8.33,12.72-.28,23.41-9.61,25.44-22.2,2.3-14.36-7.51-27.92-21.87-30.23-1.59-.26-3.21-.37-4.8-.33Z"/>
      <path class="cls-3" d="M387.57,138.77l-134.89-31.37-3.23-.74c-2.44-.57-4.96.35-6.49,2.34l-2.2,2.86-83.87,109.84c-1.7,2.25-1.73,5.33-.07,7.63,1.26,1.7,3.26,2.64,5.28,2.59.67-.02,1.36-.15,2-.37l103.84-37.32,11.97-4.32,108.38-38.95c2.67-.96,4.37-3.55,4.2-6.37-.15-2.81-2.15-5.18-4.91-5.83ZM180.09,212.3l70.49-92.31,113.12,26.29-183.62,66.03Z"/>
      <path class="cls-7" d="M341.21,322.58c.56-3.47,3.81-5.83,7.28-5.27l121.36,19.49c3.47.56,5.82,3.82,5.27,7.28-.49,3.08-3.12,5.28-6.13,5.35-.38,0-.76-.02-1.15-.08l-121.36-19.49c-3.46-.56-5.82-3.82-5.27-7.28ZM373.78,463.87c21.52,3.11,42.82,4.45,63.38,4,34.39-.75,66.73-6.43,94.67-16.86,47.48-17.73,76.79-47.14,82.52-82.81.07-.46.13-.91.19-1.37l.06-.5c.46-3.42-1.89-6.58-5.29-7.12l-78.35-12.59c-3.46-.56-6.73,1.8-7.28,5.27-.56,3.47,1.8,6.73,5.27,7.28l71.96,11.56c-14.49,62.5-116.56,98.1-231.4,79.65-114.84-18.44-200.63-84.2-194.82-148.11l113.27,18.19c3.47.56,6.73-1.8,7.28-5.27.56-3.47-1.8-6.73-5.27-7.28l-119.67-19.22c-3.42-.55-6.64,1.73-7.26,5.13l-.1.53c-.08.44-.17.88-.24,1.32-5.73,35.67,12.9,72.78,52.44,104.49,37.17,29.81,88.86,51.58,146.08,61.68"/>
      <path class="cls-7" d="M394.81,850.65l-87.11-78.39,10.06-55.12c.56-3.46-1.8-6.73-5.27-7.28-3.47-.56-6.73,1.8-7.28,5.27l-10.06,55.12-107.86,47.43c-2.58,1.13-4.11,3.83-3.75,6.63.36,2.8,2.51,5.02,5.3,5.47l201.19,32.31c.39.06.77.09,1.15.08h.08c3.5-.09,6.26-3,6.19-6.49-.05-2.07-1.07-3.88-2.62-5.01ZM212.12,820.63l87.54-38.5,71.08,63.97-158.63-25.47Z"/>
      <path class="cls-4" d="M349.53,727.07c-.8-.45-1.65-.69-2.55-.7v-.23c.81-.2,1.54-.53,2.17-.99.63-.46,1.12-1.04,1.48-1.74.35-.7.52-1.52.5-2.44-.03-1.18-.34-2.23-.95-3.13s-1.5-1.59-2.67-2.08c-1.17-.49-2.63-.71-4.37-.67l-9.46.21.54,23.64,10.1-.23c1.77-.04,3.25-.36,4.45-.95,1.19-.6,2.09-1.39,2.69-2.39.6-1,.88-2.12.85-3.37-.03-1.16-.29-2.16-.81-2.99-.51-.83-1.17-1.48-1.96-1.93ZM338.77,719.22l3.8-.09c1.11-.02,1.97.22,2.58.73.62.51.94,1.19.95,2.05.01.62-.13,1.16-.43,1.61s-.72.81-1.25,1.06c-.53.25-1.14.39-1.82.4l-3.7.08-.13-5.85ZM346.22,733.77c-.63.55-1.64.84-3.03.87l-4.08.09-.14-6.28,4.19-.1c.8-.02,1.49.11,2.08.38.59.27,1.05.65,1.37,1.15.33.49.5,1.07.51,1.72.02.89-.28,1.61-.91,2.16ZM375.98,714.33l-8.28,15.48.19,8.36-4.96.11-.19-8.36-8.97-15.09,5.6-.13,5.62,10.06h.23s5.16-10.31,5.16-10.31l5.6-.13ZM401.82,733.28l.09,4.12-15.13.34-.54-23.64,5-.11.44,19.52,10.13-.23ZM421.11,732.84l.09,4.12-15.98.36-.54-23.64,15.93-.36.09,4.12-10.93.25.13,5.63,10.11-.23.09,4.12-10.11.23.13,5.64,10.98-.25ZM447.99,724.84c-.8-.45-1.65-.69-2.55-.71v-.23c.81-.2,1.54-.54,2.17-.99.63-.46,1.12-1.04,1.48-1.74.35-.71.52-1.52.5-2.44-.03-1.19-.34-2.23-.95-3.13s-1.5-1.59-2.67-2.08c-1.17-.49-2.63-.71-4.37-.67l-9.46.21.54,23.64,10.1-.23c1.77-.04,3.25-.36,4.45-.96,1.19-.6,2.09-1.39,2.69-2.39.6-1,.88-2.12.85-3.37-.03-1.16-.29-2.16-.81-2.99-.51-.83-1.17-1.47-1.96-1.92ZM437.23,716.99l3.8-.08c1.1-.03,1.97.22,2.58.73.62.51.94,1.19.95,2.04.01.62-.13,1.16-.43,1.62s-.72.81-1.25,1.06c-.53.26-1.14.39-1.82.4l-3.7.08-.13-5.85ZM444.68,731.54c-.63.55-1.64.84-3.03.87l-4.07.09-.14-6.28,4.19-.09c.8-.02,1.49.11,2.08.38.59.27,1.05.65,1.37,1.14.33.49.5,1.07.52,1.72.02.89-.28,1.61-.91,2.16ZM458.62,712.47l.54,23.64-5,.11-.54-23.64,5-.11ZM480.46,726.25c.37.75.56,1.62.59,2.61.03,1.45-.31,2.71-1.01,3.78-.71,1.07-1.73,1.92-3.08,2.53-1.35.61-2.99.94-4.92.98-1.91.04-3.57-.21-5-.76-1.43-.55-2.55-1.4-3.36-2.53-.81-1.13-1.26-2.55-1.34-4.25l4.84-.11c.07.79.32,1.45.73,1.96.41.52.96.9,1.65,1.15.68.25,1.46.36,2.32.34.85-.02,1.58-.16,2.21-.42.62-.26,1.1-.61,1.44-1.06.34-.45.5-.95.48-1.52-.01-.53-.18-.97-.5-1.33-.32-.35-.78-.65-1.38-.89-.6-.24-1.34-.45-2.21-.64l-2.59-.59c-2-.44-3.59-1.16-4.77-2.17-1.18-1.01-1.78-2.38-1.82-4.13-.04-1.43.32-2.69,1.07-3.78s1.79-1.95,3.13-2.58c1.34-.63,2.87-.96,4.6-1.01,1.75-.04,3.3.23,4.62.8,1.33.57,2.37,1.38,3.12,2.44.75,1.05,1.16,2.28,1.21,3.69l-4.79.11c-.11-.93-.53-1.64-1.24-2.14s-1.67-.74-2.87-.71c-.82.02-1.5.15-2.06.39-.55.24-.98.56-1.26.97-.29.4-.42.86-.41,1.37,0,.42.09.79.29,1.1.2.31.48.58.83.8.35.22.75.4,1.21.56.46.16.95.29,1.47.39l2.14.46c1.04.21,1.99.49,2.86.86.87.36,1.63.82,2.27,1.37.64.55,1.15,1.2,1.52,1.95ZM502.63,715.59l-7.24.16.44,19.52-4.94.11-.44-19.52-7.24.16-.09-4.12,19.42-.44.09,4.12ZM519.92,725.45c1.27-.63,2.23-1.51,2.88-2.66.65-1.14.96-2.5.93-4.07-.03-1.56-.4-2.91-1.09-4.06-.69-1.14-1.68-2.02-2.96-2.62-1.28-.61-2.81-.89-4.6-.85l-9.33.21.54,23.64,5-.11-.19-8.38,3.65-.08,4.67,8.28,5.52-.13-5.24-9.09c.07-.03.16-.04.23-.08ZM510.84,715.37l3.37-.08c.96-.02,1.77.1,2.4.37.64.27,1.13.66,1.45,1.2.32.53.49,1.19.51,1.98.02.78-.12,1.43-.42,1.96-.3.53-.76.93-1.39,1.21-.62.27-1.41.42-2.37.45l-3.39.08-.16-7.16ZM547.46,715.7c-1.01-1.78-2.37-3.13-4.06-4.05-1.7-.91-3.59-1.35-5.67-1.3-2.1.05-3.97.56-5.62,1.55-1.65.99-2.94,2.4-3.87,4.23-.93,1.83-1.36,4.04-1.31,6.61.06,2.57.59,4.75,1.6,6.53,1.01,1.79,2.36,3.14,4.05,4.05,1.69.92,3.59,1.35,5.69,1.3,2.09-.05,3.95-.56,5.61-1.55,1.65-.99,2.94-2.4,3.88-4.23.93-1.83,1.37-4.04,1.31-6.61-.06-2.58-.6-4.76-1.61-6.55ZM543.35,726.6c-.47,1.16-1.15,2.05-2.04,2.66-.89.61-1.94.93-3.14.96-1.21.03-2.27-.25-3.18-.82-.91-.57-1.63-1.43-2.15-2.56-.52-1.14-.8-2.54-.84-4.21-.04-1.67.18-3.09.65-4.24.47-1.16,1.15-2.04,2.04-2.66.88-.61,1.93-.93,3.14-.96,1.21-.03,2.27.25,3.18.82.91.57,1.63,1.42,2.15,2.56.52,1.14.8,2.54.84,4.21.04,1.67-.18,3.08-.65,4.24Z"/>
    </g>
  </g>
</svg>