<?xml version="1.0" encoding="UTF-8"?>
<svg id="Layer_2" data-name="Layer 2" xmlns="http://www.w3.org/2000/svg" viewBox="0 0 564.92 150.11">
  <defs>
    <style>
      .cls-1 {
        fill: #000;
      }

      .cls-1, .cls-2, .cls-3 {
        stroke-width: 0px;
      }

      .cls-2 {
        fill: #7b1d0d;
      }

      .cls-3 {
        fill: #fff;
      }
    </style>
  </defs>
  <g id="Layer_9" data-name="Layer 9">
    <g>
      <rect class="cls-2" width="150.11" height="150.11"/>
      <path class="cls-3" d="M75,25.5c13.22,0,25.64,5.15,34.99,14.49,9.35,9.35,14.49,21.77,14.49,34.99s-5.15,25.64-14.49,34.99c-9.35,9.35-21.77,14.49-34.99,14.49s-25.64-5.15-34.99-14.49c-9.35-9.35-14.49-21.77-14.49-34.99s5.15-25.64,14.49-34.99c9.35-9.35,21.77-14.49,34.99-14.49M75,8.32C38.19,8.32,8.35,38.16,8.35,74.98s29.84,66.65,66.65,66.65,66.65-29.84,66.65-66.65S111.81,8.32,75,8.32h0Z"/>
      <polygon class="cls-3" points="99.94 36.75 32.95 70.37 32.95 79.7 99.94 113.33 99.94 93.06 62.86 75.04 99.94 57.02 99.94 36.75"/>
    </g>
  </g>
  <g id="Layer_8" data-name="Layer 8">
    <g>
      <path class="cls-1" d="M216.55,10.11c4.72,4.56,7.34,9.74,7.87,15.54h-9.03c-1.01-4.4-3.01-7.9-6.01-10.47-3-2.57-7.21-3.86-12.64-3.86-6.61,0-11.95,2.37-16.02,7.1-4.07,4.74-6.1,11.99-6.1,21.77,0,8.01,1.84,14.51,5.51,19.49,3.67,4.98,9.15,7.48,16.43,7.48,6.7,0,11.81-2.62,15.31-7.87,1.86-2.76,3.25-6.39,4.16-10.89h9.03c-.8,7.2-3.43,13.23-7.91,18.1-5.37,5.86-12.6,8.8-21.71,8.8-7.85,0-14.44-2.4-19.78-7.22-7.02-6.36-10.53-16.19-10.53-29.48,0-10.09,2.64-18.36,7.91-24.82,5.7-7.02,13.57-10.52,23.6-10.52,8.55,0,15.19,2.28,19.91,6.84Z"/>
      <path class="cls-1" d="M238.14,5.14h31.07c5.12,0,9.34.76,12.66,2.28,6.31,2.92,9.46,8.3,9.46,16.15,0,4.1-.85,7.45-2.54,10.05-1.69,2.61-4.06,4.7-7.1,6.28,2.67,1.09,4.68,2.51,6.03,4.28,1.35,1.77,2.1,4.64,2.26,8.61l.33,9.17c.09,2.61.31,4.55.65,5.82.56,2.17,1.55,3.57,2.98,4.19v1.54h-11.35c-.31-.59-.56-1.35-.74-2.28-.19-.93-.34-2.73-.47-5.4l-.56-11.4c-.21-4.47-1.82-7.46-4.84-8.98-1.72-.84-4.42-1.26-8.09-1.26h-20.48v29.32h-9.26V5.14ZM268.22,36.45c4.22,0,7.56-.87,10.02-2.61,2.46-1.74,3.69-4.87,3.69-9.4,0-4.87-1.72-8.19-5.16-9.96-1.84-.93-4.3-1.4-7.38-1.4h-21.99v23.36h20.82Z"/>
      <path class="cls-1" d="M306.74,5.14h49.61v8.38h-40.58v20.75h37.51v7.91h-37.51v23.17h41.28v8.14h-50.3V5.14Z"/>
      <path class="cls-1" d="M375.47,51.44c.21,3.88,1.09,7.03,2.64,9.45,2.96,4.53,8.17,6.79,15.64,6.79,3.35,0,6.4-.5,9.15-1.49,5.32-1.92,7.98-5.37,7.98-10.33,0-3.72-1.13-6.38-3.38-7.96-2.28-1.55-5.86-2.9-10.73-4.05l-8.97-2.09c-5.86-1.36-10.01-2.87-12.44-4.51-4.21-2.85-6.31-7.12-6.31-12.8,0-6.14,2.07-11.18,6.2-15.12,4.14-3.94,9.99-5.91,17.57-5.91,6.97,0,12.9,1.73,17.77,5.19,4.88,3.46,7.31,8.99,7.31,16.59h-8.7c-.45-3.66-1.4-6.47-2.86-8.42-2.71-3.57-7.3-5.35-13.79-5.35-5.23,0-9,1.15-11.29,3.44s-3.44,4.96-3.44,8c0,3.35,1.35,5.8,4.06,7.35,1.77.99,5.79,2.23,12.04,3.72l9.29,2.19c4.48,1.06,7.94,2.5,10.37,4.33,4.21,3.2,6.31,7.83,6.31,13.91,0,7.57-2.69,12.98-8.06,16.24-5.37,3.26-11.61,4.89-18.72,4.89-8.29,0-14.78-2.17-19.47-6.52-4.69-4.31-6.99-10.16-6.9-17.54h8.7Z"/>
      <path class="cls-1" d="M481.34,10.11c4.72,4.56,7.34,9.74,7.87,15.54h-9.03c-1.01-4.4-3.01-7.9-6.01-10.47-3-2.57-7.21-3.86-12.64-3.86-6.61,0-11.95,2.37-16.02,7.1-4.07,4.74-6.1,11.99-6.1,21.77,0,8.01,1.84,14.51,5.51,19.49,3.67,4.98,9.15,7.48,16.43,7.48,6.7,0,11.81-2.62,15.31-7.87,1.86-2.76,3.25-6.39,4.16-10.89h9.03c-.8,7.2-3.44,13.23-7.91,18.1-5.37,5.86-12.6,8.8-21.71,8.8-7.85,0-14.44-2.4-19.78-7.22-7.02-6.36-10.53-16.19-10.53-29.48,0-10.09,2.64-18.36,7.91-24.82,5.7-7.02,13.57-10.52,23.6-10.52,8.55,0,15.19,2.28,19.91,6.84Z"/>
      <path class="cls-1" d="M558.12,14.91c4.53,6.05,6.79,13.79,6.79,23.22,0,10.21-2.59,18.69-7.77,25.45-6.08,7.94-14.75,11.91-26.01,11.91-10.52,0-18.79-3.47-24.8-10.42-5.37-6.7-8.05-15.17-8.05-25.41,0-9.24,2.3-17.16,6.89-23.73,5.89-8.44,14.61-12.66,26.15-12.66s21,3.88,26.8,11.63ZM549.95,58.48c3.65-5.85,5.47-12.58,5.47-20.19,0-8.04-2.1-14.52-6.31-19.42-4.2-4.91-9.95-7.36-17.24-7.36s-12.84,2.43-17.31,7.29-6.7,12.02-6.7,21.49c0,7.58,1.91,13.97,5.75,19.17,3.83,5.2,10.04,7.8,18.64,7.8s14.06-2.93,17.71-8.78Z"/>
    </g>
  </g>
  <g id="Layer_7" data-name="Layer 7">
    <path class="cls-2" d="M168.52,81.42h6.38v52.04h-6.38v-52.04Z"/>
  </g>
  <g id="Layer_6" data-name="Layer 6">
    <path class="cls-2" d="M207.89,96.57c2.51,1.26,4.42,2.9,5.74,4.91,1.27,1.91,2.11,4.14,2.54,6.69.37,1.75.56,4.53.56,8.36h-27.59c.12,3.86,1.02,6.96,2.71,9.29s4.3,3.5,7.84,3.5c3.3,0,5.94-1.1,7.91-3.31,1.1-1.28,1.88-2.76,2.34-4.45h6.27c-.17,1.39-.71,2.95-1.65,4.66-.93,1.71-1.97,3.11-3.12,4.2-1.92,1.89-4.3,3.16-7.14,3.83-1.52.38-3.25.57-5.17.57-4.69,0-8.67-1.72-11.93-5.15-3.26-3.44-4.89-8.25-4.89-14.43s1.64-11.04,4.93-14.84c3.29-3.8,7.58-5.7,12.88-5.7,2.68,0,5.27.63,7.78,1.9ZM210.18,111.46c-.26-2.76-.86-4.97-1.79-6.62-1.73-3.07-4.62-4.6-8.68-4.6-2.9,0-5.34,1.06-7.31,3.17-1.97,2.11-3.01,4.8-3.13,8.06h20.9Z"/>
  </g>
  <g id="Layer_5" data-name="Layer 5">
    <path class="cls-2" d="M245.9,97.04c1.2.83,2.42,2.03,3.67,3.61v-4.78h5.88v34.5c0,4.82-.71,8.62-2.12,11.41-2.64,5.15-7.61,7.72-14.93,7.72-4.07,0-7.5-.92-10.27-2.75-2.78-1.83-4.33-4.69-4.66-8.59h6.48c.3,1.7.92,3.01,1.83,3.93,1.43,1.42,3.69,2.13,6.76,2.13,4.86,0,8.04-1.72,9.55-5.17.89-2.03,1.3-5.66,1.23-10.87-1.27,1.94-2.8,3.38-4.59,4.32-1.79.94-4.15,1.42-7.09,1.42-4.09,0-7.67-1.46-10.74-4.37-3.07-2.92-4.6-7.74-4.6-14.47,0-6.35,1.55-11.31,4.64-14.88s6.83-5.35,11.2-5.35c2.96,0,5.55.73,7.76,2.2ZM246.68,103.88c-1.93-2.27-4.38-3.4-7.37-3.4-4.46,0-7.52,2.1-9.16,6.31-.87,2.24-1.3,5.18-1.3,8.82,0,4.27.86,7.53,2.59,9.76,1.73,2.23,4.05,3.35,6.96,3.35,4.56,0,7.76-2.07,9.62-6.2,1.03-2.34,1.55-5.07,1.55-8.18,0-4.7-.96-8.18-2.89-10.45Z"/>
  </g>
  <g id="Layer_4" data-name="Layer 4">
    <path class="cls-2" d="M285.49,110.5c1.46-.19,2.44-.8,2.94-1.84.28-.57.42-1.39.42-2.45,0-2.18-.77-3.76-2.32-4.75-1.54-.98-3.75-1.48-6.63-1.48-3.32,0-5.68.9-7.07,2.71-.78,1-1.28,2.48-1.52,4.45h-5.95c.12-4.69,1.63-7.95,4.55-9.79,2.91-1.84,6.29-2.75,10.14-2.75,4.46,0,8.08.85,10.86,2.55,2.76,1.7,4.14,4.35,4.14,7.94v21.86c0,.66.14,1.19.41,1.59.27.4.84.6,1.72.6.28,0,.6-.02.96-.05.35-.04.73-.09,1.13-.16v4.71c-.99.28-1.75.46-2.27.53-.52.07-1.23.11-2.13.11-2.2,0-3.79-.78-4.78-2.34-.52-.83-.89-1.99-1.1-3.51-1.3,1.7-3.16,3.18-5.6,4.43-2.43,1.25-5.11,1.88-8.04,1.88-3.52,0-6.39-1.07-8.63-3.2-2.23-2.13-3.35-4.81-3.35-8.01,0-3.51,1.1-6.24,3.29-8.17,2.2-1.93,5.08-3.13,8.64-3.57l10.17-1.27ZM272.06,127.72c1.35,1.06,2.94,1.59,4.78,1.59,2.24,0,4.42-.52,6.52-1.56,3.54-1.72,5.31-4.54,5.31-8.45v-5.13c-.78.5-1.78.91-3,1.24-1.23.33-2.43.57-3.61.71l-3.85.5c-2.31.31-4.05.79-5.21,1.45-1.97,1.11-2.96,2.88-2.96,5.3,0,1.84.67,3.29,2.02,4.35Z"/>
  </g>
  <g id="Layer_3" data-name="Layer 3">
    <path class="cls-2" d="M305.68,81.42h6.38v52.04h-6.38v-52.04Z"/>
  </g>
  <g id="Layer_2-2" data-name="Layer 2">
    <path class="cls-2" d="M316.94,142.53v-3.58h40.35v3.58h-40.35Z"/>
  </g>
</svg>