<?xml version="1.0" encoding="UTF-8"?>
<svg id="Layer_2" data-name="Layer 2" xmlns="http://www.w3.org/2000/svg" viewBox="0 0 900.8 150.4">
  <defs>
    <style>
      .cls-1 {
        fill: #000;
      }

      .cls-1, .cls-2, .cls-3 {
        stroke-width: 0px;
      }

      .cls-2 {
        fill: #7b1d0d;
      }

      .cls-3 {
        fill: #fff;
      }
    </style>
  </defs>
  <g id="Layer_10" data-name="Layer 10">
    <rect class="cls-2" width="150.4" height="150.4"/>
  </g>
  <g id="Layer_9" data-name="Layer 9">
    <path class="cls-3" d="M75.14,25.62c13.24,0,25.69,5.16,35.06,14.52,9.36,9.36,14.52,21.81,14.52,35.06s-5.16,25.69-14.52,35.06c-9.36,9.36-21.81,14.52-35.06,14.52s-25.69-5.16-35.06-14.52c-9.36-9.36-14.52-21.81-14.52-35.06s5.16-25.69,14.52-35.06c9.36-9.36,21.81-14.52,35.06-14.52M75.14,8.42C38.26,8.42,8.36,38.32,8.36,75.2s29.9,66.78,66.78,66.78,66.78-29.9,66.78-66.78S112.03,8.42,75.14,8.42h0Z"/>
  </g>
  <g id="Layer_8" data-name="Layer 8">
    <polygon class="cls-3" points="100.14 36.84 33.01 70.52 33.01 79.87 100.14 113.56 100.14 93.26 62.98 75.19 100.14 57.14 100.14 36.84"/>
  </g>
  <g id="Layer_7" data-name="Layer 7">
    <path class="cls-1" d="M259.17,21.46c8.7,8.4,13.53,17.94,14.49,28.63h-16.63c-1.85-8.11-5.54-14.54-11.07-19.29-5.53-4.74-13.29-7.11-23.27-7.11-12.18,0-22.01,4.36-29.5,13.08-7.49,8.72-11.24,22.09-11.24,40.1,0,14.76,3.38,26.72,10.15,35.9,6.76,9.18,16.85,13.77,30.27,13.77,12.35,0,21.75-4.83,28.21-14.49,3.42-5.08,5.98-11.77,7.66-20.06h16.63c-1.47,13.26-6.33,24.37-14.57,33.34-9.88,10.8-23.22,16.2-39.99,16.2-14.46,0-26.6-4.43-36.43-13.29-12.93-11.72-19.4-29.82-19.4-54.29,0-18.58,4.86-33.82,14.57-45.71,10.5-12.92,24.99-19.38,43.46-19.38,15.76,0,27.98,4.2,36.68,12.6Z"/>
  </g>
  <g id="Layer_6" data-name="Layer 6">
    <path class="cls-1" d="M298.94,12.24h57.23c9.43,0,17.2,1.4,23.31,4.2,11.61,5.37,17.42,15.29,17.42,29.74,0,7.54-1.56,13.71-4.67,18.51s-7.47,8.66-13.07,11.57c4.91,2,8.61,4.63,11.1,7.89,2.49,3.26,3.87,8.54,4.16,15.86l.6,16.89c.17,4.8.57,8.37,1.2,10.71,1.03,4,2.86,6.57,5.48,7.71v2.83h-20.91c-.57-1.08-1.03-2.49-1.37-4.2s-.63-5.03-.86-9.94l-1.03-21c-.39-8.23-3.36-13.74-8.91-16.54-3.17-1.54-8.14-2.31-14.91-2.31h-37.72v54h-17.06V12.24ZM354.34,69.93c7.78,0,13.93-1.6,18.46-4.8,4.53-3.2,6.79-8.97,6.79-17.31,0-8.97-3.17-15.09-9.5-18.34-3.39-1.71-7.92-2.57-13.59-2.57h-40.51v43.03h38.34Z"/>
  </g>
  <g id="Layer_5" data-name="Layer 5">
    <path class="cls-1" d="M425.28,12.24h91.37v15.43h-74.74v38.23h69.08v14.57h-69.08v42.68h76.03v15h-92.65V12.24Z"/>
  </g>
  <g id="Layer_4" data-name="Layer 4">
    <path class="cls-1" d="M551.87,97.27c.39,7.14,2.01,12.94,4.87,17.4,5.45,8.34,15.05,12.51,28.81,12.51,6.17,0,11.78-.91,16.84-2.74,9.8-3.54,14.7-9.89,14.7-19.03,0-6.86-2.08-11.74-6.23-14.66-4.21-2.86-10.79-5.34-19.76-7.46l-16.52-3.86c-10.79-2.51-18.43-5.28-22.92-8.31-7.75-5.26-11.62-13.11-11.62-23.57,0-11.31,3.81-20.6,11.43-27.86,7.62-7.26,18.4-10.89,32.36-10.89,12.84,0,23.76,3.19,32.74,9.56,8.98,6.37,13.47,16.56,13.47,30.56h-16.03c-.82-6.74-2.58-11.91-5.26-15.51-4.99-6.57-13.45-9.86-25.39-9.86-9.64,0-16.57,2.11-20.79,6.34-4.22,4.23-6.33,9.14-6.33,14.74,0,6.17,2.49,10.69,7.47,13.54,3.27,1.83,10.66,4.11,22.17,6.86l17.11,4.03c8.25,1.94,14.62,4.6,19.1,7.97,7.75,5.89,11.63,14.43,11.63,25.63,0,13.94-4.95,23.91-14.84,29.91-9.89,6-21.38,9-34.48,9-15.27,0-27.22-4-35.86-12-8.64-7.94-12.88-18.71-12.71-32.31h16.03Z"/>
  </g>
  <g id="Layer_3" data-name="Layer 3">
    <path class="cls-1" d="M746.86,21.46c8.7,8.4,13.53,17.94,14.49,28.63h-16.63c-1.85-8.11-5.54-14.54-11.07-19.29-5.53-4.74-13.29-7.11-23.27-7.11-12.18,0-22.01,4.36-29.5,13.08-7.49,8.72-11.24,22.09-11.24,40.1,0,14.76,3.38,26.72,10.15,35.9,6.76,9.18,16.85,13.77,30.27,13.77,12.35,0,21.75-4.83,28.21-14.49,3.42-5.08,5.98-11.77,7.66-20.06h16.63c-1.47,13.26-6.33,24.37-14.57,33.34-9.89,10.8-23.22,16.2-39.99,16.2-14.46,0-26.6-4.43-36.43-13.29-12.93-11.72-19.4-29.82-19.4-54.29,0-18.58,4.86-33.82,14.57-45.71,10.5-12.92,24.99-19.38,43.46-19.38,15.76,0,27.98,4.2,36.68,12.6Z"/>
  </g>
  <g id="Layer_2-2" data-name="Layer 2">
    <path class="cls-1" d="M888.29,30.11c8.34,11.14,12.51,25.4,12.51,42.77,0,18.8-4.77,34.43-14.31,46.88-11.2,14.63-27.17,21.94-47.91,21.94-19.37,0-34.6-6.4-45.68-19.2-9.89-12.34-14.83-27.94-14.83-46.8,0-17.03,4.23-31.6,12.68-43.71,10.86-15.54,26.91-23.31,48.17-23.31s38.68,7.14,49.37,21.43ZM873.24,110.37c6.71-10.78,10.07-23.18,10.07-37.19,0-14.81-3.87-26.73-11.61-35.77-7.74-9.04-18.33-13.55-31.76-13.55s-23.66,4.48-31.88,13.43c-8.23,8.95-12.34,22.15-12.34,39.59,0,13.95,3.53,25.72,10.58,35.3,7.06,9.58,18.5,14.37,34.33,14.37s25.9-5.39,32.61-16.17Z"/>
  </g>
</svg>