<?xml version="1.0" encoding="UTF-8"?>
<svg id="Layer_2" data-name="Layer 2" xmlns="http://www.w3.org/2000/svg" viewBox="0 0 600.96 80.54">
  <defs>
    <style>
      .cls-1 {
        fill: #000;
      }

      .cls-1, .cls-2, .cls-3 {
        stroke-width: 0px;
      }

      .cls-2 {
        fill: #1f548e;
      }

      .cls-3 {
        fill: #fff;
      }
    </style>
  </defs>
  <g id="Layer_14" data-name="Layer 14">
    <rect class="cls-2" width="76.11" height="76.11"/>
  </g>
  <g id="Layer_13" data-name="Layer 13">
    <path class="cls-3" d="M38.03,12.93c6.7,0,13,2.61,17.74,7.35,4.74,4.74,7.35,11.04,7.35,17.74s-2.61,13-7.35,17.74c-4.74,4.74-11.04,7.35-17.74,7.35s-13-2.61-17.74-7.35c-4.74-4.74-7.35-11.04-7.35-17.74s2.61-13,7.35-17.74c4.74-4.74,11.04-7.35,17.74-7.35M38.03,4.22C19.36,4.22,4.23,19.35,4.23,38.02s15.13,33.8,33.8,33.8,33.8-15.13,33.8-33.8S56.7,4.22,38.03,4.22h0Z"/>
  </g>
  <g id="Layer_12" data-name="Layer 12">
    <polygon class="cls-3" points="50.68 18.64 16.71 35.68 16.71 40.42 50.68 57.47 50.68 47.19 31.87 38.05 50.68 28.91 50.68 18.64"/>
  </g>
  <g id="Layer_11" data-name="Layer 11">
    <path class="cls-1" d="M131.44,15.88c4.06,3.92,6.31,8.37,6.76,13.35h-7.75c-.86-3.78-2.58-6.78-5.16-8.99-2.58-2.21-6.2-3.32-10.85-3.32-5.68,0-10.27,2.03-13.76,6.1-3.49,4.07-5.24,10.3-5.24,18.7,0,6.88,1.58,12.46,4.73,16.74,3.15,4.28,7.86,6.42,14.12,6.42,5.76,0,10.14-2.25,13.15-6.76,1.6-2.37,2.79-5.49,3.57-9.35h7.75c-.69,6.18-2.95,11.37-6.8,15.55-4.61,5.04-10.83,7.56-18.65,7.56-6.74,0-12.41-2.07-16.99-6.2-6.03-5.47-9.05-13.91-9.05-25.32,0-8.67,2.26-15.77,6.8-21.32,4.9-6.03,11.65-9.04,20.27-9.04,7.35,0,13.05,1.96,17.11,5.88Z"/>
  </g>
  <g id="Layer_10" data-name="Layer 10">
    <path class="cls-1" d="M149.99,11.6h26.69c4.4,0,8.02.65,10.87,1.96,5.42,2.5,8.13,7.13,8.13,13.87,0,3.52-.73,6.4-2.18,8.63-1.45,2.24-3.48,4.04-6.1,5.4,2.29.93,4.02,2.16,5.18,3.68s1.8,3.98,1.94,7.39l.28,7.87c.08,2.24.27,3.9.56,5,.48,1.87,1.33,3.06,2.56,3.6v1.32h-9.75c-.27-.51-.48-1.16-.64-1.96s-.29-2.34-.4-4.64l-.48-9.79c-.18-3.84-1.57-6.41-4.16-7.72-1.48-.72-3.79-1.08-6.95-1.08h-17.59v25.18h-7.95V11.6ZM175.82,38.51c3.63,0,6.5-.75,8.61-2.24,2.11-1.49,3.17-4.18,3.17-8.07,0-4.18-1.48-7.03-4.43-8.55-1.58-.8-3.69-1.2-6.34-1.2h-18.89v20.07h17.88Z"/>
  </g>
  <g id="Layer_9" data-name="Layer 9">
    <path class="cls-1" d="M208.91,11.6h42.61v7.19h-34.86v17.83h32.22v6.79h-32.22v19.91h35.46v7h-43.21V11.6Z"/>
  </g>
  <g id="Layer_8" data-name="Layer 8">
    <path class="cls-1" d="M267.95,51.38c.18,3.33.94,6.04,2.27,8.11,2.54,3.89,7.02,5.84,13.44,5.84,2.87,0,5.49-.43,7.85-1.28,4.57-1.65,6.86-4.61,6.86-8.87,0-3.2-.97-5.48-2.9-6.84-1.96-1.33-5.03-2.49-9.22-3.48l-7.71-1.8c-5.03-1.17-8.6-2.47-10.69-3.88-3.61-2.45-5.42-6.12-5.42-10.99,0-5.28,1.78-9.61,5.33-12.99,3.55-3.38,8.58-5.08,15.09-5.08,5.99,0,11.08,1.49,15.27,4.46,4.19,2.97,6.28,7.72,6.28,14.25h-7.47c-.38-3.14-1.2-5.56-2.45-7.23-2.32-3.06-6.27-4.6-11.84-4.6-4.5,0-7.73.99-9.7,2.96-1.97,1.97-2.95,4.26-2.95,6.88,0,2.88,1.16,4.98,3.49,6.32,1.52.85,4.97,1.92,10.34,3.2l7.98,1.88c3.85.91,6.82,2.15,8.91,3.72,3.61,2.75,5.42,6.73,5.42,11.95,0,6.5-2.31,11.15-6.92,13.95-4.61,2.8-9.97,4.2-16.08,4.2-7.12,0-12.7-1.87-16.72-5.6-4.03-3.7-6.01-8.73-5.93-15.07h7.47Z"/>
  </g>
  <g id="Layer_7" data-name="Layer 7">
    <path class="cls-1" d="M358.88,15.88c4.06,3.92,6.31,8.37,6.76,13.35h-7.75c-.86-3.78-2.58-6.78-5.16-8.99-2.58-2.21-6.2-3.32-10.85-3.32-5.68,0-10.26,2.03-13.76,6.1-3.49,4.07-5.24,10.3-5.24,18.7,0,6.88,1.58,12.46,4.73,16.74,3.15,4.28,7.86,6.42,14.12,6.42,5.76,0,10.14-2.25,13.15-6.76,1.6-2.37,2.79-5.49,3.57-9.35h7.75c-.69,6.18-2.95,11.37-6.8,15.55-4.61,5.04-10.83,7.56-18.65,7.56-6.74,0-12.41-2.07-16.99-6.2-6.03-5.47-9.05-13.91-9.05-25.32,0-8.67,2.26-15.77,6.8-21.32,4.9-6.03,11.65-9.04,20.27-9.04,7.35,0,13.05,1.96,17.11,5.88Z"/>
  </g>
  <g id="Layer_6" data-name="Layer 6">
    <path class="cls-1" d="M424.84,20c3.89,5.2,5.84,11.85,5.84,19.95,0,8.77-2.23,16.06-6.68,21.87-5.22,6.82-12.67,10.23-22.34,10.23-9.03,0-16.14-2.98-21.3-8.95-4.61-5.76-6.92-13.03-6.92-21.83,0-7.94,1.97-14.74,5.92-20.39,5.06-7.25,12.55-10.87,22.46-10.87s18.04,3.33,23.02,9.99ZM417.82,57.43c3.13-5.03,4.7-10.81,4.7-17.34,0-6.91-1.81-12.47-5.42-16.68-3.61-4.21-8.55-6.32-14.81-6.32s-11.03,2.09-14.87,6.26c-3.84,4.17-5.76,10.33-5.76,18.46,0,6.51,1.65,12,4.94,16.46,3.29,4.47,8.63,6.7,16.01,6.7s12.08-2.51,15.21-7.54Z"/>
  </g>
  <g id="Layer_5" data-name="Layer 5">
    <path class="cls-2" d="M439,35.58v-8.05h6.03v-12.06h11.19v12.06h7.02v8.05h-7.02v22.85c0,1.77.22,2.88.67,3.31.45.44,1.83.65,4.13.65.34,0,.71,0,1.09-.02.38-.01.76-.03,1.13-.06v8.45l-5.36.2c-5.34.18-8.99-.74-10.95-2.78-1.27-1.3-1.9-3.29-1.9-5.99v-26.62h-6.03Z"/>
  </g>
  <g id="Layer_4" data-name="Layer 4">
    <path class="cls-2" d="M498.68,28.01c3.02,1.35,5.51,3.48,7.47,6.4,1.77,2.57,2.92,5.55,3.45,8.94.3,1.99.43,4.85.37,8.58h-31.5c.18,4.34,1.68,7.38,4.52,9.13,1.73,1.09,3.81,1.63,6.23,1.63,2.58,0,4.67-.66,6.28-1.98.88-.71,1.65-1.71,2.33-2.98h11.55c-.3,2.57-1.7,5.17-4.19,7.82-3.87,4.21-9.3,6.31-16.27,6.31-5.76,0-10.83-1.77-15.23-5.32-4.4-3.55-6.6-9.32-6.6-17.31,0-7.49,1.99-13.24,5.96-17.23,3.97-4,9.13-6,15.47-6,3.76,0,7.15.68,10.17,2.03ZM481.77,37.78c-1.6,1.65-2.6,3.88-3.01,6.69h19.48c-.21-3-1.21-5.28-3.01-6.83-1.8-1.55-4.04-2.33-6.71-2.33-2.9,0-5.15.82-6.75,2.47Z"/>
  </g>
  <g id="Layer_3" data-name="Layer 3">
    <path class="cls-2" d="M541.56,42.64c-.21-1.61-.76-3.07-1.63-4.36-1.27-1.75-3.25-2.62-5.93-2.62-3.82,0-6.43,1.89-7.84,5.67-.74,2.01-1.11,4.67-1.11,7.99s.37,5.71,1.11,7.64c1.35,3.6,3.9,5.4,7.64,5.4,2.65,0,4.53-.71,5.65-2.14,1.11-1.43,1.79-3.28,2.03-5.55h11.55c-.27,3.44-1.51,6.69-3.73,9.76-3.55,4.95-8.8,7.42-15.77,7.42s-12.09-2.06-15.37-6.19c-3.28-4.13-4.93-9.48-4.93-16.05,0-7.42,1.81-13.19,5.44-17.32s8.63-6.19,15.01-6.19c5.43,0,9.87,1.22,13.33,3.65,3.46,2.43,5.5,6.73,6.14,12.9h-11.59Z"/>
  </g>
  <g id="Layer_2-2" data-name="Layer 2">
    <path class="cls-2" d="M555.61,80.54v-4.01h45.35v4.01h-45.35Z"/>
  </g>
</svg>