<?xml version="1.0" encoding="UTF-8"?>
<svg id="Layer_2" data-name="Layer 2" xmlns="http://www.w3.org/2000/svg" viewBox="0 0 564.92 150.11">
  <defs>
    <style>
      .cls-1 {
        fill: #000;
      }

      .cls-1, .cls-2, .cls-3 {
        stroke-width: 0px;
      }

      .cls-2 {
        fill: #7b1d0d;
      }

      .cls-3 {
        fill: #fff;
      }
    </style>
  </defs>
  <g id="Layer_14" data-name="Layer 14">
    <g>
      <rect class="cls-2" width="150.11" height="150.11"/>
      <path class="cls-3" d="M75,25.5c13.22,0,25.64,5.15,34.99,14.49,9.35,9.35,14.49,21.77,14.49,34.99s-5.15,25.64-14.49,34.99c-9.35,9.35-21.77,14.49-34.99,14.49s-25.64-5.15-34.99-14.49c-9.35-9.35-14.49-21.77-14.49-34.99s5.15-25.64,14.49-34.99c9.35-9.35,21.77-14.49,34.99-14.49M75,8.32C38.19,8.32,8.35,38.16,8.35,74.98s29.84,66.65,66.65,66.65,66.65-29.84,66.65-66.65S111.81,8.32,75,8.32h0Z"/>
      <polygon class="cls-3" points="99.94 36.75 32.95 70.37 32.95 79.7 99.94 113.33 99.94 93.06 62.86 75.04 99.94 57.02 99.94 36.75"/>
    </g>
  </g>
  <g id="Layer_13" data-name="Layer 13">
    <g>
      <path class="cls-1" d="M216.55,10.11c4.72,4.56,7.34,9.74,7.87,15.54h-9.03c-1.01-4.4-3.01-7.9-6.01-10.47-3-2.57-7.21-3.86-12.64-3.86-6.61,0-11.95,2.37-16.02,7.1-4.07,4.73-6.1,11.99-6.1,21.77,0,8.01,1.84,14.51,5.51,19.49,3.67,4.98,9.15,7.47,16.43,7.47,6.7,0,11.81-2.62,15.31-7.86,1.86-2.76,3.25-6.39,4.16-10.89h9.03c-.8,7.2-3.43,13.23-7.91,18.1-5.37,5.86-12.6,8.8-21.71,8.8-7.85,0-14.44-2.41-19.78-7.22-7.02-6.36-10.53-16.19-10.53-29.48,0-10.09,2.64-18.36,7.91-24.82,5.7-7.01,13.57-10.52,23.6-10.52,8.55,0,15.19,2.28,19.91,6.84Z"/>
      <path class="cls-1" d="M238.14,5.13h31.07c5.12,0,9.34.76,12.66,2.28,6.31,2.92,9.46,8.3,9.46,16.15,0,4.1-.85,7.45-2.54,10.05-1.69,2.61-4.06,4.7-7.1,6.28,2.67,1.09,4.68,2.51,6.03,4.28,1.35,1.77,2.1,4.64,2.26,8.61l.33,9.17c.09,2.61.31,4.55.65,5.82.56,2.17,1.55,3.57,2.98,4.19v1.54h-11.35c-.31-.59-.56-1.35-.74-2.28-.19-.93-.34-2.73-.47-5.4l-.56-11.4c-.21-4.47-1.82-7.46-4.84-8.98-1.72-.84-4.42-1.26-8.09-1.26h-20.48v29.32h-9.26V5.13ZM268.22,36.45c4.22,0,7.56-.87,10.02-2.61,2.46-1.74,3.69-4.87,3.69-9.4,0-4.87-1.72-8.19-5.16-9.96-1.84-.93-4.3-1.4-7.38-1.4h-21.99v23.36h20.82Z"/>
      <path class="cls-1" d="M306.74,5.13h49.61v8.38h-40.58v20.75h37.51v7.91h-37.51v23.17h41.28v8.14h-50.3V5.13Z"/>
      <path class="cls-1" d="M375.47,51.44c.21,3.88,1.09,7.03,2.64,9.45,2.96,4.53,8.17,6.79,15.64,6.79,3.35,0,6.4-.5,9.15-1.49,5.32-1.92,7.98-5.37,7.98-10.33,0-3.72-1.13-6.38-3.38-7.96-2.28-1.55-5.86-2.9-10.73-4.05l-8.97-2.09c-5.86-1.36-10.01-2.87-12.44-4.51-4.21-2.85-6.31-7.12-6.31-12.8,0-6.14,2.07-11.18,6.2-15.12,4.14-3.94,9.99-5.91,17.57-5.91,6.97,0,12.9,1.73,17.77,5.19,4.88,3.46,7.31,8.99,7.31,16.59h-8.7c-.45-3.66-1.4-6.47-2.86-8.42-2.71-3.57-7.3-5.35-13.79-5.35-5.23,0-9,1.15-11.29,3.44-2.29,2.3-3.44,4.96-3.44,8,0,3.35,1.35,5.8,4.06,7.35,1.77.99,5.79,2.23,12.04,3.72l9.29,2.19c4.48,1.06,7.94,2.5,10.37,4.33,4.21,3.2,6.31,7.83,6.31,13.91,0,7.57-2.69,12.98-8.06,16.24-5.37,3.26-11.61,4.89-18.72,4.89-8.29,0-14.78-2.17-19.47-6.51-4.69-4.31-6.99-10.16-6.9-17.54h8.7Z"/>
      <path class="cls-1" d="M481.34,10.11c4.72,4.56,7.34,9.74,7.87,15.54h-9.03c-1.01-4.4-3.01-7.9-6.01-10.47-3-2.57-7.21-3.86-12.64-3.86-6.61,0-11.95,2.37-16.02,7.1-4.07,4.73-6.1,11.99-6.1,21.77,0,8.01,1.84,14.51,5.51,19.49,3.67,4.98,9.15,7.47,16.43,7.47,6.7,0,11.81-2.62,15.31-7.86,1.86-2.76,3.25-6.39,4.16-10.89h9.03c-.8,7.2-3.44,13.23-7.91,18.1-5.37,5.86-12.6,8.8-21.71,8.8-7.85,0-14.44-2.41-19.78-7.22-7.02-6.36-10.53-16.19-10.53-29.48,0-10.09,2.64-18.36,7.91-24.82,5.7-7.01,13.57-10.52,23.6-10.52,8.55,0,15.19,2.28,19.91,6.84Z"/>
      <path class="cls-1" d="M558.12,14.91c4.53,6.05,6.79,13.79,6.79,23.22,0,10.21-2.59,18.69-7.77,25.46-6.08,7.94-14.75,11.91-26.01,11.91-10.52,0-18.79-3.47-24.8-10.42-5.37-6.7-8.05-15.17-8.05-25.41,0-9.24,2.3-17.16,6.89-23.73,5.89-8.44,14.61-12.66,26.15-12.66s21,3.88,26.8,11.63ZM549.95,58.48c3.65-5.85,5.47-12.58,5.47-20.19,0-8.04-2.1-14.52-6.31-19.42-4.2-4.91-9.95-7.36-17.24-7.36s-12.84,2.43-17.31,7.29-6.7,12.02-6.7,21.49c0,7.58,1.91,13.96,5.75,19.17,3.83,5.2,10.04,7.8,18.64,7.8s14.06-2.93,17.71-8.78Z"/>
    </g>
  </g>
  <g id="Layer_12" data-name="Layer 12">
    <path class="cls-2" d="M188.67,110.5c1.46-.19,2.44-.8,2.94-1.84.28-.57.42-1.39.42-2.45,0-2.18-.77-3.76-2.32-4.75-1.54-.98-3.75-1.48-6.63-1.48-3.32,0-5.68.9-7.07,2.71-.78,1-1.28,2.48-1.52,4.45h-5.95c.12-4.69,1.63-7.95,4.55-9.79,2.91-1.84,6.29-2.75,10.14-2.75,4.46,0,8.08.85,10.86,2.55,2.76,1.7,4.14,4.35,4.14,7.94v21.86c0,.66.14,1.19.41,1.59.27.4.84.6,1.72.6.28,0,.6-.02.96-.05.35-.04.73-.09,1.13-.16v4.71c-.99.28-1.75.46-2.27.53-.52.07-1.23.11-2.13.11-2.2,0-3.79-.78-4.78-2.34-.52-.83-.89-2-1.1-3.51-1.3,1.7-3.16,3.18-5.6,4.43-2.43,1.25-5.11,1.88-8.04,1.88-3.52,0-6.39-1.07-8.63-3.2s-3.35-4.81-3.35-8.01c0-3.51,1.1-6.24,3.29-8.17,2.2-1.93,5.08-3.13,8.64-3.57l10.17-1.27ZM175.24,127.72c1.35,1.06,2.94,1.59,4.78,1.59,2.24,0,4.42-.52,6.52-1.56,3.54-1.72,5.31-4.54,5.31-8.45v-5.13c-.78.5-1.78.91-3,1.24-1.23.33-2.43.57-3.61.71l-3.85.5c-2.31.31-4.05.79-5.21,1.45-1.97,1.11-2.96,2.87-2.96,5.3,0,1.84.67,3.29,2.02,4.35Z"/>
  </g>
  <g id="Layer_11" data-name="Layer 11">
    <path class="cls-2" d="M233.74,97.54c2.68,2.08,4.29,5.66,4.84,10.73h-6.2c-.38-2.34-1.24-4.28-2.59-5.83s-3.51-2.32-6.48-2.32c-4.06,0-6.97,1.98-8.71,5.94-1.13,2.57-1.7,5.74-1.7,9.52s.8,6.99,2.41,9.59,4.13,3.89,7.58,3.89c2.64,0,4.74-.8,6.29-2.42,1.55-1.61,2.61-3.82,3.21-6.62h6.2c-.71,5.03-2.48,8.71-5.31,11.03-2.83,2.33-6.46,3.49-10.87,3.49-4.96,0-8.92-1.81-11.87-5.44-2.95-3.62-4.43-8.15-4.43-13.58,0-6.66,1.62-11.84,4.85-15.55,3.24-3.71,7.36-5.56,12.36-5.56,4.27,0,7.75,1.04,10.43,3.12Z"/>
  </g>
  <g id="Layer_10" data-name="Layer 10">
    <path class="cls-2" d="M270.02,97.54c2.68,2.08,4.29,5.66,4.84,10.73h-6.2c-.38-2.34-1.24-4.28-2.59-5.83s-3.51-2.32-6.48-2.32c-4.06,0-6.97,1.98-8.71,5.94-1.13,2.57-1.7,5.74-1.7,9.52s.8,6.99,2.41,9.59,4.13,3.89,7.58,3.89c2.64,0,4.74-.8,6.29-2.42,1.55-1.61,2.61-3.82,3.21-6.62h6.2c-.71,5.03-2.48,8.71-5.31,11.03-2.83,2.33-6.46,3.49-10.87,3.49-4.96,0-8.92-1.81-11.87-5.44-2.95-3.62-4.43-8.15-4.43-13.58,0-6.66,1.62-11.84,4.85-15.55,3.24-3.71,7.36-5.56,12.36-5.56,4.27,0,7.75,1.04,10.43,3.12Z"/>
  </g>
  <g id="Layer_9" data-name="Layer 9">
    <path class="cls-2" d="M308.72,99.31c3.35,3.26,5.03,8.05,5.03,14.37s-1.48,11.16-4.43,15.15c-2.95,3.99-7.54,5.98-13.75,5.98-5.18,0-9.3-1.76-12.35-5.29-3.05-3.53-4.57-8.26-4.57-14.21,0-6.37,1.61-11.44,4.82-15.22,3.21-3.77,7.53-5.66,12.94-5.66,4.85,0,8.96,1.63,12.31,4.88ZM304.76,124.52c1.55-3.2,2.33-6.75,2.33-10.67,0-3.54-.56-6.42-1.68-8.63-1.77-3.49-4.83-5.24-9.18-5.24-3.85,0-6.66,1.49-8.41,4.46s-2.63,6.56-2.63,10.76.88,7.39,2.63,10.08c1.75,2.69,4.53,4.03,8.34,4.03,4.18,0,7.05-1.6,8.6-4.79Z"/>
  </g>
  <g id="Layer_8" data-name="Layer 8">
    <path class="cls-2" d="M327.95,95.52v25.19c0,1.94.3,3.52.9,4.75,1.1,2.27,3.16,3.4,6.18,3.4,4.32,0,7.27-1.98,8.83-5.95.85-2.13,1.28-5.04,1.28-8.75v-18.63h6.38v37.94h-6.02l.07-5.6c-.81,1.44-1.82,2.66-3.03,3.65-2.39,1.98-5.28,2.98-8.69,2.98-5.31,0-8.92-1.81-10.84-5.42-1.04-1.94-1.56-4.52-1.56-7.76v-25.79h6.52Z"/>
  </g>
  <g id="Layer_7" data-name="Layer 7">
    <path class="cls-2" d="M361.92,95.52h6.06v5.38c1.79-2.22,3.7-3.81,5.7-4.78,2.01-.97,4.24-1.45,6.7-1.45,5.38,0,9.02,1.88,10.91,5.63,1.04,2.05,1.56,4.99,1.56,8.82v24.34h-6.48v-23.91c0-2.31-.34-4.18-1.03-5.6-1.13-2.36-3.19-3.54-6.16-3.54-1.51,0-2.75.15-3.72.46-1.75.52-3.28,1.56-4.6,3.12-1.06,1.25-1.75,2.54-2.07,3.88-.32,1.33-.48,3.24-.48,5.72v19.87h-6.38v-37.94Z"/>
  </g>
  <g id="Layer_6" data-name="Layer 6">
    <path class="cls-2" d="M403.54,84.93h6.45v10.59h6.06v5.21h-6.06v24.76c0,1.32.45,2.21,1.35,2.66.5.26,1.32.39,2.48.39.31,0,.64,0,.99-.02.35-.02.77-.06,1.24-.12v5.07c-.73.21-1.49.37-2.28.46-.79.09-1.65.14-2.57.14-2.98,0-4.99-.76-6.06-2.29-1.06-1.52-1.59-3.5-1.59-5.93v-25.11h-5.14v-5.21h5.14v-10.59Z"/>
  </g>
  <g id="Layer_5" data-name="Layer 5">
    <path class="cls-2" d="M422.42,81.42h6.48v7.23h-6.48v-7.23ZM422.42,95.7h6.48v37.76h-6.48v-37.76Z"/>
  </g>
  <g id="Layer_4" data-name="Layer 4">
    <path class="cls-2" d="M438.54,95.52h6.06v5.38c1.79-2.22,3.7-3.81,5.7-4.78,2.01-.97,4.24-1.45,6.7-1.45,5.38,0,9.02,1.88,10.91,5.63,1.04,2.05,1.56,4.99,1.56,8.82v24.34h-6.48v-23.91c0-2.31-.34-4.18-1.03-5.6-1.13-2.36-3.19-3.54-6.16-3.54-1.51,0-2.75.15-3.72.46-1.75.52-3.28,1.56-4.6,3.12-1.06,1.25-1.75,2.54-2.07,3.88-.32,1.33-.48,3.24-.48,5.72v19.87h-6.38v-37.94Z"/>
  </g>
  <g id="Layer_3" data-name="Layer 3">
    <path class="cls-2" d="M499.98,97.04c1.2.83,2.42,2.03,3.67,3.61v-4.78h5.88v34.5c0,4.82-.71,8.62-2.12,11.41-2.64,5.15-7.61,7.72-14.93,7.72-4.07,0-7.5-.92-10.27-2.75-2.78-1.83-4.33-4.69-4.66-8.59h6.48c.3,1.7.92,3.01,1.83,3.93,1.43,1.42,3.69,2.13,6.76,2.13,4.86,0,8.04-1.72,9.55-5.17.89-2.03,1.3-5.66,1.23-10.87-1.27,1.94-2.8,3.38-4.59,4.32-1.79.94-4.15,1.42-7.09,1.42-4.09,0-7.67-1.46-10.74-4.37s-4.6-7.74-4.6-14.47c0-6.35,1.55-11.31,4.64-14.88,3.09-3.57,6.83-5.35,11.2-5.35,2.96,0,5.55.73,7.76,2.2ZM500.76,103.88c-1.93-2.27-4.38-3.4-7.37-3.4-4.46,0-7.52,2.1-9.16,6.31-.87,2.24-1.3,5.18-1.3,8.82,0,4.27.86,7.53,2.59,9.76,1.73,2.23,4.05,3.35,6.96,3.35,4.56,0,7.76-2.07,9.62-6.2,1.03-2.34,1.55-5.07,1.55-8.18,0-4.7-.96-8.18-2.89-10.45Z"/>
  </g>
  <g id="Layer_2-2" data-name="Layer 2">
    <path class="cls-2" d="M514.56,142.53v-3.58h40.35v3.58h-40.35Z"/>
  </g>
</svg>