<?xml version="1.0" encoding="UTF-8"?>
<svg id="Layer_2" data-name="Layer 2" xmlns="http://www.w3.org/2000/svg" xmlns:xlink="http://www.w3.org/1999/xlink" viewBox="0 0 1426.09 137.39">
  <defs>
    <style>
      .cls-1 {
        fill: url(#linear-gradient);
      }

      .cls-1, .cls-2, .cls-3 {
        stroke-width: 0px;
      }

      .cls-2 {
        fill: #000;
      }

      .cls-3 {
        fill: url(#linear-gradient-2);
      }
    </style>
    <linearGradient id="linear-gradient" x1="924.1" y1="112" x2="965.87" y2="62.73" gradientUnits="userSpaceOnUse">
      <stop offset=".7" stop-color="#39b54a"/>
      <stop offset=".76" stop-color="#33ad48"/>
      <stop offset=".85" stop-color="#239742"/>
      <stop offset=".96" stop-color="#09743a"/>
      <stop offset="1" stop-color="#006837"/>
    </linearGradient>
    <linearGradient id="linear-gradient-2" x1="995.96" y1="19.71" x2="965.21" y2="38.6" gradientUnits="userSpaceOnUse">
      <stop offset=".17" stop-color="#39b54a"/>
      <stop offset=".31" stop-color="#35b048"/>
      <stop offset=".46" stop-color="#2ca345"/>
      <stop offset=".62" stop-color="#1c8e40"/>
      <stop offset=".78" stop-color="#056f38"/>
      <stop offset=".82" stop-color="#006837"/>
    </linearGradient>
  </defs>
  <g id="Layer_12" data-name="Layer 12">
    <g>
      <path class="cls-2" d="M982.67,68.7c0,7.69-1.25,15.18-3.73,22.34l-8.42-4.28-9.41-4.78-7.33-3.73c.74-3.07,1.13-6.27,1.13-9.56s-.4-6.49-1.13-9.56c-2.34-9.81-8.23-18.24-16.22-23.89-6.67-4.73-14.81-7.5-23.59-7.5-22.57,0-40.95,18.38-40.95,40.95s18.38,40.95,40.95,40.95c8.78,0,16.91-2.78,23.59-7.5l7.91,4.01,9.91,5.03,8.74,4.45c-.51.55-1.04,1.11-1.58,1.63-6.3,6.3-13.65,11.27-21.84,14.72-8.46,3.59-17.47,5.41-26.73,5.41s-18.27-1.82-26.75-5.41c-8.17-3.45-15.52-8.41-21.82-14.72-6.3-6.3-11.27-13.65-14.73-21.82-3.58-8.48-5.4-17.48-5.4-26.75s1.82-18.27,5.4-26.73c3.46-8.19,8.42-15.53,14.73-21.84,6.3-6.3,13.65-11.25,21.82-14.72,8.48-3.59,17.48-5.41,26.75-5.41s18.27,1.82,26.73,5.41c8.19,3.46,15.53,8.41,21.84,14.72.54.54,1.07,1.08,1.58,1.63,5.55,5.94,9.98,12.72,13.14,20.2.62,1.45,1.18,2.91,1.68,4.4,2.47,7.16,3.73,14.66,3.73,22.34Z"/>
      <path class="cls-1" d="M991.18,97.25v32.13l-27.05-13.74-8.74-4.45-9.91-5.03-7.91-4.01-53.06-26.96v-12.98l53.06-26.96c7.99,5.65,13.87,14.08,16.22,23.89l-18.81,9.56,18.81,9.56,7.33,3.73,9.41,4.78,8.42,4.28,12.23,6.21Z"/>
      <path class="cls-3" d="M991.17,8.02v32.13l-12.22,6.21c-.51-1.48-1.07-2.95-1.69-4.4-3.16-7.48-7.58-14.27-13.13-20.2l27.04-13.74Z"/>
    </g>
  </g>
  <g id="Layer_11" data-name="Layer 11">
    <path class="cls-2" d="M92.06,13.88c8.45,8.16,13.15,17.44,14.08,27.83h-16.16c-1.8-7.89-5.39-14.14-10.76-18.75-5.37-4.61-12.91-6.91-22.62-6.91-11.84,0-21.4,4.24-28.68,12.71-7.28,8.48-10.92,21.47-10.92,38.98,0,14.34,3.29,25.97,9.86,34.9,6.57,8.92,16.38,13.38,29.42,13.38,12,0,21.14-4.69,27.42-14.08,3.33-4.94,5.81-11.44,7.45-19.5h16.16c-1.43,12.89-6.15,23.69-14.16,32.41-9.61,10.5-22.57,15.75-38.87,15.75-14.06,0-25.86-4.31-35.41-12.92C6.29,106.29,0,88.7,0,64.91c0-18.06,4.72-32.87,14.16-44.43C24.37,7.92,38.45,1.64,56.41,1.64c15.31,0,27.2,4.08,35.65,12.25Z"/>
  </g>
  <g id="Layer_10" data-name="Layer 10">
    <path class="cls-2" d="M130.72,5.77h55.63c9.16,0,16.72,1.36,22.66,4.08,11.29,5.22,16.94,14.86,16.94,28.91,0,7.33-1.51,13.33-4.54,17.99-3.03,4.67-7.26,8.41-12.71,11.25,4.78,1.95,8.37,4.5,10.79,7.67,2.42,3.17,3.76,8.3,4.04,15.41l.58,16.41c.17,4.66.56,8.14,1.17,10.41,1,3.89,2.78,6.39,5.33,7.5v2.75h-20.33c-.56-1.05-1-2.42-1.33-4.08-.33-1.67-.61-4.89-.83-9.66l-1-20.41c-.38-8-3.26-13.36-8.66-16.08-3.08-1.5-7.91-2.25-14.49-2.25h-36.67v52.49h-16.58V5.77ZM184.57,61.84c7.56,0,13.54-1.55,17.94-4.66,4.4-3.11,6.6-8.72,6.6-16.83,0-8.72-3.08-14.66-9.24-17.83-3.3-1.67-7.7-2.5-13.21-2.5h-39.38v41.82h37.27Z"/>
  </g>
  <g id="Layer_9" data-name="Layer 9">
    <path class="cls-2" d="M253.52,5.77h88.81v15h-72.65v37.16h67.15v14.16h-67.15v41.49h73.9v14.58h-90.06V5.77Z"/>
  </g>
  <g id="Layer_8" data-name="Layer 8">
    <path class="cls-2" d="M376.57,88.67c.38,6.94,1.95,12.58,4.73,16.91,5.3,8.11,14.63,12.16,28.01,12.16,5.99,0,11.45-.89,16.37-2.67,9.52-3.44,14.29-9.61,14.29-18.5,0-6.67-2.02-11.41-6.05-14.25-4.09-2.78-10.49-5.19-19.21-7.25l-16.06-3.75c-10.49-2.44-17.92-5.14-22.28-8.08-7.53-5.11-11.3-12.75-11.3-22.91,0-11,3.7-20.02,11.11-27.08,7.4-7.05,17.89-10.58,31.46-10.58,12.48,0,23.09,3.1,31.82,9.29,8.73,6.19,13.09,16.09,13.09,29.7h-15.58c-.8-6.55-2.5-11.58-5.11-15.08-4.85-6.39-13.07-9.58-24.68-9.58-9.37,0-16.11,2.06-20.21,6.16-4.1,4.11-6.15,8.89-6.15,14.33,0,6,2.42,10.39,7.26,13.16,3.18,1.78,10.36,4,21.55,6.67l16.63,3.92c8.02,1.89,14.21,4.47,18.57,7.75,7.53,5.72,11.3,14.02,11.3,24.91,0,13.55-4.81,23.24-14.42,29.08-9.61,5.83-20.79,8.75-33.52,8.75-14.84,0-26.46-3.89-34.86-11.66-8.4-7.72-12.52-18.19-12.35-31.41h15.58Z"/>
  </g>
  <g id="Layer_7" data-name="Layer 7">
    <path class="cls-2" d="M566.11,14.69c8.45,8.16,13.15,17.44,14.08,27.83h-16.16c-1.8-7.89-5.39-14.14-10.76-18.75-5.37-4.61-12.91-6.91-22.62-6.91-11.84,0-21.4,4.24-28.68,12.71-7.28,8.48-10.92,21.47-10.92,38.98,0,14.34,3.29,25.97,9.86,34.9,6.57,8.92,16.38,13.38,29.42,13.38,12,0,21.14-4.69,27.42-14.08,3.33-4.94,5.81-11.44,7.45-19.5h16.16c-1.43,12.89-6.15,23.69-14.16,32.41-9.61,10.5-22.57,15.75-38.87,15.75-14.06,0-25.86-4.31-35.41-12.92-12.57-11.39-18.86-28.98-18.86-52.77,0-18.06,4.72-32.87,14.16-44.43,10.21-12.56,24.29-18.84,42.24-18.84,15.31,0,27.2,4.08,35.65,12.25Z"/>
  </g>
  <g id="Layer_6" data-name="Layer 6">
    <path class="cls-2" d="M703.58,23.27c8.11,10.83,12.16,24.69,12.16,41.57,0,18.27-4.64,33.46-13.91,45.57-10.89,14.22-26.41,21.33-46.57,21.33-18.83,0-33.63-6.22-44.41-18.66-9.61-12-14.41-27.16-14.41-45.49,0-16.55,4.11-30.71,12.33-42.49,10.55-15.11,26.16-22.66,46.82-22.66s37.6,6.94,47.99,20.83ZM688.96,101.28c6.53-10.48,9.79-22.53,9.79-36.15,0-14.4-3.76-25.99-11.29-34.77-7.53-8.78-17.82-13.17-30.87-13.17s-22.99,4.35-30.99,13.05c-8,8.7-12,21.53-12,38.48,0,13.57,3.43,25,10.29,34.31,6.86,9.31,17.98,13.97,33.37,13.97s25.17-5.24,31.7-15.72Z"/>
  </g>
  <g id="Layer_5" data-name="Layer 5">
    <path class="cls-2" d="M733.07,8.72h51.19c7.51,0,14.33.94,20.47,2.81,6.14,1.88,11.37,4.61,15.7,8.19,4.32,3.58,7.65,7.99,9.98,13.22,2.33,5.23,3.5,11.15,3.5,17.74v.34c0,7.05-1.28,13.25-3.84,18.6-2.56,5.35-6.12,9.84-10.66,13.48-4.55,3.64-9.98,6.37-16.29,8.19-6.31,1.82-13.17,2.73-20.56,2.73h-16.38v34.12h-33.1V8.72ZM781.87,68.1c5.91,0,10.55-1.4,13.91-4.2,3.35-2.8,5.03-6.6,5.03-11.41v-.35c0-5.14-1.68-9.06-5.03-11.75-3.36-2.69-8.05-4.03-14.08-4.03h-15.53v31.74h15.7Z"/>
  </g>
  <g id="Layer_4" data-name="Layer 4">
    <path class="cls-2" d="M998.49,8.72h34.98l20.82,69.1,23.03-69.44h28.49l23.03,69.44,20.82-69.1h34.3l-39.93,120.29h-28.84l-24.06-68.76-23.89,68.76h-28.84l-39.93-120.29Z"/>
  </g>
  <g id="Layer_3" data-name="Layer 3">
    <path class="cls-2" d="M1200,8.72h95.89v28.15h-63.3v18.09h57.33v26.1h-57.33v18.94h64.16v28.15h-96.74V8.72Z"/>
  </g>
  <g id="Layer_2-2" data-name="Layer 2">
    <path class="cls-2" d="M1316.2,8.72h56.48c9.21,0,17,1.14,23.38,3.41,6.37,2.28,11.54,5.46,15.53,9.55,7.05,6.83,10.58,16.1,10.58,27.81v.34c0,9.21-2.22,16.84-6.65,22.86-4.44,6.03-10.41,10.64-17.92,13.82l28.49,41.63h-38.22l-24.06-36.17h-14.5v36.17h-33.1V8.72ZM1370.79,66.05c5.69,0,10.07-1.28,13.14-3.84,3.07-2.56,4.61-6,4.61-10.32v-.34c0-4.78-1.59-8.33-4.78-10.66-3.19-2.33-7.57-3.5-13.14-3.5h-21.67v28.67h21.84Z"/>
  </g>
</svg>