<?xml version="1.0" encoding="UTF-8"?>
<svg id="Layer_2" data-name="Layer 2" xmlns="http://www.w3.org/2000/svg" viewBox="0 0 1876.22 257.18">
  <defs>
    <style>
      .cls-1 {
        fill: #000;
        stroke-width: 0px;
      }
    </style>
  </defs>
  <g id="Layer_1-2" data-name="Layer 1">
    <g>
      <path class="cls-1" d="M44.25,205.84H0V5.49h43.78v76.63h81.02V5.53h43.97v200.19h-43.68v-85.4H44.25c0,28.44,0,56.63,0,85.52Z"/>
      <path class="cls-1" d="M1193.06,206.16c-16.68,0-31.77.1-46.86-.14-1.68-.03-3.69-1.63-4.93-3.05-4.5-5.15-8.73-10.54-13.36-16.2-3.26,2.64-6.19,5.2-9.3,7.5-23.9,17.71-50.2,20.42-77.28,9.89-37.3-14.5-47.3-63.4-19.01-91.77,8.09-8.12,18.23-14.2,27.63-21.36-2.65-3.8-6.06-8.45-9.21-13.25-20.48-31.14-3.65-69.28,37.85-73.68,12.56-1.33,24.9.51,36.34,6.32,25.51,12.95,33.43,47.56,15.2,69.77-6.98,8.5-16.28,15.1-24.87,22.88,7.43,9.11,15.54,19.07,24.86,30.5,2.21-7.13,4.64-12.96,5.7-19.03.76-4.37,2.48-5.39,6.48-5.29,9.51.22,19.04.07,29.15.07-1.46,16.74-6.42,31.5-15.67,44.59-2.92,4.13-2.43,6.34.73,9.9,12.01,13.49,23.64,27.32,36.55,42.35ZM1106.51,159.72c-8.45-10.32-16.59-20.23-24.69-30.17-10.45-12.82-13.3-13.03-25.82-1.63-1.83,1.67-3.58,3.48-5.1,5.43-12.68,16.33-5.11,37.98,15.06,42.83,16.99,4.1,29.02-4.5,40.55-16.46ZM1083.06,78.31c10.95-7.3,20.59-13.53,21.53-26.67.58-8.17-2.51-14.7-9.53-18.95-6.54-3.96-13.22-3.3-19.28,1.1-6.64,4.81-9.21,12.01-6.31,19.28,3.45,8.65,8.81,16.56,13.59,25.24Z"/>
      <path class="cls-1" d="M1379.23,72.49h-42.63c-4.88-18.76-16.79-30.31-35.72-33.79-24.71-4.54-45.81,6.69-55.39,29.96-9.8,23.81-10.16,48.26-.86,72.3,9.85,25.45,34.17,37.7,60.6,31.03,19.16-4.84,27.47-19.35,31.68-37.15.43-1.8.72-3.64,1.13-5.76h42.98c-.98,5.52-1.65,10.94-2.92,16.22-9.39,39.24-40.66,63.77-81.01,64.56-31.16.61-58.27-8.15-78.97-32.33-16.8-19.63-23.6-43.16-24.18-68.52-.57-25.04,4.78-48.7,19.35-69.61,16.93-24.31,40.78-36.69,69.87-38.99,25.04-1.98,48.44,3.1,68.34,19.46,16.36,13.43,25.06,31.08,27.73,52.62Z"/>
      <path class="cls-1" d="M1868.24,60.26c-17.26,18.36-34.27,36.44-51.96,55.25,19.16,28.95,39.15,59.17,59.94,90.58h-20.53c-7.69,0-15.39-.21-23.07.09-3.84.15-5.92-1.23-7.88-4.47-12.02-19.89-24.26-39.64-36.95-60.27-5.04,4.93-9.9,9.35-14.29,14.21-1.13,1.26-1.02,3.88-1.03,5.87-.08,14.54-.04,29.07-.04,44.09h-39.54V5.52h39.32v106.78c2.4-2.22,3.76-3.35,4.98-4.62,13.98-14.53,27.83-29.18,42.01-43.51,2.04-2.06,5.55-3.64,8.44-3.72,13.49-.41,27-.19,40.6-.19Z"/>
      <path class="cls-1" d="M859.09,142.51h-104.53c-2.69,23.42,15.18,40.23,38.75,37.05,11.02-1.49,20.17-6.05,26.16-15.92.7-1.15,2.44-2.35,3.71-2.37,10.57-.19,21.14-.11,32.48-.11-5.59,17.66-14.13,32.34-30.77,40.3-24.9,11.91-50.4,12.19-74.99-.42-24.59-12.6-34.5-34.95-36.24-61.37-2.26-34.3,14.03-67.02,49.07-78.17,46.66-14.84,89.01,10.08,94.99,61.36.71,6.14.87,12.34,1.37,19.65ZM754.28,117.13h63.3c-1.99-19.75-14.43-30.68-33.24-29.52-17.86,1.1-30.23,13.15-30.06,29.52Z"/>
      <path class="cls-1" d="M336.18,142.45h-104.22c-3.92,22.34,14.66,40.13,38.23,37.14,11.02-1.4,20.19-5.93,26.31-15.71.8-1.28,2.74-2.58,4.18-2.61,10.38-.22,20.77-.12,32.1-.12-4.73,15.4-12.01,28.27-25.1,37.11-45,30.38-106.15,4.8-115.9-48.39-7.09-38.69,11.33-75.06,45.51-87.43,44.42-16.08,90.95,5.53,97.55,60.16.76,6.31.87,12.7,1.34,19.85ZM231.39,117.19h63.3c-1.57-19.18-13.95-30.36-32.46-29.6-18.11.74-30.77,12.72-30.84,29.6Z"/>
      <path class="cls-1" d="M871.71,257.18v-33.96c4.72.33,9.04.51,13.33.95,20.77,2.12,29.63-9.37,22.29-29.1-15.83-42.54-31.73-85.05-47.59-127.57-.64-1.72-1.26-3.46-2.23-6.15,13.95,0,27.31-.13,40.66.22,1.24.03,2.89,3.01,3.52,4.89,9.89,29.46,19.65,58.97,29.45,88.47.45,1.36.99,2.69,1.93,5.22,1.31-3.68,2.35-6.33,3.21-9.03,8.94-28.03,17.94-56.04,26.68-84.14,1.31-4.2,3.01-5.96,7.69-5.8,11.62.39,23.25.13,35.82.13-1.46,3.95-2.71,7.35-3.97,10.74-18.71,50.31-37.39,100.63-56.15,150.92-9.38,25.15-22.49,34.14-49.42,34.2-8.27.03-16.55,0-25.22,0Z"/>
      <path class="cls-1" d="M1634.52,210.38c-39.58-.62-66.81-21.67-73.34-59.61-5.35-31.03.43-59.64,27.58-79.65,31.13-22.94,81.36-17.11,104.8,11.89,15.49,19.17,18.72,41.65,15.29,65.37-4.56,31.56-23.56,52.45-54.01,59.36-6.63,1.51-13.54,1.79-20.32,2.64ZM1670.4,135.99c-.66-6.68-.96-11.46-1.63-16.18-2.75-19.32-14.8-31.31-32.22-32.24-17.2-.92-30.11,8.91-34.53,26.98-3.36,13.74-3.32,27.65.8,41.26,4.72,15.59,16.11,23.95,31.77,23.99,15.85.03,27.19-8.02,31.92-23.67,2.13-7.08,2.85-14.6,3.89-20.14Z"/>
      <path class="cls-1" d="M1470.66,57.58c44.42.03,74.22,29.79,74.6,74.31.21,24.9-6.61,46.72-26.73,62.94-30.36,24.48-102.02,23.95-119.66-33.42-5.98-19.43-5.76-38.99,1.05-58.16,10.42-29.33,36.1-45.7,70.74-45.67ZM1434.39,130.88c.99,8.53,1.31,14.36,2.4,20.04,3.25,16.98,14.07,27.24,29.88,28.77,15.82,1.53,29.01-6.13,34.36-21.11,6.07-16.99,6.1-34.34-.66-51.17-5.36-13.36-16.09-19.75-30.33-19.81-14.01-.05-24.8,6.11-29.87,19.31-3.21,8.38-4.3,17.56-5.78,23.97Z"/>
      <path class="cls-1" d="M487.21,205.81h-39.88v-6.93c-.01-25.37.04-50.74-.09-76.11-.02-4.54-.49-9.13-1.27-13.61-2.21-12.75-8.14-18.53-20.19-20.16-13.28-1.8-25.95,3.46-29.63,14.32-3.01,8.87-4.51,18.57-4.79,27.97-.67,22.44-.22,44.91-.22,67.37v7.07h-39.5V61.74h37.75v17.65c7.45-8.3,15.32-14.96,25.61-18.48,14.5-4.97,29.03-4.67,43.4.09,16.32,5.41,24.55,17.81,27.21,34.12,1.23,7.55,1.81,15.29,1.87,22.95.22,27.66.09,55.32.07,82.97.01,1.42-.19,2.85-.34,4.77Z"/>
      <path class="cls-1" d="M634.14,103.53h-37.45c-1.16-7.36-3.66-13.74-11.29-16.6-10.1-3.79-20.44-4.78-30.32-.41-3.33,1.47-6.89,6.14-7.22,9.63-.32,3.48,2.4,9.31,5.35,10.64,8.96,4.06,18.61,6.65,28.11,9.41,9.55,2.77,19.42,4.52,28.82,7.68,13.83,4.65,25.29,12.64,27.72,28.24,2.85,18.37-2.3,34.19-17.88,45.59-9.87,7.22-21.29,10.06-33.2,11.32-16.48,1.74-32.81,1.16-48.63-4.3-21.6-7.47-34.52-25.05-33.75-45.79h37.17c1.1,9.15,5.02,16.86,13.93,20.91,9.67,4.39,19.64,4.87,29.72,1.38,1.56-.54,3.11-1.18,4.53-2.01,5.64-3.28,8.91-7.95,8.51-14.76-.37-6.34-4.54-9.97-9.76-11.71-10.41-3.47-21.07-6.14-31.63-9.14-8.37-2.38-16.93-4.23-25.06-7.24-13.52-5-23.42-13.77-24.52-29.19-1.21-17.04,4.08-31.85,19.82-39.92,9.19-4.71,19.81-7.45,30.1-8.98,14.42-2.14,29.06-1.16,43.2,3.16,20.37,6.23,33.75,22.75,33.73,42.09Z"/>
      <path class="cls-1" d="M695.03,205.83h-39.04V5.52h39.04v200.31Z"/>
    </g>
  </g>
</svg>