<?xml version="1.0" encoding="UTF-8"?>
<svg id="Layer_2" data-name="Layer 2" xmlns="http://www.w3.org/2000/svg" viewBox="0 0 1267.81 1190.01">
  <defs>
    <style>
      .cls-1 {
        fill: #000;
        stroke-width: 0px;
      }
    </style>
  </defs>
  <g id="Layer_2-2" data-name="Layer 2">
    <path id="Union_11" data-name="Union 11" class="cls-1" d="M370.64,1188.52c2.74-2.15,5.48-4.3,8.2-6.47,15.74-12.43,25.39-31.02,26.51-51.05,1.56-18.75,2.47-37.6,2.71-56.4.41-32.93.19-65.87.04-98.81-.06-12.25-.56-24.5-1-36.74-.35-9.33-3.38-12.32-12.87-13.18-2.34.02-4.61-.77-6.45-2.22h50.95l.21.98c-.65.42-1.36.76-2.1.99-11.84,2.05-12.63,2.58-12.74,14.72-.47,52.69-.68,105.38-1.09,158.06.58,15.46-1.67,30.9-6.65,45.55-8.05,20.8-24.1,34.08-42.3,45.39-.76.33-1.56.55-2.39.67l-1.03-1.49ZM921.55,1131.03c-26.84-2.26-49.19-12.07-60.94-37.47-5.28-11.54-8.29-23.98-8.88-36.66-1.42-34.49-.95-69.06-1.26-103.6-.04-4.54-.07-9.09-.34-13.63-.6-10.11-3.58-13.02-13.81-13.86-1.98-.16-3.95-.4-5.92-.6v-1.84h53.58l.33,1.36c-2.38.5-4.75,1.13-7.15,1.46-5.67.23-10.09,5.01-9.87,10.68,0,.11.01.21.02.32,0,41.78-1.17,83.62.64,125.32,1.18,27.17,14.04,49.29,42.16,57.4,27.12,7.82,53.5,2.26,68.34-18.11,7.87-10.71,12.34-23.53,12.83-36.8,1.06-26.31,1.17-52.66,1.52-79,.17-13.63.11-27.27-.05-40.91-.17-15.3-2.2-17.43-17.32-19.4-1.41-.18-2.65-1.04-3.31-2.3h49.38l.35.89c-1.14.61-2.34,1.11-3.59,1.47-10.07,1.87-11.69,3.29-12.37,13.67-.61,9.28-.61,18.61-.77,27.92-.56,31.79.14,63.66-1.87,95.36-2.63,41.5-33.52,68.64-73.92,68.64-2.57,0-5.17-.11-7.8-.33ZM636.3,1131.32c-61.34-1.04-103.05-44.91-102.08-107.46.83-53.29,39.59-106.89,108.85-104.8,60.19,1.82,100.34,43.65,99.33,105.07-1,60.44-46.68,107.2-104.28,107.2h-1.82ZM568.45,958.55c-12.44,17.59-18.3,38.99-16.55,60.47,0,4.99-.35,10.02.06,14.98,4.16,51.14,41.27,91.51,94.97,88.66,27.38-.32,52.44-15.42,65.51-39.48,12.84-22.41,14.4-47.06,12.3-72.05-3.91-46.57-35.28-80.15-79.64-84.21-3.66-.33-7.27-.5-10.82-.51-25.94-1.01-50.65,11.06-65.81,32.14h-.01ZM53.38,1127.18c-3.67-.05-7.33-.1-11.01-.07-10.41.07-20.82.04-31.23,0-2.56,0-5.12-.28-7.68-.43l-.06-1.84c2.05-.3,4.08-.77,6.14-.86,7.44-.33,10.11-2.39,10.81-10.15.87-9.73,1.47-19.51,1.5-29.27.15-44.77.07-89.56.07-134.34,0-1.36,0-2.73-.06-4.09-.93-16.36-1.27-19.53-18.14-20.53-1.28-.34-2.53-.81-3.72-1.41,1.46-.64,2.98-1.11,4.55-1.4h15.65c14.48-.03,28.96-.06,43.43.42,19.34.63,36.1,7.26,43.17,27.01,7.22,20.14.79,37.88-12.93,53.37-2.5,2.82-5.17,5.53-8.05,8.61,6.93,3.89,13.47,6.92,19.32,10.96,20.02,12.72,29.58,36.88,23.69,59.86-5.44,23.25-24.84,40.6-48.55,43.43-5.97.61-11.98.88-17.98.82-2.96-.02-5.93-.06-8.9-.1h-.01ZM46.13,1017.53c-9.16.07-9.14.07-9.18,9.48-.07,16.57-.24,33.14-.26,49.71,0,8.85,0,17.71.41,26.56.46,10.41,3.7,14.56,13.86,16.05,8.48,1.37,17.07,1.84,25.64,1.42,18.74-.22,34.52-14.07,37.17-32.63.87-5.84,1.05-11.76.52-17.64-1-23.14-16.45-43.14-38.58-49.96-8.16-1.74-16.42-2.99-24.73-3.74l-.11.74h-4.75ZM61.72,1011.85c16.86.52,24.87-3.49,31.15-22.9,6.24-16.58,2.83-35.25-8.87-48.55-10.75-12.26-25.46-13.13-40.69-10.91-5.3.77-6.56,3.32-6.44,8.19.27,10.88.08,21.76.09,32.65,0,11.34.19,22.68-.08,34.01-.13,5.39,2.02,7.28,7.22,7.13,1.05-.03,2.1-.05,3.15-.05,4.82,0,9.64.28,14.47.42ZM1087.61,1126.53l-.28-1.55c1.86-.49,3.76-.84,5.68-1.04,7.88.22,15.3-3.72,19.53-10.37,13.54-21.48,26.9-43.07,40.3-64.63,4.79-7.7,9.78-15.31,14.1-23.28,1.28-2.62,1.36-5.66.22-8.35-14.92-25.69-30.19-51.18-45.38-76.7-4.49-8.65-13.22-14.29-22.96-14.81-1.67-.09-3.22-.91-4.22-2.26h52.41l.32.74c-1.18.61-2.42,1.09-3.69,1.44-8.49,1.43-9.83,3.53-5.64,11.24,8.88,16.36,18.05,32.5,27.28,48.66,4.24,7.43,8.8,14.66,14.14,23.57,12.68-20.72,24.55-40,36.3-59.35,2.46-4.06,4.69-8.28,6.77-12.57,3.63-7.56,2.14-10.25-6.03-11.5-1.72-.1-3.33-.85-4.51-2.1h45.82c-.25.56-.41,1.29-.56,1.3-12.6.41-19.67,8.41-25.86,18.21-14.78,23.38-29.96,46.5-44.72,69.89-1.07,2.23-1.07,4.83,0,7.07,17.48,29.68,35.32,59.18,52.92,88.82,4.7,9.64,14.67,15.56,25.38,15.07.99-.04,2.01.72,2.91,2.36h-46.4c6.37-6.03,3.45-10.52.61-15.36-14.48-24.64-28.76-49.38-43.16-74.07-1.08-1.86-2.32-3.64-4.27-6.69-4.01,6.74-7.37,12.27-10.63,17.87-10.84,18.61-21.65,37.24-32.44,55.89-1.12,1.97-2.13,4-3.01,6.09-4.3,10.05-3.68,11.28,6.72,14.22.62.17,1.13.68,1.29,2.22h-48.91ZM228.34,1126.1l-.09-1.13c.94-.51,1.97-.85,3.03-.99,11.8.85,12.82-5.27,13.47-13.58.88-11.28,1.29-22.66,1.31-34,.11-42.46.15-84.93-.14-127.39-.13-19.38-.5-19.38-18.09-25.33h50.19l.38,1.05c-2.09.45-4.17,1.04-6.28,1.34-5.47.03-9.89,4.49-9.86,9.96,0,.04,0,.09,0,.13-.2,4.07-.89,8.13-.89,12.19-.05,46.1-.03,92.2.06,138.29,0,7.48.69,14.95,1.05,22.43.53,11.03,3.91,14.35,15.04,14.79,2.21.09,4.4.25,6.6.37l-.04,1.84-55.76.02ZM478.94,795.58c-.14-22.56,15.94-37.89,39.68-37.91,23.98,0,38.7,13.6,38.72,35.81.67,21.19-15.96,38.92-37.15,39.59-.77.02-1.55.03-2.33,0h-.34c-20.44.85-37.7-15.04-38.55-35.49-.03-.67-.04-1.34-.03-2.01ZM510.85,762.57c-9.97,1.96-15.65,8.33-17.95,20.4-.4,2.61-.66,5.23-.78,7.86.22,12.67,2.85,23.47,12.36,31.34,12.5,10.33,30.22,7.29,35.99-6.8,5.8-13.1,4.94-28.19-2.31-40.56-5.59-9.45-16.53-14.36-27.31-12.25h0ZM879.77,831.85c-11.66-.06-23.33,0-33.9,0,1.72-3.38,2.95-6.99,3.65-10.72.42-17.46.28-34.92.37-52.39,0-4.95-1.36-8.57-7.22-9.09h26.51c-6.11.42-7.22,4.08-7.16,9.33.2,15.87.22,31.75.07,47.63-.07,6.55,2.65,9.42,9.16,9.79,11.28.63,13.81-.14,18.57-7.24,2.18,10.44.46,12.71-9.68,12.71l-.37-.02ZM767.28,831.85c-11.04-.06-22.08,0-31.98,0,1.6-3.64,2.72-7.46,3.35-11.39.41-16.8.29-33.61.33-50.42,0-5.12.37-10.55-7.33-10.77h43.58c-.2,3.52-.43,7.42-.76,12.97-4.23-8.56-10.32-8.46-16.61-8.35-1.9.07-3.81.03-5.7-.14v25.7h20.94v11.12c-3.78-6.14-9.09-5.64-14.27-5.15-1.53.18-3.06.26-4.6.27-.86,0-2.5,2.06-2.52,3.2-.17,7.49-.19,14.99.23,22.47.45,1.89,1.72,3.49,3.47,4.34,7.62,3.12,16.39.73,21.38-5.82,1.84,10.01.34,12-9.15,12l-.37-.02ZM355.37,831.15c7.33-2.58,6.47-8.19,6.51-13.32.11-16.12-.05-32.24.14-48.37.07-5.75-1.36-9.55-7.9-10.09h24.31c-1.86,2.76-3.28,5.79-4.22,8.98-.67,5.41-.68,10.88-.04,16.3.63,2.22,2.36,3.95,4.57,4.6,5.86.28,11.73.26,17.61.24h10.23c3.41,0,4.91-1.34,4.81-4.82-.14-5.22-.24-10.46,0-15.66.28-5.52-1.26-9.02-7.57-9.32h26.03c-6.2.32-5.69,4.83-5.69,9.09,0,16.8,0,33.6.06,50.41,0,5.46-1.17,11.84,7.59,11.92h-23.77c1.44-3.23,2.47-6.63,3.07-10.11.46-8.34.15-16.72.15-25.63h-36.49c0,10.08-.34,20.19.3,30.24.12,1.93,4.15,3.61,6.54,5.54l-26.25.02ZM625.08,831.01c1.58-3.04,2.69-6.31,3.28-9.69.41-17.25.18-34.5.46-51.76.08-4.74-1.85-6.2-6.07-5.3-2.17.37-4.37.48-6.56.33-5.1-.93-10.32.81-13.84,4.61.56-3.5,1.13-6.99,1.69-10.41h62.04v12.97c-4.09-7.41-10.19-7.38-16.19-7.33-1.65,0-3.29,0-4.88-.13-1.09-.1-3.52,2.7-3.53,4.18-.16,18.39-.2,36.78.35,55.16.08,2.57,3.52,5.03,5.28,7.37h-22.03ZM825.63,624.33c-50.06-50.32-103.77-96.14-164.68-132.91-3.5-2.5-7.28-4.57-11.28-6.16-6.07-1.84-7.67-5.15-7.64-11.38.16-37.03-.17-74.07-.33-111.11v-8.89c14.1,5.16,27.01,9.8,39.86,14.6,24.82,9.26,49.53,18.71,74.38,27.82,4,1.47,4.95,3.51,5.72,7.65,3.99,21.38,7.77,42.86,13.31,63.87,15.42,56.49,36.25,111.36,62.19,163.86.56,1.13.96,2.31,1.44,3.47l-2.02,1.76c-3.63-4.2-7.03-8.65-10.94-12.56ZM501.24,436.85c14.48-43.51,14.87-86.8,9.66-131.72,11.08,4.03,21.13,7.6,31.13,11.33,26.46,9.9,52.89,19.89,79.35,29.78,3.33,1.25,5.8,2.26,5.81,6.89.08,37.92.5,75.84.77,113.76,0,1.51-.28,3.02-.56,5.69-39.98-19.58-80.66-34.35-126.16-35.72ZM725.43,369.68c-26.04-9.68-52.05-19.46-78.15-29-3.85-.86-6.47-4.43-6.14-8.36-.08-38.35-.22-76.72-.42-115.1.12-1.02.31-2.04.56-3.03,39.99,19.27,80.41,34.55,125.96,35.64-14.36,42.91-14.85,86.5-9.55,131.79-11.63-4.3-21.95-8.09-32.27-11.92ZM600.34,323.11c-29.24-10.88-58.47-21.76-87.63-32.86-2.37-.9-4.25-2.75-5.19-5.1-5.97-26.27-10.54-52.9-17.52-78.88-12.8-45.69-29.51-90.19-49.94-133.01-.71-1.66-1.99-3.02-3.6-3.83l-3.85,51.46h-1.83v-56.17l-2.33-1.16-16.03,15.09-1.02-.97,15.44-20.05-38.67-4.81.06-1.75h38.1l-14.05-22.46.87-.72,16.58,17.75c1.52-16.6,2.85-31.12,4.18-45.64h1.36v42.73l2.6.96,13.39-17.53,2.99,2.71-14.34,20.88,40.09,3.42-.07,1-39.17,1.84c2.84,4.82,6.08,9.4,9.67,13.69,47.15,47.84,99.8,89.92,156.86,125.36,3.46,2.56,7.25,4.66,11.25,6.25,6.9,1.94,8.15,6.11,8.13,12.62-.13,36.81.16,73.62.31,110.42v8.4c-9.4-3.4-18.03-6.46-26.63-9.66Z"/>
  </g>
</svg>