<?xml version="1.0" encoding="UTF-8"?>
<svg id="Layer_2" data-name="Layer 2" xmlns="http://www.w3.org/2000/svg" viewBox="0 0 1612.51 410.74">
  <defs>
    <style>
      .cls-1 {
        fill: #1d1d1b;
        stroke-width: 0px;
      }
    </style>
  </defs>
  <g id="Layer_2-2" data-name="Layer 2">
    <path id="Border" class="cls-1" d="M1419.44,215.01c-1.05,1.36-2.09,2.74-3.11,4.13-.83,1.14-1.67,2.28-2.45,3.45-.6.91-1.12,1.88-1.68,2.82-.6,1.1-.95,2.33-1.02,3.58-.33,2.55.79,5.07,2.91,6.53.63.47,1.31.87,2.02,1.19,2.02.87,4.2,1.3,6.4,1.26,3-.01,5.91-1.03,8.27-2.9.51-.38.98-.78,1.44-1.21,4.76-4.32,8.94-9.25,12.42-14.66,2.44-3.84,4.42-7.94,5.91-12.24.77-2.22,1.34-4.5,1.72-6.82.33-2.01.25-4.07-.23-6.06-.6-2.8-2.33-5.22-4.78-6.69-1.86-1.16-3.96-1.9-6.14-2.16-5.46-.71-11.01-.15-16.22,1.65-2.08.7-4.11,1.53-6.09,2.47-2.11,1.02-4.19,2.13-6.24,3.26-8.47,4.76-16.55,10.19-24.16,16.23-6.3,4.92-12.36,10.13-18.3,15.48-3.96,3.58-7.87,7.16-11.8,10.78-.46.42-.93.84-1.4,1.25-.28.24-.59.27-.78.05-.22-.24-.22-.6,0-.84,1.58-1.95,3.15-3.89,4.75-5.82,7.81-9.4,15.62-18.8,23.44-28.19,1.02-1.2,1.97-2.44,2.9-3.7,1.38-1.91,2.44-4.03,3.14-6.28.33-1.05.45-2.15.34-3.25-.13-1.42-.82-2.74-1.92-3.64-.71-.62-1.56-1.06-2.48-1.3-1.83-.45-3.7-.7-5.58-.75-3.29-.1-6.57-.23-9.86-.34h-1.88c-2.37.06-4.66.84-6.57,2.24-1.03.71-1.97,1.56-2.77,2.52-.71.83-1.39,1.69-2.08,2.56-5.76,7.22-11.5,14.48-17.29,21.68-8.94,11.11-17.76,22.3-26.05,33.91-.73,1.02-1.48,2.03-2.25,3.01-2.32,2.96-4.6,5.95-6.99,8.85-4.27,5.21-8.98,10.06-14.06,14.49-5.33,4.6-10.61,9.29-15.93,13.91-6.39,5.55-12.9,10.95-19.68,16.02-5.52,4.14-11.23,8-17.11,11.59-6.16,3.74-12.77,6.71-19.66,8.84-1.49.5-3,.89-4.54,1.18-2.24.61-4.55-.72-5.16-2.96-.08-.31-.13-.63-.14-.95-.1-.93-.1-1.88,0-2.81.1-1.09.36-2.16.51-3.25.87-6.37,2.45-12.61,4.71-18.63,2.54-6.74,5.55-13.3,9.01-19.62,3.5-6.48,7.35-12.76,11.37-18.93,6.68-10.23,13.55-20.34,20.6-30.31,10.8-15.21,22.08-30.04,33.59-44.71,13.93-17.75,28.19-35.23,42.36-52.79.51-.61.98-1.22,1.53-1.8,1.2-1.27,2.83-2.04,4.56-2.16.62-.06,1.25-.08,1.88-.06,4.54.14,9.08.27,13.62.44,3.44.13,6.89.33,10.33.45,5.17.17,10.34.28,15.49.67,1.53.12,3.13.15,4.7.2l15.5.59c.94.05,1.88.05,2.82,0,1.09-.07,2.18-.21,3.25-.41.61-.13,1.2-.34,1.76-.62,1.41-.69,2.64-1.7,3.58-2.96,1.3-1.6,1.88-3.67,1.6-5.72-.17-1.59-1.15-2.98-2.58-3.69-1.11-.61-2.33-.98-3.58-1.08-1.09-.08-2.19-.14-3.28-.18-2.51-.09-5.01-.11-7.52-.27-5.79-.36-11.58-.51-17.4-.64-2.97-.08-5.95-.18-8.92-.3-4.09-.17-8.14-.37-12.21-.57-2.19-.11-4.38-.23-6.57-.37-.47-.03-.93-.13-1.37-.29-.29-.09-.54-.3-.69-.57-.06-.31-.01-.62.14-.9.22-.42.48-.81.78-1.17.98-1.22,1.97-2.44,2.97-3.65,8.17-9.92,16.33-19.84,24.49-29.76,1.59-1.93,3.1-3.94,4.6-5.95.65-.89,1.24-1.81,1.77-2.77,1.15-2.08,1.53-4.5,1.07-6.83-.05-.31-.13-.61-.24-.91-.54-1.48-1.48-2.78-2.7-3.78-1.61-1.27-3.55-2.06-5.59-2.27-1.08-.12-2.19-.12-3.28-.13-2.67-.03-5.33,0-7.99-.2-.78-.04-1.56-.03-2.34.03-2.53.13-4.94,1.07-6.89,2.68-.85.69-1.66,1.44-2.4,2.24-.75.79-1.44,1.65-2.13,2.5-12.47,15.1-24.93,30.21-37.4,45.31-.7.84-1.4,1.69-2.15,2.48-1.29,1.41-3.11,2.22-5.02,2.22-1.88,0-3.76-.05-5.63-.19-5.16-.37-10.33-.48-15.5-.62-5.01-.14-10.02-.34-15.03-.51-.94-.03-1.88-.07-2.82-.08-1.57,0-3.13.27-4.6.81-1.5.5-2.82,1.41-3.82,2.64-1.56,1.82-2.13,4.29-1.53,6.61.35,1.56,1.46,2.85,2.95,3.42,1.44.63,2.98,1.01,4.54,1.12,1.25.07,2.5.1,3.76.15,3.58.14,7.2.26,10.8.41,3.13.13,6.26.32,9.39.45,2.05.09,4.09.12,6.11.2.47,0,.93.07,1.38.23.25.16.41.43.44.73,0,.31-.11.61-.3.86-1.6,2.13-3.23,4.23-4.84,6.36l-64.28,85.22c-1.7,2.25-3.44,4.47-5.12,6.74-1.4,1.9-3.28,3.4-5.45,4.33-1.02.44-2,.9-3.02,1.3-14.95,6.04-29.91,12.07-44.87,18.1-.87.35-1.75.68-2.65.95-.46.1-.92.14-1.39.12-.51,0-.94-.45-.8-.84s.25-.91.42-1.34c2.46-6.1,4.84-12.23,7.44-18.27,4.16-9.64,9.33-18.81,15.41-27.37,3.07-4.35,6.34-8.56,9.8-12.61.81-.95,1.62-1.92,2.42-2.88.58-.74,1.04-1.57,1.36-2.46.23-.59.32-1.22.27-1.84-.04-.63-.34-1.22-.84-1.62-.73-.6-1.6-1.01-2.53-1.19-2.15-.44-4.33-.71-6.52-.8-3.29-.09-6.57-.17-9.87-.21-2.19,0-4.38.23-6.52.7-5.4,1.12-10.38,3.73-14.39,7.52-1.48,1.39-2.85,2.9-4.09,4.51-3.98,5.05-7.69,10.29-11.12,15.72-4.45,7.02-8.22,14.44-11.26,22.17-.23.58-.43,1.17-.67,1.75-.85,2.2-2.18,4.19-3.89,5.81-.69.63-1.35,1.3-2.05,1.95-7.47,7.16-14.93,14.31-22.4,21.45-8.84,8.44-17.74,16.82-26.83,24.99-2.56,2.31-5.14,4.6-7.78,6.82-7.39,6.31-15.31,11.97-23.67,16.94-4.06,2.38-8.23,4.54-12.51,6.49-4.59,2.03-9.46,3.36-14.44,3.96-1.42.18-2.85-.14-4.06-.9-.53-.34-.99-.77-1.36-1.27-.68-.87-1.08-1.93-1.16-3.03-.16-1.72-.07-3.45.28-5.14.35-1.85.85-3.66,1.5-5.43.82-2.05,1.58-4.09,2.46-6.1,2.92-6.59,6.37-12.94,10.32-18.97,3.15-4.87,6.53-9.57,10.06-14.18,7.9-10.33,15.98-20.52,24.09-30.7,8.6-10.78,17.2-21.56,25.79-32.34,1.27-1.59,2.56-3.19,3.75-4.82,2.53-3.4,4.51-7.18,5.85-11.19.5-1.48.66-3.05.47-4.6-.08-.62-.28-1.22-.57-1.78-.65-1.27-1.69-2.29-2.97-2.91-1.25-.66-2.63-1.05-4.04-1.13-.94-.04-1.88-.08-2.82-.1-2.82-.04-5.64-.17-8.45-.38-4.11-.38-8.21.94-11.33,3.64-.82.72-1.61,1.49-2.35,2.3-.75.8-1.44,1.65-2.16,2.49l-26.54,31.11c-.71.83-1.42,1.67-2.18,2.46-1.43,1.49-3.35,2.4-5.4,2.56-1.09.1-2.19.11-3.28.16-2.05.1-4.09.2-6.1.32l-8.91.51-21.59,1.23c-.78.05-1.53.16-2.34.21-3.12.19-6.25.38-9.38.55-.62.03-1.25,0-1.88-.04-1.47-.07-2.66-1.23-2.77-2.7-.05-.31-.07-.62-.09-.94-.05-2.51-.3-5.01-.76-7.48-.98-6.4-3.86-12.35-8.28-17.07-2.48-2.62-5.33-4.86-8.46-6.65-2.57-1.51-5.26-2.78-8.06-3.8l-4.86-1.77c-.44-.13-.88-.31-1.29-.51-.27-.16-.48-.4-.61-.68-.08-.3.05-.62.33-.76,1.44-.94,2.89-1.88,4.36-2.77,6.98-4.21,13.8-8.67,20.47-13.38,20.38-14.38,38.79-31.37,54.75-50.54,4.9-5.91,9.56-12.01,13.92-18.34,3.48-5.02,6.6-10.28,9.33-15.75,3.07-6.18,5.39-12.71,6.91-19.44.48-2.3.85-4.62,1.1-6.96.26-2.82.06-5.65-.59-8.41-1.13-6.08-4.61-11.48-9.67-15.03-4.78-3.39-10.52-5.14-16.37-4.99-2.67.04-5.32.36-7.92.98-5.49,1.3-10.83,3.17-15.94,5.57-4.39,2.07-8.67,4.37-12.82,6.9-7.26,4.36-14.28,9.06-21.16,13.99-10.95,7.86-21.46,16.29-31.68,25.07-6.05,5.21-12.02,10.53-18.03,15.8-1.41,1.23-2.84,2.45-4.28,3.66-.2.2-.53.19-.72-.01-.03-.03-.06-.07-.08-.11-.07-.12-.09-.27-.04-.41.16-.44.37-.86.63-1.25,1.05-1.36,2.14-2.7,3.24-4.03,6.77-8.23,13.54-16.46,20.31-24.68,9.99-12.07,19.87-24.23,29.97-36.21,2.22-2.64,4.33-5.36,6.47-8.06.68-.86,1.31-1.76,1.89-2.69,1.3-1.98,1.93-4.33,1.8-6.7-.1-3.05-1.84-5.8-4.54-7.21-1.11-.57-2.33-.91-3.58-.98-11.09-.91-22.23-1.09-33.34-.51l-10.79.62-21.58,1.23c-.47.03-.94.07-1.41.12-6.4.6-12.79.84-19.21,1.44-5.15.49-10.31.79-15.45,1.3-2.8.28-5.63.58-8.42.78-.94.07-1.87.2-2.8.3-1.4.15-2.8.31-4.21.43-4.68.43-9.36.85-14.04,1.27-.31.03-.62.08-.94.12l-5.63.57-4.21.41-5.12.51c-1.25.12-2.5.23-3.75.35-2.05.2-4.05.42-6.07.63-.94.1-1.87.18-2.8.29l-6.07.66c-.94.1-1.87.19-2.8.3-4.04.48-8.08.97-12.13,1.43-3.74.43-7.48.81-11.2,1.27-3.58.45-7.13,1.02-10.71,1.44-4.51.55-9,1.21-13.5,1.84-6.2.86-12.39,1.88-18.58,2.82-6.5.99-12.99,2.1-19.44,3.26-9.09,1.63-18.16,3.39-27.22,5.21-10.91,2.2-21.78,4.54-32.6,7.02-14.8,3.41-29.54,7.07-44.21,10.98-21.02,5.66-41.83,12-62.42,19.05-4.29,1.47-8.55,3.07-12.84,4.56-2.84.97-5.29,2.82-7,5.29-1.1,1.52-2.08,3.13-2.92,4.81-.04.15-.08.29-.11.45-.13.38,0,.6.39.72.44.15.92.17,1.38.05,1.49-.45,3-.9,4.48-1.39,15.15-5.04,30.3-10.08,45.45-15.12,10.7-3.54,21.49-6.85,32.36-9.8,22.4-6.07,38.14-9.38,57.23-13.04,7.07-1.36,14.18-2.51,21.28-3.72,2.47-.42,4.95-.77,7.43-1.15,3.4-.51,6.81-1.02,10.23-1.53,3.1-.45,6.2-.88,9.31-1.29,3.26-.43,6.53-.81,9.79-1.25,4.5-.62,9-1.19,13.52-1.71,3.26-.38,6.53-.76,9.8-1.17,2.02-.26,4.04-.51,6.07-.69.94-.08,1.87-.22,2.8-.33l4.67-.51c1.24-.14,2.49-.26,3.74-.39l5.12-.56c1.24-.13,2.49-.25,3.74-.38,1.71-.18,3.43-.37,5.12-.55,1.25-.13,2.5-.24,3.75-.36l6.08-.61,3.74-.37,5.14-.51,5.14-.51,4.21-.4c2.18-.21,4.37-.41,6.55-.62,1.25-.11,2.5-.24,3.75-.32,5.16-.33,10.28-1.02,15.46-1.29.31,0,.62-.08.93-.1,2.05-.17,4.06-.36,6.09-.51,1.41-.11,2.82-.12,4.22-.28,3.74-.43,7.5-.51,11.26-.84,5.15-.43,10.31-.77,15.48-1.02.62-.03,1.25-.11,1.87-.16,2.5-.17,5-.38,7.5-.51,6.88-.35,13.75-1.02,20.64-1.25.78-.03,1.53-.15,2.34-.21,1.25-.1,2.5-.21,3.75-.28,4.23-.21,8.45-.37,12.66-.82,2.5-.21,5.01-.24,7.52-.08.15,0,.3.08.46.1.41.05.67.65.56,1.11-.24.75-.65,1.43-1.18,2-4.05,4.98-8.11,9.96-12.19,14.93-15.21,18.53-30.41,37.06-45.35,55.81-10.45,13.11-20.91,26.21-31.07,39.54-10.44,13.72-20.58,27.63-30.05,42.06-8,12.18-15.68,24.55-23.05,37.12-2.53,4.33-4.99,8.7-7.36,13.11-4.87,8.94-9.18,18.16-12.91,27.63-1.02,2.62-1.93,5.29-2.7,8.01-1.74,6.51-3.11,13.11-4.09,19.77-.29,2.06.33,4.14,1.71,5.69,1.11,1.34,2.62,2.28,4.3,2.71.76.21,1.52.36,2.3.47,1.88.26,3.8-.23,5.33-1.36.77-.54,1.45-1.2,2-1.97.65-.88,1.24-1.81,1.79-2.76.82-1.51,1.59-3.07,2.33-4.6,1.41-2.97,3.03-5.84,4.85-8.59,2.67-4.05,5.26-8.19,7.94-12.21,4.41-6.65,8.8-13.34,13.3-19.95,5.55-8.16,11.15-16.29,16.8-24.38,2.86-4.11,5.78-8.19,8.75-12.23,4.27-5.81,8.88-11.36,13.81-16.62,6.23-6.62,12.41-13.3,18.69-19.85,18.97-19.82,38.51-39.04,58.89-57.4,14.91-13.43,30.25-26.32,46.05-38.67,3.96-3.07,7.97-6.09,12.06-8.98,5.12-3.62,10.37-7.05,15.8-10.16,3.94-2.26,7.98-4.34,12.12-6.23,4.7-2.14,9.71-3.56,14.84-4.2,1.87-.27,3.78-.08,5.56.55,2.6.86,4.5,3.09,4.93,5.79.46,2.79.3,5.66-.48,8.38-1.04,4.11-2.63,8.05-4.72,11.73-1.78,3.13-3.76,6.15-5.92,9.03-4.01,5.42-8.25,10.65-12.7,15.72-9.14,10.33-18.99,20.01-29.49,28.96-11.54,9.89-23.57,19.19-36.05,27.88-5.78,4.04-11.7,7.86-17.77,11.46-7.13,4.25-14.53,8.04-22.15,11.34-6.86,3.07-13.99,5.51-21.3,7.29-.92.2-1.82.47-2.73.72-1.21.34-2.42.65-3.58,1.05-1.2.38-2.32.98-3.3,1.77-1.93,1.46-2.81,3.93-2.25,6.28.2.92.49,1.81.86,2.68,2.37,5.66,7.97,9.28,14.11,9.12,2.66-.1,5.32-.36,7.95-.79,4.01-.69,8.02-1.42,12.07-1.83,3.12-.35,6.26-.34,9.38.05.62.08,1.24.16,1.86.23,5.3.62,10.46,2.12,15.26,4.45,1.71.79,3.32,1.77,4.81,2.91,3.66,2.75,6.41,6.53,7.91,10.85.97,2.82,1.43,5.79,1.34,8.77-.02.47-.1.93-.23,1.39-.14.62-.61,1.12-1.22,1.3-.59.19-1.2.35-1.81.48-4.16.75-8.34,1.39-12.48,2.24-9.97,2.05-19.87,4.37-29.67,7.16-21.42,6.04-42.15,14.3-61.85,24.65-7.64,3.99-15.04,8.42-22.16,13.27-11,7.54-21.01,16.43-29.79,26.46-3.76,4.21-7.14,8.74-10.12,13.54-2.64,4.27-4.8,8.81-6.44,13.55-.76,2.22-1.34,4.5-1.74,6.82-.62,3.4-.59,6.88.08,10.27.82,4.34,2.87,8.35,5.91,11.54,1.96,2.03,4.26,3.72,6.78,5,2.52,1.27,5.18,2.23,7.93,2.88,2.44.56,4.91.99,7.4,1.29,4.67.61,9.39.67,14.06.17,1.09-.1,2.18-.3,3.27-.35,3.28-.24,6.55-.7,9.77-1.37,8.95-1.65,17.69-4.23,26.09-7.72,14.34-5.92,28.18-12.98,41.39-21.11,12.29-7.54,23.78-16.33,34.28-26.21,19.33-18.25,34.26-40.66,43.64-65.54.44-1.17.85-2.36,1.4-3.48.64-1.48,2.04-2.49,3.65-2.6,4.06-.32,8.11-.76,12.18-.95,6.73-.32,13.44-.96,20.17-1.21.94-.04,1.87-.19,2.81-.25,3.13-.17,6.26-.33,9.39-.45.62.02,1.24.11,1.85.25.45.16.69.65.55,1.11-.2.42-.37.86-.62,1.25-4.45,7.19-8.91,14.38-13.37,21.57-2.96,4.8-5.83,9.65-8.61,14.56-1.39,2.46-2.73,4.93-3.9,7.5-3.43,7.23-5.55,15.02-6.24,23-.31,3.43-.22,6.89.27,10.3.64,4.88,3.16,9.31,7.02,12.35,2.58,2.04,5.4,3.76,8.41,5.12,3.99,1.85,8.33,2.83,12.73,2.9,3.13.06,6.26-.24,9.33-.87,5.35-1.2,10.55-2.99,15.51-5.35,4.67-2.23,9.18-4.75,13.52-7.57,5.55-3.54,10.96-7.28,16.23-11.23,9.05-6.75,17.69-13.99,26.09-21.49,7.95-7.1,15.67-14.44,23.35-21.82,1.36-1.3,2.71-2.61,4.09-3.91.46-.43.93-.83,1.4-1.25s1.02-.55,1.23-.26c.19.22.32.49.38.78.11,1.88.16,3.76.25,5.63.03.94-.03,1.88-.19,2.81-.18,1.09-.62,2.11-1.28,2.99-.63.9-1.4,1.7-2.27,2.37-.87.67-1.78,1.28-2.66,1.93-2.27,1.67-4.58,3.3-6.81,5.02-8.1,6.2-15.4,13.37-21.75,21.35-3.24,4.03-6.13,8.33-8.66,12.84-3.55,6.29-5.91,13.18-6.95,20.33-.45,3.42-.56,6.87-.34,10.31.13,1.88.52,3.73,1.15,5.51,2.2,7.01,7.56,12.57,14.48,15.02,3.98,1.48,8.21,2.17,12.45,2.05,3.92-.09,7.81-.82,11.5-2.15,3.39-1.23,6.63-2.83,9.68-4.75,9.76-6.11,17.65-14.78,22.81-25.07,2.41-4.74,4.34-9.71,5.78-14.84,1.28-4.52,2.29-9.11,3.04-13.75.71-4.34,1.23-8.69,1.57-13.06.47-6.09.78-12.2,1.14-18.3.1-2.04.33-4.06.69-6.07.3-1.72,1.35-3.22,2.86-4.09,1.07-.64,2.21-1.18,3.34-1.72,8.05-3.85,16.16-7.58,24.37-11.09,4.46-1.91,9-3.63,13.51-5.43.29-.12.59-.18.9-.19.32,0,.65.24.61.51-.06.62-.2,1.23-.42,1.81-.98,2.47-2.09,4.9-3.33,7.26-1.16,2.22-2.31,4.45-3.48,6.65-2.43,4.57-4.66,9.21-6.65,13.99-3.92,9.07-6.49,18.67-7.61,28.48-.6,5.16-.04,10.38,1.62,15.3,2.97,9.56,11.31,16.46,21.26,17.57,3.43.37,6.9.26,10.29-.34,3.38-.68,6.69-1.64,9.91-2.88,6.58-2.55,12.91-5.69,18.93-9.38,4.56-2.76,8.98-5.73,13.26-8.91,4.14-3.07,8.22-6.28,12.33-9.41.87-.67,1.76-1.3,2.66-1.93.14-.07.3-.1.45-.07.14.02.27.09.37.19.09.1.19.29.15.39-1.41,4.15-3.11,8.19-4.65,12.28-1.65,4.4-3.28,8.81-4.73,13.27-.44,1.34-.62,2.76-.51,4.16.09,1.92,1.11,3.67,2.74,4.69,1.58,1.04,3.42,1.62,5.31,1.68.78.03,1.57-.06,2.32-.27,1.98-.52,3.78-1.6,5.17-3.1,1.07-1.15,2.1-2.33,3.12-3.52,7.01-8.23,14.11-16.39,21.3-24.46,15.65-17.54,31.78-34.63,48.57-51.09,9.84-9.65,19.89-19.09,30.24-28.22,6.35-5.6,12.88-10.98,19.75-15.93,4.32-3.11,8.77-6.04,13.38-8.7,1.89-1.12,3.87-2.07,5.92-2.85.44-.16.9-.28,1.36-.37.16,0,.31.05.44.14.62.2.97.87.78,1.49-1.31,3.87-3.25,7.49-5.76,10.71ZM941.3,239.46c-.08.46-.19.91-.32,1.36-5.67,16.3-14.19,31.46-25.15,44.79-6.08,7.37-12.74,14.23-19.92,20.54-10.52,9.39-22.07,17.55-34.44,24.32-12.25,6.65-25.27,11.77-38.77,15.23-3.18.82-6.41,1.44-9.65,1.94-2.67.32-5.36.49-8.05.51-1.48-.07-3.51-.12-5.54-.29-2.96-.26-5.88-.92-8.67-1.95-1.78-.63-3.43-1.55-4.9-2.73-1.61-1.27-2.85-2.93-3.62-4.83-.37-.86-.61-1.78-.72-2.71-.3-2.81-.01-5.65.84-8.34.92-2.83,2.1-5.57,3.5-8.19,2.01-3.72,4.39-7.23,7.1-10.48,3.3-3.97,6.86-7.72,10.66-11.23,7.22-6.72,15.02-12.8,23.31-18.15,6.97-4.5,14.19-8.59,21.63-12.25,15.44-7.62,31.51-13.87,48.04-18.7,10.36-3.04,20.83-5.64,31.41-7.78,3.68-.74,7.35-1.53,11.06-2.13.46-.05.93-.05,1.4,0,.43.19.74.59.8,1.06h0ZM1127.11,300.68c-.15,2.47-.24,6.4-.67,10.28-.53,5.78-1.73,11.47-3.58,16.97-.57,1.62-1.2,3.23-1.9,4.8-2.93,6.46-7.48,12.04-13.21,16.22-1,.76-2.08,1.39-3.23,1.89-2.32,1.04-4.97,1.04-7.29,0-2.65-1.07-4.69-3.27-5.57-6-.54-1.47-.82-3.03-.83-4.6,0-2.05,0-4.09.19-6.1.23-2.34.59-4.66,1.08-6.96.51-2.29,1.28-4.52,2.28-6.65,2.19-4.69,4.94-9.1,8.19-13.12,2.56-3.17,5.34-6.16,8.32-8.94,4.36-4.05,8.94-7.86,13.72-11.42.35-.3.79-.48,1.26-.51.15,0,.37.04.43.14.18.24.31.52.36.82.3,3.91.53,7.82.44,13.18ZM722.12,236.86c-.36-.3-.77-.54-1.21-.71-1.04-.33-2.11-.59-3.18-.79-1.41-.26-2.86.09-4.01.96-.89.64-1.73,1.35-2.56,2.05-3.07,2.69-6.14,5.38-9.15,8.1-10.02,9.02-20.31,17.72-30.88,26.09-10.05,8-20.36,15.66-31.07,22.77-8.86,5.92-18.02,11.38-27.43,16.37-3.32,1.77-6.72,3.37-10.2,4.79-5.37,2.2-10.98,3.71-16.73,4.52-6.23.8-12.56.31-18.6-1.44-3.19-.85-6.18-2.32-8.8-4.34-4.86-3.68-7.42-9.64-6.74-15.7.17-2.19.59-4.35,1.25-6.45.98-3.14,2.19-6.2,3.62-9.16,1.75-3.67,3.55-7.33,5.36-10.97.41-.84.89-1.65,1.42-2.43.45-.64.96-1.24,1.53-1.78,1.11-1.13,2.64-1.76,4.23-1.74.94-.03,1.88.1,2.78.39,1.18.42,2.42.67,3.67.73.94.06,1.88.13,2.8.27,7.01.9,14.12.67,21.05-.67,23.22-4.16,43.15-18.98,53.81-40.02,1.84-3.64,3.22-7.49,4.09-11.48.85-3.52,1.02-7.16.51-10.74-.65-4.36-2.4-8.48-5.08-11.97-1.44-1.86-3.2-3.46-5.2-4.71-1.84-1.21-3.89-2.06-6.04-2.51-2.31-.48-4.67-.6-7.01-.36-2.02.24-4.03.59-6.01,1.06-6.42,1.44-12.63,3.71-18.47,6.75-5.69,2.98-11.2,6.29-16.51,9.91-9.68,6.68-18.75,14.2-27.12,22.46-4.6,4.49-9.01,9.15-13.3,13.92-10.05,11.19-20.94,21.62-32.56,31.18-12.23,10.06-25.43,18.87-39.4,26.32-3.87,2.05-7.81,3.98-11.85,5.7-5.6,2.44-11.43,4.32-17.4,5.63-2.9.66-5.85,1.11-8.81,1.37-6.73.55-13.49.15-20.11-1.19-4.14-.81-8.28-1.67-12.41-2.61-5.19-1.18-10.34-2.52-15.45-4.02-6.85-2.21-13.59-4.77-20.18-7.67-.14-.06-.26-.17-.4-.25-.42-.22-.61-.72-.42-1.16,1.13-1.69,2.42-3.27,3.86-4.71,8.21-9.06,16.14-18.35,23.81-27.87,12.47-15.51,24.09-31.68,34.82-48.44,9.62-15.04,19.01-30.23,28.35-45.44,6.82-11.08,13.64-22.14,20.47-33.21.82-1.33,1.65-2.67,2.49-3.99,1.48-2.44,3.83-4.22,6.58-4.98.75-.21,1.51-.41,2.26-.62,5.58-1.53,11.17-3.07,16.74-4.68,8.42-2.45,16.75-5.18,24.91-8.41,7.44-2.9,14.68-6.31,21.66-10.2,6.03-3.35,11.74-7.25,17.04-11.66,6.52-5.42,12.18-11.8,16.77-18.93.95-1.43,1.79-2.94,2.51-4.51.08-.3.13-.6.15-.91.09-.27-.06-.56-.33-.65-.06-.02-.12-.03-.18-.02-.3-.08-.6-.12-.91-.14-4.16.04-8.02,2.21-10.2,5.75-.16.27-.35.51-.51.78-1.32,1.94-2.82,3.76-4.47,5.44-6.73,7.02-14.43,13.05-22.85,17.91-5.16,2.96-10.54,5.53-16.09,7.67-3.36,1.3-6.74,2.56-10.14,3.74-10.18,3.58-20.47,6.85-30.7,10.3-.74.25-1.5.4-2.26.6-.43.11-1.24-.71-1.15-1.18.04-.31.12-.61.24-.9.42-.84.88-1.66,1.35-2.47,4.95-8.53,10.09-16.96,15.25-25.37,1.96-3.21,3.96-6.39,5.98-9.56,3.71-5.81,7.59-11.51,11.73-17.02,3.65-4.9,7.55-9.61,11.68-14.11,2.01-2.2,4.13-4.29,6.37-6.25,2.93-2.6,6.17-4.85,9.63-6.69,3.45-1.86,7.18-3.15,11.04-3.83,2.63-.45,5.32-.38,7.93.19,2.92.62,5.65,1.97,7.91,3.92,1.66,1.44,3.09,3.12,4.23,5,.73,1.2,1.38,2.46,1.94,3.75.31.72.68,1.4,1.12,2.05.44.67,1.21,1.06,2.01,1.02,1.56-.12,3.1-.41,4.6-.84,1.25-.35,2.14-1.45,2.24-2.75.07-.62.07-1.25,0-1.87-.13-.93-.36-1.84-.56-2.76-.91-4.16-3-7.97-6.03-10.96-2.33-2.33-5.12-4.16-8.19-5.38-3.34-1.37-6.88-2.19-10.48-2.4-5.17-.31-10.35.18-15.37,1.43-8.68,2.14-17.04,5.4-24.88,9.68-8.63,4.82-16.57,10.78-23.61,17.71-4.59,4.49-8.86,9.3-12.79,14.39-5.57,7.18-10.99,14.47-16.26,21.87-8.17,11.49-16.31,23-24.42,34.54-.81,1.15-1.61,2.31-2.47,3.44-.57.75-1.18,1.46-1.84,2.13-1.75,1.83-4.1,2.98-6.62,3.22-1.53.15-3.11.41-4.66.6-1.39.2-2.76.52-4.09.97-2.68.86-5.26,2.03-7.67,3.48-2.7,1.59-5.26,3.4-7.67,5.4-.11.11-.21.23-.29.36-.19.23-.24.56-.13.84.11.11.27.17.42.15,4.49-.68,8.97-1.37,13.45-2.07,2.48-.38,4.95-.78,7.42-1.13.3-.01.59.12.78.35.13.28.15.6.07.9-.06.31-.19.6-.36.85-.68,1.04-1.39,2.08-2.12,3.1-19.22,27.12-38.92,53.82-59.35,80.02-12.72,16.31-25.73,32.38-39.03,48.22-.81.96-1.63,1.9-2.47,2.83-.43.46-.95.83-1.53,1.08-.56.28-1.21.35-1.82.18-1.19-.4-2.33-.92-3.41-1.57-3.88-2.04-7.94-3.73-12.12-5.06-7.43-2.44-15.2-3.7-23.02-3.75-5.68-.05-11.33.68-16.81,2.18-10.99,2.78-21.12,8.22-29.52,15.83-8.72,7.76-14.99,17.89-18.05,29.16-.93,3.48-1.66,7.01-2.21,10.57-.39,2.48-.55,4.98-.47,7.49.11,2.51.58,4.99,1.4,7.36,1.27,3.89,3.44,7.42,6.33,10.32,2.2,2.23,4.72,4.14,7.46,5.67,6.12,3.56,12.98,5.64,20.05,6.09,4.07.25,8.15.06,12.18-.57,4.79-.8,9.49-2.07,14.03-3.81.58-.22,1.13-.51,1.69-.81.34-.32.52-.78.47-1.25-.66-1.92-1.31-3.85-1.99-5.78-1.18-3.24-2.07-6.57-2.68-9.97-.28-1.7-.66-3.38-.85-5.12-.09-.78-.25-1.55-.47-2.3-.16-.44-.37-.86-.61-1.25-.46-.02-.92.12-1.3.39-.51.35-1.02.72-1.53,1.07-2.96,2.05-5.91,4.09-8.89,6.14-2.06,1.43-4.23,2.69-6.5,3.77-3.13,1.5-6.64,2.03-10.07,1.49-.93-.12-1.85-.32-2.74-.61-4.38-1.47-7.87-4.82-9.52-9.14-.84-2.03-1.3-4.21-1.34-6.41-.04-4.7.73-9.38,2.29-13.81,2.89-8.51,8.15-16.02,15.18-21.64,8.84-7.17,19.86-11.12,31.25-11.2.63-.02,1.25,0,1.88.04,3.76.19,7.49.74,11.14,1.63,1.66.46,3.31.96,4.95,1.46,4.5,1.36,8.88,3.07,13.3,4.6.44.17.86.38,1.25.62.28.16.38.52.22.8,0,0,0,0,0,0-.19.42-.45.82-.75,1.17-1.59,1.73-3.21,3.43-4.81,5.15-3.95,4.24-7.92,8.47-11.83,12.74-1.92,1.7-2.95,4.19-2.79,6.75-.11,1.41-.11,2.82,0,4.23.2,2.81.54,5.62,1.02,8.4,1.15,5.84,2.7,11.59,4.64,17.22.31.56.96.83,1.58.64,1.71-.78,3.29-1.83,4.67-3.11l35.73-29.06c.85-.69,1.69-1.41,2.56-2.05.51-.35,1.06-.66,1.63-.91.71-.36,1.53-.42,2.29-.19,1.19.38,2.38.79,3.55,1.24,4.67,1.81,9.33,3.65,14,5.45,5.99,2.31,12.01,4.53,18.16,6.39,5.07,1.61,10.26,2.85,15.51,3.7,2.77.53,5.57.9,8.38,1.13,2.02.27,4.05.42,6.09.43,4.86.14,9.72-.07,14.54-.63,3.42-.43,6.82-.95,10.19-1.67,7.8-1.72,15.39-4.31,22.62-7.71,13.93-6.49,27.15-14.38,39.46-23.57,1.89-1.4,3.78-2.79,5.67-4.18.38-.27.79-.51,1.2-.73.14-.05.3-.07.45-.05.33,0,.65.23.6.56-.47,3.07-1.29,6.14-1.73,9.21-.51,3.57-.47,7.19.12,10.74.69,4.19,2.26,8.18,4.6,11.71,2.36,3.52,5.31,6.61,8.73,9.12,3.9,2.92,8.26,5.16,12.89,6.65,7.04,2.18,14.34,3.4,21.71,3.63,5.17.18,10.35-.16,15.45-1.02,4.34-.68,8.62-1.7,12.79-3.07,7.15-2.34,14.04-5.42,20.54-9.21,2.71-1.57,5.38-3.21,8.04-4.86,17.53-10.99,34.42-22.94,50.62-35.81,14.27-11.26,28.06-23.1,41.58-35.25.58-.51,1.13-1.09,1.72-1.6,1.34-1.12,2.1-2.79,2.05-4.54.05-1.1-.04-2.19-.25-3.27-.2-.78-.68-1.46-1.36-1.9ZM577.48,253c.04-.15.09-.29.17-.42.17-.26.36-.51.57-.74,8.46-9.22,17.47-17.9,26.99-26.01,5.13-4.34,10.55-8.33,16.21-11.96,3.42-2.2,7.06-4.04,10.86-5.48,1.61-.61,3.35-.82,5.06-.62,2.38.35,4.34,2.04,5.04,4.34.36,1.2.49,2.46.39,3.71-.19,2.5-.94,4.93-2.21,7.1-4.7,8.15-11.01,15.26-18.55,20.9-6.31,4.66-13.5,7.98-21.13,9.75-4.42,1.05-8.95,1.51-13.49,1.39-2.5.01-5-.11-7.49-.37-.78-.06-1.53-.33-2.18-.77-.26-.18-.37-.51-.26-.81ZM1612.46,242.22c-.07-.78-.29-1.54-.66-2.24-.41-.86-1.15-1.53-2.05-1.85-.74-.27-1.5-.46-2.27-.56-1.57-.25-3.17.1-4.5.96-1.18.77-2.29,1.64-3.33,2.6-5.42,4.75-10.84,9.5-16.26,14.24-6.24,5.47-12.54,10.89-18.97,16.14-4.86,3.96-10.17,7.34-15.81,10.08-5.22,2.53-10.58,4.75-16.06,6.65-.15.05-.31.06-.47.04-.33-.06-.59-.28-.55-.58.05-.46.17-.92.37-1.34,1.71-3.35,3.46-6.65,5.17-10.02,3.85-7.53,7.25-15.29,10.17-23.22,3.83-9.95,6.33-20.36,7.43-30.96.26-2.81.47-5.63.47-8.06.15-3.58-.13-7.16-.82-10.67-.46-2.63-1.34-5.16-2.59-7.52-3.01-5.83-8.72-9.79-15.24-10.56-5.92-.85-11.95-.37-17.66,1.42-4.8,1.45-9.36,3.64-13.5,6.48-3.24,2.2-6.27,4.7-9.05,7.46-1.45,1.43-2.84,2.92-4.26,4.38-2.25,2.4-4.63,4.68-7.11,6.84-3.17,2.82-6.81,5.07-10.74,6.65-1.9.74-3.69,1.74-5.31,2.97-1.64,1.21-3.32,2.37-4.93,3.61-7.31,5.68-13.92,12.21-19.7,19.44-8.25,10.27-15.38,21.38-21.26,33.16-1.71,3.36-3.22,6.79-4.55,10.31-3.36,8.45-5.51,17.33-6.4,26.39-.25,2.81-.22,5.64.1,8.44.22,2.03.64,4.02,1.25,5.97,1.54,4.97,4.58,9.35,8.7,12.53,1.98,1.53,4.16,2.81,6.46,3.79,4.32,1.86,8.91,3.05,13.59,3.53,6.4.69,12.88.23,19.11-1.36,4.4-1.14,8.69-2.65,12.83-4.53,7.42-3.39,14.37-7.71,20.7-12.86,5.59-4.55,10.83-9.51,15.68-14.84,1.27-1.38,2.51-2.8,3.77-4.2,1.27-1.39,2.8-2.53,4.49-3.36,1.55-.76,3.16-1.38,4.81-1.87,2.25-.68,4.51-1.33,6.78-1.92,4.24-1.12,8.39-2.56,12.42-4.29,11.66-5.03,22.71-11.37,32.94-18.88,12.47-9.23,24.05-19.62,34.58-31.03.52-.58,1.01-1.2,1.46-1.83.48-.63.74-1.39.75-2.18.06-1.18.04-2.27,0-3.36h0ZM1497.46,310.05c-.12.28-.28.55-.47.79-5.45,6.05-11.58,11.46-18.25,16.13-4.73,3.35-9.91,6.01-15.4,7.89-2.97.99-6.02,1.71-9.11,2.16-2.8.41-5.65.22-8.37-.57-2.95-.72-5.34-2.88-6.36-5.74-.47-1.16-.75-2.39-.81-3.64v-2.34c0-1.88.17-3.75.51-5.59.9-4.92,2.26-9.75,4.06-14.42,2.89-7.43,6.23-14.69,9.99-21.72.18-.44.5-.8.9-1.05.14-.01.27.04.36.14.31.34.57.73.77,1.15.59,1.62,1.28,3.2,2.05,4.74,3.17,6.54,8.45,11.81,14.99,14.97,3.23,1.58,6.64,2.8,10.14,3.62,3.79.95,7.65,1.62,11.54,2.02,1.1,0,2.18.25,3.18.72.33.19.46.41.27.77h0ZM1524.44,270.45c-2.7,5.48-5.63,10.82-8.78,16.06-.64,1.07-1.34,2.12-2.05,3.14-.72,1.03-1.59,1.94-2.59,2.71-1.47,1.19-3.3,1.87-5.19,1.93-1.09-.12-2.19-.1-3.27.06-.91.24-1.86.27-2.78.08-2.82-.51-9.77-1.89-13.3-2.91-1.81-.51-3.58-1.14-5.3-1.9-1.86-.83-3.58-1.93-5.12-3.26-2.87-2.47-4.85-5.81-5.63-9.52-.57-2.6-.62-5.29-.14-7.92.61-3.23,1.52-6.4,2.71-9.46.84-2.19,1.77-4.35,2.8-6.46,2.84-5.76,5.89-11.4,9.24-16.88,2.84-4.69,5.98-9.19,9.39-13.47,2.26-2.8,4.67-5.48,7.22-8.02,4.46-4.4,9.44-8.24,14.84-11.41,2.96-1.78,6.33-2.8,9.78-2.95,1.72-.13,3.44-.13,5.16,0,2.38.21,4.54,1.48,5.86,3.46.89,1.29,1.52,2.75,1.86,4.28.76,2.87,1.12,5.83,1.07,8.8,0,2.52-.18,5.03-.55,7.52-1.27,7.72-3.15,15.33-5.63,22.75-2.64,8.02-5.86,15.84-9.63,23.39h0ZM245.19,165.86c-4.15.77-8.3,1.62-12.45,2.39-6.77,1.25-13.51,2.69-20.24,4.16-8.71,1.91-17.39,3.99-26.03,6.24-21.54,5.51-42.69,12.44-63.33,20.72-11.05,4.43-21.84,9.48-32.31,15.13-9.65,5.21-18.88,11.18-27.59,17.84-10.97,8.37-20.84,18.1-29.37,28.95-6.5,8.25-11.92,17.31-16.12,26.94-3.04,7.05-5.31,14.41-6.77,21.94-.71,3.69-1.22,7.42-1.53,11.17-.3,3.44-.47,6.87-.49,10.32.02,4.55.76,9.07,2.18,13.39.91,2.83,2.04,5.59,3.37,8.25,3.58,7.49,10.51,12.83,18.66,14.39,1.99.44,4,.74,6.03.91,3.27.29,6.54.68,9.8,1.11,1.24.2,2.46.5,3.64.9.6.21,1.11.61,1.44,1.15.29.37.39.86.29,1.31-.27,1.08-.93,2.02-1.85,2.64-2.58,1.81-5.57,2.94-8.7,3.29-4.06.43-8.17-.06-12.02-1.44-4.15-1.43-8.13-3.3-11.89-5.58-2.41-1.47-4.67-3.16-6.76-5.06-5.13-4.65-8.89-10.63-10.86-17.27-1.13-3.59-1.82-7.3-2.05-11.06-.13-2.5-.3-5-.24-7.52.15-2.81.21-5.63.47-8.45.27-2.96.62-5.92,1.13-8.85,2.69-15.79,8.47-30.9,17.01-44.46,5.86-9.28,12.71-17.89,20.43-25.69,10.24-10.38,21.62-19.57,33.93-27.4,9.91-6.31,20.23-11.95,30.89-16.88,11.07-5.17,22.41-9.72,33.9-13.86,18.86-6.79,38.07-12.56,57.54-17.28,9.28-2.26,18.6-4.33,27.96-6.21,5.83-1.17,11.68-2.28,17.55-3.22,4.64-.74,9.25-1.61,13.89-2.38,4.79-.79,9.59-1.53,14.38-2.29s9.58-1.57,14.37-2.34c2.47-.4,4.94-.81,7.42-1.18,5.88-.87,11.77-1.8,17.64-2.74,5.12-.81,10.23-1.49,15.35-2.27s10.2-1.63,15.31-2.4,10.23-1.48,15.35-2.26c5.12-.77,10.21-1.61,15.31-2.4,2.94-.46,5.89-.85,8.83-1.29,2.63-.39,5.26-.8,7.89-1.2,2.32-.35,4.64-.72,6.96-1.06.31-.04.61.15.69.46.05.14.08.35,0,.45-3.03,3.82-7.09,6.71-11.69,8.32-.89.31-1.8.54-2.73.68-2.17.32-4.34.65-6.5.98-3.09.48-6.19.96-9.28,1.44-2.32.37-4.65.64-6.97,1.02-5.25.83-10.54,1.53-15.8,2.28-3.1.45-6.19.97-9.28,1.44-2.63.4-5.27.79-7.9,1.17-2.95.42-5.9.8-8.84,1.25-4.95.76-9.9,1.58-14.84,2.34-4.94.76-9.91,1.47-14.84,2.25-4.79.76-9.57,1.6-14.36,2.39-4.64.77-9.27,1.5-13.9,2.28-4.06.68-8.09,1.39-12.1,2.14ZM454.96,397.63c.1,1.26-.27,2.52-1.02,3.53-2.76,3.65-6.56,6.38-10.9,7.83-2.99.95-6.08,1.51-9.21,1.67-1.09.09-2.19.1-3.28.09-3.91-.03-7.83-.08-11.01-.11-5.75-.31-10.74-.45-15.75-.9-4.36-.39-8.72-.81-13.07-1.43-5.59-.8-11.13-1.79-16.61-3.1-9.15-2.15-18.05-5.26-26.54-9.29-5.66-2.69-11.05-5.92-16.1-9.63-11.04-8.12-19.81-18.93-25.47-31.41-3.72-8.12-6.34-16.7-7.79-25.52-1.46-8.66-1.94-17.45-1.43-26.22.19-4.7.65-9.38,1.39-14.02.19-1.08.26-2.18.42-3.26.09-.46.22-.91.4-1.35.54-1.54,2.11-2.48,3.72-2.21.94.09,1.85.38,2.68.84.85.44,1.42,1.26,1.53,2.21.1.62.14,1.24.13,1.87-.19,4.09-.33,8.14-.67,12.2-.47,5.31-.6,10.64-.36,15.96.4,9.71,2.22,19.32,5.4,28.51,4.82,13.86,13.65,25.97,25.36,34.79,5.5,4.16,11.45,7.7,17.73,10.54,7.99,3.63,16.31,6.46,24.86,8.46,4.42,1.05,8.88,1.92,13.37,2.56,3.87.54,7.75,1.16,11.67,1.32,1.25.05,2.5.13,3.75.27,3.9.43,7.82.44,11.73.58,3.92.12,7.83-.35,11.61-1.4,5.12-1.38,10.35-2.51,15.44-4.04,1.2-.36,2.42-.65,3.64-.93.92-.21,1.88-.18,2.79.09.44.14.85.37,1.2.68.22.21.36.5.39.8h-.01ZM393.27,142.96c13.8-10.32,28.24-19.75,43.22-28.26,7.07-4.04,14.23-7.91,21.49-11.6,1.38-.74,2.8-1.39,4.26-1.97.3-.09.6-.17.91-.22.29.09.5.34.55.64.04.15.04.31,0,.47-.93,1.98-2.02,3.89-3.26,5.7-1.7,2.65-4.01,4.85-6.73,6.43-2.99,1.71-5.96,3.46-8.95,5.17-4.6,2.65-9.26,5.25-13.88,7.9-21.03,12.18-40.62,26.68-58.43,43.21-10.97,10.07-20.95,21.17-29.81,33.14-10.18,13.73-18.55,28.71-24.9,44.57-.87,2.18-1.63,4.41-2.49,6.58-.36.87-.77,1.71-1.24,2.52-.7,1.1-2.06,1.56-3.28,1.12-1.34-.44-2.61-1.07-3.78-1.85-.34-.33-.53-.77-.54-1.24.32-1.02.63-2.1.99-3.13,4.62-12.99,10.65-25.44,17.97-37.13,9.46-15.17,20.59-29.22,33.18-41.9,10.81-10.9,22.43-20.98,34.74-30.16h-.01ZM1088.08,159.01c-.2-1.39-.36-2.79-.51-4.09.05-2.21.35-4.42.91-6.56,1.76-6.59,6.12-12.17,12.09-15.47,1.77-1,3.73-1.63,5.76-1.86.46-.06.93-.07,1.4-.03,2.67.17,5.24,1.06,7.45,2.56.77.53,1.48,1.16,2.09,1.88,1.78,2.03,2.54,4.76,2.08,7.42-.18,1.24-.59,2.43-1.21,3.52-.78,1.36-1.69,2.63-2.74,3.8-2.68,3.06-5.8,5.72-9.24,7.89-2.66,1.64-5.33,3.26-8.02,4.86-.82.46-1.66.88-2.52,1.25-.72.3-1.5.46-2.28.47-1.61.12-3.13-.71-3.91-2.12-.69-1.07-1.15-2.27-1.34-3.52h0Z"/>
  </g>
</svg>