<?xml version="1.0" encoding="UTF-8"?>
<svg id="Layer_2" data-name="Layer 2" xmlns="http://www.w3.org/2000/svg" viewBox="0 0 2587.91 466.89">
  <defs>
    <style>
      .cls-1 {
        fill: #5b0303;
      }

      .cls-1, .cls-2 {
        stroke-width: 0px;
      }

      .cls-2 {
        fill: #000;
      }
    </style>
  </defs>
  <g id="Layer_2-2" data-name="Layer 2">
    <g>
      <g>
        <path class="cls-2" d="M428.54,115.68h53.79v186.21h121.89v46.55h-175.68V115.68Z"/>
        <path class="cls-2" d="M647.16,115.68h53.79v232.76h-53.79V115.68Z"/>
        <path class="cls-2" d="M743.9,232.72v-.67c0-66.17,54.83-120.37,130.27-120.37s129.57,53.53,129.57,119.71v.67c0,66.17-54.83,120.37-130.27,120.37s-129.57-53.54-129.57-119.71ZM947.51,232.72v-.67c0-39.9-30.73-73.15-74.04-73.15s-73.34,32.59-73.34,72.49v.67c0,39.9,30.73,73.15,74.04,73.15s73.34-32.59,73.34-72.49Z"/>
        <path class="cls-2" d="M1046.69,115.68h49.59l114.56,143.31V115.68h53.09v232.76h-45.75l-118.4-147.97v147.97h-53.09V115.68Z"/>
        <path class="cls-2" d="M1306.88,314.52l31.78-36.24c22,17.29,45.05,28.26,73,28.26,22,0,35.27-8.31,35.27-21.95v-.67c0-12.97-8.38-19.62-49.25-29.59-49.25-11.97-81.03-24.94-81.03-71.16v-.66c0-42.23,35.62-70.16,85.57-70.16,35.62,0,66.01,10.64,90.81,29.59l-27.94,38.57c-21.65-14.3-42.96-22.94-63.56-22.94s-31.43,8.98-31.43,20.28v.67c0,15.3,10.48,20.28,52.74,30.59,49.59,12.3,77.54,29.26,77.54,69.83v.66c0,46.22-37.02,72.16-89.76,72.16-37.02,0-74.39-12.3-103.73-37.24Z"/>
        <path class="cls-2" d="M1543.31,115.68h111.76c31.08,0,55.18,8.31,71.25,23.61,13.62,12.97,20.95,31.26,20.95,53.2v.67c0,37.57-21.3,61.18-52.39,72.15l59.72,83.13h-62.87l-52.39-74.48h-42.26v74.48h-53.79V115.68ZM1651.58,228.73c26.19,0,41.21-13.3,41.21-32.92v-.67c0-21.95-16.07-33.25-42.26-33.25h-53.43v66.84h54.48Z"/>
        <path class="cls-2" d="M1797.56,232.72v-.67c0-66.17,54.83-120.37,130.27-120.37s129.57,53.53,129.57,119.71v.67c0,66.17-54.83,120.37-130.27,120.37s-129.57-53.54-129.57-119.71ZM2001.18,232.72v-.67c0-39.9-30.73-73.15-74.04-73.15s-73.34,32.59-73.34,72.49v.67c0,39.9,30.73,73.15,74.04,73.15s73.34-32.59,73.34-72.49Z"/>
        <path class="cls-2" d="M2100.35,232.72v-.67c0-66.17,52.39-120.37,127.48-120.37,46.1,0,73.69,14.63,96.39,35.91l-34.23,37.57c-18.86-16.29-38.07-26.27-62.52-26.27-41.21,0-70.9,32.59-70.9,72.49v.67c0,39.9,28.99,73.15,70.9,73.15,27.94,0,45.05-10.64,64.26-27.27l34.23,32.92c-25.15,25.6-53.09,41.56-100.24,41.56-71.95,0-125.38-52.87-125.38-119.71Z"/>
        <path class="cls-2" d="M2365.44,115.68h53.79v101.75l99.19-101.75h64.96l-99.54,98.76,104.08,134h-64.61l-75.79-99.09-28.29,27.93v71.16h-53.79V115.68Z"/>
      </g>
      <path class="cls-1" d="M192.79,0L0,116.72v233.44l192.79,116.72,192.79-116.72V116.72L192.79,0ZM250.75,356.79l-24.54,22.16c-4.53,4.09-11.33,5.22-17.13,2.84l-10.15-4.15c-4.01-1.64-8.58-1.64-12.59,0l-10.15,4.15c-5.8,2.38-12.6,1.25-17.13-2.84l-24.54-22.16c-4.67-4.22-4.91-11.06-.55-15.55l23.56-24.23c6.31-6.49,15.35-10.2,24.83-10.2h20.55c9.48,0,18.51,3.71,24.83,10.2l23.56,24.23c4.37,4.49,4.12,11.33-.55,15.55ZM254.08,317.09c-6.74,1.54-14.08-.16-19.63-4.41-4.69-3.59-12.58-10.62-21-11.92-14.96-2.32-20.51-16.5-11.05-24.07l39.4-35.8c7.54-6.02,23.66-1.01,26.43,8.21l8.94,29.84c5.03,16.81-6.75,34.41-23.09,38.15ZM278.35,207.84c-13.84,1.4-26.2-9.24-43.55,16.44-1.95-7.77.63-27.08,3.5-33.04,2.61-5.39,6.8-8.21,12.79-8.36h.09c.41,0,.83,0,1.25,0h.01c.92.03,1.89.13,2.89.28.79.12,1.58.3,2.36.51h.01c1.92.5,3.81,1.15,5.77,1.39,1.71.21,3.47.45,5.23.6h.01c1.82.16,3.63.22,5.38.04.06,0,.1,0,.16,0,.47,0,.94-.03,1.42-.06,4.93-.27,11.24-1.4,17.4-3.58,4.89-1.73,9.17-4.29,12.65-7.45l.02-.02h.01c1.47-1.33,3.98-4.29,3.98-4.3-1.87,25.84-7.35,35.12-31.39,37.55ZM278.64,162.05c-.49-.07-.98-.14-1.48-.18-7.11-.82-14.6-.12-21.63,1.84-14.18,2.28-25.77,11.21-29.35,23.4-.75,2.54-1.15,5.23-1.15,8.02,0,0-.24,6.45-.18,8.48.06,1.99.19,3.98.3,5.96.44,8.5,1.02,16.97,1.57,25.71-1.29.07-1.62.11-1.95.11-21.73.16-43.46.13-65.18.69-3.01.08-6.93,2.58-8.53,5-1.08,1.63.47,5.55,2.09,7.62.4.51.84,1,1.31,1.47l.03.03c.46.46.95.9,1.46,1.33h.01s27.71,25.19,27.71,25.19c1.51,1.2,2.64,2.58,3.41,4.04,4.06,7.74-1.88,18.07-14.45,20.02-8.42,1.3-16.3,8.34-21,11.93-5.55,4.25-12.89,5.95-19.63,4.4-7.85-1.79-14.65-6.79-19.04-13.35-3.41-5.11-5.37-11.15-5.22-17.4v-.05c.03-1.44.17-2.89.45-4.34v-.02c.71-5.11,2.13-10.02,4.24-14.76,1.85-4.14,4.21-8.14,7.1-12.01,3.65-4.9,4.81-8.96,3.25-12.63-1.03-2.47-3.28-4.76-6.81-7.02-9.11-5.86-18.69-11.09-28.1-16.57-2.63-1.53-5.45-2.83-7.92-4.54-7.64-5.27-13.19-12.98-7.19-19.78,3.95-4.48,6.74-23.97,6.74-23.97,8.43,8.59,26.14,16.86,43.23,14.44,3.05-.42,6.18-.99,9.38-1.69.11-.03.21-.05.32-.07,14.72-3.26,23.01,12.83,25.6,19,.01,0,.01.03.02.04.53.9.81,1.44.81,1.44v-8.69c0-.23,0-.47-.01-.7-1.28-16.48-17.64-28.35-35.75-31.84-4.15-.8-8.4-1.16-12.58-1.02-1.95.05-3.87.21-5.77.49-10.8,1.57-18.74,2.23-24.56,2.41,0,0-4.19-13.28,2.77-14.06,26.83-3.06,15.7-30.94,29.74-34.49,10.77-2.72,21.55-5.45,32.32-8.22,7.34-1.88,13.69-.38,19,4.55,1.85,1.7,3.4,3.66,5.06,5.51,8.2,9.13,16.38,18.27,24.8,27.66,2.47-2.58,4.46-4.56,6.35-6.63,8.52-9.34,17-18.74,25.53-28.07,2.26-2.47,4.62-4.71,8.8-3.43,11.85,3.62,23.83,6.93,35.56,10.83,2.34.78,4.36,3.53,5.54,5.55,15.18,26.09,21.98,27.34,27.53,28.04,3.38.43,6.69,12.71,6.69,12.71-5.87.3-15.52-.08-31.26-2.37Z"/>
    </g>
  </g>
</svg>