<?xml version="1.0" encoding="UTF-8"?>
<svg id="Layer_2" data-name="Layer 2" xmlns="http://www.w3.org/2000/svg" viewBox="0 0 817.25 522.47">
  <defs>
    <style>
      .cls-1 {
        fill: #002942;
      }

      .cls-1, .cls-2, .cls-3 {
        stroke-width: 0px;
      }

      .cls-2 {
        fill: #000;
      }

      .cls-3 {
        fill: #00426b;
      }
    </style>
  </defs>
  <g id="Layer_1-2" data-name="Layer 1">
    <g>
      <g>
        <path class="cls-2" d="M0,436.17l11.04-77.11h1.25l31.35,63.27,31.05-63.27h1.24l11.1,77.11h-7.56l-7.62-55.15-27.26,55.15h-1.97l-27.59-55.56-7.57,55.56H0Z"/>
        <path class="cls-2" d="M155.68,359.06l35.96,77.11h-8.32l-12.13-25.37h-33.22l-12.01,25.37h-8.6l36.43-77.11h1.89ZM154.7,375.45l-13.21,27.91h26.36l-13.15-27.91Z"/>
        <path class="cls-2" d="M225.65,436.17v-77.11h1.68l51.32,59.11v-59.11h7.6v77.11h-1.73l-50.9-58.39v58.39h-7.97Z"/>
        <path class="cls-2" d="M319.37,366.61v-7.55h42.25v7.55h-17.19v69.56h-7.86v-69.56h-17.19Z"/>
        <path class="cls-2" d="M417.54,359.06l35.96,77.11h-8.32l-12.13-25.37h-33.22l-12.01,25.37h-8.6l36.43-77.11h1.89ZM416.57,375.45l-13.21,27.91h26.36l-13.15-27.91Z"/>
        <path class="cls-2" d="M591.34,359.06h15.36c8.56,0,14.36.35,17.4,1.05,4.58,1.05,8.3,3.3,11.17,6.74,2.87,3.45,4.3,7.69,4.3,12.73,0,4.2-.99,7.89-2.96,11.07-1.97,3.18-4.8,5.59-8.47,7.22-3.67,1.63-8.74,2.46-15.2,2.49l27.73,35.8h-9.53l-27.73-35.8h-4.36v35.8h-7.71v-77.11ZM599.04,366.61v26.21l13.28.11c5.15,0,8.95-.49,11.42-1.47,2.47-.98,4.39-2.54,5.78-4.69,1.38-2.15,2.07-4.55,2.07-7.21s-.7-4.94-2.1-7.05c-1.4-2.11-3.24-3.63-5.51-4.53-2.28-.91-6.06-1.36-11.34-1.36h-13.6Z"/>
        <path class="cls-2" d="M709.59,359.06l35.96,77.11h-8.32l-12.13-25.37h-33.22l-12.01,25.37h-8.6l36.43-77.11h1.89ZM708.62,375.45l-13.21,27.91h26.36l-13.15-27.91Z"/>
        <path class="cls-2" d="M760.32,359.06h8.87l19.73,31.8,19.42-31.8h8.91l-24.43,40.26v36.85h-7.6v-36.85l-24.9-40.26Z"/>
      </g>
      <g>
        <path class="cls-3" d="M759.35,319.81c-14.62-9.4-31.48-14.63-48.87-15.29l-21.85-.75c-23.15-.83-42.43-17.86-46.22-40.69-6.74-40.54-21.54-78.74-42.84-112.94-1.21-1.94-2.43-3.86-3.68-5.75l-6.47,16.81c-4.13,10.77-8.07,21.67-11.82,32.77-23.37,68.85-39.45,143.04-47.45,219.36l-11.04,104.62-.45,4.52h0s0,0,0,0l-.45-4.52-11.05-104.62c-7.99-76.32-24.07-150.51-47.44-219.36-3.74-11.09-7.69-21.99-11.82-32.77l-6.47-16.81c-1.24,1.9-2.47,3.81-3.68,5.75-21.29,34.2-36.1,72.4-42.84,112.94-3.79,22.83-23.08,39.87-46.22,40.69l-21.86.75c-17.39.65-34.25,5.89-48.87,15.29,1.11-3.33,3.57-10.1,6.02-16.82,2.47-6.71,5.01-13.4,6.37-16.65,14.93-35.84,36.5-68.64,63.33-97,7.04-7.49,14.47-14.63,22.25-21.47l54.41-52.47-.02-.07.2-.31.4-.68,25.97-46.23,30.1-51.82-8.89,51.82-3.16,28.71-.22,3.99,3.86,14.8,7.11,27.43c19.34,74.24,30.47,191.54,32.97,270.27,2.5-78.73,13.62-196.03,32.97-270.27l7.11-27.43,3.86-14.8-.22-3.99-3.16-28.71-8.89-51.82,30.1,51.82,25.97,46.23.4.68.2.31-.02.07,54.41,52.47c7.78,6.84,15.21,13.98,22.25,21.47,26.83,28.36,48.41,61.16,63.33,97,1.36,3.25,3.9,9.95,6.37,16.65,2.46,6.72,4.91,13.49,6.02,16.82Z"/>
        <polygon class="cls-3" points="518.66 522.46 518.66 522.47 518.66 522.46 518.66 522.46"/>
        <path class="cls-1" d="M496.51,131.71c13,51.83,20.49,114.03,22.17,168.98,1.69-54.95,9.18-117.16,22.17-168.98l4.84-19.35,2.54-10.13-.06-2.79-2.13-20.03-10.54,8.93c-9.79,8.29-23.85,8.27-33.62-.03l-10.46-8.89-2.13,20.03-.15,2.79,2.59,10.33,4.78,19.14Z"/>
        <path class="cls-1" d="M454.73,215.22c-3.32-9.21-6.24-18.35-9.86-27.29l-6.26-17.88c-1,1.61-2,3.23-2.98,4.88-17.25,28.96-27.96,63.84-32.92,97.86-1.38,9.44-12.37,25.44-21.58,30.04,31.59-8.83,59.55-2.43,74.95,17.98,27.14,35.95,49.16,139.19,52.4,148.37l-10.42-71.23c-7.96-63.71-22.65-125.5-43.34-182.72Z"/>
        <path class="cls-1" d="M634.79,272.79c-4.97-34.02-15.67-68.9-32.92-97.86-.98-1.65-1.97-3.27-2.98-4.88l-6.26,17.88c-3.62,8.94-6.55,18.07-9.86,27.29-20.69,57.22-35.37,119.01-43.34,182.72l-10.42,71.23c3.24-9.18,25.26-112.42,52.4-148.37,15.4-20.4,43.36-26.81,74.95-17.98-9.21-4.6-20.2-20.6-21.58-30.04Z"/>
        <path class="cls-1" d="M504.68,4.35l-.8-4.35-12.57,14.2v39.72l9.25-29.38c4.71-5.26,5.4-13.18,4.12-20.2Z"/>
        <path class="cls-1" d="M546.03,53.93V14.2l-12.57-14.2-.8,4.35c-1.28,7.02-.59,14.94,4.12,20.2l9.25,29.38Z"/>
      </g>
    </g>
  </g>
</svg>