<?xml version="1.0" encoding="UTF-8"?>
<svg id="Layer_2" data-name="Layer 2" xmlns="http://www.w3.org/2000/svg" xmlns:xlink="http://www.w3.org/1999/xlink" viewBox="0 0 774.74 189.45">
  <defs>
    <style>
      .cls-1 {
        fill: #005ffe;
      }

      .cls-1, .cls-2, .cls-3, .cls-4 {
        stroke-width: 0px;
      }

      .cls-2 {
        fill: url(#linear-gradient);
      }

      .cls-3 {
        fill: #081a54;
      }

      .cls-4 {
        fill: #000;
      }
    </style>
    <linearGradient id="linear-gradient" x1="-689.57" y1="900.19" x2="-690.14" y2="899.42" gradientTransform="translate(16868.97 20955.42) scale(24.44 -23.18)" gradientUnits="userSpaceOnUse">
      <stop offset="0" stop-color="#bdbdbd"/>
      <stop offset=".08" stop-color="#c5c5c5"/>
      <stop offset=".2" stop-color="#dbdbdb"/>
      <stop offset=".36" stop-color="#fff"/>
      <stop offset=".45" stop-color="#e6e6e6"/>
      <stop offset=".66" stop-color="#a6a6a6"/>
      <stop offset=".96" stop-color="#3f3f3f"/>
      <stop offset="1" stop-color="#303030"/>
    </linearGradient>
  </defs>
  <g id="Layer_1-2" data-name="Layer 1">
    <g id="Group_2143" data-name="Group 2143">
      <g id="OfficeRock_logo" data-name="OfficeRock logo">
        <g id="Group_6" data-name="Group 6">
          <g id="Group_5" data-name="Group 5">
            <path id="Path_1" data-name="Path 1" class="cls-2" d="M2.69,92.35l9.88,18.63,14.56-11.98-1.69-4.66-16.91-6.54-5.83,4.54Z"/>
            <path id="Path_2" data-name="Path 2" class="cls-4" d="M2.69,92.35s5.38-.27,5.83-4.54l-8.52-2.95,2.69,7.49Z"/>
            <path id="Path_3" data-name="Path 3" class="cls-3" d="M87.86,186.7l2.5-4.62s-12.57-35.82-64.74-87.36l-.35-.43-.73,5.64-6.57-.5v5.9l-5.41.25v5.41s63.82,59.4,75.3,75.71Z"/>
            <g id="Group_2" data-name="Group 2">
              <path id="Path_8" data-name="Path 8" class="cls-1" d="M211.66,126.95c0,31.58-18.92,50.51-47.09,50.51s-45.1-21.49-45.1-48.94,18.5-50.22,46.67-50.22c29.45,0,45.53,22.05,45.53,48.66ZM142.38,128.09c0,18.92,8.82,32.15,23.33,32.15s23.05-13.94,23.05-32.58c0-17.36-8.11-32.15-23.05-32.15-14.8,0-23.33,13.94-23.33,32.58h0Z"/>
              <path id="Path_9" data-name="Path 9" class="cls-1" d="M322.01,93.23c-4.49-1.94-9.34-2.9-14.23-2.85-11.38,0-15.36,5.84-15.36,13.52v2.42h42.26v69.57h-21.63v-53.65h-20.49v53.64h-21.62v-53.64h-22.62v53.64h-21.62v-53.64h-9.25v-15.93h9.25v-1.14c0-8.25,2.56-16.65,8.97-22.48,4.55-4.41,11.38-7.4,20.77-7.4,4.13.07,8.22.84,12.1,2.28l-4.84,15.65c-1.9-.95-4-1.44-6.12-1.42-2.37-.06-4.66.8-6.4,2.42-2.28,2.28-2.98,6.4-2.98,10.1v1.99h22.76v-2.85c0-19.35,14.8-30.16,36.28-30.16,6.83,0,14.8,1.42,19.35,3.7l-4.56,16.22Z"/>
              <path id="Path_10" data-name="Path 10" class="cls-1" d="M401.38,174.04c-3.84,1.85-11.1,3.27-19.35,3.27-22.48,0-36.85-13.8-36.85-35.57,0-20.35,13.94-36.99,39.84-36.99,5.61-.03,11.19.89,16.5,2.7l-3.41,16.08c-3.84-1.55-7.96-2.28-12.1-2.13-11.38,0-18.78,8.11-18.64,19.49,0,12.66,8.54,19.49,19.06,19.49,4.24.11,8.46-.66,12.39-2.27l2.57,15.93Z"/>
              <path id="Path_11" data-name="Path 11" class="cls-1" d="M425.82,148.01c.57,8.96,9.53,13.23,19.63,13.23,6.53.1,13.02-.91,19.21-2.99l2.85,14.66c-7.11,2.99-15.79,4.41-25.18,4.41-23.62,0-37.14-13.66-37.14-35.43,0-17.64,10.96-37.13,35.14-37.13,22.48,0,31.02,17.5,31.02,34.71,0,2.86-.24,5.72-.71,8.54h-44.81ZM451.29,133.21c0-5.27-2.28-14.09-12.23-14.09-9.1,0-12.8,8.39-13.37,14.09h25.61Z"/>
              <path id="Path_12" data-name="Path 12" class="cls-3" d="M483.05,81.28c9.56-1.4,19.22-2.07,28.88-1.99,14.23,0,24.19,2.14,31.02,7.54,5.83,4.55,8.97,11.38,8.97,20.2,0,12.1-8.68,20.49-16.93,23.48v.42c6.69,2.71,10.39,8.97,12.8,17.79,2.99,10.96,5.84,23.48,7.68,27.18h-22.19c-1.42-2.85-3.84-10.53-6.54-22.34-2.71-12.1-6.83-15.23-15.79-15.37h-6.4v37.7h-21.49v-94.61h0ZM504.53,122.54h8.54c10.81,0,17.22-5.41,17.22-13.8s-5.97-13.23-15.93-13.23c-5.26,0-8.25.28-9.82.71v26.32Z"/>
              <path id="Path_13" data-name="Path 13" class="cls-3" d="M632.02,140.32c0,25.47-18.07,37.13-36.71,37.13-20.34,0-36-13.37-36-35.85s14.8-36.99,37.28-36.99c21.2,0,35.43,14.65,35.43,35.71ZM581.66,141.03c0,11.95,4.98,20.91,14.23,20.91,8.54,0,13.8-8.39,13.8-21.06,0-10.24-3.98-20.77-13.8-20.77-10.24,0-14.23,10.67-14.23,20.92Z"/>
              <path id="Path_14" data-name="Path 14" class="cls-3" d="M694.95,174.04c-3.84,1.85-11.1,3.27-19.35,3.27-22.48,0-36.85-13.8-36.85-35.57,0-20.35,13.94-36.99,39.84-36.99,5.61-.03,11.19.89,16.5,2.7l-3.42,16.08c-3.84-1.55-7.96-2.28-12.1-2.13-11.38,0-18.78,8.11-18.64,19.49,0,12.66,8.54,19.49,19.06,19.49,4.24.11,8.45-.67,12.38-2.28l2.58,15.93Z"/>
              <path id="Path_15" data-name="Path 15" class="cls-3" d="M725.79,135.63h.29c1.51-2.89,3.17-5.69,4.98-8.4l14.08-20.92h26.04l-24.9,28.17,28.45,41.4h-26.61l-16.93-28.6-5.41,6.83v21.77h-21.63v-101h21.63v60.75h0Z"/>
            </g>
            <g id="Shape_1" data-name="Shape 1">
              <g id="Group_3" data-name="Group 3">
                <path id="Path_16" data-name="Path 16" class="cls-3" d="M151.26,0L23.96,26.96s42.68,61.65,51.92,81.62c0,0,18.97,35.19,21.71,80.87l2.65-1.55s13.82-44.63-16.12-108.03l-18.72-35.94,72.63-13.73,18.47,25.71,25.96-1L151.26,0Z"/>
              </g>
            </g>
            <g id="Shape_2" data-name="Shape 2">
              <g id="Group_4" data-name="Group 4">
                <path id="Path_17" data-name="Path 17" class="cls-3" d="M27.46,51.08l-21.97,11.32c56.07,53.91,77.38,95.97,77.38,95.97l2.5-5.37c-9.24-33.2-57.91-101.92-57.91-101.92Z"/>
              </g>
            </g>
          </g>
        </g>
      </g>
    </g>
  </g>
</svg>