<?xml version="1.0" encoding="UTF-8"?>
<svg id="Layer_2" data-name="Layer 2" xmlns="http://www.w3.org/2000/svg" viewBox="0 0 1373.83 247.13">
  <defs>
    <style>
      .cls-1 {
        fill: #000;
      }

      .cls-1, .cls-2 {
        stroke-width: 0px;
      }

      .cls-2 {
        fill: #fff200;
      }
    </style>
  </defs>
  <g id="Layer_2-2" data-name="Layer 2">
    <g>
      <g>
        <path class="cls-2" d="M1373.76,196.45c-1.06-9.22-.96-19.75-4.1-28.54-1.05-2.94-2.47-5.54-4.09-8.17-.37-.59-.6-.94-.75-1.15-.03-.19-.13-.58-.38-1.32-.34-1.84-.45-2.1-.34-.79-.11-1.09-.19-2.18-.22-3.28-.08-2.23-.01-4.45.06-6.68.61-18.31-3.03-35.63-7.11-53.38-2-8.71-3.71-16.39-4.17-24.53-.51-9.02-.04-18.02-2.55-26.83-2.45-8.59-6.65-18.14-11.78-25.54-6.9-9.95-18.17-11.84-29.59-11.61-7.84.15-15.37,6.79-15,15,.36,7.99,6.59,15.17,15,15,1.88-.04,3.81-.09,5.71.07.07.14.16.28.23.42,1,1.87,1.96,3.76,2.9,5.66,3.18,6.43,4.7,11.83,4.86,19.01.37,16.57,3.38,32.31,7.1,48.41.88,3.83,1.75,7.66,2.51,11.51.69,3.47,1.3,6.92,1.55,9.36.76,7.53.16,14.94.23,22.47.08,8.83,1.93,17.34,6.74,24.84.4.77.66,1.24.8,1.45.22.82.41,1.64.54,2.48-.53-2.86.28,2.68.3,2.86.51,4.43,1.02,8.86,1.53,13.28.9,7.77,6.26,15.39,15,15,7.36-.33,15.96-6.65,15-15Z"/>
        <path class="cls-2" d="M1191.8,2.39c-7.66-1.62-16.58,2.25-18.45,10.48-1.66,7.31,2.05,16.15,9.77,18.26,0,.06,0,.1,0,.12-.25,1.58-.7,3.21-1.05,4.74-1.72,7.57-3.54,15.13-5.22,22.71-3.44,15.45-6.36,31.1-7.47,46.91-1.1,15.69.58,30.97,3.72,46.34,1.47,7.18,2.68,12.3,2.51,19.49-.09,4.09-1.17,7.79-2.72,11.43-3.63,2.59-6.1,6.53-5.87,11.58.33,7.39,6.65,15.92,15,15,7.41-.82,12.7-2.82,16.12-9.89,2.11-4.37,4.16-8.91,5.45-13.6,2.67-9.72,2.19-19.48.76-29.32-1.13-7.71-3.31-16.22-4.39-23.33-1.38-9.08-1.22-18.57-.58-27.7,1.22-17.35,5.41-34.87,9.44-52.21,2.22-9.58,5.6-19.66,3.75-29.55-1.97-10.5-10.21-19.23-20.76-21.46Z"/>
        <path class="cls-2" d="M1036.83,141.89c-3.27-14.89-5.01-30.36-6.94-45.18-2.09-16.06-3.01-32.67-6.83-48.42-3.66-15.1-9.56-33.11-25.66-38.54-7.44-2.51-16.72,2.89-18.45,10.48-1.73,7.58,1.8,14.44,8.48,17.63.58,1.02,1.31,2.31,1.36,2.4.91,1.83.18.16,1.11,2.55.53,1.37,1.03,2.75,1.51,4.14,2.23,6.52,3.79,13.24,4.76,20.07,1.91,13.44,3.61,29.13,5.53,43.4,1.95,14.44,3.62,29.04,7.06,43.22,3.35,13.78,9.22,26.74,13.04,40.37,2.19,7.8,10.61,12.63,18.45,10.48,7.81-2.15,12.67-10.62,10.48-18.45-4.17-14.89-10.59-29.01-13.91-44.15ZM986.72,36.62s.23.38.53.89c-.43-.32-.7-.64-.53-.89Z"/>
        <path class="cls-2" d="M854.78,3.54c-7.84.11-15.37,6.82-15,15,.29,6.48,4.41,12.35,10.41,14.31-.16.68-.31,1.35-.44,2.03-1.68,8.51.35,15.93.62,23.39.53,15.17-3.31,28.91-4.8,44.34-.68,7.03.04,14.1-.56,21.1.02-.72-.66,3.72-.61,3.48-.37,1.8-.75,3.58-1.02,5.4-.76,5.27-.67,9.97.47,15.21,1.36,6.3,3.79,12.99,4.2,18.43.58,7.69.21,15.41-.16,23.1-.38,7.85,7.17,15.35,15,15,8.45-.38,14.59-6.59,15-15,.42-8.61.8-17.25-.08-25.84-.48-4.67-1.13-9.37-2.3-13.93-.69-2.71-2.42-7.95-2.73-9.34-.57-2.57.99-6.86,1.52-10.38.68-4.56.85-8.97.79-13.58-.1-7.99.55-15.38,1.66-22.64,1.33-8.68,2.84-17.38,3.44-26.15.29-4.29.35-8.61-.03-12.89-.23-2.56-.6-5.12-.96-7.67-.33-2.31-.64-2.77-.48-4.12.05,0,.79-3.45.75-3.3.39-1.68.78-3.34,1.06-5.05.82-4.95.89-9.83-.63-14.66-3.55-11.27-13.85-16.42-25.09-16.25Z"/>
        <path class="cls-2" d="M720.96,176.5c-.31-.53-.53-.9-.67-1.14-.21-.75-.39-1.51-.53-2.27.08.15-.37-3.73-.35-3.48-.18-1.92-.37-3.84-.56-5.77-.44-4.48-.92-8.97-1.43-13.44-2.03-17.61-4.58-35.19-8.54-52.48-1.93-8.43-4.16-16.78-6.69-25.05-2.28-7.46-5.11-14.8-6.73-22.44-1.19-5.6-.71-13.25-2.18-20.22-2.34-11.06-10.17-20.05-21.91-20.65-7.85-.4-15.35,7.19-15,15,.26,5.79,3.24,10.47,7.79,12.99.1.37.18.61.2.53.29,2.62.26,5.3.45,7.92.51,7.15,1.91,14.09,4.01,20.93,4.35,14.18,8.81,28.2,11.97,42.72,3.05,13.99,5.16,27.84,6.74,41.72.83,7.26,1.44,14.55,2.22,21.82.44,4.06.86,8.17,2.25,12.03.7,1.95,1.57,3.96,2.63,5.74.02.03.05.06.07.1.22,5.13,3.15,10.28,7.48,12.81,7.45,4.36,15.91,1.3,20.52-5.38,3.83-5.54,3.35-12.63.44-18.41-.64-1.27-1.36-2.41-2.17-3.57Z"/>
        <path class="cls-2" d="M527.6,73.83s-.07.05-.1.07c.02,0,.04-.02.06-.03.01-.01.02-.03.03-.04Z"/>
        <path class="cls-2" d="M563.46,117.73c-1.71-2.55-3.73-4.94-5.73-7.25-2.45-2.84-2.06-2.02-3.61-4.89-.07-.16-.14-.34-.22-.55-.67-1.66-1.32-3.32-2.05-4.96-.85-1.91-1.81-3.7-3.01-5.37,4.05-4.31,7.2-9.65,10.02-14.84,6.45-11.93,9.01-23.65,6.44-37.06-2.29-11.94-6.85-23.68-17.51-30.51-11.16-7.15-26.66-8.98-39.6-9.51-13.97-.58-28.26,1.54-41.51,5.95-7.68,2.56-12.7,10.35-10.48,18.45,2.06,7.51,10.73,13.04,18.45,10.48,17.94-5.97,37.05-7.24,54.98-1.06.25.09.42.14.55.18.1.06.22.12.37.2.13.07,1,.64,1.58.99.1.24.72.99.87,1.06.27.52.6,1.15.66,1.27.1.19.17.32.22.41.06.25.12.54.22.94.25.99.58,1.96.84,2.95.6,2.3,1.19,4.65,1.57,6.99.02.13.04.22.05.32,0,.14,0,.32,0,.58,0,.22-.03,2.52.02,2.6-.2,1.11-.95,3.82-1.48,5.23-.33.86-1.22,2.65-2.16,4.4-1.26,2.33-2.62,4.62-4,6.87-.47.77-.94,1.55-1.45,2.3-.11.05-.23.09-.36.13-5.92,1.77-11.38,4.95-14.55,10.43-3.62,6.26-2.75,14.03,1.02,19.93,1.86,2.91,4.63,5.41,7.62,7.14.8.47,1.7.8,2.54,1.19.13.06.71.29,1.27.52.04.11.1.26.18.46,1.01,2.57,1.98,5.22,3.32,7.63,2.52,4.54,6.41,8.01,9.48,12.12-1.28-1.72.93,2.25,1.05,2.05.33,1.31,1,4.41.98,3.75.24,2.36.22,4.77.15,7.14-.03,1.13-.08,2.25-.15,3.38-.02.31-.38,3.29-.23,2.63-.17.87-.41,1.89-.74,2.77.06-.39-1.66,2.6-1.62,2.55-1.13,1.74-2.69,3.76-3,4.14-3.28,4.03-6.82,7.84-10.6,11.4-7.19,6.77-14.15,11.53-23.69,16.48-7.19,3.73-9.32,13.78-5.38,20.52,4.26,7.29,13.31,9.13,20.52,5.38,19.12-9.93,37.81-25.42,48.9-44.15,6.61-11.17,7.05-25.62,5.08-38.17-.86-5.49-2.74-10.96-5.85-15.6ZM525.86,113.62s-.1-.07-.15-.11c.54.22.82.35.15.11ZM527.49,73.9s-.02.04-.03.05c.01-.02.02-.04.04-.06,0,0,0,0,0,0,0,0,0,0,0,0,.98-1.46.56-.65.1-.07.6-.42.71-.42.53-.28-.1.06-.26.15-.43.26-.04.02-.09.04-.13.06-.01.02-.03.03-.04.05-.22.14-.43.28-.52.35.19-.14.35-.26.49-.36ZM554.12,105.61c.28.56.79,1.95,0,0h0Z"/>
        <path class="cls-2" d="M395.94,54.35c-.4-4.35-1.12-8.65-1.96-12.93-.65-3.26-.79-3.51-.71-7.35.16-8,.43-16.51-4.73-23.23-5.58-7.25-16.3-10.87-23.56-3.04-3.87,4.17-8.01,8.01-12.46,11.55-6.35,5.04-5.27,15.94,0,21.21,3.44,3.44,7.57,4.62,11.66,4.15.95,6.2,2.18,11.65,2.11,18.12-.16,15.29-4.69,30.07-7.7,45.41-3.16,16.15-4.93,32.52-1.53,48.79.79,3.81,2.05,7.39,3.43,11.02,1.44,3.8,1.59,4.15,1.18,6.74-.76,4.8-2.05,9.66-.82,14.5.71,2.79,2.23,5.7,4.3,7.77,0,0,0,0,0,0,.9,3.73,3.18,7.1,6.82,9.23,6.74,3.94,16.77,1.83,20.52-5.38,2.63-5.06,3.44-10.18,1.7-15.65-.65-2.03-1.7-4.08-3.05-5.83.2-1.38.39-2.76.53-4.13.48-4.54-.15-9.23-1.64-13.53-1.17-3.39-2.56-6.63-3.45-10.13-.92-3.6-1.16-5.55-1.33-8.2-.94-14.83,2.16-27.12,5.39-41.72,3.41-15.43,6.77-31.49,5.3-47.36ZM371.52,201.32c-.18-.18-.36-.36-.54-.54,2.56.98,2.75,1.16.54.54ZM383.33,173.49c.14.19.29.37.43.56-2.16-.8-2.31-.99-.43-.56ZM390.48,183.5c.1.82-.14,1.11,0,0h0Z"/>
        <path class="cls-2" d="M300.66,165.63c-8.51-.23-16.99-.81-25.44-1.82-3.23-.39-6.33-.87-10.04-1.52-.35-.06-.82-.19-1.33-.34-1.58-6.87-1.87-13.1-2.78-20.72-1.06-8.79-2.83-17.06-5.27-25.55-4.2-14.57-3.99-30.71-2.61-46.3.64-7.18,3.09-15.66,3.66-23.73.29-4.18-.27-8.24-.71-12.38-.19-1.74-.25-3.46-.4-5.2.13-1.59.11-2.09-.05-1.52.21-.96.49-1.89.87-2.8,3.61-10.13-5.6-17.95-14.46-18.99-5.84-.68-11.68-1-17.56-.97-6.04.04-13.36,4.59-14.46,11.01-1.6,9.36-1.57,18.35.97,27.57,1.82,6.61,8.18,11.05,14.82,10.97-1,5.82-2.37,12-2.81,17.89-.69,9.31-.64,18.81-.26,28.13.43,10.35,2.89,19.78,5.65,29.67,2.52,9.03,2.93,15.68,4,24.86,1.14,9.73,1.84,22.89,8.86,30.45,6.68,7.2,18.94,7.78,28.58,8.81-.03,2.55.59,5.13,1.97,7.49,4.01,6.86,13.62,9.68,20.52,5.38,6.8-4.23,13.18-9.2,18.9-14.8,9.52-9.31,2.15-25.26-10.61-25.61Z"/>
        <path class="cls-2" d="M159.96,112.16c-.27-5.46-1.94-10.32-4-15.3-.92-2.24-1.71-4.47-2.5-6.75-.06-.17-.31-1.45-.37-1.54-.08-1.43.04-2.93.13-4.34.03-.45.06-.81.08-1.09.15-1.31.36-2.61.54-3.91.45-3.26.91-6.53,1.36-9.79.85-6.14,2.02-12.34,2.39-18.53.64-10.94-3.07-21.48-9.74-30.05-6.97-8.97-17.15-15.72-28.48-17.51-14.21-2.25-27.75,2.77-41.19,6.75-7.77,2.3-12.65,10.54-10.48,18.45,2.12,7.72,10.65,12.78,18.45,10.48,8.71-2.58,17.97-6.14,26.5-6.42.25,0,.45-.01.63-.02.71.14,1.43.3,2.12.49.73.2,1.46.44,2.18.7.15.09.32.2.54.33.58.36,1.19.67,1.77,1.04.16.1.78.54,1.22.84.41.36,1,.88,1.14,1.01.69.66,1.35,1.36,1.98,2.07-.8-.82,1.56,2.46,1.9,3.01.14.22.42.84.56,1.13.18.52.35,1.05.49,1.58.18.64.31,1.28.46,1.92,0,.05,0,.08,0,.14.02,2.5-.08,4.93-.36,7.42.09-.8.33-2.36-.18,1.32-.18,1.31-.36,2.61-.54,3.92-.32,2.28-.63,4.57-.95,6.85-.82,5.94-1.89,11.9-2.37,17.87-.79,9.8,2.85,18.42,6.35,27.32.05.14.23.52.4.86.04.51.13,1.61.21,1.3-.22,1.79-1.03,3.72-1.57,5.37-1.89,5.68-3.3,11.13-3.78,17.14-.43,5.31.19,10.82,1.33,16.01.43,1.97,1.42,4.66,1.7,6.16.34,1.8.03,2.65-.27,3.94-.92,3.95-1.76,7.91-2.92,11.8-1.35,4.53-1.62,5.98-4.37,9.68-.05.04-.21.22-.6.65-.91,1.02-1.89,1.98-2.91,2.9-.81.74-1.66,1.44-2.5,2.15-.38.32-.67.56-.89.74-.23.15-.63.44-1.31.94-3.94,2.89-7.83,5.83-11.88,8.56-9.09,6.14-16.17,9.97-26.56,11.75-7.99,1.37-12.47,11.19-10.48,18.45,2.32,8.45,10.44,11.85,18.45,10.48,11.04-1.9,21.48-6.87,30.85-12.88,9.18-5.89,18.93-12.46,26.73-20.1,8.13-7.96,12.68-18.38,15.47-29.26,1.4-5.45,2.8-11.09,3.18-16.72.42-6.25-2.08-12.46-2.98-17.98-1.64-9.98,5.64-20.15,5.08-31.34ZM153.3,83.15c.12-1.64.07-.63,0,0h0ZM117.03,33.45c-.17-.1-.21-.13,0,0h0Z"/>
      </g>
      <g>
        <g>
          <path class="cls-2" d="M144.39,118.54c-.14-5.47-1.26-10.87-2.29-16.23-.51-2.63-.69-3.14-.72-5.56,0-.28.1-1.13.15-1.7.15-.22.35-.54.64-.99,3.13-4.91,2.18-11.58-1.21-16.21.26-1.1.39-2.24.33-3.41-.7-12.55.99-27.52-8.19-37.37-.31-.33-.51-.5-.64-.59,0-.17-.06-.45-.18-.91-.77-2.93-1.98-5.8-3.27-8.53-2.11-4.49-5.35-8.78-9.02-12.12C102.77-.78,75.74-.03,59.79,17.25c-1.37,1.48-2.36,3.09-3.01,4.76-10.24,6.94-17.67,18.25-16.81,30.98.05.7,1.27,7.71,2.09,9.5-.17.43-.33.87-.5,1.26-1.29,2.95-2.15,5.55-2.62,8.72-1.21,8.22,1.42,16.81,1.79,24.18.37,7.52-4.08,15.46-4.07,23.6.01,9.26,2.44,18.79,3.95,27.91,1.53,9.25,2,19.61,5.57,28.33,1.77,4.33,4.31,7.74,7.35,11.3.32.37,1.85,2.16,2.16,2.43.1.19.22.4.33.6.48,7.65,6.89,12.78,14.29,13.36,1.79.14,3.58.15,5.36.08,6.71,7.29,16.99,11.68,26.69,10.72,14.19-1.41,26.37-11.38,29.7-25.45.34-1.46.45-2.89.39-4.28.69-.82,1.36-1.67,2-2.56,2.85-3.97,5.07-8.44,7.04-12.9,3.28-7.4,3.29-13.5,1.77-21.36-1.86-9.63,1.4-19.99,1.14-29.87ZM66.68,130.98c-.68-4.11-1.84-8.61-1.29-12.81.5-3.84,2.32-7.53,3.1-11.34,1.24-6.06.93-11.55.05-17.61-.56-3.82-1.4-7.19-1.46-10.51,0-.53.24-2.89.05-2.49.71-2.38,2.34-4.6,3.02-7.01,1.61-5.71.63-10.76-1.13-16.26-.18-.46-.32-.94-.45-1.42.04-.04.05-.46.03-1.27.19-.24.39-.51.37-.47,1.27-2.34,1.96-3.04,4.4-4.49,2.36-1.4,3.58-1.76,7.05-1.76,8.48,0,16.56,4.17,23.93,7.94,1.59.82,3.29,1.36,5,1.62.45.69.94,1.37,1.5,2.03.24.3.51.57.77.86.05,1.13.14,3.01.16,3.42.28,5.01.56,10.02.83,15.02.01.21.04.41.06.61-5.07,2.21-8.77,6.72-8.77,12.91,0,5.53,3.92,11.49,9.27,13.59.28,2.78.74,5.58,1.28,8.38,1.74,9.08.67,17.33-.13,26.96-.45,5.48-.26,10.82.68,16.24.81,4.69,1.24,3.46-.96,7.74-4.14,8.04-6.49,9.94-15.12,11.68-3.01.61-5.53,2.42-7.34,4.82-3.39-2.46-8.21-3.31-12.07-2.56-1.84-2.62-4-5.14-6.2-7.87,1.62,2-.9-2.22-.8-1.6-.51-1.5-.67-3.16-.94-4.72-.87-4.93-1.64-9.89-2.45-14.83-.82-4.94-1.64-9.89-2.46-14.83Z"/>
          <path class="cls-2" d="M373.2,116.33c.15-.56.26-1.12.34-1.7.5-1.9,1-3.81,1.49-5.72,1.12-4.33.09-8.21-2.09-11.21-.03-2.67.02-5.33.23-7.98.42-.74.79-1.52,1.12-2.33,2.55-6.37,3.71-12.95,4.23-19.79.27-3.64-1.15-6.75-3.47-9.09.73-2.33,1.07-4.71,1.04-7.13.25-.47.55-.98.94-1.6,3.25-5.15,2.06-12.49-2.16-16.71-.06-.06-.14-.12-.2-.18.32-.61.61-1.24.85-1.87,3.17-8.13.26-16.52-7.04-21.2-6.27-4.02-15.21-1.29-18.86,4.95-1.44,2.45-1.99,5.11-1.81,7.69-1.44,1.86-2.55,3.75-3.31,6.11-1.29,3.95-1.25,8.17-.31,12.2.46,1.99,1.2,3.91,2.01,5.8-1.33,3.49-2.18,7.28-2.64,11.42-.46,4.06-.62,8.24-.32,12.33.26,3.51.88,6.82,2.57,9.95.33.57.7,1.11,1.07,1.65-1.36,9.33-1.37,18.84-.9,28.56-2.3,8.02-4.56,16.29-4.44,24.37.09,6.32,1.91,11.87,5.14,16.44-.35,1.48-.88,3.01-1.74,4.74-3.59,7.2-6.91,13.72-6.83,22.02.08,7.93,2.51,15.86,5.62,23.08,4.19,9.75,14.95,13.34,23.97,7.41,6.82-4.48,9.86-12.64,9.59-20.57-.11-3.1-.71-6.29-1.59-9.27-.8-2.69-2.62-6.58-2.51-8.88.11-2.35,1.35-5.99.46-9.24-.12-.45-.28-.9-.45-1.35.15-.56.29-1.13.41-1.7,2.19-2.66,3.61-6.03,3.87-9.18.58-6.9,1.15-13.81,1.73-20.71.37-4.39-2.34-8.72-5.98-11.29ZM373.64,112.2s0,0,0,0c-.05-3.11.14-.25,0,0Z"/>
          <path class="cls-2" d="M1108.03,134.64c.88,17.76,1.94,35.52,2.48,53.29.09,3.14-1.11,7.34-3.3,9.24-2.5,2.17-6.96,3.47-10.17,2.9-1.83-.32-3.9-5.05-4.08-7.91-.42-6.75.27-13.56.43-20.35.4-17.07,1.09-34.15,1.03-51.22-.07-21.47-.52-42.95-1.3-64.41-.32-8.95-1.81-17.87-2.95-26.78-.97-7.61-.11-9.15,6.6-10.65,6.18-1.38,9.48.92,11.63,6.9,8.23,22.92,16.32,45.9,25.26,68.54,4.01,10.16,9.52,19.8,15.18,29.18,1.63,2.71,6.11,5.06,9.33,5.11,4.11.07,5.78-4.31,5.69-8.19-.23-10.8-1.06-21.59-1.17-32.39-.09-8.17.54-16.35.91-24.52.09-2.01.59-4,.66-6.01.36-10.04.54-20.09,1.01-30.13.24-5.12,3.84-8.89,7.86-8.86,4.31.03,7.65,4.02,7.61,9.58-.05,5.68-.54,11.35-.67,17.03-.2,8.43-.12,16.86-.4,25.28-.49,14.46-1.28,28.9-1.7,43.36-.14,4.74.79,9.5.71,14.25-.18,10.55-.76,21.1-1.05,31.65-.24,8.44-.48,16.9-.37,25.34.06,4.75-.53,8.61-5.5,10.85-5.36,2.41-9.84.63-13.6-2.76-3.49-3.15-6.39-7-9.22-10.79-1-1.34-1.56-3.46-1.4-5.14.59-6.15-1.21-11.46-4.33-16.69-8.64-14.49-11.93-31.02-17.43-46.71-2.69-7.67-5.68-10.92-10.26-10.38-4.5.54-6.99,4.76-7.27,12.65-.11,3.12.04,6.25.05,9.37.01,3.12,0,6.24,0,9.37-.1,0-.2,0-.3,0Z"/>
          <path class="cls-2" d="M782.54,126.7c.88,12.61,1.73,23.76,2.41,34.93.55,9.16,1.04,18.32,1.27,27.49.12,5.05-2.37,8.79-7.23,10.58-6.87,2.54-11.78-1.08-11.54-8.32.61-18.32,1.09-36.64,1.75-54.95.5-14.06,1.62-28.11,1.63-42.16,0-9.68-1.31-19.36-2.25-29.02-1.14-11.69-2.74-23.34-3.67-35.04-.36-4.56-1.03-10.09,5.69-11.37,6.88-1.3,11.27,1.82,13.67,8.61,4.74,13.38,9.8,26.65,14.72,39.97,3.23,8.75,5.92,17.75,9.8,26.2,5.02,10.94,10.78,21.57,16.74,32.04,1.03,1.81,5.11,3.52,6.91,2.87,2.47-.9,5.7-4.01,5.81-6.31.46-9.42-.23-18.89-.33-28.34-.11-10.15-.06-20.3,0-30.44,0-1.43,1.02-2.95.75-4.26-2.33-11.25.55-22.16,1.82-33.2.52-4.54,3.59-7.79,8.08-7.86,3.93-.06,7.24,3.4,7.18,8.03-.33,22.93-.95,45.86-1.1,68.79-.07,11.1.91,22.2.94,33.3.02,7.49-.93,14.98-1.23,22.48-.46,11.36-.89,22.73-.99,34.1-.03,3.59.75,7.51-3.32,8.96-4.76,1.7-9.86,5.45-14.86.59-5.87-5.72-11.88-11.05-12.32-20.55-.24-5.22-3.52-10.31-5.47-15.44-4.35-11.42-8.72-22.84-13.11-34.25-2.23-5.8-4.2-11.74-6.98-17.26-1.05-2.09-4.31-4.64-6.15-4.34-2.25.36-5.28,3.18-5.82,5.46-1.56,6.54-2.04,13.33-2.77,18.72Z"/>
          <path class="cls-2" d="M222.85,43.99c0,15.03-.19,30.07.11,45.09.1,5.09,1.44,10.15,2.2,15.22,1.39,9.23,4.32,18.55,3.79,27.68-.69,11.93,4.79,23.94-.67,35.79-.99,2.15-.73,5.1-.42,7.6.77,6.19,4.03,8.97,10.12,8.18,5.42-.69,10.18.05,15.41,2,5.13,1.91,11.16,1.47,16.81,1.93,3.28.27,6.65-.09,9.87.47,5.26.91,6.4,3.65,3.9,8.24-3.84,7.04-10.55,9.57-17.88,6.98-2.02-.71-4.29-1.05-6.44-1.05-15.77-.01-31.54.2-47.3.12-4.18-.02-6.17-2.91-6.34-6.88-.62-15.01-1.13-30.02-1.75-45.03-.18-4.38-.64-8.75-.9-13.14-.13-2.17-.56-4.46-.1-6.52,4.02-18.17,3.72-36.41,1.13-54.7-.08-.54-.11-1.1-.11-1.65-.02-12.95-.22-25.91.09-38.86.07-3.1,1.5-6.32,2.88-9.2,1.69-3.52,4.91-6.73,8.69-4.46,3,1.8,5.65,5.61,6.59,9.04,1.12,4.1.27,8.75.27,13.15.02,0,.04,0,.06,0Z"/>
          <path class="cls-2" d="M1300.9,18.7c-.16,0,.94-.04,2.05,0,9.76.37,10.91,1.65,11.44,11.31.21,3.82,1.14,7.59,1.7,11.4,1.03,7.06,1.79,14.16,3.09,21.17,1.54,8.27,3.46,16.47,5.33,24.68,2.45,10.72,4.84,21.45,7.56,32.1,2.9,11.33,6.37,22.51,9.17,33.86,1.53,6.21,1.93,12.69,3.32,18.94,1.15,5.14,2.75,10.22,4.65,15.13,1.97,5.09,1.12,9.45-3.03,11.88-4.58,2.69-10.74,1.34-13.92-2.37-6.29-7.33-7.61-16.02-7.82-25.16-.15-6.52-1.97-8.76-8.41-9.1-8.98-.48-17.99-.57-26.99-.59-7.32-.01-12.16,3.89-14.36,10.69-1.52,4.69-2.41,9.59-3.52,14.4-1.25,5.4-2.06,11.36-8.44,13.03-2.7.7-6.68.43-8.61-1.17-1.5-1.24-1.51-5.43-.84-7.95,2.2-8.32,5.3-16.4,7.43-24.73.93-3.63.7-7.67.39-11.48-.73-8.79,1.03-16.74,4.32-25.09,3.35-8.51,3.7-18.2,5.33-27.37.29-1.62-.17-3.61.61-4.87,7.45-11.96,6.35-26.22,10.62-39.09,2.71-8.15,3.13-17.29,3.24-26.01.16-13.19,1.13-14.59,15.7-13.61ZM1305.86,150.67c1.77.21,2.58.53,3.22.33,3.69-1.14,8.43-1.46,10.63-3.97,1.44-1.64-.53-6.59-1.44-9.93-2.13-7.82-7.03-15.07-4.54-23.81.33-1.17.16-2.59-.14-3.81-3.23-13.15-6.46-26.3-9.84-39.41-1.3-5.03-5.6-7.65-8.78-5.2-1.8,1.38-3.05,4.09-3.58,6.42-1.69,7.49-2.93,15.09-4.33,22.65-2.54,13.69-5.35,27.33-7.5,41.08-1.76,11.27,3.27,16.52,14.7,16.29,4.21-.08,8.41-.45,11.58-.63Z"/>
          <path class="cls-2" d="M646.82,18.15c2.56.18,3.48.23,4.39.31,12.17,1.06,12.57,1.6,13.15,13.87.16,3.44,1.07,6.86,1.74,10.27.7,3.59,2.16,7.16,2.17,10.75.03,14.6,4.81,28.06,9.11,41.69,1.31,4.15,1.35,8.68,2.36,12.94,3.66,15.45,7.55,30.84,11.22,46.28,1.06,4.44,1.47,9.04,2.55,13.47,1.6,6.55,3.27,13.11,5.42,19.5,1.98,5.91,1.32,9.34-3.24,11.77-5.52,2.94-10.81,1.92-14.02-2.95-4.64-7.04-7.19-14.8-7.49-23.25-.28-7.94-1.7-9.84-9.59-10.29-8.97-.51-17.97-.52-26.96-.43-6.19.06-10.34,3.25-12.03,9.38-1.85,6.69-3.77,13.35-5.59,20.05-1.08,3.99-2.12,8.23-7.14,8.54-3.11.19-7.18.25-9.13-1.5-1.48-1.33-.87-5.76-.17-8.57,1.8-7.27,4.71-14.3,6.13-21.62,1.02-5.29.12-10.92.5-16.36.34-5.03-.13-10.79,2.16-14.87,5.84-10.41,5.64-21.89,7.77-32.96.17-.89-.15-1.94.19-2.73,5.16-11.98,7.83-24.63,9.95-37.4,1.82-10.94,3.35-21.94,4.93-32.92.18-1.25-.14-2.56-.16-3.84-.09-7.25,1.38-8.83,8.47-9.1,1.65-.06,3.3,0,3.3,0ZM651.48,151.18v-.52c2.56.14,5.12.33,7.68.41,10.39.31,13.34-5.85,9.07-13.97-2.97-5.65-4.02-12.43-5.31-18.83-1.07-5.31-.91-10.85-1.89-16.19-1.59-8.63-3.56-17.2-5.61-25.74-.8-3.34-1.82-6.76-3.49-9.73-2.3-4.11-6.91-4.15-9.17-.03-1.53,2.79-2.09,6.18-2.72,9.37-.85,4.3-1.26,8.69-2.04,13-2.89,15.84-5.98,31.64-8.77,47.49-1.5,8.5,2.71,13.88,11.28,14.67,3.63.33,7.31.06,10.97.06Z"/>
          <path class="cls-2" d="M974.11,18.63c2.02,0,4.07-.25,6.04.05,4.46.69,7.81,2.44,8.41,7.78,1.48,13.26,3.17,26.5,5.13,39.69.49,3.34,2.65,6.4,3.43,9.73,3.79,16.03,7.33,32.12,11.05,48.16,1.68,7.27,3.64,14.48,5.35,21.74,1.26,5.33,2.13,10.75,3.53,16.04,2.29,8.66,5.02,17.21,7.27,25.88,1.54,5.92-.28,10.19-4.58,12.18-4.46,2.06-9.54.5-13.22-3.72-5.9-6.77-5.92-15.2-6.58-23.35-.67-8.29-1.47-9.75-9.52-10.27-8.6-.55-17.24-.67-25.87-.71-7.4-.04-12.71,3.47-14.89,10.65-1.48,4.88-2.57,9.92-3.31,14.96-1.23,8.47-4.48,12.33-12.05,13.41-6.31.9-9.36-2.88-7.29-9.02,1.93-5.73,3.56-11.57,5.84-17.15,3.05-7.44,3.11-15.02,2.02-22.74-.85-6.02-.01-11.47,3.36-16.81,1.97-3.12,2.68-7.14,3.52-10.86,2.41-10.72,4.63-21.48,6.88-32.23,3.75-17.91,7.53-35.82,11.1-53.77.49-2.44-.02-5.11-.27-7.66-.91-9.32,2.06-12.59,11.35-12.34,1.1.03,2.2.09,3.3.14,0,.07,0,.14,0,.21ZM976.81,150.91s0-.08,0-.12c3.85,0,7.74.31,11.55-.07,6.14-.6,9.32-5.54,6.61-11.01-5.21-10.49-8.47-21.2-7.96-33.11.18-4.23-1.7-8.56-2.71-12.83-1.5-6.39-3.1-12.76-4.57-19.16-.33-1.42.16-3.18-.51-4.33-1.28-2.21-3.12-5.73-4.73-5.74-2.54,0-5.6,1.98-7.47,4.01-1.41,1.53-1.47,4.43-1.84,6.76-.76,4.7-.93,9.54-2.07,14.14-3.94,16.04-8.22,31.97-8.62,48.66-.19,7.85,1.95,11.47,9.69,12.7,4.11.65,8.41.12,12.63.12Z"/>
          <path class="cls-2" d="M492.35,200.09c-11.19,0-22.37-.05-33.56.02-5.21.03-7.44-1.89-7.39-7.18.29-26.78.76-53.55.97-80.33.16-19.2,0-38.41,0-57.61,0-8.99-.12-17.98.1-26.96.16-6.51,1.18-6.99,7.54-6.85,10.05.22,20.12-.11,30.17.15,5.81.15,11.77.3,17.36,1.67,8.84,2.17,13.48,9.51,17.84,16.81.37.62.38,1.5.82,2.03,9.77,11.61,5.64,24.47,3.6,37.24-1.49,9.33-6.79,15.88-13.96,21.5-6.88,5.38-6.39,11.73.73,17.05,9.26,6.93,14.69,16.49,17.92,27.37,1.3,4.38,2.47,8.87,2.96,13.39.41,3.73-.15,7.58-.53,11.36-.2,1.99-1.42,3.93-1.37,5.87.27,10.75-7.53,16.28-14.55,21.94-2.39,1.93-6.57,2.03-9.97,2.2-6.22.33-12.47.09-18.7.09,0,.07,0,.14,0,.22ZM520.97,155.49c-1.14-10.99-6.72-27.57-20.11-31.58-3.86-1.16-7.76-2.22-11.69-3.11-9.08-2.07-18.31,3.05-20.42,12.02-.96,4.1-.27,8.64-.04,12.97.5,9.32.67,18.7,1.96,27.92,1.18,8.45,6.8,12.36,15.27,11.39,5.07-.58,10.06-1.97,15.02-3.27,12.39-3.26,20.13-13.54,20.02-26.33ZM469.47,70.46c.24,0,.49.01.73.02,0,5.51-.23,11.03.05,16.53.52,10.14,8.78,18.2,17.59,17.5,15.39-1.23,29.28-17.84,27.72-33.22-.33-3.29-1.12-6.55-1.19-9.84-.27-12.53-5.53-20.85-17.92-25.26-11.39-4.05-23.33.96-25.57,12.9-1.31,6.97-.99,14.24-1.41,21.37Z"/>
        </g>
        <g>
          <path class="cls-1" d="M1193.67,41.07c0,14.09.17,28.19-.12,42.28-.08,3.76-1.29,7.57-2.46,11.21-2.67,8.3-3.54,16.64-2.59,25.36.7,6.42.37,12.95.59,19.43.34,9.89,1.05,19.77,1.06,29.66,0,10.43-.33,20.89-1.16,31.29-.22,2.76-2.29,5.8-4.34,7.91-8.5,8.74-17.66,16.84-25.88,25.82-5.42,5.92-12.59,8.11-19.45,9.08-5.31.75-11.3-2.45-14.19-8.49-2.91-6.08-5.91-12.12-9.07-18.07-1.67-3.16-4.44-4.82-7.58-2.16-5.15,4.37-10.19,8.92-14.84,13.8-4.78,5.02-8.58,11.03-13.66,15.69-6.2,5.68-12.89-.21-19.22-1.1-2.25-.31-5.49-4.91-5.54-7.61-.22-11.52.76-23.07.91-34.61.06-4.81-.88-9.64-1.34-14.46-.29-3.02-.64-6.03-.78-9.06-.45-10.05-.87-20.11-1.2-30.17-.36-11.08-.68-22.17-.88-33.25-.31-17.03-.74-34.07-.61-51.1.03-4.54.63-10.04,3.19-13.43,9.64-12.8,19.34-25.79,30.69-37.02,9.02-8.93,20.76-9.28,29.62-.9,4.88,4.62,8.85,10.18,9.64,17.46.32,2.9,2.01,5.64,3.08,8.46,2.48-1.59,5.39-2.78,7.36-4.86,5.91-6.24,10.9-13.45,17.28-19.12,8.41-7.47,18.17-12.16,30.08-7.93,6.23,2.21,9.67,6.37,10.22,12.86.65,7.66,1.14,15.34,1.71,23.01-.17.01-.34.02-.52.03ZM1108.03,134.64c.1,0,.2,0,.3,0,0-3.12,0-6.24,0-9.37-.01-3.12-.16-6.25-.05-9.37.28-7.89,2.77-12.11,7.27-12.65,4.58-.55,7.57,2.71,10.26,10.38,5.5,15.69,8.79,32.23,17.43,46.71,3.12,5.23,4.92,10.53,4.33,16.69-.16,1.68.4,3.8,1.4,5.14,2.83,3.79,5.73,7.64,9.22,10.79,3.76,3.39,8.24,5.17,13.6,2.76,4.97-2.24,5.56-6.1,5.5-10.85-.11-8.44.13-16.9.37-25.34.3-10.55.87-21.1,1.05-31.65.08-4.74-.84-9.51-.71-14.25.42-14.46,1.21-28.91,1.7-43.36.28-8.42.2-16.86.4-25.28.13-5.68.62-11.35.67-17.03.05-5.56-3.3-9.55-7.61-9.58-4.03-.03-7.62,3.74-7.86,8.86-.47,10.04-.64,20.09-1.01,30.13-.07,2.01-.57,4-.66,6.01-.38,8.17-1,16.35-.91,24.52.11,10.8.94,21.59,1.17,32.39.08,3.88-1.58,8.26-5.69,8.19-3.22-.05-7.7-2.4-9.33-5.11-5.66-9.38-11.17-19.02-15.18-29.18-8.94-22.64-17.03-45.62-25.26-68.54-2.15-5.98-5.44-8.28-11.63-6.9-6.71,1.5-7.57,3.04-6.6,10.65,1.13,8.91,2.62,17.83,2.95,26.78.78,21.46,1.23,42.94,1.3,64.41.05,17.07-.64,34.15-1.03,51.22-.16,6.79-.85,13.6-.43,20.35.18,2.86,2.24,7.58,4.08,7.91,3.21.57,7.68-.73,10.17-2.9,2.18-1.9,3.39-6.11,3.3-9.24-.54-17.77-1.6-35.53-2.48-53.29Z"/>
          <path class="cls-1" d="M728.73,225.85c.97-9.81,2.24-19.61,2.76-29.44.18-3.36-1.46-6.85-2.44-10.23-.54-1.87-2.42-3.94-1.99-5.42,3.37-11.5-.09-22.89-.13-34.31-.06-15.41.08-30.82-.1-46.22-.15-12.48-.15-25-1.14-37.42-.65-8.17,2.65-13.88,7.71-19.59,5.43-6.12,10.31-12.74,15.28-19.25,6.28-8.23,12.45-16.74,23.87-17.74,3.97-.34,8.92-.38,11.96,1.64,6.79,4.52,13.43,9.84,14.37,19.08.09.9.23,1.9.69,2.65,1.34,2.19,2.85,4.28,4.29,6.4,2.15-1.46,4.62-2.62,6.41-4.44,7.15-7.25,13.37-15.64,21.32-21.83,8.08-6.3,17.9-9.11,28.18-3.5,3.62,1.98,6.1,4.46,6.48,8.82.9,10.27,3.88,20.29,2.17,30.88-.82,5.08.89,10.51.82,15.77-.1,7.54.34,15.36-1.47,22.55-3.04,12.06-4.4,24.04-3.91,36.42.72,17.97,1.05,35.95,1.35,53.93.13,7.71,0,15.44-.51,23.13-.18,2.76-1.12,6.08-2.93,8-6.22,6.62-13,12.72-19.53,19.05-2.62,2.54-5.45,4.93-7.65,7.8-5.68,7.37-13.48,10.25-22.2,9.69-3.44-.22-7.64-2.78-9.81-5.58-4.12-5.3-7.22-11.44-10.41-17.41-3.65-6.83-8-7.6-13.18-1.87-6.87,7.6-13.84,15.11-20.41,22.97-6.7,8.02-14.59,4.88-22.13,2.61-7.26-2.19-7.5-8.63-7.3-14.9.02-.73,0-1.47,0-2.21-.14-.01-.28-.03-.42-.04ZM782.54,126.7c.73-5.38,1.21-12.18,2.77-18.72.54-2.27,3.58-5.1,5.82-5.46,1.84-.29,5.1,2.26,6.15,4.34,2.79,5.52,4.75,11.46,6.98,17.26,4.39,11.41,8.76,22.83,13.11,34.25,1.96,5.13,5.23,10.22,5.47,15.44.44,9.5,6.45,14.83,12.32,20.55,5,4.86,10.1,1.11,14.86-.59,4.07-1.46,3.29-5.37,3.32-8.96.11-11.37.54-22.74.99-34.1.3-7.5,1.25-14.98,1.23-22.48-.02-11.1-1.01-22.21-.94-33.3.15-22.93.77-45.86,1.1-68.79.07-4.63-3.24-8.09-7.18-8.03-4.49.07-7.56,3.31-8.08,7.86-1.26,11.03-4.15,21.94-1.82,33.2.27,1.31-.74,2.83-.75,4.26-.07,10.15-.12,20.3,0,30.44.1,9.45.79,18.92.33,28.34-.11,2.3-3.34,5.42-5.81,6.31-1.8.65-5.87-1.06-6.91-2.87-5.96-10.47-11.72-21.09-16.74-32.04-3.88-8.45-6.57-17.45-9.8-26.2-4.92-13.32-9.98-26.58-14.72-39.97-2.4-6.79-6.8-9.91-13.67-8.61-6.72,1.27-6.05,6.8-5.69,11.37.93,11.7,2.53,23.35,3.67,35.04.94,9.66,2.25,19.35,2.25,29.02,0,14.05-1.13,28.1-1.63,42.16-.65,18.31-1.14,36.63-1.75,54.95-.24,7.23,4.67,10.85,11.54,8.32,4.86-1.8,7.36-5.53,7.23-10.58-.23-9.17-.72-18.33-1.27-27.49-.67-11.17-1.53-22.33-2.41-34.93Z"/>
          <path class="cls-1" d="M239.49,62.71c0,13.94.13,27.88-.04,41.81-.15,12.27-.65,24.54-1.02,36.81-.02.71-.08,1.61-.51,2.09-6.09,6.92-1.66,13.76.05,20.63,2.38,9.62,8.41,13.33,18.52,12.17,9.59-1.1,19.39-1.43,29.02-.82,11.48.73,17.29,15.79,9.76,25.66-4.81,6.31-10.8,11.93-17.01,16.93-8.14,6.56-16.15,12.9-21.53,22.21-3.08,5.33-7.22,6.17-12.35,3.11-4.27-2.54-8.15-1.6-12.56-.99-7.48,1.03-15.09,1.11-22.65,1.49-7.84.39-15.69.53-23.52,1.03-16.92,1.08-17.73-6.43-18.87-17.88-.67-6.73-.11-13.58-.44-20.36-.29-5.81-1.18-11.58-1.56-17.39-.17-2.7.5-5.44.38-8.15-.7-16.45-1.63-32.89-2.24-49.35-.28-7.66,0-15.35,0-23.02.01-7.08-.22-14.17.09-21.23.19-4.45.08-9.42,2-13.19,6.78-13.28,14.47-26.1,21.62-39.2,1.73-3.18,2.69-6.77,4.07-10.14,4-9.77,10.69-16,21.78-16.29,3.49-.09,6.99-.22,10.46.03,8.94.64,12.52,3.95,13.2,12.92,1.04,13.68,1.7,27.39,2.52,41.09.27,0,.54.01.81.02ZM222.85,43.99s-.04,0-.06,0c0-4.41.86-9.05-.27-13.15-.94-3.43-3.59-7.24-6.59-9.04-3.78-2.27-7,.95-8.69,4.46-1.39,2.88-2.81,6.1-2.88,9.2-.31,12.95-.11,25.9-.09,38.86,0,.55.03,1.11.11,1.65,2.59,18.3,2.88,36.53-1.13,54.7-.46,2.07-.03,4.35.1,6.52.27,4.38.72,8.75.9,13.14.62,15.01,1.13,30.02,1.75,45.03.17,3.97,2.15,6.86,6.34,6.88,15.77.08,31.54-.13,47.3-.12,2.15,0,4.42.33,6.44,1.05,7.33,2.59,14.05.06,17.88-6.98,2.5-4.59,1.36-7.33-3.9-8.24-3.22-.56-6.59-.2-9.87-.47-5.65-.46-11.68-.01-16.81-1.93-5.23-1.95-9.99-2.69-15.41-2-6.09.78-9.35-1.99-10.12-8.18-.31-2.5-.57-5.44.42-7.6,5.45-11.85-.02-23.86.67-35.79.53-9.12-2.4-18.44-3.79-27.68-.77-5.07-2.1-10.14-2.2-15.22-.3-15.03-.11-30.06-.11-45.09Z"/>
          <path class="cls-1" d="M1326.07,27.93c1.21,3.72,2.7,7.38,3.58,11.18,1.47,6.39,2.55,12.87,3.81,19.31,3.14,15.97,6.08,31.97,9.49,47.88,3.43,16.01,7.47,31.89,10.93,47.89,1.35,6.25,1.36,12.79,2.85,18.99,1.6,6.65,3.84,13.23,6.51,19.53,3.36,7.91,1.78,11.3-4.78,16.59-9.72,7.83-18.94,16.44-27.41,25.6-5.84,6.32-17.67,10.18-25.03,5.53-2.51-1.59-4.53-4.78-5.59-7.68-2.81-7.71-4.72-15.76-7.48-23.49-2.32-6.49-6.4-8.06-12.54-5.42-10.42,4.46-18.7,11.95-26.71,19.65-4.46,4.28-8.02,9.5-12.44,13.83-6.4,6.27-19.56,4.81-24.11-2.82-1.14-1.91-.93-6,.4-7.78,5.91-7.89,5.25-17.23,6.81-26.11,1.07-6.08,2.58-12.08,3.83-18.13,1.29-6.25,2.82-12.46,3.7-18.77,2.86-20.39,5.42-40.82,8.22-61.21,2.03-14.82,4.03-29.65,6.53-44.4.73-4.32,2.31-8.97,4.9-12.42,7.99-10.68,15.97-21.54,25.3-31,6.16-6.24,13.52-12.94,24.28-9.49,2.34.75,5.11.15,7.68.18,11.93.13,17.49,5.39,18.21,17.28.1,1.65.01,3.31.01,4.96-.32.11-.63.22-.95.33ZM1300.9,18.7c-14.57-.99-15.54.42-15.7,13.61-.11,8.71-.54,17.86-3.24,26.01-4.27,12.87-3.17,27.13-10.62,39.09-.78,1.26-.32,3.25-.61,4.87-1.62,9.18-1.98,18.87-5.33,27.37-3.28,8.35-5.05,16.29-4.32,25.09.32,3.8.54,7.85-.39,11.48-2.14,8.33-5.24,16.41-7.43,24.73-.67,2.52-.66,6.71.84,7.95,1.94,1.6,5.92,1.88,8.61,1.17,6.38-1.67,7.2-7.63,8.44-13.03,1.11-4.82,2-9.71,3.52-14.4,2.21-6.8,7.04-10.7,14.36-10.69,9,.01,18.01.11,26.99.59,6.44.34,8.25,2.58,8.41,9.1.21,9.14,1.53,17.84,7.82,25.16,3.19,3.71,9.34,5.06,13.92,2.37,4.14-2.43,4.99-6.79,3.03-11.88-1.9-4.91-3.5-9.99-4.65-15.13-1.4-6.25-1.79-12.73-3.32-18.94-2.8-11.35-6.27-22.53-9.17-33.86-2.72-10.65-5.12-21.38-7.56-32.1-1.87-8.21-3.8-16.41-5.33-24.68-1.3-7.01-2.06-14.11-3.09-21.17-.55-3.8-1.49-7.58-1.7-11.4-.53-9.67-1.68-10.94-11.44-11.31-1.1-.04-2.2,0-2.05,0Z"/>
          <path class="cls-1" d="M676.73,26.92c1.71,6.67,3.77,13.26,5.05,20.01,3.18,16.83,5.73,33.79,9.03,50.6,4.85,24.63,9.96,49.22,15.36,73.74,1.55,7.04,3.95,14.03,6.95,20.59,3.94,8.61,1.95,12.54-5.65,18.16-9.61,7.11-18.36,15.63-26.46,24.47-6.27,6.85-16.18,10.61-23.95,6.14-2.71-1.56-5.11-4.7-6.29-7.67-3.1-7.8-5.31-15.94-8.13-23.85-2.13-5.99-6.36-8.02-12.1-5.11-5.76,2.93-11.06,6.8-16.41,10.46-8.07,5.52-14.7,12.42-20.27,20.53-1.82,2.65-5.26,4.76-8.4,5.84-9.58,3.29-17.6-3.68-16.06-13.39,1.8-11.36,3.13-22.79,5.25-34.09,1.54-8.21,4.61-16.15,5.92-24.38,1.86-11.7,2.4-23.61,4.11-35.34,1.53-10.47,4.26-20.76,5.83-31.23,2.36-15.69,3.87-31.52,6.4-47.18.69-4.26,3.15-8.62,5.87-12.1,7.55-9.65,15.23-19.28,23.7-28.1,6.48-6.74,13.82-13.25,24.76-9.79,1.51.48,3.29.12,4.94.12,15.31.03,21.25,5.95,20.55,21.56ZM646.82,18.15s-1.66-.05-3.3,0c-7.09.27-8.55,1.85-8.47,9.1.02,1.28.34,2.6.16,3.84-1.59,10.98-3.11,21.98-4.93,32.92-2.12,12.77-4.8,25.42-9.95,37.4-.34.79-.02,1.84-.19,2.73-2.13,11.07-1.93,22.55-7.77,32.96-2.29,4.09-1.82,9.85-2.16,14.87-.37,5.45.52,11.08-.5,16.36-1.41,7.33-4.32,14.35-6.13,21.62-.7,2.8-1.3,7.24.17,8.57,1.95,1.75,6.02,1.69,9.13,1.5,5.02-.31,6.06-4.54,7.14-8.54,1.81-6.7,3.74-13.36,5.59-20.05,1.69-6.13,5.84-9.31,12.03-9.38,8.98-.09,17.99-.08,26.96.43,7.89.45,9.31,2.35,9.59,10.29.3,8.45,2.85,16.22,7.49,23.25,3.21,4.86,8.5,5.89,14.02,2.95,4.57-2.43,5.23-5.87,3.24-11.77-2.14-6.39-3.81-12.95-5.42-19.5-1.08-4.43-1.5-9.03-2.55-13.47-3.67-15.44-7.56-30.84-11.22-46.28-1.01-4.26-1.06-8.79-2.36-12.94-4.3-13.63-9.08-27.09-9.11-41.69,0-3.58-1.47-7.15-2.17-10.75-.66-3.41-1.57-6.82-1.74-10.27-.58-12.27-.98-12.81-13.15-13.87-.91-.08-1.83-.13-4.39-.31Z"/>
          <path class="cls-1" d="M1001.83,28.16c1.81,7.21,3.94,14.36,5.36,21.64,2.8,14.34,5.22,28.75,7.75,43.14,1.13,6.44,2.14,12.89,3.21,19.34.33,1.96.21,4.16,1.08,5.85,5.24,10.16,7.01,21.09,7.91,32.3.26,3.23,1.55,6.36,2.24,9.57,1.18,5.51,2.36,11.02,3.34,16.57,1,5.69,1.22,11.26,5.35,16.28,4.65,5.65,2.05,12.18-4.11,16.17-10.25,6.64-20.12,13.79-27.05,24.29-5.05,7.66-12.84,10.28-21.53,8.97-2.82-.43-6.32-3.01-7.6-5.57-2.73-5.46-4.23-11.54-6.18-17.38-1.14-3.43-1.59-7.23-3.36-10.28-3.67-6.32-9.56-7.86-15.97-4.23-13.54,7.67-24.76,18.09-33.93,30.59-4.49,6.12-15.48,8.63-20.8,3.19-2.34-2.4-3.56-7.37-3.04-10.84,2.23-14.8,5.59-29.43,8-44.2,2.79-17.12,4.88-34.34,7.54-51.48,1.1-7.04,3.19-13.93,4.32-20.97,2.27-14.1,6.28-28.33,5.71-42.35-.62-15.31,7.14-24.92,15.68-35.14,4.08-4.88,8.22-9.75,11.84-14.97,5.22-7.51,12.72-12.72,21-13.88,8.19-1.14,17.15.71,25.33,2.92,6.47,1.75,8.03,8.5,8.74,14.73.21,1.81.03,3.67.03,5.51-.29.08-.58.16-.87.23ZM974.11,18.63c0-.07,0-.14,0-.21-1.1-.05-2.2-.11-3.3-.14-9.29-.25-12.26,3.02-11.35,12.34.25,2.55.76,5.22.27,7.66-3.58,17.95-7.36,35.85-11.1,53.77-2.25,10.75-4.46,21.52-6.88,32.23-.84,3.72-1.54,7.74-3.52,10.86-3.38,5.34-4.21,10.79-3.36,16.81,1.09,7.72,1.03,15.29-2.02,22.74-2.29,5.58-3.92,11.43-5.84,17.15-2.07,6.14.98,9.91,7.29,9.02,7.57-1.08,10.81-4.93,12.05-13.41.73-5.05,1.83-10.09,3.31-14.96,2.18-7.18,7.49-10.69,14.89-10.65,8.62.04,17.26.16,25.87.71,8.06.52,8.85,1.98,9.52,10.27.66,8.15.68,16.58,6.58,23.35,3.68,4.22,8.77,5.79,13.22,3.72,4.31-1.99,6.13-6.26,4.58-12.18-2.26-8.67-4.98-17.22-7.27-25.88-1.4-5.29-2.27-10.71-3.53-16.04-1.71-7.26-3.67-14.47-5.35-21.74-3.72-16.05-7.26-32.13-11.05-48.16-.79-3.33-2.94-6.39-3.43-9.73-1.96-13.19-3.65-26.43-5.13-39.69-.6-5.34-3.95-7.09-8.41-7.78-1.97-.3-4.02-.05-6.04-.05Z"/>
          <path class="cls-1" d="M412.89,205.49c1.34-13.78,3.75-28.14,3.87-42.53.14-17.56-1.64-35.14-2.58-52.72-.18-3.29-.36-6.59-.4-9.89-.07-7.3.62-14.68-.22-21.88-1.36-11.75,4.51-20.77,9.82-30.14,3.59-6.35,7.08-12.76,10.85-19,1.68-2.78,3.8-5.34,5.98-7.75,9.46-10.46,21.73-13.42,35.19-12.49,7.81.54,15.76,1.03,23.31,2.88,5.98,1.46,11.72,3.8,17.85,5.25,9.26,2.19,17.33,7.74,21.29,17.37.35.85.56,1.78,1.08,2.52,9.61,13.72,8.55,28.56,6.02,44.18-1.42,8.74-5.03,14.97-11.51,20.17-3.88,3.12-4.11,6.01-.9,10.19,12.01,15.64,17.26,33.96,17.73,53.24.39,16.23-6.16,29.94-19.27,40.57-8.42,6.83-15.82,14.97-23.38,22.8-7.19,7.44-15.39,11.27-26.01,10.16-5.03-.52-10.37-.04-15.32,1.08-13.67,3.09-27.32,2.29-41.03.86-6.6-.69-9.68-3.68-10.44-10.63-.85-7.81-1.27-15.68-1.94-24.24ZM492.35,200.09c0-.07,0-.14,0-.22,6.23,0,12.48.23,18.7-.09,3.4-.18,7.59-.28,9.97-2.2,7.02-5.67,14.82-11.19,14.55-21.94-.05-1.94,1.17-3.89,1.37-5.87.38-3.77.93-7.63.53-11.36-.49-4.52-1.66-9.01-2.96-13.39-3.22-10.88-8.66-20.44-17.92-27.37-7.11-5.32-7.61-11.67-.73-17.05,7.17-5.62,12.47-12.16,13.96-21.5,2.04-12.77,6.17-25.64-3.6-37.24-.45-.53-.45-1.41-.82-2.03-4.36-7.3-9.01-14.64-17.84-16.81-5.59-1.37-11.55-1.52-17.36-1.67-10.05-.26-20.11.06-30.17-.15-6.36-.14-7.38.34-7.54,6.85-.23,8.98-.1,17.97-.1,26.96,0,19.2.15,38.41,0,57.61-.22,26.78-.68,53.55-.97,80.33-.06,5.29,2.18,7.21,7.39,7.18,11.18-.07,22.37-.02,33.56-.02Z"/>
          <path class="cls-1" d="M122.53,201.99c-1.97,6.72-3.28,11.98-10,13.33-1.29.26-2.55,2.96-3.01,4.74-2.52,9.72-9,15.44-18.82,17.26-3.67.68-7.38,2.42-10.53,4.5-10.16,6.71-20.12,7.16-30.01.81-.46-.3-.92-.8-1.4-.83-14.07-.69-20.08-13.61-30.36-20.04-1.01-.63-1.85-1.86-2.31-2.99-4.29-10.63-9.63-20.87-9.54-32.92.03-3.91-2.64-7.77-3.66-11.76-1.16-4.55-2.52-9.2-2.62-13.83-.33-14.88-.45-29.78.07-44.64.16-4.63,2.62-9.19,4.07-13.77.27-.85.94-1.6,1.1-2.45,2.45-13.15,8.22-24.86,15.03-36.24,4.29-7.17,6.89-15.49,11.88-22.05,7.6-10,15.76-19.95,25.29-28.01,8.03-6.79,17.71-12.33,29.33-12.04,4.91.12,9.86-1.21,14.76-1.03,5.78.2,11.86.4,15.72,6.07.91,1.34,2.14,2.71,3.54,3.42,13.21,6.65,17.75,18.31,19.32,32.05.92,8.08,3.19,16.02,3.93,24.1.49,5.42-.65,10.99-1.06,16.5-.56.09-1.12.18-1.68.27-.82-1.6-2.36-3.21-2.34-4.81.09-10.06-3.72-19.12-6.95-28.3-3.07-8.72-6.65-17.26-9.89-25.93-3.42-9.16-11.05-12.37-19.62-12.08-10.63.36-21.64-.43-31.53,5.37-4.28,2.52-8.32,4.59-10.82,9.47-3.22,6.29-8.39,11.6-11.46,17.95-4.57,9.43-7.33,19.68-5.18,30.22,2.07,10.14,1.91,19.82-.04,30.06-2.23,11.75-3.1,23.96,1.29,35.73.37.99.64,2.28.33,3.23-3.13,9.63.51,18.98,2.01,28.14,1.34,8.13,5.21,16.06,12.19,21.81,9.07,7.46,18.11,14.94,29.7,18.08,8.87,2.4,17.54,2.69,25.04-4.24,2.04-1.89,4.78-3.04,8.22-5.16Z"/>
          <path class="cls-1" d="M353.1,11.53c-.15.88.01,2.14-.51,2.57-5.5,4.53-4.48,10.17-4.06,16.44,1.29,19.66,2.11,39.38,2.26,59.08.09,12.4-1.48,24.8-1.98,37.21-.15,3.79.88,7.62,1.18,11.45.21,2.66.08,5.35.13,8.03.07,3.94.19,7.88.25,11.81.08,4.92.37,9.85.11,14.76-.39,7.48-1.47,14.93-1.68,22.4-.23,8.12,5.07,11.15,12.26,7.43,11.45-5.92,11.11-5.89,9.85-19.24-.59-6.28.48-12.72.7-19.08.11-3.11.11-6.23-.04-9.33-.18-3.83-.69-7.65-.85-11.48-.15-3.9-.15-7.81-.01-11.71.08-2.32.65-4.62.86-6.94.34-3.72.69-7.45.79-11.19.08-2.89-.76-5.9-.18-8.64.35-1.65,2.62-2.9,4.03-4.33,1.45,1.51,3.79,2.83,4.15,4.56.61,2.94.03,6.14-.16,9.23-.1,1.62-.86,3.32-.56,4.83,2.44,12.14-1.65,23.61-3.22,35.35-.31,2.31.99,4.83,1.55,7.25.98,4.22,2.19,8.41,2.87,12.68.78,4.84.99,9.77,1.63,14.64,1.11,8.57,1.25,16.12-6.92,22.55-9.3,7.31-17.05,16.56-25.75,24.68-6.61,6.17-14.33,9.91-23.79,8.3-4.8-.81-10.49-7.12-10.36-13.45.19-9.43,1.85-18.83,2.3-28.27.65-13.67.97-27.36,1.07-41.04.12-16.04.11-32.08-.33-48.11-.32-11.27-1.07-22.55-2.34-33.75-1.42-12.56-2.12-24.54,6.12-35.59,5.21-6.98,9.14-14.92,13.53-22.5,3.73-6.44,11.52-11.43,17.11-10.58Z"/>
          <path class="cls-1" d="M63.92,133.55c0-20.24-.28-35.08.1-49.89.25-9.66,1.02-19.36,2.36-28.93,1.37-9.78,8.27-16.12,16.11-21.11,3.34-2.13,7.37-1.72,10.55,1.62,1.21,1.27,2.8,2.51,4.44,2.96,11.88,3.28,17.49,10.18,18.64,22.32,1.58,16.71,3.77,33.36,5.18,50.07.5,5.95-.65,12.03-.8,18.06-.16,6.74,1.35,13.87-.37,20.14-2.36,8.58-2.89,17.91-9.45,25.31-8.63,9.73-21.42,10.37-30.65.91-12.83-13.14-16.67-29.19-16.1-41.45Z"/>
          <path class="cls-1" d="M140.54,106.54c7.16,3.92,8.12,9.07,7.43,14.93-1.11,9.42-2.04,18.86-3.35,28.24-.41,2.94-1.82,5.74-3.18,9.84-5.06-7.9-6.21-15.21-5.36-23.01.66-6.06,1.14-12.14,1.98-18.17.53-3.83,1.57-7.59,2.48-11.84Z"/>
          <path class="cls-1" d="M376.89,41.32c-4.37-4.86-6.45-10.16-4.21-16.89,1.26-3.79-.07-7.23-3.47-10.14-1.77-1.51-2.72-4.65-2.82-7.11-.04-.91,3.69-3.04,5.21-2.66,1.82.46,3.48,2.8,4.54,4.7,1.61,2.88,2.32,6.27,3.98,9.1,3.22,5.5,1.51,18.61-3.23,23Z"/>
          <path class="cls-1" d="M377.05,83.87c-5.52-6.42-5.72-13.28-3.93-20.58.51-2.07.66-4.24.85-6.38.3-3.38.49-6.78.72-10.17,1.01-.04,2.01-.09,3.02-.13.3,3.11.55,6.23.91,9.33.37,3.2.49,6.49,1.35,9.56,1.84,6.54.03,12.28-2.92,18.37Z"/>
          <path class="cls-1" d="M128.12,196.19c1.31-5.23,2.08-9.69,3.64-13.84.59-1.56,3.02-2.43,4.61-3.61.68,1.95,1.98,3.92,1.94,5.86-.14,6.29-5.49,8.37-10.19,11.6Z"/>
          <path class="cls-1" d="M1305.86,150.67c-3.17.18-7.37.55-11.58.63-11.44.22-16.46-5.03-14.7-16.29,2.14-13.75,4.96-27.39,7.5-41.08,1.4-7.56,2.64-15.15,4.33-22.65.52-2.33,1.77-5.04,3.58-6.42,3.18-2.44,7.48.17,8.78,5.2,3.38,13.11,6.61,26.26,9.84,39.41.3,1.22.47,2.64.14,3.81-2.5,8.74,2.4,15.99,4.54,23.81.91,3.34,2.88,8.29,1.44,9.93-2.2,2.51-6.94,2.83-10.63,3.97-.64.2-1.44-.13-3.22-.33Z"/>
          <path class="cls-1" d="M651.48,151.18c-3.66,0-7.34.28-10.97-.06-8.57-.79-12.78-6.17-11.28-14.67,2.79-15.85,5.88-31.65,8.77-47.49.79-4.32,1.19-8.7,2.04-13,.63-3.19,1.19-6.58,2.72-9.37,2.26-4.12,6.87-4.07,9.17.03,1.66,2.97,2.69,6.39,3.49,9.73,2.05,8.54,4.01,17.1,5.61,25.74.98,5.33.82,10.88,1.89,16.19,1.29,6.4,2.34,13.17,5.31,18.83,4.28,8.13,1.33,14.29-9.07,13.97-2.56-.08-5.12-.27-7.68-.41v.52Z"/>
          <path class="cls-1" d="M976.81,150.91c-4.21,0-8.51.54-12.63-.12-7.74-1.23-9.88-4.85-9.69-12.7.4-16.69,4.68-32.62,8.62-48.66,1.13-4.6,1.3-9.44,2.07-14.14.38-2.33.43-5.23,1.84-6.76,1.87-2.03,4.93-4.02,7.47-4.01,1.62,0,3.45,3.53,4.73,5.74.67,1.15.19,2.91.51,4.33,1.47,6.4,3.06,12.77,4.57,19.16,1,4.27,2.88,8.6,2.71,12.83-.5,11.91,2.75,22.62,7.96,33.11,2.71,5.47-.47,10.41-6.61,11.01-3.82.38-7.7.07-11.55.07,0,.04,0,.08,0,.12Z"/>
          <path class="cls-1" d="M520.97,155.49c.12,12.78-7.63,23.07-20.02,26.33-4.95,1.3-9.95,2.69-15.02,3.27-8.47.97-14.08-2.93-15.27-11.39-1.29-9.22-1.46-18.6-1.96-27.92-.23-4.33-.92-8.87.04-12.97,2.11-8.97,11.34-14.09,20.42-12.02,3.93.89,7.83,1.95,11.69,3.11,13.39,4.01,18.97,20.6,20.11,31.58Z"/>
          <path class="cls-1" d="M469.47,70.46c.41-7.13.1-14.4,1.41-21.37,2.24-11.94,14.18-16.95,25.57-12.9,12.39,4.41,17.65,12.73,17.92,25.26.07,3.29.86,6.55,1.19,9.84,1.56,15.38-12.32,31.99-27.72,33.22-8.81.7-17.07-7.36-17.59-17.5-.28-5.49-.05-11.02-.05-16.53-.24,0-.49-.01-.73-.02Z"/>
        </g>
      </g>
    </g>
  </g>
</svg>