<?xml version="1.0" encoding="UTF-8"?>
<svg id="Layer_2" data-name="Layer 2" xmlns="http://www.w3.org/2000/svg" viewBox="0 0 235.15 186.23">
  <defs>
    <style>
      .cls-1 {
        fill: #730201;
      }

      .cls-1, .cls-2 {
        stroke-width: 0px;
      }

      .cls-2 {
        fill: #000;
      }
    </style>
  </defs>
  <g id="Layer_1-2" data-name="Layer 1">
    <g>
      <g>
        <path class="cls-1" d="M235.06,45.32c-.33-3.77-2.57-5.28-6.25-4.34-3.49.89-6.35,2.87-8.95,5.23-4.42,4.02-8.18,8.61-11.65,13.45-.67.93-1.25,1.99-2.33,2.55-2.91,1.51-6.05-.37-6.49-3.99-.18-1.5.02-3.05-.22-4.52-.3-1.78-1.82-2.5-3.03-1.28-3.24,3.25-7.53,4.48-11.44,6.48-4.69,2.4-8.66,5.87-12.69,9.22-6.55,5.44-12.28,11.79-19.02,17.02-7.3,5.67-14.97,10.87-23.92,13.37-16.42,4.59-33.05,5.18-49.8,1.5-16.57-3.65-28.56-12.55-34.15-29.03-.33-.97-.85-1.93-1.47-2.75-1.01-1.34-2.1-1.32-3.11.02-.84,1.12-1.19,2.49-1.7,3.8-4.02,10.39-11.08,17.36-22.35,19.39-3.67.66-7.38,1.1-11.08,1.5-1.29.14-2.54.33-3.73.8-.8.31-1.39.9-1.24,1.87.14.9.72,1.59,1.61,1.57,2.73-.05,4.79,1.66,7.15,2.56,11.07,4.19,20.87,1.21,27.6-8.49,1.19-1.72,2.21-3.55,3.09-5.46.3-.67.27-1.7,1.33-1.84.64.21.87.78,1.1,1.3,4.67,10.37,12.51,17.62,22.68,22.28,16.11,7.39,33.08,8.57,50.29,5.37,19-3.53,35.08-12.79,48.67-26.44,7.93-7.96,16.62-14.97,26.11-20.99.82-.53,1.57-1.43,2.86-1.07-.14,4.94,2.51,8.02,6.99,9.91-.8,2.13-1.33,3.9-1.58,5.76-.08.58-.08,1.2.47,1.56.64.42,1.09-.12,1.52-.46,1.19-.97,2.22-2.17,2.75-3.57,1.08-2.86,3.22-3.68,6.03-4.33,8.98-2.09,16.74-6.34,22.21-14.07,2.95-4.16,4.17-8.79,3.73-13.85ZM227.71,55.21c-.12.2-.28.38-.45.53-3.84,3.25-8.1,5.5-13.26,5.65,1.74-2.91,4.16-5.21,6.7-7.38,1.23-1.05,2.6-1.95,4.2-2.42.98-.28,2.02-1.03,2.87.04.89,1.14.65,2.4-.06,3.58Z"/>
        <path class="cls-1" d="M136.61,44.43c5.44-.98,8.64-4.63,11.09-9.22.66-1.24.49-2.5.45-3.75-.13-3.51.13-7,.87-10.42.3-1.4.59-3.51,2.44-3.33,1.88.19,1.58,2.25,1.65,3.72.34,7.37,0,14.65-2.76,21.63-3.87,9.76-11.26,14.3-21.67,13.14-1.19-.13-2.21-.23-3.3.53-11,7.72-23.45,10.6-36.65,10.33-13.02-.27-25.68-2.57-37.61-8.15-6.53-3.05-12.31-7.08-17.07-12.48-1.13-1.28-2.07-1.71-3.85-1.29-7.4,1.77-13.36,5.86-18.77,10.97-.59.56-1.14,1.17-1.73,1.73-.5.47-1.06,1.1-1.8.61-.66-.43-.71-1.35-.46-1.92,1.65-3.67,1.41-7.94,3.96-11.37,2.28-3.06,4.98-5.51,8.23-7.42,3.34-1.97,6.98-3.14,10.71-4.09,2.84-.73,5.19-.14,7.3,2.02,4.75,4.87,10.18,8.84,16.16,12.11,7.8,4.27,16.15,6.48,24.99,7.1,10.99.77,21.89.58,32.57-2.51,2.68-.78,5.25-1.86,7.75-3.12,1.33-.67,1.88-1.5,1.77-3-.19-2.69.19-5.35.71-7.98.74-3.73,2.19-7.1,5.21-9.6,3.49-2.88,6.94-2.12,8.69,2.01,1.01,2.38,1.43,4.91,1.16,7.51-.17,1.68-.4,3.36-.61,5.04-.04.29-.1.58-.24.84-.06.11-.1.21-.06.27.12.21.14.16.87.07ZM129.92,40.46c-.39-1.05-.59-2.53-2.02-3.09-.81-.32-2.74,1.94-2.78,3.09-.05,1.33,1.19,2.91,2.34,2.99,1.27.09,2.5-1.27,2.47-2.99Z"/>
        <path class="cls-1" d="M116.29,3.48c.89.05,1.76.68,2.7,1.12.63.3,1.2.71,1.81,1.05,3.09,1.7,4.06,1.39,5.7-1.79.05-.1.09-.21.14-.32q2.11-4.39,6.08-1.71c.77.52,1.58.98,2.36,1.48,2.4,1.53,2.68,2.36,1.62,4.86-.23.53-.59,1-.87,1.51-2.87,5.33-3.81,6.1-8.83,2.26-1.82-1.39-2.71-1.12-4.02.78-.98,1.43-1.76,2.99-2.98,4.27-1.07,1.12-2.12,1.3-3.31.23-1.12-1.01-2.27-1.98-3.36-3.01-.71-.68-1-1.62-.89-2.55.28-2.56,1.24-4.92,2.31-7.24.25-.53.69-.93,1.56-.92Z"/>
        <path class="cls-1" d="M126.01,71.43c.26-2.6.9-4.84,2.02-6.89,1.18-2.15,2.6-2.34,4.53-.81,2.78,2.21,4.92,1.82,6.61-1.2,1.64-2.94,3.46-3.22,5.74-.81,1.36,1.44,2.58,2.92,4.67,3.47,1.45.38,1.56,1.6.79,2.79-.82,1.27-1.61,2.58-2.6,3.7-2.46,2.76-4.26,2.84-7.18.53-1.95-1.55-2.13-1.54-4.03.29-.5.49-.99.99-1.49,1.48-2.77,2.77-4.79,2.84-7.78.31-.97-.82-1.25-1.91-1.29-2.85Z"/>
      </g>
      <g>
        <path class="cls-2" d="M29.52,161.45c-1.24-.94-2.66-1.69-4.27-2.25-1.6-.56-3.26-1.04-4.97-1.44-1.71-.41-3.39-.79-5.04-1.16-1.65-.36-3.16-.83-4.52-1.41-1.37-.58-2.52-1.32-3.47-2.21-.94-.9-1.54-2.1-1.8-3.59-.21-1.2-.15-2.4.19-3.59.34-1.2.96-2.29,1.86-3.27.9-.98,2.11-1.79,3.63-2.41,1.52-.62,3.39-.93,5.62-.93,1.45,0,2.87.19,4.24.58,1.37.39,2.59.98,3.66,1.8,1.07.81,1.91,1.86,2.53,3.14.62,1.28.93,2.8.93,4.56h4.17c0-1.88-.32-3.66-.96-5.33s-1.6-3.13-2.89-4.4c-1.28-1.26-2.9-2.26-4.85-2.98-1.95-.73-4.23-1.09-6.83-1.09s-4.84.34-6.8,1.03c-1.97.68-3.6,1.6-4.91,2.76-1.31,1.16-2.29,2.48-2.95,3.98-.66,1.5-.99,3.04-.99,4.62,0,2.27.41,4.14,1.22,5.62.81,1.48,1.87,2.69,3.18,3.63,1.3.94,2.8,1.69,4.49,2.25,1.69.56,3.42,1.04,5.2,1.44,1.77.41,3.51.82,5.2,1.25,1.69.43,3.19.99,4.49,1.7,1.3.71,2.36,1.62,3.18,2.73.81,1.11,1.22,2.57,1.22,4.36,0,1.28-.22,2.5-.67,3.66-.45,1.16-1.15,2.17-2.09,3.05-.94.88-2.16,1.57-3.66,2.09-1.5.51-3.27.77-5.33.77-1.75,0-3.4-.2-4.94-.61-1.54-.41-2.9-1.06-4.08-1.96-1.18-.9-2.14-2.06-2.89-3.5-.75-1.43-1.21-3.18-1.38-5.23H0c0,2.53.42,4.72,1.25,6.58.83,1.86,2,3.42,3.5,4.69,1.5,1.26,3.27,2.2,5.33,2.82,2.05.62,4.28.93,6.67.93,5.35,0,9.5-1.18,12.45-3.53,2.95-2.35,4.43-5.67,4.43-9.95,0-2.22-.38-4.08-1.12-5.55-.75-1.48-1.74-2.68-2.98-3.63Z"/>
        <path class="cls-2" d="M55.58,136.68l-18.16,46.21h4.49l5.46-14.5h21.05l5.33,14.5h4.49l-17.71-46.21h-4.94ZM48.84,164.66l9.05-24.26,9.05,24.26h-18.1Z"/>
        <path class="cls-2" d="M120.62,149.29c-.58-1.77-1.36-3.47-2.34-5.07-.98-1.6-2.25-2.96-3.79-4.08-1.07-.77-2.17-1.39-3.31-1.86-1.13-.47-2.3-.82-3.5-1.06-1.2-.23-2.42-.39-3.66-.45-1.24-.06-2.5-.1-3.79-.1h-15.79v46.21h15.79c1.54,0,3.06-.07,4.56-.22,1.5-.15,2.94-.43,4.33-.83,1.39-.41,2.72-.97,3.98-1.7,1.26-.73,2.43-1.69,3.5-2.89,1.07-1.16,1.96-2.43,2.66-3.82.71-1.39,1.27-2.84,1.7-4.36.43-1.52.74-3.07.93-4.65.19-1.58.29-3.14.29-4.69s-.12-3.22-.35-5.04c-.24-1.82-.64-3.62-1.22-5.39ZM117.48,164.66c-.24,1.71-.64,3.35-1.22,4.91-.58,1.56-1.36,3.01-2.34,4.33-.98,1.33-2.25,2.37-3.79,3.14-1.8.94-3.56,1.53-5.29,1.76-1.73.24-3.58.35-5.55.35h-10.46v-38.76h10.46c1.93,0,3.83.11,5.71.32,1.88.21,3.51.68,4.88,1.41,1.63.86,2.95,1.94,3.98,3.24,1.03,1.31,1.84,2.74,2.44,4.3.6,1.56,1,3.21,1.22,4.94.21,1.73.32,3.43.32,5.1s-.12,3.23-.35,4.94Z"/>
        <rect class="cls-2" x="132.33" y="136.68" width="4.36" height="46.21"/>
        <path class="cls-2" d="M189.58,159.85c0-3.94-.52-7.42-1.57-10.46-1.05-3.04-2.52-5.58-4.43-7.64-1.9-2.05-4.19-3.61-6.87-4.68-2.67-1.07-5.64-1.6-8.89-1.6-3.59,0-6.73.67-9.4,2.02-2.67,1.35-4.89,3.14-6.64,5.39-1.75,2.25-3.07,4.84-3.95,7.77-.88,2.93-1.32,6-1.32,9.21s.45,6.47,1.35,9.4c.9,2.93,2.25,5.5,4.04,7.7,1.8,2.2,4.04,3.95,6.74,5.23s5.82,1.93,9.37,1.93c2.31,0,4.42-.28,6.32-.83,1.9-.56,3.65-1.33,5.23-2.31l6.8,5.26,2.44-2.95-6.16-4.75c2.31-2.27,4.04-5.01,5.2-8.21s1.73-6.7,1.73-10.46ZM183.81,168.93c-.94,2.85-2.4,5.21-4.36,7.09l-6.23-4.75-2.31,3.02,5.26,4.04c-1.11.64-2.33,1.15-3.66,1.51-1.33.36-2.8.55-4.43.55-3.04,0-5.64-.56-7.8-1.67-2.16-1.11-3.94-2.61-5.33-4.49-1.39-1.88-2.42-4.06-3.08-6.55-.66-2.48-.99-5.09-.99-7.83s.33-5.22.99-7.7c.66-2.48,1.69-4.69,3.08-6.61,1.39-1.93,3.17-3.47,5.33-4.62,2.16-1.16,4.72-1.73,7.67-1.73,2.48,0,4.77.43,6.87,1.28,2.1.86,3.91,2.15,5.46,3.88s2.75,3.88,3.63,6.45c.88,2.57,1.32,5.58,1.32,9.05,0,3.21-.47,6.24-1.41,9.08Z"/>
        <path class="cls-2" d="M217.43,136.68h-4.94l-18.16,46.21h4.49l5.46-14.5h21.05l5.33,14.5h4.49l-17.71-46.21ZM205.75,164.66l9.05-24.26,9.05,24.26h-18.1Z"/>
      </g>
    </g>
  </g>
</svg>