<?xml version="1.0" encoding="UTF-8"?>
<svg id="Layer_2" data-name="Layer 2" xmlns="http://www.w3.org/2000/svg" viewBox="0 0 665.96 185.54">
  <defs>
    <style>
      .cls-1 {
        fill: #58585a;
      }

      .cls-1, .cls-2, .cls-3 {
        stroke-width: 0px;
      }

      .cls-2 {
        fill: #9dca28;
      }

      .cls-3 {
        fill: #9b9b9b;
      }
    </style>
  </defs>
  <g id="Layer_1-2" data-name="Layer 1">
    <path class="cls-1" d="M209.7,53.56v-2.26c0-1.6.73-2.4,2.19-2.4,1.69,0,2.53,1.16,2.53,3.49l-.34,4.17.05,5.06.29,5c0,1.05-.27,1.92-.8,2.6-.54.68-1.25,1.03-2.14,1.03-1.78,0-2.67-1.27-2.67-3.82l.07-1.09.14-2.8c0-2.09-.94-4.07-2.81-5.93-1.28-1.23-2.49-2.04-3.63-2.45-1.55-.54-3.47-.82-5.75-.82-2.97,0-5.42.83-7.36,2.5-1.94,1.67-2.91,3.82-2.91,6.47,0,1.28.4,2.49,1.2,3.63.8,1.14,2.11,2.1,3.93,2.87,1.19.5,2.33.87,3.42,1.09,1.09.23,3.1.56,6.02.99,2.92.43,5.08.9,6.47,1.4,1.39.5,2.84,1.3,4.35,2.4,3.33,2.56,5,5.93,5,10.13,0,4.52-1.73,8.28-5.2,11.29-3.47,3.01-7.8,4.52-13,4.52-2.28,0-4.55-.35-6.81-1.04-2.26-.69-4.69-2.19-7.29-4.5v3.01c0,1.69-.83,2.53-2.5,2.53-1.8,0-2.7-1.32-2.7-3.97v-1.78c0-.46.09-1.48.27-3.08v-6.16l-.62-5.82v-.27c0-1.87.98-2.81,2.94-2.81,1.32,0,2.21.48,2.67,1.45.09.23.16.55.21.97.04.41.07.94.07,1.58v2.14c0,1.88.12,3.33.38,4.34.25,1.01.72,2.02,1.4,3.03,1.05,1.66,2.61,2.94,4.69,3.86,2.08.92,4.39,1.38,6.95,1.38,3.74,0,6.71-.91,8.9-2.74,2.19-1.83,3.29-4.32,3.29-7.48s-1.07-5.24-3.22-6.52c-1.37-.96-4.16-1.81-8.38-2.54-4.22-.73-6.93-1.26-8.14-1.58s-2.63-.92-4.28-1.78c-4.11-2.01-6.16-5.42-6.16-10.23,0-4.3,1.55-7.78,4.65-10.43,3.1-2.65,7.21-3.98,12.32-3.98,2.05,0,4.08.32,6.09.96,1.14.41,2.13.9,2.98,1.47.84.57,1.93,1.54,3.25,2.91ZM235.23,83.03v3.91c0,3.38.11,5.58.34,6.59.23,1.01.77,1.51,1.64,1.51l2.4-.48h.89c1.92,0,2.87.91,2.87,2.74,0,.73-.14,1.23-.41,1.51-.5.59-1.69.89-3.56.89-.46,0-.8-.05-1.03-.15l-2.6-.23-3.35-.23c-2.01,0-4.11.14-6.3.41l-1.85.21c-2.1,0-3.15-.86-3.15-2.57,0-.72.27-1.33.82-1.82.55-.5,1.21-.74,1.99-.74h.89l2.33.48c1.6,0,2.4-1.12,2.4-3.35v-22.17c0-2.42-.71-3.63-2.12-3.63l-1.98.27c-.27.09-.73.14-1.37.14-1.96,0-2.94-.84-2.94-2.53s1.11-2.46,3.34-2.46l1.22.07,2.59.21h.75c.95-.18,1.77-.34,2.45-.48l1.02-.07c.5,0,.93.23,1.29.68.36.46.54,1.03.54,1.71v3.01c.78-1,1.25-1.62,1.44-1.85.55-.68,1.14-1.25,1.78-1.71,1.92-1.37,4.36-2.05,7.32-2.05,1.46,0,2.92.18,4.38.55,1.46.37,2.58.82,3.35,1.37.78.55,1.41,1.14,1.92,1.78.09.14.55.82,1.37,2.05.91-1.2,1.66-2.08,2.25-2.63.59-.55,1.32-1.06,2.18-1.52,2-1.06,4.53-1.59,7.58-1.59,4.64,0,8.19,1.42,10.65,4.25.54.55.99,1.13,1.33,1.75.34.62.66,1.4.96,2.37.29.96.51,2.22.65,3.77.14,1.55.21,3.54.21,5.97v12.31c0,.8.09,1.63.27,2.5.18.87.75,1.3,1.71,1.3l2.46-.48h.89c1.92,0,2.87.91,2.87,2.74,0,.73-.14,1.23-.41,1.51-.5.59-1.71.89-3.63.89l-1.03-.15-2.53-.23-3.35-.23c-2.05,0-4.15.14-6.3.41l-1.85.21c-2.1,0-3.15-.86-3.15-2.57,0-.77.26-1.38.79-1.86.52-.47,1.2-.71,2.02-.71h.89l2.33.48c1.6,0,2.4-1.12,2.4-3.36v-16.6c0-6.31-2.97-9.47-8.9-9.47s-9.03,3.5-9.03,10.51v11.39l.27,4.17.21,1.57c.32,1.19.98,1.78,1.98,1.78l2.46-.48h.89c1.87,0,2.81.91,2.81,2.74,0,.78-.09,1.28-.27,1.51-.5.59-1.71.89-3.63.89-.46,0-.8-.05-1.03-.15l-2.6-.23-3.42-.23c-1.96,0-4.04.14-6.23.41l-1.92.21c-2.05,0-3.08-.86-3.08-2.57,0-.77.26-1.38.79-1.86.52-.47,1.22-.71,2.09-.71h.82l2.46.48c.64,0,1.09-.35,1.37-1.06.27-.71.41-1.93.41-3.66v-14.27c0-2.66-.18-4.54-.55-5.67-.37-1.12-1.15-2.15-2.36-3.09-1.21-.94-2.68-1.41-4.41-1.41-6.66,0-9.99,3.64-9.99,10.91v6.24ZM309,77.83l2.67-.48c2.51-.46,4.27-1.09,5.27-1.91,1-.82,1.51-2.12,1.51-3.89,0-1.96-.68-3.51-2.05-4.64-1.37-1.14-3.24-1.71-5.61-1.71-1.87,0-3.6.39-5.2,1.16-1.78.77-2.67,1.56-2.67,2.38.14.27.23.45.27.54l.55.41c.59.41.89,1.16.89,2.24,0,2.27-1.46,3.4-4.38,3.4-2.65,0-3.97-1.52-3.97-4.56s1.34-5.43,4.04-7.29c2.69-1.86,6.18-2.79,10.47-2.79,4.61,0,8.02,1.08,10.23,3.24,2.21,2.16,3.32,5.48,3.32,9.94v16.94c0,3.14.98,4.71,2.94,4.71.91,0,1.56-.46,1.95-1.37.39-.91.58-2.4.58-4.45v-2.87c0-1.46.76-2.19,2.29-2.19,1.17,0,1.91.48,2.23,1.44.18.37.29.87.34,1.51.04.64.07,1.62.07,2.94,0,4.33-.91,7.14-2.74,8.42-.46.32-1.19.59-2.19.82-1,.23-1.94.34-2.81.34-1.55,0-2.87-.21-3.97-.62-1.83-.55-2.97-2.23-3.42-5.06-1.73,2.24-3.38,3.7-4.93,4.38-2.33,1-5.02,1.51-8.08,1.51-3.97,0-7.06-.99-9.27-2.97-2.21-1.98-3.32-4.77-3.32-8.37,0-5.78,3.88-9.33,11.63-10.66l3.35-.48ZM318.65,84.31v-4.81c-.6.41-1.16.76-1.68,1.03-.53.27-1.09.55-1.68.82-.32.09-.67.19-1.03.31-.37.12-.8.2-1.3.24l-3.16.55-3.3.55c-2.15.41-3.69,1.03-4.6,1.86-1.33,1.19-1.99,2.66-1.99,4.4s.65,3.22,1.96,4.3c1.3,1.08,3.03,1.61,5.19,1.61,2.01,0,3.85-.3,5.5-.89,1.65-.6,2.91-1.44,3.78-2.54,1.56-2.11,2.33-4.58,2.33-7.42ZM350.06,66.22c.73-.82,1.42-1.53,2.06-2.12.64-.59,1.21-1.07,1.72-1.44,1.88-1.23,4.09-1.85,6.66-1.85,3.66,0,6.57.96,8.72,2.87,2.15,1.92,3.23,4.52,3.23,7.8,0,2.15-.55,3.92-1.64,5.34-1.1,1.41-2.51,2.12-4.24,2.12-1.32,0-2.4-.32-3.22-.96-.82-.64-1.23-1.48-1.23-2.53,0-.78.23-1.46.68-2.05.36-.64.77-.96,1.23-.96h2.26c.09-.18.16-.39.21-.62.04-.23.07-.52.07-.89,0-1.64-.59-2.94-1.78-3.9-1.19-.96-2.78-1.44-4.79-1.44-2.78,0-4.98,1.04-6.6,3.11-1.62,2.08-2.43,4.89-2.43,8.45v14.51c0,1.05.17,1.87.51,2.46.34.59.83.89,1.47.89l2.88-.48h.89c1.87,0,2.81.91,2.81,2.74,0,.78-.09,1.28-.27,1.51-.59.59-1.8.89-3.63.89-.46,0-.8-.05-1.03-.15l-2.53-.23-3.7-.23c-2.05,0-4.22.14-6.5.41l-1.85.21c-2.1,0-3.15-.86-3.15-2.57,0-.72.27-1.33.82-1.82.55-.5,1.21-.74,1.99-.74h.89l2.33.48c1.6,0,2.4-1.12,2.4-3.35v-22.17c0-2.42-.71-3.63-2.12-3.63l-1.98.27c-.27.09-.73.14-1.37.14-1.96,0-2.94-.84-2.94-2.53s1.12-2.46,3.35-2.46l1.23.07c1.46.18,2.39.25,2.81.21l3.01-.48.62-.07c.59,0,1.03.14,1.3.41.27.27.46.53.55.75l.34.55v3.49ZM384.9,66.56v20.8c0,1.87.08,3.21.24,4,.16.8.47,1.49.92,2.09,1.19,1.32,2.74,1.98,4.65,1.98,3.79,0,5.68-2.69,5.68-8.08v-3.22c0-2.01.88-3.01,2.64-3.01,1.04,0,1.76.34,2.16,1.03.41.68.61,1.85.61,3.49,0,4.02-.57,7.21-1.71,9.58-.73,1.6-1.96,2.85-3.7,3.76-1.73.91-3.76,1.37-6.09,1.37-2.51,0-4.67-.47-6.47-1.4-1.8-.93-3.02-2.2-3.66-3.8-.64-1.6-.96-4.2-.96-7.8v-20.8c0-.09-.05-.19-.14-.31-.09-.11-.16-.19-.21-.24h-4.79c-.68,0-1.27-.22-1.75-.65-.48-.43-.72-.97-.72-1.61,0-.59.24-1.11.72-1.54.48-.43,1.08-.65,1.81-.65h4.38c.46,0,.68-.14.68-.41v-8.83c0-.68.3-1.28.89-1.78.59-.5,1.34-.75,2.26-.75.68,0,1.28.23,1.78.69.5.46.75,1.08.75,1.86v8.81l.21.41h9.51c.59,0,1.12.21,1.57.62.46.41.68.91.68,1.51,0,.64-.21,1.19-.62,1.64-.41.46-.96.68-1.64.68h-9.72v.55ZM439.64,56.98l.27,33.19c0,1.46.32,2.61.96,3.46.64.84,1.48,1.27,2.53,1.27l1.98-.21,1.51-.14c.82,0,1.5.25,2.05.75.55.5.82,1.14.82,1.92,0,1.73-1.07,2.6-3.22,2.6l-1.16-.07-2.19-.34c-2.37-.23-4.45-.34-6.23-.34s-3.86.11-6.23.34l-2.19.34-1.16.07c-2.19,0-3.29-.84-3.29-2.53,0-1.82.98-2.74,2.94-2.74l1.44.14,1.98.21c1.09,0,1.96-.41,2.6-1.23.64-.82.96-1.98.96-3.49v-31.55c0-3.19-1.19-4.79-3.56-4.79l-1.98.27-1.44.14c-1.96,0-2.94-.89-2.94-2.67s1.09-2.6,3.28-2.6h1.16l2.19.38c.64.1,1.38.18,2.22.23.84.05,1.61.08,2.29.08h2.6c.73-.15,1.25-.25,1.57-.3l1.84-.38h.82c1.09,0,1.94.27,2.53.82.59.55,1.05,1.44,1.37,2.68l2.38,8.27,3.15,11.98,5.39,19.56c.09.42.25.88.48,1.38.04.14.13.32.27.55.36,0,2.35-7.16,5.96-21.49.72-2.97,1.2-4.84,1.42-5.61.63-2.37,1.22-4.49,1.76-6.37l2.38-8.26c.59-2.33,1.91-3.5,3.96-3.5h.82l1.84.38c1.09.2,2.44.3,4.03.3s3.03-.1,4.44-.3l2.19-.38h1.23c2.1,0,3.14.87,3.14,2.6s-.96,2.67-2.87,2.67l-1.44-.14-1.98-.27c-1.09,0-1.96.42-2.6,1.27-.64.84-.96,2.02-.96,3.52v31.55c0,3.15,1.19,4.72,3.56,4.72l1.98-.21,1.44-.14c1.92,0,2.87.89,2.87,2.67s-1.05,2.6-3.15,2.6l-1.23-.07-2.19-.34c-1.96-.18-3.37-.29-4.21-.31-.84-.02-1.52-.03-2.02-.03-1.73,0-3.81.11-6.23.34l-2.19.34-1.09.07c-2.19,0-3.29-.84-3.29-2.53,0-1.82.96-2.74,2.88-2.74l1.44.14,1.98.21c2.37,0,3.56-1.57,3.56-4.72l.27-33.19v-3.22l-.58,1.23c-.19.18-.39.66-.58,1.44l-11.91,40.1c-.23.68-.4,1.19-.51,1.51-.11.32-.3.63-.55.92-.25.3-.76.56-1.54.79-.78.23-1.5.34-2.19.34-.87,0-1.71-.14-2.53-.41l-1.16-.69c-.23-.18-.43-.52-.62-1.03l-.51-1.43-12.15-40.11-.41-1.44c-.14-.36-.3-.66-.48-.89,0-.04-.07-.09-.21-.14l-.14.34.07.75.27,1.92ZM494.46,80.49c0-6.29,1.53-11.2,4.58-14.76,3.06-3.55,7.3-5.33,12.73-5.33s9.67,1.77,12.73,5.29c3.06,3.53,4.58,8.46,4.58,14.79s-1.53,11.14-4.58,14.69c-3.06,3.55-7.3,5.33-12.73,5.33s-9.67-1.78-12.73-5.33-4.58-8.45-4.58-14.69ZM511.77,65.26c-3.65,0-6.43,1.3-8.35,3.89-1.92,2.6-2.87,6.37-2.87,11.33s.96,8.6,2.87,11.2c1.92,2.6,4.7,3.89,8.35,3.89s6.39-1.31,8.35-3.93c1.96-2.62,2.94-6.34,2.94-11.16s-.97-8.68-2.91-11.3c-1.94-2.62-4.73-3.93-8.38-3.93ZM546.74,66.43c.91-1.25,1.73-2.19,2.46-2.84.73-.65,1.64-1.2,2.74-1.66,1.87-.83,3.99-1.25,6.37-1.25,1.6,0,3.23.23,4.89.69,1.67.46,3.14,1.07,4.41,1.85,1.96,1.19,3.31,2.69,4.04,4.49.73,1.81,1.09,4.56,1.09,8.26v15.7l.14,1.58c.23,1.19.83,1.78,1.79,1.78l2.42-.48h.9c1.98,0,2.97.91,2.97,2.74,0,.64-.14,1.14-.41,1.51-.5.59-1.68.89-3.55.89-.5,0-.84-.05-1.02-.15l-2.59-.23-3.34-.23c-2,0-4.09.14-6.28.41l-1.84.21c-2.09,0-3.14-.86-3.14-2.57,0-.72.27-1.33.81-1.82.54-.5,1.2-.74,1.97-.74h.88l2.31.48c.9,0,1.51-.37,1.83-1.1s.48-2.13.48-4.18v-14.4c0-2.29-.19-3.96-.58-5.01-.39-1.05-1.18-2.06-2.36-3.02-1.6-1.33-3.6-1.99-6.02-1.99s-4.75.71-6.71,2.13c-1.6,1.23-2.66,2.5-3.18,3.81-.52,1.3-.79,3.3-.79,6v10.22c0,3.2.12,5.26.38,6.17.25.91.81,1.37,1.68,1.37l2.53-.48h.89c1.87,0,2.81.91,2.81,2.74,0,.64-.09,1.14-.27,1.51-.59.59-1.8.89-3.63.89-.5,0-.84-.05-1.03-.15l-2.6-.23-3.42-.23c-2.01,0-4.11.14-6.3.41l-1.85.21c-2.05,0-3.08-.86-3.08-2.57,0-.77.26-1.38.79-1.86.52-.47,1.2-.71,2.02-.71h.89l2.26.48c1.55,0,2.33-1.12,2.33-3.35v-22.17c0-2.42-.73-3.63-2.19-3.63l-2.05.27-1.37.14c-1.96,0-2.94-.84-2.94-2.53s1.12-2.46,3.35-2.46l1.23.07c1.46.18,2.39.25,2.81.21l2.87-.8.75-.09c1.64,0,2.46,1.11,2.46,3.33v2.41ZM613.4,87.16c.41-1.37,1.28-2.05,2.64-2.05.68,0,1.31.27,1.89.82.59.55.88,1.19.88,1.92,0,.5-.19,1.26-.58,2.26-.39,1-.83,1.96-1.33,2.87-1.32,2.33-3.32,4.19-5.99,5.58s-5.55,2.09-8.66,2.09c-5.06,0-9.19-1.8-12.39-5.41-3.19-3.6-4.79-8.33-4.79-14.17s1.67-11.02,5-14.85c3.33-3.83,7.69-5.75,13.07-5.75,4.29,0,7.91,1.35,10.88,4.04,3.51,3.06,5.27,7.83,5.27,14.3,0,1.78-.89,2.67-2.68,2.67h-24.7c-.41,0-.67.06-.79.17-.11.11-.17.4-.17.86,0,1.23.23,2.62.69,4.17.46,1.55,1.01,2.83,1.65,3.83.55.73,1.33,1.55,2.34,2.46,1.01.91,1.86,1.51,2.55,1.78,1.15.59,2.71.89,4.68.89,2.34,0,4.43-.59,6.26-1.78,1.84-1.19,3.03-2.74,3.58-4.65l.69-2.05ZM591.91,75.6v1.23h21.28c.14-.14.21-.37.21-.69,0-1.42-.37-2.95-1.09-4.58-.73-1.63-1.64-2.93-2.74-3.89-1.64-1.51-3.88-2.27-6.71-2.27-3.01,0-5.43.94-7.25,2.81-1.09,1.09-1.98,2.34-2.67,3.73-.68,1.39-1.03,2.61-1.03,3.66ZM624.76,105.77l.55.72c.41.61,1.78.92,4.11.92,2.1,0,3.99-.66,5.68-1.96,1.14-.9,2.14-2.12,3.01-3.66.87-1.54,1.3-2.87,1.3-4,0-.95-.32-2.23-.96-3.86l-10.33-24.7-.79-1.78c-.33-1.1-1.05-1.64-2.14-1.64l-.43.05-2.6.23h-.27c-.67,0-1.27-.22-1.8-.67-.53-.45-.8-1.01-.8-1.69,0-.72.31-1.36.92-1.92.62-.56,1.33-.84,2.16-.84.32,0,.79.02,1.4.07.62.05,1.22.11,1.81.21.59.09,1.17.15,1.75.17.57.02,1.15.03,1.75.03h3.83c1-.14,1.69-.23,2.05-.27l2.4-.21c2.23,0,3.35.88,3.35,2.63s-.87,2.5-2.6,2.5h-.41l-2.12-.21h-.41c-.91,0-1.37.3-1.37.89,0,.46.22,1.19.66,2.2l8.04,21.89.35,1.02.46,1.45.45-1.59.32-1.03,8.25-22.09c.33-.64.49-1.3.49-1.98,0-.64-.53-.96-1.57-.96-.23.04-.37.08-.41.12l-2.26.29h-.48c-1.69,0-2.53-.75-2.53-2.26,0-.78.26-1.45.79-2.02.52-.57,1.2-.86,2.02-.86.64,0,1.64.1,3.01.31,1.37.21,2.65.31,3.83.31,1.09,0,2.12-.04,3.08-.14,1.41-.23,2.6-.39,3.56-.48h1.16c.87,0,1.57.28,2.12.83.55.56.82,1.25.82,2.08,0,1.48-.78,2.22-2.33,2.22-.5,0-1.3-.11-2.4-.34l-.55-.07c-.37,0-.74.28-1.13.84-.39.56-.83,1.47-1.33,2.72l-11.02,26.21c-.55,1.36-1.05,2.52-1.51,3.48-.46.95-.82,1.7-1.09,2.25-1.19,2.59-2.78,4.88-4.79,6.88-3.1,3-6.68,4.5-10.74,4.5-3.1,0-5.71-.78-7.84-2.33-2.12-1.55-3.18-3.47-3.18-5.75,0-1.46.48-2.71,1.44-3.76.96-1.05,2.12-1.57,3.49-1.57,1.05,0,1.99.36,2.81,1.1.82.73,1.23,1.57,1.23,2.53v1.03l-.51.82c-.24.32-.44.5-.58.55l-1.17.62Z"/>
    <path class="cls-3" d="M225.9,149.99l2.81-.05v-17.64l-2.81-.03v-.71h9.39v.71l-2.73.03v17.43h2.47c2.81,0,4.52-.58,5.23-1.74.5-.81.76-1.81,1.08-4.02h.71c-.18,2.76-.32,4.6-.42,6.76-4.23-.08-7.23-.08-10.2-.08-2.18,0-4.13.03-5.52.03v-.68ZM242.68,149.96l1.45-.03c.45,0,.71-.11.87-.37.18-.29.74-1.66,1.39-3.73l2.73-8.6c.74-2.34,1.26-4.05,1.79-5.99h1.89c.5,1.71.97,3.18,1.45,4.57l2.6,7.65c.79,2.34,1.52,4.5,2.29,6.47l2.31.03v.71h-9.1v-.71l2.6-.03-1.92-6.1h-5.02l-.84,2.76c-.71,2.29-.87,2.73-.87,2.97,0,.26.21.37.71.37l1.79.03v.71h-6.13v-.71ZM252.77,143.08l-2.26-7.31-2.26,7.31h4.52ZM262.13,149.96l2.71-.03v-17.64l-2.71-.03v-.71h9.31v.71l-2.71.03v17.64l2.71.03v.71h-9.31v-.71ZM273.41,149.96l1.76-.03c.71,0,1-.18,1-.6l.03-16.85c-.63-.18-.97-.24-2.58-.24v-.68h3.5c1.16,0,2.18-.03,3.44-.08l4.18,13.07,2.84-7.76c.34-.89.68-1.89,1.74-5.28.71.05,1.37.05,1.95.05h4.76v.71l-2.68.05.03,17.61,2.73.03v.71h-9.15v-.71l2.79-.03-.03-17.17c-.53,1.76-1.13,3.68-1.58,4.97l-3.37,9.68c-.24.68-.45,1.45-.97,3.26h-.79c-.58-1.95-.84-2.87-1.16-3.79l-3.1-9.33c-.45-1.37-1-3.05-1.66-5.07v16.85c0,.45.24.6.89.6l1.84.03v.71h-6.42v-.71ZM298.54,150.31c.05-.79.11-1.74.11-2.55,0-.89-.05-2.1-.16-3.42l.79-.13c.18,1.79.71,3.21,1.53,4.21.92,1.1,2.21,1.68,3.76,1.68,2.42,0,4.26-1.55,4.26-3.55,0-.81-.32-1.52-.92-2.05-.63-.58-1.21-.84-3.39-1.47-1.95-.58-3.21-1.18-4.15-1.97-1.16-1-1.87-2.6-1.87-4.26,0-3.15,2.55-5.6,5.81-5.6,1.42,0,2.16.24,4,1.24l.79-.84.53.13c-.05.87-.08,1.58-.08,2.37,0,.95.05,1.89.08,3.02l-.81.13c-.13-1.6-.39-2.44-1.03-3.42-.74-1.1-2.1-1.81-3.5-1.81-2.05,0-3.58,1.37-3.58,3.18,0,.92.42,1.76,1.16,2.26.58.42,1.26.71,3.05,1.29,2.34.76,3.31,1.24,4.29,2.02,1.21,1.03,1.81,2.42,1.81,4.1,0,3.55-2.73,6.15-6.44,6.15-1.6,0-2.66-.34-4.65-1.58l-.74,1.16-.63-.29ZM341.74,150.44c-.95.32-1.68.45-2.47.45-1.37,0-2.42-.42-3.05-1.21-.53-.71-.71-1.45-.84-3.6-.13-1.71-.29-2.39-.68-3.15-.55-1.05-1.55-1.63-2.71-1.63h-1.84v8.65l2.63.03v.71h-9.15v-.71l2.66-.03c.05-1.08.08-2.16.08-3.23v-14.35l-2.5-.08v-.71c.68.03,1.76.08,2.71.08,2.63,0,4.21-.18,6.65-.18,2.26,0,3.76.47,4.81,1.5.84.81,1.29,1.92,1.29,3.13,0,1.92-1.05,3.37-2.94,4.15-.92.37-1.5.47-3.13.6,1.97.37,3,.68,3.84,1.18,1.45.89,1.84,1.81,2,4.65.08,1.55.16,2.08.29,2.5.13.5.53.79,1.03.79.34,0,.6-.05,1.26-.29l.08.76ZM331.91,140.5c2.45,0,3.89-1.6,3.89-4.26s-1.47-4.1-4.36-4.1c-.55,0-1.03.1-1.16.26-.11.13-.13.32-.13.89v7.2h1.76ZM342.9,149.96l2.73-.05v-17.56l-2.55-.08v-.71c1.13.05,2.42.08,4.57.08,2.79,0,6.28-.05,10.36-.16,0,1.92.1,3.71.24,5.23l-.66.05c-.42-2.1-.82-2.89-1.71-3.5-.84-.58-2.08-.84-4.05-.84-.55,0-.89,0-2.37.05v7.81c2.18-.05,2.6-.1,3.31-.53.82-.45,1.21-1.42,1.24-3h.68c-.08,1.55-.08,2.39-.08,3.68,0,1.1,0,2.08.08,4.05h-.71c-.16-1.89-.42-2.68-1.13-3.02-.68-.37-1.05-.42-3.39-.5v8.75h1.21c2.68,0,3.52-.08,4.52-.37,2.1-.6,2.71-1.47,3.26-4.76h.74c-.18,2.26-.29,3.65-.47,6.1-4.05-.08-7.91-.1-11.59-.1-2.18,0-3.13.05-4.23.08v-.71ZM376.86,131.72l.63.08c-.11,1.13-.18,2.34-.18,3.52v2.84l-.79.03c-.08-2.02-.32-3.02-.97-4.1-.76-1.21-2.42-2.08-4-2.08-1.74,0-3.63,1.08-4.55,2.55-.92,1.5-1.39,3.84-1.39,6.76,0,2.66.42,4.65,1.31,6.13.97,1.58,2.97,2.71,4.76,2.71,1.6,0,3.29-.92,4.08-2.21.66-1.1.97-2.18,1.29-4.34h.68c-.11,1.89-.16,3.23-.16,4.05s.03,1.76.05,2.6l-.47.18-.89-1c-2.23,1.29-3.39,1.63-5.44,1.63-5.68,0-9.6-3.97-9.6-9.7s4.1-10.2,9.57-10.2c2.13,0,3.84.55,5.42,1.74l.66-1.18ZM399.24,141.18c0,5.42-4.39,9.89-9.73,9.89s-9.57-4.44-9.57-9.86,4.29-10.04,9.39-10.04c5.55,0,9.91,4.44,9.91,10.02ZM392.69,148.97c1.26-1.47,2.16-4.92,2.16-8.23,0-5.44-2.08-8.89-5.31-8.89-1.42,0-2.76.71-3.63,1.95-1.08,1.52-1.55,3.73-1.55,7.39,0,3.23.5,5.52,1.5,7.05.95,1.39,2.31,2.18,3.84,2.18,1.18,0,2.18-.5,3-1.45ZM418.11,132.3c-.37,0-.63.16-.76.45-.08.16-.24.66-.47,1.37-.34,1.16-.76,2.5-1.26,4l-2.89,9.07c-.34,1.1-.68,2.34-1.1,4.08h-2.16c-.47-1.6-.92-2.87-1.37-4.13l-3.31-9.6c-.53-1.55-1.16-3.18-2-5.23l-2.45-.03v-.71h9.6v.71l-2.84.03c.32,1.34.97,3.39,1.55,5.1l3.31,9.89,2.87-9.49c.55-1.79.87-2.92,1.16-4,.16-.63.24-.95.24-1.1,0-.29-.21-.39-.92-.39l-1.89-.03v-.71h6.57v.71l-1.87.03ZM421.22,149.96l2.73-.05v-17.56l-2.55-.08v-.71c1.13.05,2.42.08,4.57.08,2.79,0,6.28-.05,10.36-.16,0,1.92.1,3.71.24,5.23l-.66.05c-.42-2.1-.82-2.89-1.71-3.5-.84-.58-2.08-.84-4.05-.84-.55,0-.89,0-2.37.05v7.81c2.18-.05,2.6-.1,3.31-.53.82-.45,1.21-1.42,1.24-3h.68c-.08,1.55-.08,2.39-.08,3.68,0,1.1,0,2.08.08,4.05h-.71c-.16-1.89-.42-2.68-1.13-3.02-.68-.37-1.05-.42-3.39-.5v8.75h1.21c2.68,0,3.52-.08,4.52-.37,2.1-.6,2.71-1.47,3.26-4.76h.74c-.18,2.26-.29,3.65-.47,6.1-4.05-.08-7.91-.1-11.59-.1-2.18,0-3.13.05-4.23.08v-.71ZM457.47,150.44c-.95.32-1.68.45-2.47.45-1.37,0-2.42-.42-3.05-1.21-.53-.71-.71-1.45-.84-3.6-.13-1.71-.29-2.39-.68-3.15-.55-1.05-1.55-1.63-2.71-1.63h-1.84v8.65l2.63.03v.71h-9.15v-.71l2.66-.03c.05-1.08.08-2.16.08-3.23v-14.35l-2.5-.08v-.71c.68.03,1.76.08,2.71.08,2.63,0,4.21-.18,6.65-.18,2.26,0,3.76.47,4.81,1.5.84.81,1.29,1.92,1.29,3.13,0,1.92-1.05,3.37-2.94,4.15-.92.37-1.5.47-3.13.6,1.97.37,3,.68,3.84,1.18,1.45.89,1.84,1.81,2,4.65.08,1.55.16,2.08.29,2.5.13.5.53.79,1.03.79.34,0,.6-.05,1.26-.29l.08.76ZM447.64,140.5c2.45,0,3.89-1.6,3.89-4.26s-1.47-4.1-4.36-4.1c-.55,0-1.03.1-1.16.26-.11.13-.13.32-.13.89v7.2h1.76ZM475.24,132.3c-.6,0-.74.16-1.39,1.37l-4.47,8.23v8.02l2.87.05v.71h-9.49v-.71l2.84-.05v-7.91l-5.31-9.7-2.13-.03v-.71h8.86v.71l-2.42.03,4.29,8.73,3.92-7.6c.18-.37.32-.68.32-.81,0-.21-.16-.32-.5-.32l-1.71-.03v-.71h5.84v.71l-1.5.03ZM489.02,150.31c.05-.79.11-1.74.11-2.55,0-.89-.05-2.1-.16-3.42l.79-.13c.18,1.79.71,3.21,1.53,4.21.92,1.1,2.21,1.68,3.76,1.68,2.42,0,4.26-1.55,4.26-3.55,0-.81-.32-1.52-.92-2.05-.63-.58-1.21-.84-3.39-1.47-1.95-.58-3.21-1.18-4.15-1.97-1.16-1-1.87-2.6-1.87-4.26,0-3.15,2.55-5.6,5.81-5.6,1.42,0,2.16.24,4,1.24l.79-.84.53.13c-.05.87-.08,1.58-.08,2.37,0,.95.05,1.89.08,3.02l-.81.13c-.13-1.6-.39-2.44-1.03-3.42-.74-1.1-2.1-1.81-3.5-1.81-2.05,0-3.58,1.37-3.58,3.18,0,.92.42,1.76,1.16,2.26.58.42,1.26.71,3.05,1.29,2.34.76,3.31,1.24,4.29,2.02,1.21,1.03,1.81,2.42,1.81,4.1,0,3.55-2.73,6.15-6.44,6.15-1.6,0-2.66-.34-4.65-1.58l-.74,1.16-.63-.29ZM503.43,149.96l2.73-.05v-17.56l-2.55-.08v-.71c1.13.05,2.42.08,4.57.08,2.79,0,6.28-.05,10.36-.16,0,1.92.1,3.71.24,5.23l-.66.05c-.42-2.1-.82-2.89-1.71-3.5-.84-.58-2.08-.84-4.05-.84-.55,0-.89,0-2.37.05v7.81c2.18-.05,2.6-.1,3.31-.53.82-.45,1.21-1.42,1.24-3h.68c-.08,1.55-.08,2.39-.08,3.68,0,1.1,0,2.08.08,4.05h-.71c-.16-1.89-.42-2.68-1.13-3.02-.68-.37-1.05-.42-3.39-.5v8.75h1.21c2.68,0,3.52-.08,4.52-.37,2.1-.6,2.71-1.47,3.26-4.76h.74c-.18,2.26-.29,3.65-.47,6.1-4.05-.08-7.91-.1-11.59-.1-2.18,0-3.13.05-4.23.08v-.71ZM539.68,150.44c-.95.32-1.68.45-2.47.45-1.37,0-2.42-.42-3.05-1.21-.53-.71-.71-1.45-.84-3.6-.13-1.71-.29-2.39-.68-3.15-.55-1.05-1.55-1.63-2.71-1.63h-1.84v8.65l2.63.03v.71h-9.15v-.71l2.66-.03c.05-1.08.08-2.16.08-3.23v-14.35l-2.5-.08v-.71c.68.03,1.76.08,2.71.08,2.63,0,4.21-.18,6.65-.18,2.26,0,3.76.47,4.81,1.5.84.81,1.29,1.92,1.29,3.13,0,1.92-1.05,3.37-2.94,4.15-.92.37-1.5.47-3.13.6,1.97.37,3,.68,3.84,1.18,1.45.89,1.84,1.81,2,4.65.08,1.55.16,2.08.29,2.5.13.5.53.79,1.03.79.34,0,.6-.05,1.26-.29l.08.76ZM529.85,140.5c2.45,0,3.89-1.6,3.89-4.26s-1.47-4.1-4.36-4.1c-.55,0-1.03.1-1.16.26-.11.13-.13.32-.13.89v7.2h1.76ZM557.88,132.3c-.37,0-.63.16-.76.45-.08.16-.24.66-.47,1.37-.34,1.16-.76,2.5-1.26,4l-2.89,9.07c-.34,1.1-.68,2.34-1.1,4.08h-2.16c-.47-1.6-.92-2.87-1.37-4.13l-3.31-9.6c-.53-1.55-1.16-3.18-2-5.23l-2.44-.03v-.71h9.6v.71l-2.84.03c.32,1.34.97,3.39,1.55,5.1l3.31,9.89,2.87-9.49c.55-1.79.87-2.92,1.16-4,.16-.63.24-.95.24-1.1,0-.29-.21-.39-.92-.39l-1.89-.03v-.71h6.57v.71l-1.87.03ZM560.98,149.96l2.71-.03v-17.64l-2.71-.03v-.71h9.31v.71l-2.71.03v17.64l2.71.03v.71h-9.31v-.71ZM588.09,131.72l.63.08c-.11,1.13-.18,2.34-.18,3.52v2.84l-.79.03c-.08-2.02-.32-3.02-.97-4.1-.76-1.21-2.42-2.08-4-2.08-1.74,0-3.63,1.08-4.55,2.55-.92,1.5-1.39,3.84-1.39,6.76,0,2.66.42,4.65,1.31,6.13.97,1.58,2.97,2.71,4.76,2.71,1.6,0,3.29-.92,4.08-2.21.66-1.1.97-2.18,1.29-4.34h.68c-.11,1.89-.16,3.23-.16,4.05s.03,1.76.05,2.6l-.47.18-.89-1c-2.23,1.29-3.39,1.63-5.44,1.63-5.68,0-9.6-3.97-9.6-9.7s4.1-10.2,9.57-10.2c2.13,0,3.84.55,5.42,1.74l.66-1.18ZM590.98,149.96l2.73-.05v-17.56l-2.55-.08v-.71c1.13.05,2.42.08,4.57.08,2.79,0,6.28-.05,10.36-.16,0,1.92.1,3.71.24,5.23l-.66.05c-.42-2.1-.82-2.89-1.71-3.5-.84-.58-2.08-.84-4.05-.84-.55,0-.89,0-2.37.05v7.81c2.18-.05,2.6-.1,3.31-.53.82-.45,1.21-1.42,1.24-3h.68c-.08,1.55-.08,2.39-.08,3.68,0,1.1,0,2.08.08,4.05h-.71c-.16-1.89-.42-2.68-1.13-3.02-.68-.37-1.05-.42-3.39-.5v8.75h1.21c2.68,0,3.52-.08,4.52-.37,2.1-.6,2.71-1.47,3.26-4.76h.74c-.18,2.26-.29,3.65-.47,6.1-4.05-.08-7.91-.1-11.59-.1-2.18,0-3.13.05-4.23.08v-.71ZM609.57,150.31c.05-.79.11-1.74.11-2.55,0-.89-.05-2.1-.16-3.42l.79-.13c.18,1.79.71,3.21,1.53,4.21.92,1.1,2.21,1.68,3.76,1.68,2.42,0,4.26-1.55,4.26-3.55,0-.81-.32-1.52-.92-2.05-.63-.58-1.21-.84-3.39-1.47-1.95-.58-3.21-1.18-4.15-1.97-1.16-1-1.87-2.6-1.87-4.26,0-3.15,2.55-5.6,5.81-5.6,1.42,0,2.16.24,4,1.24l.79-.84.53.13c-.05.87-.08,1.58-.08,2.37,0,.95.05,1.89.08,3.02l-.81.13c-.13-1.6-.39-2.44-1.03-3.42-.74-1.1-2.1-1.81-3.5-1.81-2.05,0-3.58,1.37-3.58,3.18,0,.92.42,1.76,1.16,2.26.58.42,1.26.71,3.05,1.29,2.34.76,3.31,1.24,4.29,2.02,1.21,1.03,1.81,2.42,1.81,4.1,0,3.55-2.73,6.15-6.44,6.15-1.6,0-2.66-.34-4.65-1.58l-.74,1.16-.63-.29ZM220.26,121.46l.97.12c-.16,1.74-.28,3.6-.28,5.42v4.37l-1.21.04c-.12-3.12-.49-4.66-1.5-6.31-1.17-1.86-3.72-3.2-6.15-3.2-2.67,0-5.59,1.66-7,3.93-1.42,2.31-2.15,5.91-2.15,10.4,0,4.09.65,7.17,2.02,9.43,1.5,2.43,4.57,4.17,7.33,4.17,2.47,0,5.06-1.42,6.27-3.4,1.01-1.7,1.5-3.36,1.98-6.68h1.05c-.16,2.91-.24,4.98-.24,6.23s.04,2.71.08,4.01l-.73.28-1.38-1.54c-3.44,1.98-5.22,2.51-8.38,2.51-8.74,0-14.78-6.11-14.78-14.94s6.32-15.71,14.74-15.71c3.28,0,5.91.85,8.34,2.67l1.01-1.82Z"/>
    <g>
      <path class="cls-1" d="M60.74,157.39C25.87,148.83,0,117.36,0,79.85,0,35.75,35.75,0,79.85,0s79.85,35.75,79.85,79.85c0,37.51-25.87,68.98-60.74,77.54v-3.83c26.18-8.57,45.2-34.27,45.2-64.64,0-37.38-28.79-67.68-64.31-67.68S15.54,51.54,15.54,88.92c0,30.37,19.02,56.07,45.2,64.64"/>
      <path class="cls-2" d="M113.2,66.54v30.81l-31.23-29.96c-1.17-1.12-3.07-1.12-4.24,0l-31.23,29.96v-30.81l31.23-29.96c1.17-1.12,3.07-1.12,4.24,0l31.23,29.96Z"/>
      <circle class="cls-2" cx="79.85" cy="107.65" r="13.47"/>
      <circle class="cls-2" cx="79.85" cy="135.53" r="9.84"/>
      <circle class="cls-2" cx="79.85" cy="156.58" r="6.52"/>
      <circle class="cls-2" cx="79.85" cy="171.86" r="4.06"/>
      <polygon class="cls-2" points="142.96 185.54 12.42 185.54 16.74 180.08 147.28 180.08 142.96 185.54"/>
    </g>
  </g>
</svg>